G04 #@! TF.FileFunction,Copper,L1,Top,Signal*
%FSLAX46Y46*%
G04 Gerber Fmt 4.6, Leading zero omitted, Abs format (unit mm)*
G04 Created by KiCad (PCBNEW 4.0.7) date 03/25/18 12:18:46*
%MOMM*%
%LPD*%
G01*
G04 APERTURE LIST*
%ADD10C,0.100000*%
%ADD11R,1.250000X1.500000*%
%ADD12R,1.700000X3.300000*%
%ADD13R,1.700000X1.700000*%
%ADD14O,1.700000X1.700000*%
%ADD15R,1.300000X1.500000*%
%ADD16C,1.800000*%
%ADD17C,3.000000*%
%ADD18R,1.500000X0.600000*%
%ADD19R,0.650000X2.000000*%
%ADD20C,1.524000*%
%ADD21C,0.400000*%
%ADD22C,0.300000*%
%ADD23C,0.200000*%
%ADD24C,0.254000*%
G04 APERTURE END LIST*
D10*
D11*
X8550000Y10725000D03*
X8550000Y13225000D03*
X33575000Y24900000D03*
X33575000Y22400000D03*
X4575000Y22875000D03*
X4575000Y25375000D03*
X24600000Y22125000D03*
X24600000Y24625000D03*
X35525000Y8925000D03*
X35525000Y11425000D03*
X35575000Y16625000D03*
X35575000Y14125000D03*
D12*
X30425000Y20600000D03*
X30425000Y26100000D03*
X7525000Y21750000D03*
X7525000Y27250000D03*
X21900000Y20775000D03*
X21900000Y26275000D03*
D13*
X7560000Y4525000D03*
D14*
X10100000Y4525000D03*
X12640000Y4525000D03*
X15180000Y4525000D03*
X17720000Y4525000D03*
X20260000Y4525000D03*
X22800000Y4525000D03*
D13*
X26835000Y4525000D03*
D14*
X29375000Y4525000D03*
X31915000Y4525000D03*
X34455000Y4525000D03*
D15*
X27025000Y21900000D03*
X27025000Y24600000D03*
X27100000Y29950000D03*
X27100000Y27250000D03*
X7425000Y33500000D03*
X7425000Y30800000D03*
X21950000Y32975000D03*
X21950000Y30275000D03*
X10275000Y25625000D03*
X10275000Y22925000D03*
X18375000Y24750000D03*
X18375000Y22050000D03*
D16*
X13250000Y48450000D03*
X13250000Y33950000D03*
X15750000Y33950000D03*
X18250000Y33950000D03*
X18250000Y48450000D03*
D17*
X21350000Y41450000D03*
X10150000Y41450000D03*
D18*
X16775000Y10340000D03*
X16775000Y11610000D03*
X16775000Y12880000D03*
X16775000Y14150000D03*
X16775000Y15420000D03*
X16775000Y16690000D03*
X16775000Y17960000D03*
X11375000Y17960000D03*
X11375000Y16690000D03*
X11375000Y15420000D03*
X11375000Y14150000D03*
X11375000Y12880000D03*
X11375000Y11610000D03*
X11375000Y10340000D03*
D19*
X32225000Y14610000D03*
X30325000Y14610000D03*
X31275000Y11190000D03*
D20*
X31775000Y7750000D03*
X26695000Y7750000D03*
D21*
X15625000Y17960000D02*
X13807346Y16142346D01*
X13807346Y16142346D02*
X13807346Y8032346D01*
X13807346Y8032346D02*
X12750000Y6975000D01*
X8550000Y13225000D02*
X8550000Y14375000D01*
X8550000Y14375000D02*
X2875000Y20050000D01*
X2875000Y20050000D02*
X2875000Y25000000D01*
X2875000Y25000000D02*
X3250000Y25375000D01*
X3250000Y25375000D02*
X4575000Y25375000D01*
X11475000Y34950000D02*
X12500000Y35975000D01*
X12500000Y35975000D02*
X16400000Y35975000D01*
X11475000Y33875000D02*
X11475000Y34950000D01*
X9849999Y32249999D02*
X11475000Y33875000D01*
X5275000Y31300000D02*
X6224999Y32249999D01*
X6224999Y32249999D02*
X9849999Y32249999D01*
X5275000Y27225000D02*
X5275000Y31300000D01*
X4575000Y25375000D02*
X4575000Y26525000D01*
X4575000Y26525000D02*
X5275000Y27225000D01*
X15750000Y33950000D02*
X15750000Y35222792D01*
X23825000Y26550000D02*
X24600000Y25775000D01*
X15750000Y35222792D02*
X16000000Y35472792D01*
X19875000Y35500000D02*
X19875000Y31874998D01*
X22800003Y31724999D02*
X23825000Y30700002D01*
X16000000Y35472792D02*
X16000000Y35575000D01*
X16000000Y35575000D02*
X16400000Y35975000D01*
X16400000Y35975000D02*
X19400000Y35975000D01*
X19400000Y35975000D02*
X19875000Y35500000D01*
X19875000Y31874998D02*
X19725001Y31724999D01*
X19725001Y31724999D02*
X22800003Y31724999D01*
X23825000Y30700002D02*
X23825000Y26550000D01*
X24600000Y25775000D02*
X24600000Y24625000D01*
X15550000Y22775000D02*
X15550000Y18035000D01*
X15550000Y18035000D02*
X15625000Y17960000D01*
X16075001Y23300001D02*
X15550000Y22775000D01*
X24600000Y24625000D02*
X23575000Y24625000D01*
X23575000Y24625000D02*
X22250001Y23300001D01*
X22250001Y23300001D02*
X16075001Y23300001D01*
X33575000Y22400000D02*
X32550000Y22400000D01*
X32550000Y22400000D02*
X31600001Y23349999D01*
X31600001Y23349999D02*
X25750001Y23349999D01*
X25750001Y23349999D02*
X24600000Y24500000D01*
X24600000Y24500000D02*
X24600000Y24625000D01*
X15750000Y33950000D02*
X15750000Y28799998D01*
X15750000Y28799998D02*
X11175002Y24225000D01*
X11175002Y24225000D02*
X5600000Y24225000D01*
X5600000Y24225000D02*
X4575000Y25250000D01*
X4575000Y25250000D02*
X4575000Y25375000D01*
D22*
X11000000Y2175000D02*
X8860000Y2175000D01*
X8860000Y2175000D02*
X7560000Y3475000D01*
D23*
X7560000Y3475000D02*
X7560000Y4525000D01*
D22*
X11389999Y2564999D02*
X11000000Y2175000D01*
X12750000Y6975000D02*
X11389999Y5614999D01*
X11389999Y5614999D02*
X11389999Y2564999D01*
D21*
X16775000Y17960000D02*
X15625000Y17960000D01*
X17350001Y47550001D02*
X17350001Y40549999D01*
X17350001Y40549999D02*
X17825000Y40075000D01*
X18250000Y48450000D02*
X17350001Y47550001D01*
X21100000Y36800000D02*
X17825000Y40075000D01*
X17825000Y40075000D02*
X17700000Y40200000D01*
X22550002Y36800000D02*
X21100000Y36800000D01*
X30425000Y26100000D02*
X30425000Y28925002D01*
X30425000Y28925002D02*
X22550002Y36800000D01*
X27025000Y24600000D02*
X27025000Y27175000D01*
X27025000Y27175000D02*
X27100000Y27250000D01*
X30400000Y26125000D02*
X30425000Y26100000D01*
X33575000Y24900000D02*
X31625000Y24900000D01*
X31625000Y24900000D02*
X30425000Y26100000D01*
X27025000Y24600000D02*
X28925000Y24600000D01*
X28925000Y24600000D02*
X30425000Y26100000D01*
X11375000Y16690000D02*
X10225000Y16690000D01*
X10225000Y16690000D02*
X7525000Y19390000D01*
X7525000Y19390000D02*
X7525000Y19700000D01*
X7525000Y19700000D02*
X7525000Y21750000D01*
X10275000Y22925000D02*
X8700000Y22925000D01*
X8700000Y22925000D02*
X7525000Y21750000D01*
X4575000Y22875000D02*
X6400000Y22875000D01*
X6400000Y22875000D02*
X7525000Y21750000D01*
X16775000Y15420000D02*
X17925000Y15420000D01*
X17925000Y15420000D02*
X21900000Y19395000D01*
X21900000Y19395000D02*
X21900000Y20775000D01*
X24600000Y22125000D02*
X23250000Y22125000D01*
X23250000Y22125000D02*
X21900000Y20775000D01*
X18375000Y22050000D02*
X18375000Y21950000D01*
X18375000Y21950000D02*
X19550000Y20775000D01*
X19550000Y20775000D02*
X20650000Y20775000D01*
X20650000Y20775000D02*
X21900000Y20775000D01*
X16775000Y10340000D02*
X17925000Y10340000D01*
X27025000Y20750000D02*
X27025000Y21900000D01*
X17925000Y10340000D02*
X27025000Y19440000D01*
X27025000Y19440000D02*
X27025000Y20750000D01*
X30425000Y20600000D02*
X28325000Y20600000D01*
X28325000Y20600000D02*
X27025000Y21900000D01*
X7525000Y27250000D02*
X8650000Y27250000D01*
X8650000Y27250000D02*
X10275000Y25625000D01*
X13250000Y33950000D02*
X13250000Y32677208D01*
X13250000Y32677208D02*
X11372792Y30800000D01*
X11372792Y30800000D02*
X8475000Y30800000D01*
X8475000Y30800000D02*
X7425000Y30800000D01*
X7525000Y27250000D02*
X7525000Y30700000D01*
X7525000Y30700000D02*
X7425000Y30800000D01*
X21900000Y26275000D02*
X19800000Y26275000D01*
X19800000Y26275000D02*
X18375000Y24850000D01*
X18375000Y24850000D02*
X18375000Y24750000D01*
X21900000Y26275000D02*
X21900000Y30225000D01*
X21900000Y30225000D02*
X21950000Y30275000D01*
X18625000Y30275000D02*
X18250000Y30650000D01*
X18250000Y30650000D02*
X18250000Y33950000D01*
X21950000Y30275000D02*
X18625000Y30275000D01*
X15625000Y11610000D02*
X16775000Y11610000D01*
X15180000Y5727081D02*
X15207368Y5754449D01*
X15207368Y5754449D02*
X15207368Y11192368D01*
X15180000Y4525000D02*
X15180000Y5727081D01*
X15207368Y11192368D02*
X15625000Y11610000D01*
X15005704Y4699296D02*
X15180000Y4525000D01*
X13489999Y5374999D02*
X12640000Y4525000D01*
X14507357Y6392357D02*
X13489999Y5374999D01*
X16775000Y16690000D02*
X15625000Y16690000D01*
X14507357Y15572357D02*
X14507357Y6392357D01*
X15625000Y16690000D02*
X14507357Y15572357D01*
X11375000Y17960000D02*
X12525000Y17960000D01*
X10100000Y5727081D02*
X10100000Y4525000D01*
X12525000Y17960000D02*
X13107335Y17377665D01*
X13107335Y17377665D02*
X13107335Y8734416D01*
X13107335Y8734416D02*
X10100000Y5727081D01*
X16125000Y49925000D02*
X16125000Y37832984D01*
X19600000Y50550000D02*
X16750000Y50550000D01*
X16750000Y50550000D02*
X16125000Y49925000D01*
X20609975Y49540025D02*
X19600000Y50550000D01*
X20609975Y48059975D02*
X20609975Y49540025D01*
X30325000Y15285000D02*
X32640000Y17600000D01*
X35575000Y16625000D02*
X34550000Y16625000D01*
X32640000Y17600000D02*
X35587593Y20547593D01*
X33575000Y17600000D02*
X32640000Y17600000D01*
X34550000Y16625000D02*
X33575000Y17600000D01*
X2124989Y17275011D02*
X8550000Y10850000D01*
X2124989Y29249989D02*
X2124989Y17275011D01*
X8550000Y10850000D02*
X8550000Y10725000D01*
X6375000Y33500000D02*
X2124989Y29249989D01*
X7425000Y33500000D02*
X6375000Y33500000D01*
X7425000Y33500000D02*
X8475000Y33500000D01*
X8475000Y33500000D02*
X11003014Y36028014D01*
X11003014Y36028014D02*
X11003014Y36037825D01*
X11003014Y36037825D02*
X11754005Y36788816D01*
X17550351Y36788816D02*
X17597249Y36741918D01*
X11754005Y36788816D02*
X17550351Y36788816D01*
X30325000Y14610000D02*
X30325000Y15285000D01*
X35587593Y20547593D02*
X35587593Y25757505D01*
X19867449Y36757551D02*
X21950000Y34675000D01*
X35587593Y25757505D02*
X22995098Y38350000D01*
X22995098Y38350000D02*
X20750000Y38350000D01*
X20750000Y38350000D02*
X18200000Y40900000D01*
X18200000Y40900000D02*
X18200000Y45650000D01*
X18200000Y45650000D02*
X20609975Y48059975D01*
X21950000Y34675000D02*
X21950000Y32975000D01*
X16125000Y37832984D02*
X17200433Y36757551D01*
X17200433Y36757551D02*
X19867449Y36757551D01*
X11375000Y10340000D02*
X8935000Y10340000D01*
X8935000Y10340000D02*
X8550000Y10725000D01*
X27100000Y30050000D02*
X24175000Y32975000D01*
X24175000Y32975000D02*
X21950000Y32975000D01*
X27100000Y29950000D02*
X27100000Y30050000D01*
X29375000Y4525000D02*
X29375000Y7631691D01*
X17720000Y5792854D02*
X17720000Y4525000D01*
X29375000Y7631691D02*
X27601447Y9405244D01*
X27601447Y9405244D02*
X21332390Y9405244D01*
X21332390Y9405244D02*
X17720000Y5792854D01*
X28999639Y4900361D02*
X29375000Y4525000D01*
X35525000Y8925000D02*
X32865000Y8925000D01*
X32865000Y8925000D02*
X31275000Y10515000D01*
X31275000Y10515000D02*
X31275000Y11190000D01*
X31775000Y7750000D02*
X31775000Y10690000D01*
X31775000Y10690000D02*
X31275000Y11190000D01*
X26835000Y4525000D02*
X26835000Y7610000D01*
X26835000Y7610000D02*
X26695000Y7750000D01*
X22800000Y4525000D02*
X24002081Y4525000D01*
X24002081Y4525000D02*
X26835000Y4525000D01*
X20260000Y4525000D02*
X20260000Y3088880D01*
X20260000Y3088880D02*
X20932736Y2416144D01*
X20932736Y2416144D02*
X31097625Y2416144D01*
X31097625Y2416144D02*
X31895450Y3213969D01*
X31895450Y3213969D02*
X31895450Y4505450D01*
X31895450Y4505450D02*
X31915000Y4525000D01*
D24*
G36*
X37049149Y51998803D02*
X37158998Y39990579D01*
X37140337Y709516D01*
X685000Y685501D01*
X685000Y4239250D01*
X6075000Y4239250D01*
X6075000Y3548691D01*
X6171673Y3315302D01*
X6350301Y3136673D01*
X6583690Y3040000D01*
X7274250Y3040000D01*
X7433000Y3198750D01*
X7433000Y4398000D01*
X6233750Y4398000D01*
X6075000Y4239250D01*
X685000Y4239250D01*
X685000Y5501309D01*
X6075000Y5501309D01*
X6075000Y4810750D01*
X6233750Y4652000D01*
X7433000Y4652000D01*
X7433000Y5851250D01*
X7274250Y6010000D01*
X6583690Y6010000D01*
X6350301Y5913327D01*
X6171673Y5734698D01*
X6075000Y5501309D01*
X685000Y5501309D01*
X685000Y29249989D01*
X1289989Y29249989D01*
X1289989Y17275011D01*
X1353550Y16955470D01*
X1438348Y16828561D01*
X1534555Y16684577D01*
X7277560Y10941572D01*
X7277560Y9975000D01*
X7321838Y9739683D01*
X7460910Y9523559D01*
X7673110Y9378569D01*
X7925000Y9327560D01*
X9175000Y9327560D01*
X9410317Y9371838D01*
X9617257Y9505000D01*
X10283203Y9505000D01*
X10373110Y9443569D01*
X10625000Y9392560D01*
X12125000Y9392560D01*
X12272335Y9420283D01*
X12272335Y9080284D01*
X9509566Y6317515D01*
X9328561Y6046622D01*
X9269762Y5751023D01*
X9049946Y5604147D01*
X9020597Y5560223D01*
X8948327Y5734698D01*
X8769699Y5913327D01*
X8536310Y6010000D01*
X7845750Y6010000D01*
X7687000Y5851250D01*
X7687000Y4652000D01*
X7707000Y4652000D01*
X7707000Y4398000D01*
X7687000Y4398000D01*
X7687000Y3198750D01*
X7845750Y3040000D01*
X8536310Y3040000D01*
X8769699Y3136673D01*
X8948327Y3315302D01*
X9020597Y3489777D01*
X9049946Y3445853D01*
X9531715Y3123946D01*
X10100000Y3010907D01*
X10668285Y3123946D01*
X11150054Y3445853D01*
X11370000Y3775026D01*
X11589946Y3445853D01*
X12071715Y3123946D01*
X12640000Y3010907D01*
X13208285Y3123946D01*
X13690054Y3445853D01*
X13910000Y3775026D01*
X14129946Y3445853D01*
X14611715Y3123946D01*
X15180000Y3010907D01*
X15748285Y3123946D01*
X16230054Y3445853D01*
X16450000Y3775026D01*
X16669946Y3445853D01*
X17151715Y3123946D01*
X17720000Y3010907D01*
X18288285Y3123946D01*
X18770054Y3445853D01*
X18990000Y3775026D01*
X19209946Y3445853D01*
X19425000Y3302159D01*
X19425000Y3088880D01*
X19488561Y2769339D01*
X19511048Y2735685D01*
X19669566Y2498446D01*
X20342302Y1825710D01*
X20613195Y1644705D01*
X20932736Y1581144D01*
X31097625Y1581144D01*
X31417166Y1644705D01*
X31688059Y1825710D01*
X32485884Y2623535D01*
X32666889Y2894428D01*
X32730450Y3213969D01*
X32730450Y3289096D01*
X32965054Y3445853D01*
X33192702Y3786553D01*
X33259817Y3643642D01*
X33688076Y3253355D01*
X34098110Y3083524D01*
X34328000Y3204845D01*
X34328000Y4398000D01*
X34582000Y4398000D01*
X34582000Y3204845D01*
X34811890Y3083524D01*
X35221924Y3253355D01*
X35650183Y3643642D01*
X35896486Y4168108D01*
X35775819Y4398000D01*
X34582000Y4398000D01*
X34328000Y4398000D01*
X34308000Y4398000D01*
X34308000Y4652000D01*
X34328000Y4652000D01*
X34328000Y5845155D01*
X34582000Y5845155D01*
X34582000Y4652000D01*
X35775819Y4652000D01*
X35896486Y4881892D01*
X35650183Y5406358D01*
X35221924Y5796645D01*
X34811890Y5966476D01*
X34582000Y5845155D01*
X34328000Y5845155D01*
X34098110Y5966476D01*
X33688076Y5796645D01*
X33259817Y5406358D01*
X33192702Y5263447D01*
X32965054Y5604147D01*
X32483285Y5926054D01*
X31915000Y6039093D01*
X31346715Y5926054D01*
X30864946Y5604147D01*
X30645000Y5274974D01*
X30425054Y5604147D01*
X30210000Y5747841D01*
X30210000Y7631691D01*
X30186467Y7750000D01*
X30146440Y7951231D01*
X29965434Y8222125D01*
X28191881Y9995678D01*
X27920988Y10176683D01*
X27601447Y10240244D01*
X21332390Y10240244D01*
X21012849Y10176683D01*
X20741956Y9995678D01*
X17129566Y6383288D01*
X16948561Y6112395D01*
X16885000Y5792854D01*
X16885000Y5747841D01*
X16669946Y5604147D01*
X16450000Y5274974D01*
X16230054Y5604147D01*
X16037997Y5732475D01*
X16042368Y5754449D01*
X16042368Y9392560D01*
X17525000Y9392560D01*
X17760317Y9436838D01*
X17866244Y9505000D01*
X17925000Y9505000D01*
X18244541Y9568561D01*
X18515434Y9749566D01*
X20955868Y12190000D01*
X30302560Y12190000D01*
X30302560Y10190000D01*
X30346838Y9954683D01*
X30485910Y9738559D01*
X30698110Y9593569D01*
X30940000Y9544585D01*
X30940000Y8890391D01*
X30591371Y8542370D01*
X30378243Y8029100D01*
X30377758Y7473339D01*
X30589990Y6959697D01*
X30982630Y6566371D01*
X31495900Y6353243D01*
X32051661Y6352758D01*
X32565303Y6564990D01*
X32958629Y6957630D01*
X33171757Y7470900D01*
X33172242Y8026661D01*
X33146071Y8090000D01*
X34268554Y8090000D01*
X34296838Y7939683D01*
X34435910Y7723559D01*
X34648110Y7578569D01*
X34900000Y7527560D01*
X36150000Y7527560D01*
X36385317Y7571838D01*
X36601441Y7710910D01*
X36746431Y7923110D01*
X36797440Y8175000D01*
X36797440Y9675000D01*
X36753162Y9910317D01*
X36614090Y10126441D01*
X36545994Y10172969D01*
X36688327Y10315302D01*
X36785000Y10548691D01*
X36785000Y11139250D01*
X36626250Y11298000D01*
X35652000Y11298000D01*
X35652000Y11278000D01*
X35398000Y11278000D01*
X35398000Y11298000D01*
X34423750Y11298000D01*
X34265000Y11139250D01*
X34265000Y10548691D01*
X34361673Y10315302D01*
X34502910Y10174064D01*
X34448559Y10139090D01*
X34303569Y9926890D01*
X34269773Y9760000D01*
X33210868Y9760000D01*
X32610000Y10360868D01*
X32610000Y10690000D01*
X32603038Y10725000D01*
X32546440Y11009540D01*
X32365434Y11280434D01*
X32247440Y11398428D01*
X32247440Y12190000D01*
X32226496Y12301309D01*
X34265000Y12301309D01*
X34265000Y11710750D01*
X34423750Y11552000D01*
X35398000Y11552000D01*
X35398000Y12651250D01*
X35652000Y12651250D01*
X35652000Y11552000D01*
X36626250Y11552000D01*
X36785000Y11710750D01*
X36785000Y12301309D01*
X36688327Y12534698D01*
X36509699Y12713327D01*
X36385807Y12764645D01*
X36559699Y12836673D01*
X36738327Y13015302D01*
X36835000Y13248691D01*
X36835000Y13839250D01*
X36676250Y13998000D01*
X35702000Y13998000D01*
X35702000Y12898750D01*
X35800750Y12800000D01*
X35652000Y12651250D01*
X35398000Y12651250D01*
X35299250Y12750000D01*
X35448000Y12898750D01*
X35448000Y13998000D01*
X34473750Y13998000D01*
X34315000Y13839250D01*
X34315000Y13248691D01*
X34411673Y13015302D01*
X34590301Y12836673D01*
X34714193Y12785355D01*
X34540301Y12713327D01*
X34361673Y12534698D01*
X34265000Y12301309D01*
X32226496Y12301309D01*
X32203162Y12425317D01*
X32064090Y12641441D01*
X31851890Y12786431D01*
X31600000Y12837440D01*
X30950000Y12837440D01*
X30714683Y12793162D01*
X30498559Y12654090D01*
X30353569Y12441890D01*
X30302560Y12190000D01*
X20955868Y12190000D01*
X27615434Y18849566D01*
X27763030Y19070459D01*
X27796439Y19120459D01*
X27860000Y19440000D01*
X27860000Y19925753D01*
X28005460Y19828560D01*
X28325000Y19765000D01*
X28927560Y19765000D01*
X28927560Y18950000D01*
X28971838Y18714683D01*
X29110910Y18498559D01*
X29323110Y18353569D01*
X29575000Y18302560D01*
X31275000Y18302560D01*
X31510317Y18346838D01*
X31726441Y18485910D01*
X31871431Y18698110D01*
X31922440Y18950000D01*
X31922440Y22114250D01*
X32315000Y22114250D01*
X32315000Y21523691D01*
X32411673Y21290302D01*
X32590301Y21111673D01*
X32823690Y21015000D01*
X33289250Y21015000D01*
X33448000Y21173750D01*
X33448000Y22273000D01*
X32473750Y22273000D01*
X32315000Y22114250D01*
X31922440Y22114250D01*
X31922440Y22250000D01*
X31878162Y22485317D01*
X31739090Y22701441D01*
X31526890Y22846431D01*
X31275000Y22897440D01*
X29575000Y22897440D01*
X29339683Y22853162D01*
X29123559Y22714090D01*
X28978569Y22501890D01*
X28927560Y22250000D01*
X28927560Y21435000D01*
X28670868Y21435000D01*
X28322440Y21783428D01*
X28322440Y22650000D01*
X28278162Y22885317D01*
X28139090Y23101441D01*
X27926890Y23246431D01*
X27913803Y23249081D01*
X28126441Y23385910D01*
X28271431Y23598110D01*
X28305227Y23765000D01*
X28925000Y23765000D01*
X29244541Y23828561D01*
X29302769Y23867468D01*
X29323110Y23853569D01*
X29575000Y23802560D01*
X31275000Y23802560D01*
X31510317Y23846838D01*
X31726441Y23985910D01*
X31780481Y24065000D01*
X32318554Y24065000D01*
X32346838Y23914683D01*
X32485910Y23698559D01*
X32554006Y23652031D01*
X32411673Y23509698D01*
X32315000Y23276309D01*
X32315000Y22685750D01*
X32473750Y22527000D01*
X33448000Y22527000D01*
X33448000Y22547000D01*
X33702000Y22547000D01*
X33702000Y22527000D01*
X33722000Y22527000D01*
X33722000Y22273000D01*
X33702000Y22273000D01*
X33702000Y21173750D01*
X33860750Y21015000D01*
X34326310Y21015000D01*
X34559699Y21111673D01*
X34738327Y21290302D01*
X34752593Y21324743D01*
X34752593Y20893461D01*
X30116572Y16257440D01*
X30000000Y16257440D01*
X29764683Y16213162D01*
X29548559Y16074090D01*
X29403569Y15861890D01*
X29352560Y15610000D01*
X29352560Y13610000D01*
X29396838Y13374683D01*
X29535910Y13158559D01*
X29748110Y13013569D01*
X30000000Y12962560D01*
X30650000Y12962560D01*
X30885317Y13006838D01*
X31101441Y13145910D01*
X31246431Y13358110D01*
X31269609Y13472565D01*
X31361673Y13250302D01*
X31540301Y13071673D01*
X31773690Y12975000D01*
X31939250Y12975000D01*
X32098000Y13133750D01*
X32098000Y14483000D01*
X32352000Y14483000D01*
X32352000Y13133750D01*
X32510750Y12975000D01*
X32676310Y12975000D01*
X32909699Y13071673D01*
X33088327Y13250302D01*
X33185000Y13483691D01*
X33185000Y14324250D01*
X33026250Y14483000D01*
X32352000Y14483000D01*
X32098000Y14483000D01*
X32078000Y14483000D01*
X32078000Y14737000D01*
X32098000Y14737000D01*
X32098000Y14757000D01*
X32352000Y14757000D01*
X32352000Y14737000D01*
X33026250Y14737000D01*
X33185000Y14895750D01*
X33185000Y15736309D01*
X33088327Y15969698D01*
X32909699Y16148327D01*
X32676310Y16245000D01*
X32510750Y16245000D01*
X32352002Y16086252D01*
X32352002Y16131134D01*
X32985868Y16765000D01*
X33229132Y16765000D01*
X33959566Y16034566D01*
X34230459Y15853561D01*
X34309554Y15837828D01*
X34346838Y15639683D01*
X34485910Y15423559D01*
X34554006Y15377031D01*
X34411673Y15234698D01*
X34315000Y15001309D01*
X34315000Y14410750D01*
X34473750Y14252000D01*
X35448000Y14252000D01*
X35448000Y14272000D01*
X35702000Y14272000D01*
X35702000Y14252000D01*
X36676250Y14252000D01*
X36835000Y14410750D01*
X36835000Y15001309D01*
X36738327Y15234698D01*
X36597090Y15375936D01*
X36651441Y15410910D01*
X36796431Y15623110D01*
X36847440Y15875000D01*
X36847440Y17375000D01*
X36803162Y17610317D01*
X36664090Y17826441D01*
X36451890Y17971431D01*
X36200000Y18022440D01*
X34950000Y18022440D01*
X34714683Y17978162D01*
X34509645Y17846223D01*
X34288368Y18067500D01*
X36178027Y19957159D01*
X36313271Y20159566D01*
X36359032Y20228052D01*
X36422593Y20547593D01*
X36422593Y25757505D01*
X36359032Y26077046D01*
X36178027Y26347939D01*
X23585532Y38940434D01*
X23314639Y39121439D01*
X22995098Y39185000D01*
X21095868Y39185000D01*
X20965533Y39315335D01*
X21772815Y39314630D01*
X22557800Y39638980D01*
X23158909Y40239041D01*
X23484628Y41023459D01*
X23485370Y41872815D01*
X23161020Y42657800D01*
X22560959Y43258909D01*
X21776541Y43584628D01*
X20927185Y43585370D01*
X20142200Y43261020D01*
X19541091Y42660959D01*
X19215372Y41876541D01*
X19214664Y41066204D01*
X19035000Y41245868D01*
X19035000Y45304132D01*
X21200409Y47469541D01*
X21253800Y47549446D01*
X21381414Y47740434D01*
X21444975Y48059975D01*
X21444975Y49540025D01*
X21381414Y49859566D01*
X21200409Y50130459D01*
X20190434Y51140434D01*
X19919541Y51321439D01*
X19600000Y51385000D01*
X16750000Y51385000D01*
X16430459Y51321439D01*
X16159566Y51140434D01*
X15534566Y50515434D01*
X15353561Y50244541D01*
X15290000Y49925000D01*
X15290000Y37832984D01*
X15331606Y37623816D01*
X11754005Y37623816D01*
X11434465Y37560256D01*
X11163571Y37379250D01*
X10412580Y36628259D01*
X10392824Y36598692D01*
X8513237Y34719105D01*
X8326890Y34846431D01*
X8075000Y34897440D01*
X6775000Y34897440D01*
X6539683Y34853162D01*
X6323559Y34714090D01*
X6178569Y34501890D01*
X6135110Y34287283D01*
X6055459Y34271439D01*
X5913285Y34176441D01*
X5784566Y34090434D01*
X1534555Y29840423D01*
X1353550Y29569530D01*
X1289989Y29249989D01*
X685000Y29249989D01*
X685000Y41027185D01*
X8014630Y41027185D01*
X8338980Y40242200D01*
X8939041Y39641091D01*
X9723459Y39315372D01*
X10572815Y39314630D01*
X11357800Y39638980D01*
X11958909Y40239041D01*
X12284628Y41023459D01*
X12285370Y41872815D01*
X11961020Y42657800D01*
X11360959Y43258909D01*
X10576541Y43584628D01*
X9727185Y43585370D01*
X8942200Y43261020D01*
X8341091Y42660959D01*
X8015372Y41876541D01*
X8014630Y41027185D01*
X685000Y41027185D01*
X685000Y47369841D01*
X12349446Y47369841D01*
X12435852Y47113357D01*
X13009336Y46903542D01*
X13619460Y46929161D01*
X14064148Y47113357D01*
X14150554Y47369841D01*
X13250000Y48270395D01*
X12349446Y47369841D01*
X685000Y47369841D01*
X685000Y48690664D01*
X11703542Y48690664D01*
X11729161Y48080540D01*
X11913357Y47635852D01*
X12169841Y47549446D01*
X13070395Y48450000D01*
X13429605Y48450000D01*
X14330159Y47549446D01*
X14586643Y47635852D01*
X14796458Y48209336D01*
X14770839Y48819460D01*
X14586643Y49264148D01*
X14330159Y49350554D01*
X13429605Y48450000D01*
X13070395Y48450000D01*
X12169841Y49350554D01*
X11913357Y49264148D01*
X11703542Y48690664D01*
X685000Y48690664D01*
X685000Y49530159D01*
X12349446Y49530159D01*
X13250000Y48629605D01*
X14150554Y49530159D01*
X14064148Y49786643D01*
X13490664Y49996458D01*
X12880540Y49970839D01*
X12435852Y49786643D01*
X12349446Y49530159D01*
X685000Y49530159D01*
X685000Y51762213D01*
X1348207Y51990905D01*
X34830992Y52012992D01*
X37049149Y51998803D01*
X37049149Y51998803D01*
G37*
X37049149Y51998803D02*
X37158998Y39990579D01*
X37140337Y709516D01*
X685000Y685501D01*
X685000Y4239250D01*
X6075000Y4239250D01*
X6075000Y3548691D01*
X6171673Y3315302D01*
X6350301Y3136673D01*
X6583690Y3040000D01*
X7274250Y3040000D01*
X7433000Y3198750D01*
X7433000Y4398000D01*
X6233750Y4398000D01*
X6075000Y4239250D01*
X685000Y4239250D01*
X685000Y5501309D01*
X6075000Y5501309D01*
X6075000Y4810750D01*
X6233750Y4652000D01*
X7433000Y4652000D01*
X7433000Y5851250D01*
X7274250Y6010000D01*
X6583690Y6010000D01*
X6350301Y5913327D01*
X6171673Y5734698D01*
X6075000Y5501309D01*
X685000Y5501309D01*
X685000Y29249989D01*
X1289989Y29249989D01*
X1289989Y17275011D01*
X1353550Y16955470D01*
X1438348Y16828561D01*
X1534555Y16684577D01*
X7277560Y10941572D01*
X7277560Y9975000D01*
X7321838Y9739683D01*
X7460910Y9523559D01*
X7673110Y9378569D01*
X7925000Y9327560D01*
X9175000Y9327560D01*
X9410317Y9371838D01*
X9617257Y9505000D01*
X10283203Y9505000D01*
X10373110Y9443569D01*
X10625000Y9392560D01*
X12125000Y9392560D01*
X12272335Y9420283D01*
X12272335Y9080284D01*
X9509566Y6317515D01*
X9328561Y6046622D01*
X9269762Y5751023D01*
X9049946Y5604147D01*
X9020597Y5560223D01*
X8948327Y5734698D01*
X8769699Y5913327D01*
X8536310Y6010000D01*
X7845750Y6010000D01*
X7687000Y5851250D01*
X7687000Y4652000D01*
X7707000Y4652000D01*
X7707000Y4398000D01*
X7687000Y4398000D01*
X7687000Y3198750D01*
X7845750Y3040000D01*
X8536310Y3040000D01*
X8769699Y3136673D01*
X8948327Y3315302D01*
X9020597Y3489777D01*
X9049946Y3445853D01*
X9531715Y3123946D01*
X10100000Y3010907D01*
X10668285Y3123946D01*
X11150054Y3445853D01*
X11370000Y3775026D01*
X11589946Y3445853D01*
X12071715Y3123946D01*
X12640000Y3010907D01*
X13208285Y3123946D01*
X13690054Y3445853D01*
X13910000Y3775026D01*
X14129946Y3445853D01*
X14611715Y3123946D01*
X15180000Y3010907D01*
X15748285Y3123946D01*
X16230054Y3445853D01*
X16450000Y3775026D01*
X16669946Y3445853D01*
X17151715Y3123946D01*
X17720000Y3010907D01*
X18288285Y3123946D01*
X18770054Y3445853D01*
X18990000Y3775026D01*
X19209946Y3445853D01*
X19425000Y3302159D01*
X19425000Y3088880D01*
X19488561Y2769339D01*
X19511048Y2735685D01*
X19669566Y2498446D01*
X20342302Y1825710D01*
X20613195Y1644705D01*
X20932736Y1581144D01*
X31097625Y1581144D01*
X31417166Y1644705D01*
X31688059Y1825710D01*
X32485884Y2623535D01*
X32666889Y2894428D01*
X32730450Y3213969D01*
X32730450Y3289096D01*
X32965054Y3445853D01*
X33192702Y3786553D01*
X33259817Y3643642D01*
X33688076Y3253355D01*
X34098110Y3083524D01*
X34328000Y3204845D01*
X34328000Y4398000D01*
X34582000Y4398000D01*
X34582000Y3204845D01*
X34811890Y3083524D01*
X35221924Y3253355D01*
X35650183Y3643642D01*
X35896486Y4168108D01*
X35775819Y4398000D01*
X34582000Y4398000D01*
X34328000Y4398000D01*
X34308000Y4398000D01*
X34308000Y4652000D01*
X34328000Y4652000D01*
X34328000Y5845155D01*
X34582000Y5845155D01*
X34582000Y4652000D01*
X35775819Y4652000D01*
X35896486Y4881892D01*
X35650183Y5406358D01*
X35221924Y5796645D01*
X34811890Y5966476D01*
X34582000Y5845155D01*
X34328000Y5845155D01*
X34098110Y5966476D01*
X33688076Y5796645D01*
X33259817Y5406358D01*
X33192702Y5263447D01*
X32965054Y5604147D01*
X32483285Y5926054D01*
X31915000Y6039093D01*
X31346715Y5926054D01*
X30864946Y5604147D01*
X30645000Y5274974D01*
X30425054Y5604147D01*
X30210000Y5747841D01*
X30210000Y7631691D01*
X30186467Y7750000D01*
X30146440Y7951231D01*
X29965434Y8222125D01*
X28191881Y9995678D01*
X27920988Y10176683D01*
X27601447Y10240244D01*
X21332390Y10240244D01*
X21012849Y10176683D01*
X20741956Y9995678D01*
X17129566Y6383288D01*
X16948561Y6112395D01*
X16885000Y5792854D01*
X16885000Y5747841D01*
X16669946Y5604147D01*
X16450000Y5274974D01*
X16230054Y5604147D01*
X16037997Y5732475D01*
X16042368Y5754449D01*
X16042368Y9392560D01*
X17525000Y9392560D01*
X17760317Y9436838D01*
X17866244Y9505000D01*
X17925000Y9505000D01*
X18244541Y9568561D01*
X18515434Y9749566D01*
X20955868Y12190000D01*
X30302560Y12190000D01*
X30302560Y10190000D01*
X30346838Y9954683D01*
X30485910Y9738559D01*
X30698110Y9593569D01*
X30940000Y9544585D01*
X30940000Y8890391D01*
X30591371Y8542370D01*
X30378243Y8029100D01*
X30377758Y7473339D01*
X30589990Y6959697D01*
X30982630Y6566371D01*
X31495900Y6353243D01*
X32051661Y6352758D01*
X32565303Y6564990D01*
X32958629Y6957630D01*
X33171757Y7470900D01*
X33172242Y8026661D01*
X33146071Y8090000D01*
X34268554Y8090000D01*
X34296838Y7939683D01*
X34435910Y7723559D01*
X34648110Y7578569D01*
X34900000Y7527560D01*
X36150000Y7527560D01*
X36385317Y7571838D01*
X36601441Y7710910D01*
X36746431Y7923110D01*
X36797440Y8175000D01*
X36797440Y9675000D01*
X36753162Y9910317D01*
X36614090Y10126441D01*
X36545994Y10172969D01*
X36688327Y10315302D01*
X36785000Y10548691D01*
X36785000Y11139250D01*
X36626250Y11298000D01*
X35652000Y11298000D01*
X35652000Y11278000D01*
X35398000Y11278000D01*
X35398000Y11298000D01*
X34423750Y11298000D01*
X34265000Y11139250D01*
X34265000Y10548691D01*
X34361673Y10315302D01*
X34502910Y10174064D01*
X34448559Y10139090D01*
X34303569Y9926890D01*
X34269773Y9760000D01*
X33210868Y9760000D01*
X32610000Y10360868D01*
X32610000Y10690000D01*
X32603038Y10725000D01*
X32546440Y11009540D01*
X32365434Y11280434D01*
X32247440Y11398428D01*
X32247440Y12190000D01*
X32226496Y12301309D01*
X34265000Y12301309D01*
X34265000Y11710750D01*
X34423750Y11552000D01*
X35398000Y11552000D01*
X35398000Y12651250D01*
X35652000Y12651250D01*
X35652000Y11552000D01*
X36626250Y11552000D01*
X36785000Y11710750D01*
X36785000Y12301309D01*
X36688327Y12534698D01*
X36509699Y12713327D01*
X36385807Y12764645D01*
X36559699Y12836673D01*
X36738327Y13015302D01*
X36835000Y13248691D01*
X36835000Y13839250D01*
X36676250Y13998000D01*
X35702000Y13998000D01*
X35702000Y12898750D01*
X35800750Y12800000D01*
X35652000Y12651250D01*
X35398000Y12651250D01*
X35299250Y12750000D01*
X35448000Y12898750D01*
X35448000Y13998000D01*
X34473750Y13998000D01*
X34315000Y13839250D01*
X34315000Y13248691D01*
X34411673Y13015302D01*
X34590301Y12836673D01*
X34714193Y12785355D01*
X34540301Y12713327D01*
X34361673Y12534698D01*
X34265000Y12301309D01*
X32226496Y12301309D01*
X32203162Y12425317D01*
X32064090Y12641441D01*
X31851890Y12786431D01*
X31600000Y12837440D01*
X30950000Y12837440D01*
X30714683Y12793162D01*
X30498559Y12654090D01*
X30353569Y12441890D01*
X30302560Y12190000D01*
X20955868Y12190000D01*
X27615434Y18849566D01*
X27763030Y19070459D01*
X27796439Y19120459D01*
X27860000Y19440000D01*
X27860000Y19925753D01*
X28005460Y19828560D01*
X28325000Y19765000D01*
X28927560Y19765000D01*
X28927560Y18950000D01*
X28971838Y18714683D01*
X29110910Y18498559D01*
X29323110Y18353569D01*
X29575000Y18302560D01*
X31275000Y18302560D01*
X31510317Y18346838D01*
X31726441Y18485910D01*
X31871431Y18698110D01*
X31922440Y18950000D01*
X31922440Y22114250D01*
X32315000Y22114250D01*
X32315000Y21523691D01*
X32411673Y21290302D01*
X32590301Y21111673D01*
X32823690Y21015000D01*
X33289250Y21015000D01*
X33448000Y21173750D01*
X33448000Y22273000D01*
X32473750Y22273000D01*
X32315000Y22114250D01*
X31922440Y22114250D01*
X31922440Y22250000D01*
X31878162Y22485317D01*
X31739090Y22701441D01*
X31526890Y22846431D01*
X31275000Y22897440D01*
X29575000Y22897440D01*
X29339683Y22853162D01*
X29123559Y22714090D01*
X28978569Y22501890D01*
X28927560Y22250000D01*
X28927560Y21435000D01*
X28670868Y21435000D01*
X28322440Y21783428D01*
X28322440Y22650000D01*
X28278162Y22885317D01*
X28139090Y23101441D01*
X27926890Y23246431D01*
X27913803Y23249081D01*
X28126441Y23385910D01*
X28271431Y23598110D01*
X28305227Y23765000D01*
X28925000Y23765000D01*
X29244541Y23828561D01*
X29302769Y23867468D01*
X29323110Y23853569D01*
X29575000Y23802560D01*
X31275000Y23802560D01*
X31510317Y23846838D01*
X31726441Y23985910D01*
X31780481Y24065000D01*
X32318554Y24065000D01*
X32346838Y23914683D01*
X32485910Y23698559D01*
X32554006Y23652031D01*
X32411673Y23509698D01*
X32315000Y23276309D01*
X32315000Y22685750D01*
X32473750Y22527000D01*
X33448000Y22527000D01*
X33448000Y22547000D01*
X33702000Y22547000D01*
X33702000Y22527000D01*
X33722000Y22527000D01*
X33722000Y22273000D01*
X33702000Y22273000D01*
X33702000Y21173750D01*
X33860750Y21015000D01*
X34326310Y21015000D01*
X34559699Y21111673D01*
X34738327Y21290302D01*
X34752593Y21324743D01*
X34752593Y20893461D01*
X30116572Y16257440D01*
X30000000Y16257440D01*
X29764683Y16213162D01*
X29548559Y16074090D01*
X29403569Y15861890D01*
X29352560Y15610000D01*
X29352560Y13610000D01*
X29396838Y13374683D01*
X29535910Y13158559D01*
X29748110Y13013569D01*
X30000000Y12962560D01*
X30650000Y12962560D01*
X30885317Y13006838D01*
X31101441Y13145910D01*
X31246431Y13358110D01*
X31269609Y13472565D01*
X31361673Y13250302D01*
X31540301Y13071673D01*
X31773690Y12975000D01*
X31939250Y12975000D01*
X32098000Y13133750D01*
X32098000Y14483000D01*
X32352000Y14483000D01*
X32352000Y13133750D01*
X32510750Y12975000D01*
X32676310Y12975000D01*
X32909699Y13071673D01*
X33088327Y13250302D01*
X33185000Y13483691D01*
X33185000Y14324250D01*
X33026250Y14483000D01*
X32352000Y14483000D01*
X32098000Y14483000D01*
X32078000Y14483000D01*
X32078000Y14737000D01*
X32098000Y14737000D01*
X32098000Y14757000D01*
X32352000Y14757000D01*
X32352000Y14737000D01*
X33026250Y14737000D01*
X33185000Y14895750D01*
X33185000Y15736309D01*
X33088327Y15969698D01*
X32909699Y16148327D01*
X32676310Y16245000D01*
X32510750Y16245000D01*
X32352002Y16086252D01*
X32352002Y16131134D01*
X32985868Y16765000D01*
X33229132Y16765000D01*
X33959566Y16034566D01*
X34230459Y15853561D01*
X34309554Y15837828D01*
X34346838Y15639683D01*
X34485910Y15423559D01*
X34554006Y15377031D01*
X34411673Y15234698D01*
X34315000Y15001309D01*
X34315000Y14410750D01*
X34473750Y14252000D01*
X35448000Y14252000D01*
X35448000Y14272000D01*
X35702000Y14272000D01*
X35702000Y14252000D01*
X36676250Y14252000D01*
X36835000Y14410750D01*
X36835000Y15001309D01*
X36738327Y15234698D01*
X36597090Y15375936D01*
X36651441Y15410910D01*
X36796431Y15623110D01*
X36847440Y15875000D01*
X36847440Y17375000D01*
X36803162Y17610317D01*
X36664090Y17826441D01*
X36451890Y17971431D01*
X36200000Y18022440D01*
X34950000Y18022440D01*
X34714683Y17978162D01*
X34509645Y17846223D01*
X34288368Y18067500D01*
X36178027Y19957159D01*
X36313271Y20159566D01*
X36359032Y20228052D01*
X36422593Y20547593D01*
X36422593Y25757505D01*
X36359032Y26077046D01*
X36178027Y26347939D01*
X23585532Y38940434D01*
X23314639Y39121439D01*
X22995098Y39185000D01*
X21095868Y39185000D01*
X20965533Y39315335D01*
X21772815Y39314630D01*
X22557800Y39638980D01*
X23158909Y40239041D01*
X23484628Y41023459D01*
X23485370Y41872815D01*
X23161020Y42657800D01*
X22560959Y43258909D01*
X21776541Y43584628D01*
X20927185Y43585370D01*
X20142200Y43261020D01*
X19541091Y42660959D01*
X19215372Y41876541D01*
X19214664Y41066204D01*
X19035000Y41245868D01*
X19035000Y45304132D01*
X21200409Y47469541D01*
X21253800Y47549446D01*
X21381414Y47740434D01*
X21444975Y48059975D01*
X21444975Y49540025D01*
X21381414Y49859566D01*
X21200409Y50130459D01*
X20190434Y51140434D01*
X19919541Y51321439D01*
X19600000Y51385000D01*
X16750000Y51385000D01*
X16430459Y51321439D01*
X16159566Y51140434D01*
X15534566Y50515434D01*
X15353561Y50244541D01*
X15290000Y49925000D01*
X15290000Y37832984D01*
X15331606Y37623816D01*
X11754005Y37623816D01*
X11434465Y37560256D01*
X11163571Y37379250D01*
X10412580Y36628259D01*
X10392824Y36598692D01*
X8513237Y34719105D01*
X8326890Y34846431D01*
X8075000Y34897440D01*
X6775000Y34897440D01*
X6539683Y34853162D01*
X6323559Y34714090D01*
X6178569Y34501890D01*
X6135110Y34287283D01*
X6055459Y34271439D01*
X5913285Y34176441D01*
X5784566Y34090434D01*
X1534555Y29840423D01*
X1353550Y29569530D01*
X1289989Y29249989D01*
X685000Y29249989D01*
X685000Y41027185D01*
X8014630Y41027185D01*
X8338980Y40242200D01*
X8939041Y39641091D01*
X9723459Y39315372D01*
X10572815Y39314630D01*
X11357800Y39638980D01*
X11958909Y40239041D01*
X12284628Y41023459D01*
X12285370Y41872815D01*
X11961020Y42657800D01*
X11360959Y43258909D01*
X10576541Y43584628D01*
X9727185Y43585370D01*
X8942200Y43261020D01*
X8341091Y42660959D01*
X8015372Y41876541D01*
X8014630Y41027185D01*
X685000Y41027185D01*
X685000Y47369841D01*
X12349446Y47369841D01*
X12435852Y47113357D01*
X13009336Y46903542D01*
X13619460Y46929161D01*
X14064148Y47113357D01*
X14150554Y47369841D01*
X13250000Y48270395D01*
X12349446Y47369841D01*
X685000Y47369841D01*
X685000Y48690664D01*
X11703542Y48690664D01*
X11729161Y48080540D01*
X11913357Y47635852D01*
X12169841Y47549446D01*
X13070395Y48450000D01*
X13429605Y48450000D01*
X14330159Y47549446D01*
X14586643Y47635852D01*
X14796458Y48209336D01*
X14770839Y48819460D01*
X14586643Y49264148D01*
X14330159Y49350554D01*
X13429605Y48450000D01*
X13070395Y48450000D01*
X12169841Y49350554D01*
X11913357Y49264148D01*
X11703542Y48690664D01*
X685000Y48690664D01*
X685000Y49530159D01*
X12349446Y49530159D01*
X13250000Y48629605D01*
X14150554Y49530159D01*
X14064148Y49786643D01*
X13490664Y49996458D01*
X12880540Y49970839D01*
X12435852Y49786643D01*
X12349446Y49530159D01*
X685000Y49530159D01*
X685000Y51762213D01*
X1348207Y51990905D01*
X34830992Y52012992D01*
X37049149Y51998803D01*
G36*
X13672357Y6738226D02*
X12917939Y5983807D01*
X12640000Y6039093D01*
X12071715Y5926054D01*
X11589946Y5604147D01*
X11370000Y5274974D01*
X11153210Y5599423D01*
X13672357Y8118570D01*
X13672357Y6738226D01*
X13672357Y6738226D01*
G37*
X13672357Y6738226D02*
X12917939Y5983807D01*
X12640000Y6039093D01*
X12071715Y5926054D01*
X11589946Y5604147D01*
X11370000Y5274974D01*
X11153210Y5599423D01*
X13672357Y8118570D01*
X13672357Y6738226D01*
G36*
X6523110Y32153569D02*
X6536197Y32150919D01*
X6323559Y32014090D01*
X6178569Y31801890D01*
X6127560Y31550000D01*
X6127560Y30050000D01*
X6171838Y29814683D01*
X6310910Y29598559D01*
X6448186Y29504762D01*
X6439683Y29503162D01*
X6223559Y29364090D01*
X6078569Y29151890D01*
X6027560Y28900000D01*
X6027560Y25600000D01*
X6071838Y25364683D01*
X6210910Y25148559D01*
X6423110Y25003569D01*
X6675000Y24952560D01*
X8375000Y24952560D01*
X8610317Y24996838D01*
X8826441Y25135910D01*
X8971431Y25348110D01*
X8977560Y25378376D01*
X8977560Y24875000D01*
X9021838Y24639683D01*
X9160910Y24423559D01*
X9373110Y24278569D01*
X9386197Y24275919D01*
X9173559Y24139090D01*
X9028569Y23926890D01*
X8994773Y23760000D01*
X8897931Y23760000D01*
X8839090Y23851441D01*
X8626890Y23996431D01*
X8375000Y24047440D01*
X6675000Y24047440D01*
X6439683Y24003162D01*
X6223559Y23864090D01*
X6118274Y23710000D01*
X5831446Y23710000D01*
X5803162Y23860317D01*
X5664090Y24076441D01*
X5595994Y24122969D01*
X5738327Y24265302D01*
X5835000Y24498691D01*
X5835000Y25089250D01*
X5676250Y25248000D01*
X4702000Y25248000D01*
X4702000Y25228000D01*
X4448000Y25228000D01*
X4448000Y25248000D01*
X3473750Y25248000D01*
X3315000Y25089250D01*
X3315000Y24498691D01*
X3411673Y24265302D01*
X3552910Y24124064D01*
X3498559Y24089090D01*
X3353569Y23876890D01*
X3302560Y23625000D01*
X3302560Y22125000D01*
X3346838Y21889683D01*
X3485910Y21673559D01*
X3698110Y21528569D01*
X3950000Y21477560D01*
X5200000Y21477560D01*
X5435317Y21521838D01*
X5651441Y21660910D01*
X5796431Y21873110D01*
X5830227Y22040000D01*
X6027560Y22040000D01*
X6027560Y20100000D01*
X6071838Y19864683D01*
X6210910Y19648559D01*
X6423110Y19503569D01*
X6675000Y19452560D01*
X6690000Y19452560D01*
X6690000Y19390000D01*
X6753561Y19070459D01*
X6896570Y18856431D01*
X6934566Y18799566D01*
X9634566Y16099566D01*
X9905460Y15918560D01*
X10013421Y15897085D01*
X9977560Y15720000D01*
X9977560Y15120000D01*
X10021838Y14884683D01*
X10085678Y14785472D01*
X10028569Y14701890D01*
X9977560Y14450000D01*
X9977560Y13850000D01*
X10021838Y13614683D01*
X10085678Y13515472D01*
X10028569Y13431890D01*
X9977560Y13180000D01*
X9977560Y12580000D01*
X10021838Y12344683D01*
X10085678Y12245472D01*
X10028569Y12161890D01*
X9977560Y11910000D01*
X9977560Y11310000D01*
X10002962Y11175000D01*
X9822440Y11175000D01*
X9822440Y11475000D01*
X9778162Y11710317D01*
X9639090Y11926441D01*
X9570994Y11972969D01*
X9713327Y12115302D01*
X9810000Y12348691D01*
X9810000Y12939250D01*
X9651250Y13098000D01*
X8677000Y13098000D01*
X8677000Y13078000D01*
X8423000Y13078000D01*
X8423000Y13098000D01*
X8403000Y13098000D01*
X8403000Y13352000D01*
X8423000Y13352000D01*
X8423000Y14451250D01*
X8677000Y14451250D01*
X8677000Y13352000D01*
X9651250Y13352000D01*
X9810000Y13510750D01*
X9810000Y14101309D01*
X9713327Y14334698D01*
X9534699Y14513327D01*
X9301310Y14610000D01*
X8835750Y14610000D01*
X8677000Y14451250D01*
X8423000Y14451250D01*
X8264250Y14610000D01*
X7798690Y14610000D01*
X7565301Y14513327D01*
X7386673Y14334698D01*
X7290000Y14101309D01*
X7290000Y13510750D01*
X7448748Y13352002D01*
X7290000Y13352002D01*
X7290000Y13290868D01*
X2959989Y17620879D01*
X2959989Y26251309D01*
X3315000Y26251309D01*
X3315000Y25660750D01*
X3473750Y25502000D01*
X4448000Y25502000D01*
X4448000Y26601250D01*
X4702000Y26601250D01*
X4702000Y25502000D01*
X5676250Y25502000D01*
X5835000Y25660750D01*
X5835000Y26251309D01*
X5738327Y26484698D01*
X5559699Y26663327D01*
X5326310Y26760000D01*
X4860750Y26760000D01*
X4702000Y26601250D01*
X4448000Y26601250D01*
X4289250Y26760000D01*
X3823690Y26760000D01*
X3590301Y26663327D01*
X3411673Y26484698D01*
X3315000Y26251309D01*
X2959989Y26251309D01*
X2959989Y28904121D01*
X6336763Y32280895D01*
X6523110Y32153569D01*
X6523110Y32153569D01*
G37*
X6523110Y32153569D02*
X6536197Y32150919D01*
X6323559Y32014090D01*
X6178569Y31801890D01*
X6127560Y31550000D01*
X6127560Y30050000D01*
X6171838Y29814683D01*
X6310910Y29598559D01*
X6448186Y29504762D01*
X6439683Y29503162D01*
X6223559Y29364090D01*
X6078569Y29151890D01*
X6027560Y28900000D01*
X6027560Y25600000D01*
X6071838Y25364683D01*
X6210910Y25148559D01*
X6423110Y25003569D01*
X6675000Y24952560D01*
X8375000Y24952560D01*
X8610317Y24996838D01*
X8826441Y25135910D01*
X8971431Y25348110D01*
X8977560Y25378376D01*
X8977560Y24875000D01*
X9021838Y24639683D01*
X9160910Y24423559D01*
X9373110Y24278569D01*
X9386197Y24275919D01*
X9173559Y24139090D01*
X9028569Y23926890D01*
X8994773Y23760000D01*
X8897931Y23760000D01*
X8839090Y23851441D01*
X8626890Y23996431D01*
X8375000Y24047440D01*
X6675000Y24047440D01*
X6439683Y24003162D01*
X6223559Y23864090D01*
X6118274Y23710000D01*
X5831446Y23710000D01*
X5803162Y23860317D01*
X5664090Y24076441D01*
X5595994Y24122969D01*
X5738327Y24265302D01*
X5835000Y24498691D01*
X5835000Y25089250D01*
X5676250Y25248000D01*
X4702000Y25248000D01*
X4702000Y25228000D01*
X4448000Y25228000D01*
X4448000Y25248000D01*
X3473750Y25248000D01*
X3315000Y25089250D01*
X3315000Y24498691D01*
X3411673Y24265302D01*
X3552910Y24124064D01*
X3498559Y24089090D01*
X3353569Y23876890D01*
X3302560Y23625000D01*
X3302560Y22125000D01*
X3346838Y21889683D01*
X3485910Y21673559D01*
X3698110Y21528569D01*
X3950000Y21477560D01*
X5200000Y21477560D01*
X5435317Y21521838D01*
X5651441Y21660910D01*
X5796431Y21873110D01*
X5830227Y22040000D01*
X6027560Y22040000D01*
X6027560Y20100000D01*
X6071838Y19864683D01*
X6210910Y19648559D01*
X6423110Y19503569D01*
X6675000Y19452560D01*
X6690000Y19452560D01*
X6690000Y19390000D01*
X6753561Y19070459D01*
X6896570Y18856431D01*
X6934566Y18799566D01*
X9634566Y16099566D01*
X9905460Y15918560D01*
X10013421Y15897085D01*
X9977560Y15720000D01*
X9977560Y15120000D01*
X10021838Y14884683D01*
X10085678Y14785472D01*
X10028569Y14701890D01*
X9977560Y14450000D01*
X9977560Y13850000D01*
X10021838Y13614683D01*
X10085678Y13515472D01*
X10028569Y13431890D01*
X9977560Y13180000D01*
X9977560Y12580000D01*
X10021838Y12344683D01*
X10085678Y12245472D01*
X10028569Y12161890D01*
X9977560Y11910000D01*
X9977560Y11310000D01*
X10002962Y11175000D01*
X9822440Y11175000D01*
X9822440Y11475000D01*
X9778162Y11710317D01*
X9639090Y11926441D01*
X9570994Y11972969D01*
X9713327Y12115302D01*
X9810000Y12348691D01*
X9810000Y12939250D01*
X9651250Y13098000D01*
X8677000Y13098000D01*
X8677000Y13078000D01*
X8423000Y13078000D01*
X8423000Y13098000D01*
X8403000Y13098000D01*
X8403000Y13352000D01*
X8423000Y13352000D01*
X8423000Y14451250D01*
X8677000Y14451250D01*
X8677000Y13352000D01*
X9651250Y13352000D01*
X9810000Y13510750D01*
X9810000Y14101309D01*
X9713327Y14334698D01*
X9534699Y14513327D01*
X9301310Y14610000D01*
X8835750Y14610000D01*
X8677000Y14451250D01*
X8423000Y14451250D01*
X8264250Y14610000D01*
X7798690Y14610000D01*
X7565301Y14513327D01*
X7386673Y14334698D01*
X7290000Y14101309D01*
X7290000Y13510750D01*
X7448748Y13352002D01*
X7290000Y13352002D01*
X7290000Y13290868D01*
X2959989Y17620879D01*
X2959989Y26251309D01*
X3315000Y26251309D01*
X3315000Y25660750D01*
X3473750Y25502000D01*
X4448000Y25502000D01*
X4448000Y26601250D01*
X4702000Y26601250D01*
X4702000Y25502000D01*
X5676250Y25502000D01*
X5835000Y25660750D01*
X5835000Y26251309D01*
X5738327Y26484698D01*
X5559699Y26663327D01*
X5326310Y26760000D01*
X4860750Y26760000D01*
X4702000Y26601250D01*
X4448000Y26601250D01*
X4289250Y26760000D01*
X3823690Y26760000D01*
X3590301Y26663327D01*
X3411673Y26484698D01*
X3315000Y26251309D01*
X2959989Y26251309D01*
X2959989Y28904121D01*
X6336763Y32280895D01*
X6523110Y32153569D01*
G36*
X17200433Y35922551D02*
X17518656Y35922551D01*
X17597249Y35906918D01*
X17675842Y35922551D01*
X19521581Y35922551D01*
X21107848Y34336284D01*
X21064683Y34328162D01*
X20848559Y34189090D01*
X20703569Y33976890D01*
X20652560Y33725000D01*
X20652560Y32225000D01*
X20696838Y31989683D01*
X20835910Y31773559D01*
X21048110Y31628569D01*
X21061197Y31625919D01*
X20848559Y31489090D01*
X20703569Y31276890D01*
X20669773Y31110000D01*
X19085000Y31110000D01*
X19085000Y32634143D01*
X19118371Y32647932D01*
X19550551Y33079357D01*
X19784733Y33643330D01*
X19785265Y34253991D01*
X19552068Y34818371D01*
X19120643Y35250551D01*
X18556670Y35484733D01*
X17946009Y35485265D01*
X17381629Y35252068D01*
X16949449Y34820643D01*
X16945706Y34811628D01*
X16830159Y34850554D01*
X15929605Y33950000D01*
X16830159Y33049446D01*
X16945214Y33088207D01*
X16947932Y33081629D01*
X17379357Y32649449D01*
X17415000Y32634649D01*
X17415000Y30650000D01*
X17478561Y30330459D01*
X17626157Y30109566D01*
X17659566Y30059566D01*
X18034566Y29684566D01*
X18305459Y29503561D01*
X18625000Y29440000D01*
X20668554Y29440000D01*
X20696838Y29289683D01*
X20835910Y29073559D01*
X21048110Y28928569D01*
X21065000Y28925149D01*
X21065000Y28572440D01*
X21050000Y28572440D01*
X20814683Y28528162D01*
X20598559Y28389090D01*
X20453569Y28176890D01*
X20402560Y27925000D01*
X20402560Y27110000D01*
X19800000Y27110000D01*
X19480459Y27046439D01*
X19306883Y26930459D01*
X19209566Y26865434D01*
X18491572Y26147440D01*
X17725000Y26147440D01*
X17489683Y26103162D01*
X17273559Y25964090D01*
X17128569Y25751890D01*
X17077560Y25500000D01*
X17077560Y24000000D01*
X17121838Y23764683D01*
X17260910Y23548559D01*
X17473110Y23403569D01*
X17486197Y23400919D01*
X17273559Y23264090D01*
X17128569Y23051890D01*
X17077560Y22800000D01*
X17077560Y21300000D01*
X17121838Y21064683D01*
X17260910Y20848559D01*
X17473110Y20703569D01*
X17725000Y20652560D01*
X18491572Y20652560D01*
X18959566Y20184566D01*
X19230459Y20003561D01*
X19550000Y19940000D01*
X20402560Y19940000D01*
X20402560Y19125000D01*
X20409935Y19085803D01*
X18172440Y16848308D01*
X18172440Y16990000D01*
X18128162Y17225317D01*
X18069822Y17315980D01*
X18160000Y17533690D01*
X18160000Y17674250D01*
X18001250Y17833000D01*
X16902000Y17833000D01*
X16902000Y17813000D01*
X16648000Y17813000D01*
X16648000Y17833000D01*
X15548750Y17833000D01*
X15390000Y17674250D01*
X15390000Y17533690D01*
X15411214Y17482475D01*
X15305459Y17461439D01*
X15064299Y17300301D01*
X15034566Y17280434D01*
X13942335Y16188203D01*
X13942335Y17377665D01*
X13878774Y17697206D01*
X13697769Y17968099D01*
X13279558Y18386310D01*
X15390000Y18386310D01*
X15390000Y18245750D01*
X15548750Y18087000D01*
X16648000Y18087000D01*
X16648000Y18736250D01*
X16902000Y18736250D01*
X16902000Y18087000D01*
X18001250Y18087000D01*
X18160000Y18245750D01*
X18160000Y18386310D01*
X18063327Y18619699D01*
X17884698Y18798327D01*
X17651309Y18895000D01*
X17060750Y18895000D01*
X16902000Y18736250D01*
X16648000Y18736250D01*
X16489250Y18895000D01*
X15898691Y18895000D01*
X15665302Y18798327D01*
X15486673Y18619699D01*
X15390000Y18386310D01*
X13279558Y18386310D01*
X13115434Y18550434D01*
X12844541Y18731439D01*
X12525000Y18795000D01*
X12466797Y18795000D01*
X12376890Y18856431D01*
X12125000Y18907440D01*
X10625000Y18907440D01*
X10389683Y18863162D01*
X10173559Y18724090D01*
X10028569Y18511890D01*
X9977560Y18260000D01*
X9977560Y18118308D01*
X8600817Y19495051D01*
X8610317Y19496838D01*
X8826441Y19635910D01*
X8971431Y19848110D01*
X9022440Y20100000D01*
X9022440Y21938747D01*
X9160910Y21723559D01*
X9373110Y21578569D01*
X9625000Y21527560D01*
X10925000Y21527560D01*
X11160317Y21571838D01*
X11376441Y21710910D01*
X11521431Y21923110D01*
X11572440Y22175000D01*
X11572440Y23675000D01*
X11528162Y23910317D01*
X11389090Y24126441D01*
X11176890Y24271431D01*
X11163803Y24274081D01*
X11376441Y24410910D01*
X11521431Y24623110D01*
X11572440Y24875000D01*
X11572440Y26375000D01*
X11528162Y26610317D01*
X11389090Y26826441D01*
X11176890Y26971431D01*
X10925000Y27022440D01*
X10058428Y27022440D01*
X9240434Y27840434D01*
X9023601Y27985317D01*
X9022440Y27986093D01*
X9022440Y28900000D01*
X8978162Y29135317D01*
X8839090Y29351441D01*
X8626890Y29496431D01*
X8444717Y29533322D01*
X8526441Y29585910D01*
X8671431Y29798110D01*
X8705227Y29965000D01*
X11372792Y29965000D01*
X11692333Y30028561D01*
X11963226Y30209566D01*
X13840434Y32086774D01*
X13875998Y32140000D01*
X14021439Y32357667D01*
X14075667Y32630287D01*
X14118371Y32647932D01*
X14340668Y32869841D01*
X14849446Y32869841D01*
X14935852Y32613357D01*
X15509336Y32403542D01*
X16119460Y32429161D01*
X16564148Y32613357D01*
X16650554Y32869841D01*
X15750000Y33770395D01*
X14849446Y32869841D01*
X14340668Y32869841D01*
X14550551Y33079357D01*
X14554294Y33088372D01*
X14669841Y33049446D01*
X15570395Y33950000D01*
X14669841Y34850554D01*
X14554786Y34811793D01*
X14552068Y34818371D01*
X14340650Y35030159D01*
X14849446Y35030159D01*
X15750000Y34129605D01*
X16650554Y35030159D01*
X16564148Y35286643D01*
X15990664Y35496458D01*
X15380540Y35470839D01*
X14935852Y35286643D01*
X14849446Y35030159D01*
X14340650Y35030159D01*
X14120643Y35250551D01*
X13556670Y35484733D01*
X12946009Y35485265D01*
X12381629Y35252068D01*
X11949449Y34820643D01*
X11715267Y34256670D01*
X11714735Y33646009D01*
X11947932Y33081629D01*
X12210513Y32818589D01*
X11026924Y31635000D01*
X8706446Y31635000D01*
X8678162Y31785317D01*
X8539090Y32001441D01*
X8326890Y32146431D01*
X8313803Y32149081D01*
X8526441Y32285910D01*
X8671431Y32498110D01*
X8714890Y32712717D01*
X8794541Y32728561D01*
X9065434Y32909566D01*
X11593448Y35437580D01*
X11613204Y35467147D01*
X12099873Y35953816D01*
X17043254Y35953816D01*
X17200433Y35922551D01*
X17200433Y35922551D01*
G37*
X17200433Y35922551D02*
X17518656Y35922551D01*
X17597249Y35906918D01*
X17675842Y35922551D01*
X19521581Y35922551D01*
X21107848Y34336284D01*
X21064683Y34328162D01*
X20848559Y34189090D01*
X20703569Y33976890D01*
X20652560Y33725000D01*
X20652560Y32225000D01*
X20696838Y31989683D01*
X20835910Y31773559D01*
X21048110Y31628569D01*
X21061197Y31625919D01*
X20848559Y31489090D01*
X20703569Y31276890D01*
X20669773Y31110000D01*
X19085000Y31110000D01*
X19085000Y32634143D01*
X19118371Y32647932D01*
X19550551Y33079357D01*
X19784733Y33643330D01*
X19785265Y34253991D01*
X19552068Y34818371D01*
X19120643Y35250551D01*
X18556670Y35484733D01*
X17946009Y35485265D01*
X17381629Y35252068D01*
X16949449Y34820643D01*
X16945706Y34811628D01*
X16830159Y34850554D01*
X15929605Y33950000D01*
X16830159Y33049446D01*
X16945214Y33088207D01*
X16947932Y33081629D01*
X17379357Y32649449D01*
X17415000Y32634649D01*
X17415000Y30650000D01*
X17478561Y30330459D01*
X17626157Y30109566D01*
X17659566Y30059566D01*
X18034566Y29684566D01*
X18305459Y29503561D01*
X18625000Y29440000D01*
X20668554Y29440000D01*
X20696838Y29289683D01*
X20835910Y29073559D01*
X21048110Y28928569D01*
X21065000Y28925149D01*
X21065000Y28572440D01*
X21050000Y28572440D01*
X20814683Y28528162D01*
X20598559Y28389090D01*
X20453569Y28176890D01*
X20402560Y27925000D01*
X20402560Y27110000D01*
X19800000Y27110000D01*
X19480459Y27046439D01*
X19306883Y26930459D01*
X19209566Y26865434D01*
X18491572Y26147440D01*
X17725000Y26147440D01*
X17489683Y26103162D01*
X17273559Y25964090D01*
X17128569Y25751890D01*
X17077560Y25500000D01*
X17077560Y24000000D01*
X17121838Y23764683D01*
X17260910Y23548559D01*
X17473110Y23403569D01*
X17486197Y23400919D01*
X17273559Y23264090D01*
X17128569Y23051890D01*
X17077560Y22800000D01*
X17077560Y21300000D01*
X17121838Y21064683D01*
X17260910Y20848559D01*
X17473110Y20703569D01*
X17725000Y20652560D01*
X18491572Y20652560D01*
X18959566Y20184566D01*
X19230459Y20003561D01*
X19550000Y19940000D01*
X20402560Y19940000D01*
X20402560Y19125000D01*
X20409935Y19085803D01*
X18172440Y16848308D01*
X18172440Y16990000D01*
X18128162Y17225317D01*
X18069822Y17315980D01*
X18160000Y17533690D01*
X18160000Y17674250D01*
X18001250Y17833000D01*
X16902000Y17833000D01*
X16902000Y17813000D01*
X16648000Y17813000D01*
X16648000Y17833000D01*
X15548750Y17833000D01*
X15390000Y17674250D01*
X15390000Y17533690D01*
X15411214Y17482475D01*
X15305459Y17461439D01*
X15064299Y17300301D01*
X15034566Y17280434D01*
X13942335Y16188203D01*
X13942335Y17377665D01*
X13878774Y17697206D01*
X13697769Y17968099D01*
X13279558Y18386310D01*
X15390000Y18386310D01*
X15390000Y18245750D01*
X15548750Y18087000D01*
X16648000Y18087000D01*
X16648000Y18736250D01*
X16902000Y18736250D01*
X16902000Y18087000D01*
X18001250Y18087000D01*
X18160000Y18245750D01*
X18160000Y18386310D01*
X18063327Y18619699D01*
X17884698Y18798327D01*
X17651309Y18895000D01*
X17060750Y18895000D01*
X16902000Y18736250D01*
X16648000Y18736250D01*
X16489250Y18895000D01*
X15898691Y18895000D01*
X15665302Y18798327D01*
X15486673Y18619699D01*
X15390000Y18386310D01*
X13279558Y18386310D01*
X13115434Y18550434D01*
X12844541Y18731439D01*
X12525000Y18795000D01*
X12466797Y18795000D01*
X12376890Y18856431D01*
X12125000Y18907440D01*
X10625000Y18907440D01*
X10389683Y18863162D01*
X10173559Y18724090D01*
X10028569Y18511890D01*
X9977560Y18260000D01*
X9977560Y18118308D01*
X8600817Y19495051D01*
X8610317Y19496838D01*
X8826441Y19635910D01*
X8971431Y19848110D01*
X9022440Y20100000D01*
X9022440Y21938747D01*
X9160910Y21723559D01*
X9373110Y21578569D01*
X9625000Y21527560D01*
X10925000Y21527560D01*
X11160317Y21571838D01*
X11376441Y21710910D01*
X11521431Y21923110D01*
X11572440Y22175000D01*
X11572440Y23675000D01*
X11528162Y23910317D01*
X11389090Y24126441D01*
X11176890Y24271431D01*
X11163803Y24274081D01*
X11376441Y24410910D01*
X11521431Y24623110D01*
X11572440Y24875000D01*
X11572440Y26375000D01*
X11528162Y26610317D01*
X11389090Y26826441D01*
X11176890Y26971431D01*
X10925000Y27022440D01*
X10058428Y27022440D01*
X9240434Y27840434D01*
X9023601Y27985317D01*
X9022440Y27986093D01*
X9022440Y28900000D01*
X8978162Y29135317D01*
X8839090Y29351441D01*
X8626890Y29496431D01*
X8444717Y29533322D01*
X8526441Y29585910D01*
X8671431Y29798110D01*
X8705227Y29965000D01*
X11372792Y29965000D01*
X11692333Y30028561D01*
X11963226Y30209566D01*
X13840434Y32086774D01*
X13875998Y32140000D01*
X14021439Y32357667D01*
X14075667Y32630287D01*
X14118371Y32647932D01*
X14340668Y32869841D01*
X14849446Y32869841D01*
X14935852Y32613357D01*
X15509336Y32403542D01*
X16119460Y32429161D01*
X16564148Y32613357D01*
X16650554Y32869841D01*
X15750000Y33770395D01*
X14849446Y32869841D01*
X14340668Y32869841D01*
X14550551Y33079357D01*
X14554294Y33088372D01*
X14669841Y33049446D01*
X15570395Y33950000D01*
X14669841Y34850554D01*
X14554786Y34811793D01*
X14552068Y34818371D01*
X14340650Y35030159D01*
X14849446Y35030159D01*
X15750000Y34129605D01*
X16650554Y35030159D01*
X16564148Y35286643D01*
X15990664Y35496458D01*
X15380540Y35470839D01*
X14935852Y35286643D01*
X14849446Y35030159D01*
X14340650Y35030159D01*
X14120643Y35250551D01*
X13556670Y35484733D01*
X12946009Y35485265D01*
X12381629Y35252068D01*
X11949449Y34820643D01*
X11715267Y34256670D01*
X11714735Y33646009D01*
X11947932Y33081629D01*
X12210513Y32818589D01*
X11026924Y31635000D01*
X8706446Y31635000D01*
X8678162Y31785317D01*
X8539090Y32001441D01*
X8326890Y32146431D01*
X8313803Y32149081D01*
X8526441Y32285910D01*
X8671431Y32498110D01*
X8714890Y32712717D01*
X8794541Y32728561D01*
X9065434Y32909566D01*
X11593448Y35437580D01*
X11613204Y35467147D01*
X12099873Y35953816D01*
X17043254Y35953816D01*
X17200433Y35922551D01*
G36*
X20402560Y24625000D02*
X20446838Y24389683D01*
X20585910Y24173559D01*
X20798110Y24028569D01*
X21050000Y23977560D01*
X22750000Y23977560D01*
X22985317Y24021838D01*
X23201441Y24160910D01*
X23346431Y24373110D01*
X23371721Y24497998D01*
X23498748Y24497998D01*
X23340000Y24339250D01*
X23340000Y23748691D01*
X23436673Y23515302D01*
X23577910Y23374064D01*
X23523559Y23339090D01*
X23378569Y23126890D01*
X23344773Y22960000D01*
X23250000Y22960000D01*
X23127469Y22935627D01*
X23001890Y23021431D01*
X22750000Y23072440D01*
X21050000Y23072440D01*
X20814683Y23028162D01*
X20598559Y22889090D01*
X20453569Y22676890D01*
X20402560Y22425000D01*
X20402560Y21610000D01*
X19895868Y21610000D01*
X19672440Y21833428D01*
X19672440Y22800000D01*
X19628162Y23035317D01*
X19489090Y23251441D01*
X19276890Y23396431D01*
X19263803Y23399081D01*
X19476441Y23535910D01*
X19621431Y23748110D01*
X19672440Y24000000D01*
X19672440Y24966572D01*
X20145868Y25440000D01*
X20402560Y25440000D01*
X20402560Y24625000D01*
X20402560Y24625000D01*
G37*
X20402560Y24625000D02*
X20446838Y24389683D01*
X20585910Y24173559D01*
X20798110Y24028569D01*
X21050000Y23977560D01*
X22750000Y23977560D01*
X22985317Y24021838D01*
X23201441Y24160910D01*
X23346431Y24373110D01*
X23371721Y24497998D01*
X23498748Y24497998D01*
X23340000Y24339250D01*
X23340000Y23748691D01*
X23436673Y23515302D01*
X23577910Y23374064D01*
X23523559Y23339090D01*
X23378569Y23126890D01*
X23344773Y22960000D01*
X23250000Y22960000D01*
X23127469Y22935627D01*
X23001890Y23021431D01*
X22750000Y23072440D01*
X21050000Y23072440D01*
X20814683Y23028162D01*
X20598559Y22889090D01*
X20453569Y22676890D01*
X20402560Y22425000D01*
X20402560Y21610000D01*
X19895868Y21610000D01*
X19672440Y21833428D01*
X19672440Y22800000D01*
X19628162Y23035317D01*
X19489090Y23251441D01*
X19276890Y23396431D01*
X19263803Y23399081D01*
X19476441Y23535910D01*
X19621431Y23748110D01*
X19672440Y24000000D01*
X19672440Y24966572D01*
X20145868Y25440000D01*
X20402560Y25440000D01*
X20402560Y24625000D01*
G36*
X25910910Y23398559D02*
X26123110Y23253569D01*
X26136197Y23250919D01*
X25923559Y23114090D01*
X25848204Y23003804D01*
X25828162Y23110317D01*
X25689090Y23326441D01*
X25620994Y23372969D01*
X25763327Y23515302D01*
X25791704Y23583810D01*
X25910910Y23398559D01*
X25910910Y23398559D01*
G37*
X25910910Y23398559D02*
X26123110Y23253569D01*
X26136197Y23250919D01*
X25923559Y23114090D01*
X25848204Y23003804D01*
X25828162Y23110317D01*
X25689090Y23326441D01*
X25620994Y23372969D01*
X25763327Y23515302D01*
X25791704Y23583810D01*
X25910910Y23398559D01*
G36*
X25802560Y30166572D02*
X25802560Y29200000D01*
X25846838Y28964683D01*
X25985910Y28748559D01*
X26198110Y28603569D01*
X26211197Y28600919D01*
X25998559Y28464090D01*
X25853569Y28251890D01*
X25802560Y28000000D01*
X25802560Y26500000D01*
X25846838Y26264683D01*
X25985910Y26048559D01*
X26132393Y25948471D01*
X25923559Y25814090D01*
X25803328Y25638126D01*
X25763327Y25734698D01*
X25584699Y25913327D01*
X25351310Y26010000D01*
X24885750Y26010000D01*
X24727000Y25851250D01*
X24727000Y24752000D01*
X24747000Y24752000D01*
X24747000Y24498000D01*
X24727000Y24498000D01*
X24727000Y24478000D01*
X24473000Y24478000D01*
X24473000Y24498000D01*
X24453000Y24498000D01*
X24453000Y24752000D01*
X24473000Y24752000D01*
X24473000Y25851250D01*
X24314250Y26010000D01*
X23848690Y26010000D01*
X23615301Y25913327D01*
X23436673Y25734698D01*
X23397440Y25639981D01*
X23397440Y27925000D01*
X23353162Y28160317D01*
X23214090Y28376441D01*
X23001890Y28521431D01*
X22750000Y28572440D01*
X22735000Y28572440D01*
X22735000Y28902962D01*
X22835317Y28921838D01*
X23051441Y29060910D01*
X23196431Y29273110D01*
X23247440Y29525000D01*
X23247440Y31025000D01*
X23203162Y31260317D01*
X23064090Y31476441D01*
X22851890Y31621431D01*
X22838803Y31624081D01*
X23051441Y31760910D01*
X23196431Y31973110D01*
X23230227Y32140000D01*
X23829132Y32140000D01*
X25802560Y30166572D01*
X25802560Y30166572D01*
G37*
X25802560Y30166572D02*
X25802560Y29200000D01*
X25846838Y28964683D01*
X25985910Y28748559D01*
X26198110Y28603569D01*
X26211197Y28600919D01*
X25998559Y28464090D01*
X25853569Y28251890D01*
X25802560Y28000000D01*
X25802560Y26500000D01*
X25846838Y26264683D01*
X25985910Y26048559D01*
X26132393Y25948471D01*
X25923559Y25814090D01*
X25803328Y25638126D01*
X25763327Y25734698D01*
X25584699Y25913327D01*
X25351310Y26010000D01*
X24885750Y26010000D01*
X24727000Y25851250D01*
X24727000Y24752000D01*
X24747000Y24752000D01*
X24747000Y24498000D01*
X24727000Y24498000D01*
X24727000Y24478000D01*
X24473000Y24478000D01*
X24473000Y24498000D01*
X24453000Y24498000D01*
X24453000Y24752000D01*
X24473000Y24752000D01*
X24473000Y25851250D01*
X24314250Y26010000D01*
X23848690Y26010000D01*
X23615301Y25913327D01*
X23436673Y25734698D01*
X23397440Y25639981D01*
X23397440Y27925000D01*
X23353162Y28160317D01*
X23214090Y28376441D01*
X23001890Y28521431D01*
X22750000Y28572440D01*
X22735000Y28572440D01*
X22735000Y28902962D01*
X22835317Y28921838D01*
X23051441Y29060910D01*
X23196431Y29273110D01*
X23247440Y29525000D01*
X23247440Y31025000D01*
X23203162Y31260317D01*
X23064090Y31476441D01*
X22851890Y31621431D01*
X22838803Y31624081D01*
X23051441Y31760910D01*
X23196431Y31973110D01*
X23230227Y32140000D01*
X23829132Y32140000D01*
X25802560Y30166572D01*
M02*
