G04 #@! TF.FileFunction,Other,Comment*
%FSLAX46Y46*%
G04 Gerber Fmt 4.6, Leading zero omitted, Abs format (unit mm)*
G04 Created by KiCad (PCBNEW 4.0.7) date 03/25/18 12:18:46*
%MOMM*%
%LPD*%
G01*
G04 APERTURE LIST*
%ADD10C,0.100000*%
%ADD11C,0.300000*%
G04 APERTURE END LIST*
D10*
D11*
X30728571Y36707143D02*
X30728571Y35992857D01*
X29228571Y35992857D01*
X30585714Y38064286D02*
X30657143Y37992857D01*
X30728571Y37778571D01*
X30728571Y37635714D01*
X30657143Y37421429D01*
X30514286Y37278571D01*
X30371429Y37207143D01*
X30085714Y37135714D01*
X29871429Y37135714D01*
X29585714Y37207143D01*
X29442857Y37278571D01*
X29300000Y37421429D01*
X29228571Y37635714D01*
X29228571Y37778571D01*
X29300000Y37992857D01*
X29371429Y38064286D01*
X30728571Y38707143D02*
X29228571Y38707143D01*
X29228571Y39064286D01*
X29300000Y39278571D01*
X29442857Y39421429D01*
X29585714Y39492857D01*
X29871429Y39564286D01*
X30085714Y39564286D01*
X30371429Y39492857D01*
X30514286Y39421429D01*
X30657143Y39278571D01*
X30728571Y39064286D01*
X30728571Y38707143D01*
X29157143Y41278571D02*
X31085714Y39992857D01*
X30728571Y42635715D02*
X30014286Y42135715D01*
X30728571Y41778572D02*
X29228571Y41778572D01*
X29228571Y42350000D01*
X29300000Y42492858D01*
X29371429Y42564286D01*
X29514286Y42635715D01*
X29728571Y42635715D01*
X29871429Y42564286D01*
X29942857Y42492858D01*
X30014286Y42350000D01*
X30014286Y41778572D01*
X29228571Y43564286D02*
X29228571Y43850000D01*
X29300000Y43992858D01*
X29442857Y44135715D01*
X29728571Y44207143D01*
X30228571Y44207143D01*
X30514286Y44135715D01*
X30657143Y43992858D01*
X30728571Y43850000D01*
X30728571Y43564286D01*
X30657143Y43421429D01*
X30514286Y43278572D01*
X30228571Y43207143D01*
X29728571Y43207143D01*
X29442857Y43278572D01*
X29300000Y43421429D01*
X29228571Y43564286D01*
X29228571Y44635715D02*
X29228571Y45492858D01*
X30728571Y45064287D02*
X29228571Y45064287D01*
X29942857Y45992858D02*
X29942857Y46492858D01*
X30728571Y46707144D02*
X30728571Y45992858D01*
X29228571Y45992858D01*
X29228571Y46707144D01*
X30728571Y47350001D02*
X29228571Y47350001D01*
X30728571Y48207144D01*
X29228571Y48207144D01*
X30585714Y49778573D02*
X30657143Y49707144D01*
X30728571Y49492858D01*
X30728571Y49350001D01*
X30657143Y49135716D01*
X30514286Y48992858D01*
X30371429Y48921430D01*
X30085714Y48850001D01*
X29871429Y48850001D01*
X29585714Y48921430D01*
X29442857Y48992858D01*
X29300000Y49135716D01*
X29228571Y49350001D01*
X29228571Y49492858D01*
X29300000Y49707144D01*
X29371429Y49778573D01*
X31921429Y37850001D02*
X31850000Y37921430D01*
X31778571Y38064287D01*
X31778571Y38421430D01*
X31850000Y38564287D01*
X31921429Y38635716D01*
X32064286Y38707144D01*
X32207143Y38707144D01*
X32421429Y38635716D01*
X33278571Y37778573D01*
X33278571Y38707144D01*
X31778571Y40064287D02*
X31778571Y39350001D01*
X32492857Y39278572D01*
X32421429Y39350001D01*
X32350000Y39492858D01*
X32350000Y39850001D01*
X32421429Y39992858D01*
X32492857Y40064287D01*
X32635714Y40135715D01*
X32992857Y40135715D01*
X33135714Y40064287D01*
X33207143Y39992858D01*
X33278571Y39850001D01*
X33278571Y39492858D01*
X33207143Y39350001D01*
X33135714Y39278572D01*
X31707143Y41850000D02*
X33635714Y40564286D01*
X31778571Y42207144D02*
X31778571Y43135715D01*
X32350000Y42635715D01*
X32350000Y42850001D01*
X32421429Y42992858D01*
X32492857Y43064287D01*
X32635714Y43135715D01*
X32992857Y43135715D01*
X33135714Y43064287D01*
X33207143Y42992858D01*
X33278571Y42850001D01*
X33278571Y42421429D01*
X33207143Y42278572D01*
X33135714Y42207144D01*
X32707143Y43778572D02*
X32707143Y44921429D01*
X33278571Y46421429D02*
X33278571Y45564286D01*
X33278571Y45992858D02*
X31778571Y45992858D01*
X31992857Y45850001D01*
X32135714Y45707143D01*
X32207143Y45564286D01*
X32421429Y47278572D02*
X32350000Y47135714D01*
X32278571Y47064286D01*
X32135714Y46992857D01*
X32064286Y46992857D01*
X31921429Y47064286D01*
X31850000Y47135714D01*
X31778571Y47278572D01*
X31778571Y47564286D01*
X31850000Y47707143D01*
X31921429Y47778572D01*
X32064286Y47850000D01*
X32135714Y47850000D01*
X32278571Y47778572D01*
X32350000Y47707143D01*
X32421429Y47564286D01*
X32421429Y47278572D01*
X32492857Y47135714D01*
X32564286Y47064286D01*
X32707143Y46992857D01*
X32992857Y46992857D01*
X33135714Y47064286D01*
X33207143Y47135714D01*
X33278571Y47278572D01*
X33278571Y47564286D01*
X33207143Y47707143D01*
X33135714Y47778572D01*
X32992857Y47850000D01*
X32707143Y47850000D01*
X32564286Y47778572D01*
X32492857Y47707143D01*
X32421429Y47564286D01*
M02*
