M48
;DRILL file {KiCad 4.0.7} date 03/25/18 12:16:07
;FORMAT={-:-/ absolute / metric / decimal}
FMAT,2
METRIC,TZ
T1C0.762
T2C1.000
T3C2.200
%
G90
G05
M71
T1
X26.695Y7.75
X31.775Y7.75
T2
X7.56Y4.525
X10.1Y4.525
X12.64Y4.525
X13.25Y48.45
X13.25Y33.95
X15.18Y4.525
X15.75Y33.95
X17.72Y4.525
X18.25Y48.45
X18.25Y33.95
X20.26Y4.525
X22.8Y4.525
X26.835Y4.525
X29.375Y4.525
X31.915Y4.525
X34.455Y4.525
T3
X10.15Y41.45
X21.35Y41.45
T0
M30
