M48
;DRILL file {KiCad 4.0.7} date 03/19/18 17:58:50
;FORMAT={-:-/ absolute / inch / decimal}
FMAT,2
INCH,TZ
T1C0.030
T2C0.031
T3C0.035
T4C0.039
T5C0.040
T6C0.060
T7C0.126
T8C0.128
%
G90
G05
M72
T1
X0.5461Y0.4308
X0.7461Y0.4308
X3.5221Y1.3938
X3.5221Y1.2938
X3.5221Y1.1938
X3.5221Y1.0938
X3.5221Y0.9938
X3.6221Y1.3438
X3.6221Y1.2438
X3.6221Y1.1438
X3.6221Y1.0438
T2
X0.7201Y1.0958
X0.8653Y2.3768
X1.2145Y2.205
X1.3416Y0.3101
X2.3208Y0.6683
X2.4041Y2.3698
X2.7472Y1.4597
X2.7641Y1.2238
X2.7901Y0.5898
X2.7941Y2.2018
X2.8041Y0.9878
X2.8061Y1.1138
X2.8194Y1.5148
X2.8365Y0.8354
X2.8381Y2.0878
X2.9608Y0.1481
X3.2918Y2.2953
X3.2921Y0.3698
X3.3481Y2.0798
X3.6921Y0.5258
T3
X0.5754Y1.8141
X0.5754Y1.7141
X0.5754Y1.6141
X0.5754Y1.5141
X0.6754Y1.7641
X0.6754Y1.6641
X0.6754Y1.5641
X0.6754Y1.4641
T4
X0.4797Y0.7458
X0.4801Y0.9458
X0.9641Y2.5478
X1.0641Y2.5478
X1.1641Y2.5478
X1.2641Y2.5478
X1.3641Y2.5478
X1.4641Y2.5478
X1.5641Y2.5478
T5
X1.9581Y2.2238
X1.9581Y2.1238
X1.9581Y2.0238
X1.9581Y1.9238
X1.9581Y1.8238
X1.9581Y1.7238
X1.9581Y1.6238
X1.9581Y1.5238
X1.9581Y1.4238
X1.9581Y1.3238
X1.9581Y1.2238
X1.9581Y1.1238
X1.9581Y1.0238
X1.9581Y0.9238
X1.9581Y0.8238
X1.9581Y0.7238
X1.9581Y0.6238
X1.9581Y0.5238
X1.9581Y0.4238
X1.9581Y0.3238
X2.2085Y2.0738
X2.3085Y2.0738
X2.5581Y2.2258
X2.5581Y2.1238
X2.5581Y2.0238
X2.5581Y1.9238
X2.5581Y1.8238
X2.5581Y1.7238
X2.5581Y1.6238
X2.5581Y1.5238
X2.5581Y1.4238
X2.5581Y1.3238
X2.5581Y1.2238
X2.5581Y1.1238
X2.5581Y1.0238
X2.5581Y0.9238
X2.5581Y0.8238
X2.5581Y0.7238
X2.5581Y0.6238
X2.5581Y0.5238
X2.5581Y0.4238
X2.5581Y0.3238
T6
X0.1681Y0.9478
X0.1681Y0.7478
T7
X3.5721Y1.686
X3.5721Y0.7017
T8
X0.3254Y1.8728
X0.3254Y1.4054
T0
M30
