%TF.GenerationSoftware,KiCad,Pcbnew,4.0.7*%
%TF.CreationDate,2018-03-19T17:58:48+01:00*%
%TF.ProjectId,dispenser,64697370656E7365722E6B696361645F,A*%
%TF.FileFunction,Copper,L1,Top,Signal*%
%FSLAX46Y46*%
G04 Gerber Fmt 4.6, Leading zero omitted, Abs format (unit mm)*
G04 Created by KiCad (PCBNEW 4.0.7) date 03/19/18 17:58:48*
%MOMM*%
%LPD*%
G01*
G04 APERTURE LIST*
%ADD10C,0.100000*%
%ADD11C,1.524000*%
%ADD12C,3.200000*%
%ADD13R,1.250000X1.500000*%
%ADD14R,2.500000X3.750000*%
%ADD15R,2.500000X4.000000*%
%ADD16R,3.300000X4.500000*%
%ADD17C,2.000000*%
%ADD18C,3.650000*%
%ADD19R,1.500000X1.500000*%
%ADD20C,1.500000*%
%ADD21R,1.700000X1.700000*%
%ADD22O,1.700000X1.700000*%
%ADD23R,3.000000X3.000000*%
%ADD24C,3.000000*%
%ADD25R,1.500000X2.200000*%
%ADD26R,1.300000X1.500000*%
%ADD27R,1.500000X1.300000*%
%ADD28R,2.250000X1.727200*%
%ADD29O,2.250000X1.727200*%
%ADD30O,1.727200X1.727200*%
%ADD31R,0.550000X1.750000*%
%ADD32R,3.800000X2.000000*%
%ADD33R,1.500000X2.000000*%
%ADD34R,1.500000X1.250000*%
%ADD35R,4.000000X2.500000*%
%ADD36C,0.800000*%
%ADD37C,0.400000*%
%ADD38C,1.000000*%
%ADD39C,0.300000*%
%ADD40C,0.254000*%
G04 APERTURE END LIST*
D10*
D11*
X89461200Y25243600D03*
X89461200Y27783600D03*
X89461200Y30323600D03*
X89461200Y32863600D03*
X89461200Y35403600D03*
X92001200Y26513600D03*
X92001200Y29053600D03*
X92001200Y31593600D03*
X92001200Y34133600D03*
D12*
X90731200Y17823600D03*
X90731200Y42823600D03*
D13*
X91137600Y12899200D03*
X91137600Y10399200D03*
X88445200Y12879200D03*
X88445200Y10379200D03*
X27509560Y22584308D03*
X27509560Y20084308D03*
D14*
X90985200Y56154600D03*
X90985200Y62404600D03*
X31217960Y23417908D03*
X31217960Y17167908D03*
D13*
X31548160Y36035508D03*
X31548160Y38535508D03*
D15*
X38458000Y42935200D03*
X38458000Y50935200D03*
D13*
X29415600Y44172000D03*
X29415600Y41672000D03*
X26723200Y44172000D03*
X26723200Y41672000D03*
D10*
G36*
X75724800Y36078800D02*
X75724800Y34578800D01*
X73724800Y34578800D01*
X73724800Y36078800D01*
X75724800Y36078800D01*
X75724800Y36078800D01*
G37*
G36*
X75724800Y33078800D02*
X75724800Y31578800D01*
X73724800Y31578800D01*
X73724800Y33078800D01*
X75724800Y33078800D01*
X75724800Y33078800D01*
G37*
G36*
X81524800Y33078800D02*
X81524800Y31578800D01*
X79524800Y31578800D01*
X79524800Y33078800D01*
X81524800Y33078800D01*
X81524800Y33078800D01*
G37*
G36*
X81524800Y36078800D02*
X81524800Y34578800D01*
X79524800Y34578800D01*
X79524800Y36078800D01*
X81524800Y36078800D01*
X81524800Y36078800D01*
G37*
G36*
X19538400Y24599200D02*
X23138400Y24599200D01*
X22138400Y20299200D01*
X20538400Y20299200D01*
X19538400Y24599200D01*
X19538400Y24599200D01*
G37*
G36*
X23138400Y13899200D02*
X19538400Y13899200D01*
X20538400Y18199200D01*
X22138400Y18199200D01*
X23138400Y13899200D01*
X23138400Y13899200D01*
G37*
D16*
X37391200Y25224000D03*
X37391200Y16424000D03*
D17*
X12194400Y24024400D03*
X12184400Y18944400D03*
D18*
X8264901Y35698291D03*
X8264901Y47568291D03*
D19*
X14614901Y46078291D03*
D20*
X17154901Y44808291D03*
X14614901Y43538291D03*
X17154901Y42268291D03*
X14614901Y40998291D03*
X17154901Y39728291D03*
X14614901Y38458291D03*
X17154901Y37188291D03*
D21*
X24488000Y64715200D03*
D22*
X27028000Y64715200D03*
X29568000Y64715200D03*
X32108000Y64715200D03*
X34648000Y64715200D03*
X37188000Y64715200D03*
X39728000Y64715200D03*
D23*
X4269600Y24075200D03*
D24*
X4269600Y18995200D03*
D25*
X34088560Y33018308D03*
X40488560Y33018308D03*
D26*
X74881600Y61899600D03*
X74881600Y59199600D03*
X71325600Y61899600D03*
X71325600Y59199600D03*
D27*
X25736400Y39569200D03*
X23036400Y39569200D03*
D26*
X20627200Y34815600D03*
X20627200Y37515600D03*
D28*
X49735600Y56485600D03*
D29*
X49735600Y53945600D03*
X49735600Y51405600D03*
X49735600Y48865600D03*
X49735600Y46325600D03*
X49735600Y43785600D03*
X49735600Y41245600D03*
X49735600Y38705600D03*
X49735600Y36165600D03*
X49735600Y33625600D03*
X49735600Y31085600D03*
X49735600Y28545600D03*
X49735600Y26005600D03*
X49735600Y23465600D03*
X49735600Y20925600D03*
X49735600Y18385600D03*
X49735600Y15845600D03*
X49735600Y13305600D03*
X49735600Y10765600D03*
X49735600Y8225600D03*
X64975600Y8225600D03*
X64975600Y10765600D03*
X64975600Y13305600D03*
X64975600Y15845600D03*
X64975600Y18385600D03*
X64975600Y20925600D03*
X64975600Y23465600D03*
X64975600Y26005600D03*
X64975600Y28545600D03*
X64975600Y31085600D03*
X64975600Y33625600D03*
X64975600Y36165600D03*
X64975600Y38705600D03*
X64975600Y41245600D03*
X64975600Y43785600D03*
X64975600Y46325600D03*
X64975600Y48865600D03*
X64975600Y51405600D03*
X64975600Y53945600D03*
X64975600Y56536400D03*
D30*
X58635600Y52675600D03*
X56095600Y52675600D03*
D31*
X27478561Y36671308D03*
X26208561Y36671308D03*
X24938561Y36671308D03*
X23668561Y36671308D03*
X23668561Y29271308D03*
X24938561Y29271308D03*
X26208561Y29271308D03*
X27478561Y29271308D03*
D32*
X26861600Y53235200D03*
D33*
X26861600Y46935200D03*
X29161600Y46935200D03*
X24561600Y46935200D03*
D34*
X80500400Y29358400D03*
X78000400Y29358400D03*
D35*
X16969600Y62175200D03*
X8969600Y62175200D03*
D11*
X13870800Y10943400D03*
X18950800Y10943400D03*
D20*
X85041600Y52828000D03*
X18290400Y27834400D03*
X70208000Y31085600D03*
X75204043Y3762021D03*
X93779200Y13356400D03*
X83611938Y58300029D03*
X61064000Y60194000D03*
X30848686Y56006468D03*
X72047515Y21220009D03*
X83619200Y9394000D03*
X69777821Y37077203D03*
X70970000Y55926800D03*
X71613869Y38477062D03*
X72087600Y53031200D03*
X58949119Y16974701D03*
X34075477Y7877017D03*
X71274800Y28291600D03*
X70868400Y14982000D03*
X71224000Y25091200D03*
X21977542Y60370769D03*
D36*
X98275000Y61438600D02*
X97309000Y62404600D01*
X97309000Y62404600D02*
X90985200Y62404600D01*
X98275000Y4187000D02*
X98275000Y61438600D01*
X95100000Y1012000D02*
X98275000Y4187000D01*
X22724570Y1012000D02*
X95100000Y1012000D01*
X13870800Y9865770D02*
X22724570Y1012000D01*
X13870800Y10943400D02*
X13870800Y9865770D01*
X88445200Y10254200D02*
X88445200Y10379200D01*
X75316841Y6346000D02*
X84537000Y6346000D01*
X28069400Y3475800D02*
X72446641Y3475800D01*
X84537000Y6346000D02*
X88445200Y10254200D01*
X21338400Y10206800D02*
X28069400Y3475800D01*
X72446641Y3475800D02*
X75316841Y6346000D01*
D37*
X21338400Y16049200D02*
X21338400Y10206800D01*
X78000400Y29358400D02*
X78000400Y32053200D01*
X78000400Y32053200D02*
X74724800Y35328800D01*
X24938561Y29271308D02*
X24938561Y31831458D01*
X24938561Y31831458D02*
X21954419Y34815600D01*
X21954419Y34815600D02*
X20627200Y34815600D01*
D38*
X18422435Y22449200D02*
X16439452Y20466217D01*
X92032811Y2212011D02*
X96593141Y6772341D01*
X16439452Y9009748D02*
X23237189Y2212011D01*
X96593141Y47245261D02*
X90959602Y52878800D01*
X23237189Y2212011D02*
X92032811Y2212011D01*
X16439452Y20466217D02*
X16439452Y9009748D01*
X96593141Y6772341D02*
X96593141Y47245261D01*
X23379708Y22584308D02*
X26215200Y22584308D01*
X26208561Y29271308D02*
X26208561Y22590947D01*
X26215200Y22584308D02*
X27509560Y22584308D01*
X26208561Y22590947D02*
X26215200Y22584308D01*
X23244600Y22449200D02*
X23379708Y22584308D01*
X18290400Y27834400D02*
X18290400Y22581235D01*
X18290400Y22581235D02*
X18422435Y22449200D01*
X19458800Y22449200D02*
X18422435Y22449200D01*
X19458800Y22449200D02*
X21338400Y22449200D01*
X23244600Y22449200D02*
X21338400Y22449200D01*
X90959602Y52878800D02*
X90985200Y52904398D01*
X90985200Y52904398D02*
X90985200Y56154600D01*
X90959602Y52878800D02*
X85092400Y52878800D01*
X85092400Y52878800D02*
X85041600Y52828000D01*
D36*
X31491761Y23691709D02*
X31217960Y23417908D01*
X27509560Y22584308D02*
X30384360Y22584308D01*
X30384360Y22584308D02*
X31217960Y23417908D01*
D37*
X74724800Y32328800D02*
X71451200Y32328800D01*
X71451200Y32328800D02*
X70208000Y31085600D01*
X76264703Y3762021D02*
X75204043Y3762021D01*
X88679986Y3762021D02*
X76264703Y3762021D01*
X93779200Y8861235D02*
X88679986Y3762021D01*
X93779200Y13356400D02*
X93779200Y8861235D01*
X91137600Y12899200D02*
X93322000Y12899200D01*
X93322000Y12899200D02*
X93779200Y13356400D01*
X88445200Y12879200D02*
X91117600Y12879200D01*
X91117600Y12879200D02*
X91137600Y12899200D01*
X84686000Y50592800D02*
X83611938Y51666862D01*
X83611938Y51666862D02*
X83611938Y58300029D01*
X90782000Y50592800D02*
X84686000Y50592800D01*
X93779200Y47595600D02*
X90782000Y50592800D01*
X93779200Y13356400D02*
X93779200Y47595600D01*
D39*
X80012367Y61899600D02*
X82861939Y59050028D01*
X74881600Y61899600D02*
X80012367Y61899600D01*
X82861939Y59050028D02*
X83611938Y58300029D01*
D37*
X71325600Y61899600D02*
X62769600Y61899600D01*
X62769600Y61899600D02*
X61064000Y60194000D01*
X34934618Y60092400D02*
X60962400Y60092400D01*
X60962400Y60092400D02*
X61064000Y60194000D01*
X30848686Y56006468D02*
X34934618Y60092400D01*
D39*
X71325600Y61899600D02*
X72275600Y61899600D01*
X72275600Y61899600D02*
X74881600Y61899600D01*
D37*
X26861600Y53235200D02*
X27761600Y53235200D01*
X30532868Y56006468D02*
X30848686Y56006468D01*
X27761600Y53235200D02*
X30532868Y56006468D01*
X26723200Y44172000D02*
X26723200Y46796800D01*
X26723200Y46796800D02*
X26861600Y46935200D01*
D38*
X37391200Y25224000D02*
X37391200Y31465668D01*
X37391200Y31465668D02*
X35838560Y33018308D01*
X35838560Y33018308D02*
X34088560Y33018308D01*
D37*
X31548160Y36035508D02*
X31548160Y35910508D01*
X31548160Y35910508D02*
X34088560Y33370108D01*
X34088560Y33370108D02*
X34088560Y33018308D01*
D36*
X31950561Y32668308D02*
X34088560Y32668308D01*
X28553561Y29271308D02*
X31950561Y32668308D01*
X27478561Y29271308D02*
X28553561Y29271308D01*
D37*
X34088560Y32668308D02*
X34088560Y33018308D01*
X72047515Y20965685D02*
X72047515Y21220009D01*
X83619200Y9394000D02*
X72047515Y20965685D01*
X70970000Y55926800D02*
X70970000Y58844000D01*
X70970000Y58844000D02*
X71325600Y59199600D01*
X69777821Y54734621D02*
X69777821Y37077203D01*
X70970000Y55926800D02*
X69777821Y54734621D01*
X74881600Y59199600D02*
X74881600Y55825200D01*
X74881600Y55825200D02*
X72087600Y53031200D01*
D39*
X72087600Y38950793D02*
X71613869Y38477062D01*
D37*
X72087600Y53031200D02*
X72087600Y38950793D01*
X59699118Y8817153D02*
X59699118Y16224702D01*
X34075477Y7877017D02*
X37576505Y4375989D01*
X59699118Y16224702D02*
X58949119Y16974701D01*
X55257954Y4375989D02*
X59699118Y8817153D01*
X37576505Y4375989D02*
X55257954Y4375989D01*
X31548160Y38535508D02*
X28742761Y38535508D01*
X28742761Y38535508D02*
X27478561Y37271308D01*
X27478561Y37271308D02*
X27478561Y36671308D01*
X71274800Y28291600D02*
X69437839Y26454639D01*
X69437839Y26454639D02*
X69437839Y17473221D01*
X69437839Y17473221D02*
X70868400Y16042660D01*
X70868400Y16042660D02*
X70868400Y14982000D01*
X23668561Y36671308D02*
X23668561Y38937039D01*
X23668561Y38937039D02*
X23036400Y39569200D01*
X22993561Y36671308D02*
X22149269Y37515600D01*
X22149269Y37515600D02*
X20627200Y37515600D01*
X22993561Y36671308D02*
X23668561Y36671308D01*
X29161600Y46935200D02*
X29161600Y48335200D01*
X29161600Y48335200D02*
X28015741Y49481059D01*
X28015741Y49481059D02*
X24278941Y49481059D01*
X24278941Y49481059D02*
X21977542Y51782458D01*
X21977542Y51782458D02*
X21977542Y59310109D01*
X21977542Y59310109D02*
X21977542Y60370769D01*
X40488560Y33018308D02*
X40488560Y11325840D01*
X74955581Y7257546D02*
X84079910Y7257546D01*
X61239000Y17829645D02*
X61239000Y6162525D01*
X40488560Y11325840D02*
X46230400Y5584000D01*
X46230400Y5584000D02*
X54358400Y5584000D01*
X85530564Y27323036D02*
X81345510Y31508090D01*
X85530564Y8708200D02*
X85530564Y27323036D01*
X84079910Y7257546D02*
X85530564Y8708200D01*
X54358400Y5584000D02*
X57001166Y8226766D01*
X57001166Y8226766D02*
X57001166Y18070425D01*
X72520035Y4822000D02*
X74955581Y7257546D01*
X57001166Y18070425D02*
X57861052Y18930311D01*
X81345510Y31508090D02*
X80524800Y32328800D01*
X57861052Y18930311D02*
X60138334Y18930311D01*
X60138334Y18930311D02*
X61239000Y17829645D01*
X61239000Y6162525D02*
X62579525Y4822000D01*
X62579525Y4822000D02*
X72520035Y4822000D01*
X79758400Y26970800D02*
X80500400Y27712800D01*
X80500400Y27712800D02*
X80500400Y29358400D01*
X73103600Y26970800D02*
X79758400Y26970800D01*
X71224000Y25091200D02*
X73103600Y26970800D01*
X80500400Y29358400D02*
X80500400Y32304400D01*
X80500400Y32304400D02*
X80524800Y32328800D01*
X16969600Y62175200D02*
X20173111Y62175200D01*
X20173111Y62175200D02*
X21977542Y60370769D01*
X29161600Y46935200D02*
X29135805Y46935200D01*
X29415600Y44172000D02*
X29415600Y46681200D01*
X29415600Y46681200D02*
X29161600Y46935200D01*
X25736400Y39569200D02*
X29689402Y39569200D01*
X29689402Y39569200D02*
X30402910Y40282708D01*
X30402910Y40282708D02*
X33574160Y40282708D01*
D38*
X38458000Y42935200D02*
X36187466Y42935200D01*
X36187466Y42935200D02*
X32187466Y46935200D01*
X32187466Y46935200D02*
X29161600Y46935200D01*
X29294000Y46802800D02*
X29161600Y46935200D01*
D37*
X33574160Y40282708D02*
X36226652Y42935200D01*
X36226652Y42935200D02*
X38458000Y42935200D01*
D38*
X40488560Y33018308D02*
X40488560Y40904640D01*
X40488560Y40904640D02*
X38458000Y42935200D01*
D36*
X41214160Y33743908D02*
X40488560Y33018308D01*
D37*
X40488560Y33018308D02*
X40488560Y33368308D01*
D40*
G36*
X99176067Y897771D02*
X92087918Y895973D01*
X92540632Y986023D01*
X92971142Y1273680D01*
X97531469Y5834008D01*
X97531472Y5834010D01*
X97819129Y6264520D01*
X97835888Y6348774D01*
X97920142Y6772341D01*
X97920141Y6772346D01*
X97920141Y47245261D01*
X97819129Y47753082D01*
X97531472Y48183592D01*
X92312200Y53402864D01*
X92312200Y53450888D01*
X92541668Y53494065D01*
X92823139Y53675187D01*
X93011969Y53951548D01*
X93078401Y54279600D01*
X93078401Y58029600D01*
X93020735Y58336068D01*
X92839613Y58617539D01*
X92563252Y58806369D01*
X92235200Y58872801D01*
X89735200Y58872801D01*
X89428732Y58815135D01*
X89147261Y58634013D01*
X88958431Y58357652D01*
X88891999Y58029600D01*
X88891999Y54279600D01*
X88905885Y54205800D01*
X85835727Y54205800D01*
X85356661Y54404725D01*
X84729292Y54405273D01*
X84638938Y54367940D01*
X84638938Y57096967D01*
X84948074Y57405564D01*
X85188663Y57984968D01*
X85189211Y58612337D01*
X84949633Y59192161D01*
X84506403Y59636165D01*
X83926999Y59876754D01*
X83416454Y59877200D01*
X81174804Y62118850D01*
X89100200Y62118850D01*
X89100200Y60403291D01*
X89196873Y60169902D01*
X89375501Y59991273D01*
X89608890Y59894600D01*
X90699450Y59894600D01*
X90858200Y60053350D01*
X90858200Y62277600D01*
X91112200Y62277600D01*
X91112200Y60053350D01*
X91270950Y59894600D01*
X92361510Y59894600D01*
X92594899Y59991273D01*
X92773527Y60169902D01*
X92870200Y60403291D01*
X92870200Y62118850D01*
X92711450Y62277600D01*
X91112200Y62277600D01*
X90858200Y62277600D01*
X89258950Y62277600D01*
X89100200Y62118850D01*
X81174804Y62118850D01*
X80703210Y62590443D01*
X80614675Y62649600D01*
X80386249Y62802230D01*
X80012367Y62876600D01*
X76332088Y62876600D01*
X76317135Y62956068D01*
X76136013Y63237539D01*
X75859652Y63426369D01*
X75531600Y63492801D01*
X74231600Y63492801D01*
X73925132Y63435135D01*
X73643661Y63254013D01*
X73454831Y62977652D01*
X73434368Y62876600D01*
X72776088Y62876600D01*
X72761135Y62956068D01*
X72580013Y63237539D01*
X72303652Y63426369D01*
X71975600Y63492801D01*
X70675600Y63492801D01*
X70369132Y63435135D01*
X70087661Y63254013D01*
X69898831Y62977652D01*
X69888493Y62926600D01*
X62769605Y62926600D01*
X62769600Y62926601D01*
X62441791Y62861394D01*
X62376584Y62848424D01*
X62043401Y62625799D01*
X62043399Y62625796D01*
X61188494Y61770891D01*
X60751692Y61771273D01*
X60171868Y61531695D01*
X59758853Y61119400D01*
X34934618Y61119400D01*
X34541602Y61041224D01*
X34208419Y60818599D01*
X34208417Y60818596D01*
X30973180Y57583359D01*
X30536378Y57583741D01*
X29956554Y57344163D01*
X29512550Y56900933D01*
X29271961Y56321529D01*
X29271853Y56197851D01*
X28152403Y55078401D01*
X24961600Y55078401D01*
X24655132Y55020735D01*
X24373661Y54839613D01*
X24184831Y54563252D01*
X24118399Y54235200D01*
X24118399Y52235200D01*
X24176065Y51928732D01*
X24357187Y51647261D01*
X24633548Y51458431D01*
X24961600Y51391999D01*
X28761600Y51391999D01*
X29068068Y51449665D01*
X29349539Y51630787D01*
X29538369Y51907148D01*
X29604801Y52235200D01*
X29604801Y53061509D01*
X36573000Y53061509D01*
X36573000Y51220950D01*
X36731750Y51062200D01*
X38331000Y51062200D01*
X38331000Y53411450D01*
X38585000Y53411450D01*
X38585000Y51062200D01*
X40184250Y51062200D01*
X40343000Y51220950D01*
X40343000Y53061509D01*
X40246327Y53294898D01*
X40067699Y53473527D01*
X39834310Y53570200D01*
X38743750Y53570200D01*
X38585000Y53411450D01*
X38331000Y53411450D01*
X38172250Y53570200D01*
X37081690Y53570200D01*
X36848301Y53473527D01*
X36669673Y53294898D01*
X36573000Y53061509D01*
X29604801Y53061509D01*
X29604801Y53626003D01*
X29924398Y53945600D01*
X47745358Y53945600D01*
X47874047Y53298635D01*
X48240523Y52750165D01*
X48352117Y52675600D01*
X48240523Y52601035D01*
X47874047Y52052565D01*
X47745358Y51405600D01*
X47874047Y50758635D01*
X48240523Y50210165D01*
X48352117Y50135600D01*
X48240523Y50061035D01*
X47874047Y49512565D01*
X47745358Y48865600D01*
X47874047Y48218635D01*
X48240523Y47670165D01*
X48352117Y47595600D01*
X48240523Y47521035D01*
X47874047Y46972565D01*
X47745358Y46325600D01*
X47874047Y45678635D01*
X48240523Y45130165D01*
X48352117Y45055600D01*
X48240523Y44981035D01*
X47874047Y44432565D01*
X47745358Y43785600D01*
X47874047Y43138635D01*
X48240523Y42590165D01*
X48352117Y42515600D01*
X48240523Y42441035D01*
X47874047Y41892565D01*
X47745358Y41245600D01*
X47874047Y40598635D01*
X48240523Y40050165D01*
X48352117Y39975600D01*
X48240523Y39901035D01*
X47874047Y39352565D01*
X47745358Y38705600D01*
X47874047Y38058635D01*
X48240523Y37510165D01*
X48352117Y37435600D01*
X48240523Y37361035D01*
X47874047Y36812565D01*
X47745358Y36165600D01*
X47874047Y35518635D01*
X48240523Y34970165D01*
X48352117Y34895600D01*
X48240523Y34821035D01*
X47874047Y34272565D01*
X47745358Y33625600D01*
X47874047Y32978635D01*
X48240523Y32430165D01*
X48352117Y32355600D01*
X48240523Y32281035D01*
X47874047Y31732565D01*
X47745358Y31085600D01*
X47874047Y30438635D01*
X48240523Y29890165D01*
X48352117Y29815600D01*
X48240523Y29741035D01*
X47874047Y29192565D01*
X47745358Y28545600D01*
X47874047Y27898635D01*
X48240523Y27350165D01*
X48352117Y27275600D01*
X48240523Y27201035D01*
X47874047Y26652565D01*
X47745358Y26005600D01*
X47874047Y25358635D01*
X48240523Y24810165D01*
X48352117Y24735600D01*
X48240523Y24661035D01*
X47874047Y24112565D01*
X47745358Y23465600D01*
X47874047Y22818635D01*
X48240523Y22270165D01*
X48352117Y22195600D01*
X48240523Y22121035D01*
X47874047Y21572565D01*
X47745358Y20925600D01*
X47874047Y20278635D01*
X48240523Y19730165D01*
X48352117Y19655600D01*
X48240523Y19581035D01*
X47874047Y19032565D01*
X47745358Y18385600D01*
X47874047Y17738635D01*
X48240523Y17190165D01*
X48352117Y17115600D01*
X48240523Y17041035D01*
X47874047Y16492565D01*
X47745358Y15845600D01*
X47874047Y15198635D01*
X48240523Y14650165D01*
X48352117Y14575600D01*
X48240523Y14501035D01*
X47874047Y13952565D01*
X47745358Y13305600D01*
X47874047Y12658635D01*
X48240523Y12110165D01*
X48541896Y11908794D01*
X48324727Y11735468D01*
X48041073Y11221757D01*
X48019242Y11124626D01*
X48140383Y10892600D01*
X49608600Y10892600D01*
X49608600Y10912600D01*
X49862600Y10912600D01*
X49862600Y10892600D01*
X51330817Y10892600D01*
X51451958Y11124626D01*
X51430127Y11221757D01*
X51146473Y11735468D01*
X50929304Y11908794D01*
X51230677Y12110165D01*
X51597153Y12658635D01*
X51725842Y13305600D01*
X51597153Y13952565D01*
X51230677Y14501035D01*
X51119083Y14575600D01*
X51230677Y14650165D01*
X51597153Y15198635D01*
X51725842Y15845600D01*
X51597153Y16492565D01*
X51230677Y17041035D01*
X51119083Y17115600D01*
X51230677Y17190165D01*
X51597153Y17738635D01*
X51725842Y18385600D01*
X51597153Y19032565D01*
X51230677Y19581035D01*
X51119083Y19655600D01*
X51230677Y19730165D01*
X51597153Y20278635D01*
X51725842Y20925600D01*
X51597153Y21572565D01*
X51230677Y22121035D01*
X51119083Y22195600D01*
X51230677Y22270165D01*
X51597153Y22818635D01*
X51725842Y23465600D01*
X51597153Y24112565D01*
X51230677Y24661035D01*
X51119083Y24735600D01*
X51230677Y24810165D01*
X51597153Y25358635D01*
X51725842Y26005600D01*
X51597153Y26652565D01*
X51230677Y27201035D01*
X51119083Y27275600D01*
X51230677Y27350165D01*
X51597153Y27898635D01*
X51725842Y28545600D01*
X51597153Y29192565D01*
X51230677Y29741035D01*
X51119083Y29815600D01*
X51230677Y29890165D01*
X51597153Y30438635D01*
X51725842Y31085600D01*
X51597153Y31732565D01*
X51230677Y32281035D01*
X51119083Y32355600D01*
X51230677Y32430165D01*
X51597153Y32978635D01*
X51725842Y33625600D01*
X51597153Y34272565D01*
X51230677Y34821035D01*
X51119083Y34895600D01*
X51230677Y34970165D01*
X51597153Y35518635D01*
X51725842Y36165600D01*
X51597153Y36812565D01*
X51230677Y37361035D01*
X51119083Y37435600D01*
X51230677Y37510165D01*
X51597153Y38058635D01*
X51725842Y38705600D01*
X51597153Y39352565D01*
X51230677Y39901035D01*
X51119083Y39975600D01*
X51230677Y40050165D01*
X51597153Y40598635D01*
X51725842Y41245600D01*
X51597153Y41892565D01*
X51230677Y42441035D01*
X51119083Y42515600D01*
X51230677Y42590165D01*
X51597153Y43138635D01*
X51725842Y43785600D01*
X51597153Y44432565D01*
X51230677Y44981035D01*
X51119083Y45055600D01*
X51230677Y45130165D01*
X51597153Y45678635D01*
X51725842Y46325600D01*
X51597153Y46972565D01*
X51230677Y47521035D01*
X51119083Y47595600D01*
X51230677Y47670165D01*
X51597153Y48218635D01*
X51725842Y48865600D01*
X51597153Y49512565D01*
X51230677Y50061035D01*
X51119083Y50135600D01*
X51230677Y50210165D01*
X51597153Y50758635D01*
X51725842Y51405600D01*
X51597153Y52052565D01*
X51230677Y52601035D01*
X51119083Y52675600D01*
X51168651Y52708721D01*
X54405000Y52708721D01*
X54405000Y52642479D01*
X54533689Y51995514D01*
X54900165Y51447044D01*
X55448635Y51080568D01*
X56095600Y50951879D01*
X56742565Y51080568D01*
X57291035Y51447044D01*
X57365600Y51558638D01*
X57440165Y51447044D01*
X57988635Y51080568D01*
X58635600Y50951879D01*
X59282565Y51080568D01*
X59769009Y51405600D01*
X62985358Y51405600D01*
X63114047Y50758635D01*
X63480523Y50210165D01*
X63592117Y50135600D01*
X63480523Y50061035D01*
X63114047Y49512565D01*
X62985358Y48865600D01*
X63114047Y48218635D01*
X63480523Y47670165D01*
X63592117Y47595600D01*
X63480523Y47521035D01*
X63114047Y46972565D01*
X62985358Y46325600D01*
X63114047Y45678635D01*
X63480523Y45130165D01*
X63592117Y45055600D01*
X63480523Y44981035D01*
X63114047Y44432565D01*
X62985358Y43785600D01*
X63114047Y43138635D01*
X63480523Y42590165D01*
X63592117Y42515600D01*
X63480523Y42441035D01*
X63114047Y41892565D01*
X62985358Y41245600D01*
X63114047Y40598635D01*
X63480523Y40050165D01*
X63592117Y39975600D01*
X63480523Y39901035D01*
X63114047Y39352565D01*
X62985358Y38705600D01*
X63114047Y38058635D01*
X63480523Y37510165D01*
X63592117Y37435600D01*
X63480523Y37361035D01*
X63114047Y36812565D01*
X62985358Y36165600D01*
X63114047Y35518635D01*
X63480523Y34970165D01*
X63592117Y34895600D01*
X63480523Y34821035D01*
X63114047Y34272565D01*
X62985358Y33625600D01*
X63114047Y32978635D01*
X63480523Y32430165D01*
X63592117Y32355600D01*
X63480523Y32281035D01*
X63114047Y31732565D01*
X62985358Y31085600D01*
X63114047Y30438635D01*
X63480523Y29890165D01*
X63592117Y29815600D01*
X63480523Y29741035D01*
X63114047Y29192565D01*
X62985358Y28545600D01*
X63114047Y27898635D01*
X63480523Y27350165D01*
X63592117Y27275600D01*
X63480523Y27201035D01*
X63114047Y26652565D01*
X62985358Y26005600D01*
X63114047Y25358635D01*
X63480523Y24810165D01*
X63592117Y24735600D01*
X63480523Y24661035D01*
X63114047Y24112565D01*
X62985358Y23465600D01*
X63114047Y22818635D01*
X63480523Y22270165D01*
X63592117Y22195600D01*
X63480523Y22121035D01*
X63114047Y21572565D01*
X62985358Y20925600D01*
X63114047Y20278635D01*
X63480523Y19730165D01*
X63592117Y19655600D01*
X63480523Y19581035D01*
X63114047Y19032565D01*
X62985358Y18385600D01*
X63114047Y17738635D01*
X63480523Y17190165D01*
X63592117Y17115600D01*
X63480523Y17041035D01*
X63114047Y16492565D01*
X62985358Y15845600D01*
X63114047Y15198635D01*
X63480523Y14650165D01*
X63592117Y14575600D01*
X63480523Y14501035D01*
X63114047Y13952565D01*
X62985358Y13305600D01*
X63114047Y12658635D01*
X63480523Y12110165D01*
X63592117Y12035600D01*
X63480523Y11961035D01*
X63114047Y11412565D01*
X62985358Y10765600D01*
X63114047Y10118635D01*
X63480523Y9570165D01*
X63592117Y9495600D01*
X63480523Y9421035D01*
X63114047Y8872565D01*
X62985358Y8225600D01*
X63114047Y7578635D01*
X63480523Y7030165D01*
X64028993Y6663689D01*
X64675958Y6535000D01*
X65275242Y6535000D01*
X65922207Y6663689D01*
X66470677Y7030165D01*
X66837153Y7578635D01*
X66965842Y8225600D01*
X66837153Y8872565D01*
X66470677Y9421035D01*
X66359083Y9495600D01*
X66470677Y9570165D01*
X66837153Y10118635D01*
X66965842Y10765600D01*
X66837153Y11412565D01*
X66470677Y11961035D01*
X66359083Y12035600D01*
X66470677Y12110165D01*
X66837153Y12658635D01*
X66965842Y13305600D01*
X66837153Y13952565D01*
X66470677Y14501035D01*
X66359083Y14575600D01*
X66470677Y14650165D01*
X66837153Y15198635D01*
X66965842Y15845600D01*
X66837153Y16492565D01*
X66470677Y17041035D01*
X66359083Y17115600D01*
X66470677Y17190165D01*
X66837153Y17738635D01*
X66965842Y18385600D01*
X66837153Y19032565D01*
X66470677Y19581035D01*
X66359083Y19655600D01*
X66470677Y19730165D01*
X66837153Y20278635D01*
X66965842Y20925600D01*
X66837153Y21572565D01*
X66470677Y22121035D01*
X66359083Y22195600D01*
X66470677Y22270165D01*
X66837153Y22818635D01*
X66965842Y23465600D01*
X66837153Y24112565D01*
X66470677Y24661035D01*
X66359083Y24735600D01*
X66470677Y24810165D01*
X66837153Y25358635D01*
X66965842Y26005600D01*
X66837153Y26652565D01*
X66470677Y27201035D01*
X66359083Y27275600D01*
X66470677Y27350165D01*
X66837153Y27898635D01*
X66965842Y28545600D01*
X66837153Y29192565D01*
X66470677Y29741035D01*
X66359083Y29815600D01*
X66470677Y29890165D01*
X66837153Y30438635D01*
X66965842Y31085600D01*
X66837153Y31732565D01*
X66470677Y32281035D01*
X66359083Y32355600D01*
X66470677Y32430165D01*
X66837153Y32978635D01*
X66965842Y33625600D01*
X66837153Y34272565D01*
X66470677Y34821035D01*
X66359083Y34895600D01*
X66470677Y34970165D01*
X66625450Y35201800D01*
X73077360Y35201800D01*
X73077360Y34578800D01*
X73121638Y34343483D01*
X73260710Y34127359D01*
X73472910Y33982369D01*
X73724800Y33931360D01*
X74597800Y33931360D01*
X74597800Y35201800D01*
X74851800Y35201800D01*
X74851800Y33931360D01*
X75724800Y33931360D01*
X75960117Y33975638D01*
X76176241Y34114710D01*
X76321231Y34326910D01*
X76372240Y34578800D01*
X76372240Y35201800D01*
X74851800Y35201800D01*
X74597800Y35201800D01*
X73077360Y35201800D01*
X66625450Y35201800D01*
X66837153Y35518635D01*
X66965842Y36165600D01*
X66837153Y36812565D01*
X66470677Y37361035D01*
X66359083Y37435600D01*
X66470677Y37510165D01*
X66837153Y38058635D01*
X66965842Y38705600D01*
X66837153Y39352565D01*
X66470677Y39901035D01*
X66359083Y39975600D01*
X66470677Y40050165D01*
X66837153Y40598635D01*
X66965842Y41245600D01*
X66837153Y41892565D01*
X66470677Y42441035D01*
X66359083Y42515600D01*
X66470677Y42590165D01*
X66837153Y43138635D01*
X66965842Y43785600D01*
X66837153Y44432565D01*
X66470677Y44981035D01*
X66359083Y45055600D01*
X66470677Y45130165D01*
X66837153Y45678635D01*
X66965842Y46325600D01*
X66837153Y46972565D01*
X66470677Y47521035D01*
X66359083Y47595600D01*
X66470677Y47670165D01*
X66837153Y48218635D01*
X66965842Y48865600D01*
X66837153Y49512565D01*
X66470677Y50061035D01*
X66359083Y50135600D01*
X66470677Y50210165D01*
X66837153Y50758635D01*
X66965842Y51405600D01*
X66837153Y52052565D01*
X66470677Y52601035D01*
X66169304Y52802406D01*
X66386473Y52975732D01*
X66670127Y53489443D01*
X66691958Y53586574D01*
X66570817Y53818600D01*
X65102600Y53818600D01*
X65102600Y53798600D01*
X64848600Y53798600D01*
X64848600Y53818600D01*
X63380383Y53818600D01*
X63259242Y53586574D01*
X63281073Y53489443D01*
X63564727Y52975732D01*
X63781896Y52802406D01*
X63480523Y52601035D01*
X63114047Y52052565D01*
X62985358Y51405600D01*
X59769009Y51405600D01*
X59831035Y51447044D01*
X60197511Y51995514D01*
X60326200Y52642479D01*
X60326200Y52708721D01*
X60197511Y53355686D01*
X59831035Y53904156D01*
X59282565Y54270632D01*
X58635600Y54399321D01*
X57988635Y54270632D01*
X57440165Y53904156D01*
X57365600Y53792562D01*
X57291035Y53904156D01*
X56742565Y54270632D01*
X56095600Y54399321D01*
X55448635Y54270632D01*
X54900165Y53904156D01*
X54533689Y53355686D01*
X54405000Y52708721D01*
X51168651Y52708721D01*
X51230677Y52750165D01*
X51597153Y53298635D01*
X51725842Y53945600D01*
X51597153Y54592565D01*
X51353867Y54956667D01*
X51448539Y55017587D01*
X51637369Y55293948D01*
X51703801Y55622000D01*
X51703801Y56536400D01*
X62985358Y56536400D01*
X63114047Y55889435D01*
X63480523Y55340965D01*
X63816541Y55116445D01*
X63564727Y54915468D01*
X63281073Y54401757D01*
X63259242Y54304626D01*
X63380383Y54072600D01*
X64848600Y54072600D01*
X64848600Y54092600D01*
X65102600Y54092600D01*
X65102600Y54072600D01*
X66570817Y54072600D01*
X66691958Y54304626D01*
X66670127Y54401757D01*
X66386473Y54915468D01*
X66134659Y55116445D01*
X66470677Y55340965D01*
X66837153Y55889435D01*
X66965842Y56536400D01*
X66837153Y57183365D01*
X66470677Y57731835D01*
X65922207Y58098311D01*
X65275242Y58227000D01*
X64675958Y58227000D01*
X64028993Y58098311D01*
X63480523Y57731835D01*
X63114047Y57183365D01*
X62985358Y56536400D01*
X51703801Y56536400D01*
X51703801Y57349200D01*
X51646135Y57655668D01*
X51465013Y57937139D01*
X51188652Y58125969D01*
X50860600Y58192401D01*
X48610600Y58192401D01*
X48304132Y58134735D01*
X48022661Y57953613D01*
X47833831Y57677252D01*
X47767399Y57349200D01*
X47767399Y55622000D01*
X47825065Y55315532D01*
X48006187Y55034061D01*
X48117998Y54957664D01*
X47874047Y54592565D01*
X47745358Y53945600D01*
X29924398Y53945600D01*
X30445241Y54466443D01*
X30533625Y54429743D01*
X31160994Y54429195D01*
X31740818Y54668773D01*
X32184822Y55112003D01*
X32425411Y55691407D01*
X32425795Y56131179D01*
X35360015Y59065400D01*
X59962361Y59065400D01*
X60169535Y58857864D01*
X60748939Y58617275D01*
X61376308Y58616727D01*
X61956132Y58856305D01*
X62400136Y59299535D01*
X62640725Y59878939D01*
X62641109Y60318712D01*
X63194997Y60872600D01*
X69884520Y60872600D01*
X69890065Y60843132D01*
X70071187Y60561661D01*
X70085980Y60551553D01*
X69898831Y60277652D01*
X69832399Y59949600D01*
X69832399Y58449600D01*
X69890065Y58143132D01*
X69943000Y58060869D01*
X69943000Y57129862D01*
X69633864Y56821265D01*
X69393275Y56241861D01*
X69392891Y55802089D01*
X69051622Y55460820D01*
X68828997Y55127637D01*
X68750821Y54734621D01*
X68750821Y38280265D01*
X68441685Y37971668D01*
X68201096Y37392264D01*
X68200548Y36764895D01*
X68440126Y36185071D01*
X68883356Y35741067D01*
X69462760Y35500478D01*
X70090129Y35499930D01*
X70669953Y35739508D01*
X71009837Y36078800D01*
X73077360Y36078800D01*
X73077360Y35455800D01*
X74597800Y35455800D01*
X74597800Y36726240D01*
X74851800Y36726240D01*
X74851800Y35455800D01*
X76372240Y35455800D01*
X76372240Y36078800D01*
X76327962Y36314117D01*
X76188890Y36530241D01*
X75976690Y36675231D01*
X75724800Y36726240D01*
X74851800Y36726240D01*
X74597800Y36726240D01*
X73724800Y36726240D01*
X73489483Y36681962D01*
X73273359Y36542890D01*
X73128369Y36330690D01*
X73077360Y36078800D01*
X71009837Y36078800D01*
X71113957Y36182738D01*
X71354546Y36762142D01*
X71354667Y36900288D01*
X71926177Y36899789D01*
X72506001Y37139367D01*
X72950005Y37582597D01*
X73190594Y38162001D01*
X73191142Y38789370D01*
X73114600Y38974616D01*
X73114600Y51828138D01*
X73423736Y52136735D01*
X73664325Y52716139D01*
X73664709Y53155911D01*
X75607796Y55098999D01*
X75607799Y55099001D01*
X75830424Y55432184D01*
X75866481Y55613453D01*
X75908601Y55825200D01*
X75908600Y55825205D01*
X75908600Y57709451D01*
X76119539Y57845187D01*
X76308369Y58121548D01*
X76374801Y58449600D01*
X76374801Y59949600D01*
X76317135Y60256068D01*
X76136013Y60537539D01*
X76121220Y60547647D01*
X76308369Y60821548D01*
X76328832Y60922600D01*
X79607681Y60922600D01*
X82035108Y58495172D01*
X82034665Y57987721D01*
X82274243Y57407897D01*
X82584938Y57096659D01*
X82584938Y51666862D01*
X82663114Y51273846D01*
X82885739Y50940663D01*
X83959801Y49866601D01*
X84292984Y49643976D01*
X84686000Y49565800D01*
X90356602Y49565800D01*
X92752200Y47170202D01*
X92752200Y44234365D01*
X92107780Y44879911D01*
X91216078Y45250178D01*
X90250558Y45251021D01*
X89358211Y44882310D01*
X88674889Y44200180D01*
X88304622Y43308478D01*
X88303779Y42342958D01*
X88672490Y41450611D01*
X89354620Y40767289D01*
X90246322Y40397022D01*
X91211842Y40396179D01*
X92104189Y40764890D01*
X92752200Y41411771D01*
X92752200Y35542301D01*
X92318658Y35722323D01*
X91686515Y35722875D01*
X91102280Y35481474D01*
X91050223Y35429508D01*
X91050475Y35718285D01*
X90809074Y36302520D01*
X90362471Y36749903D01*
X89778658Y36992323D01*
X89146515Y36992875D01*
X88562280Y36751474D01*
X88114897Y36304871D01*
X87872477Y35721058D01*
X87871925Y35088915D01*
X88113326Y34504680D01*
X88484014Y34133345D01*
X88114897Y33764871D01*
X87872477Y33181058D01*
X87871925Y32548915D01*
X88113326Y31964680D01*
X88484014Y31593345D01*
X88114897Y31224871D01*
X87872477Y30641058D01*
X87871925Y30008915D01*
X88113326Y29424680D01*
X88484014Y29053345D01*
X88114897Y28684871D01*
X87872477Y28101058D01*
X87871925Y27468915D01*
X88113326Y26884680D01*
X88559929Y26437297D01*
X88704595Y26377226D01*
X88660592Y26223813D01*
X89461200Y25423205D01*
X89475343Y25437347D01*
X89654948Y25257742D01*
X89640805Y25243600D01*
X90441413Y24442992D01*
X90683597Y24512457D01*
X90870344Y25035902D01*
X90851301Y25416359D01*
X91099929Y25167297D01*
X91683742Y24924877D01*
X92315885Y24924325D01*
X92752200Y25104607D01*
X92752200Y19234365D01*
X92107780Y19879911D01*
X91216078Y20250178D01*
X90250558Y20251021D01*
X89358211Y19882310D01*
X88674889Y19200180D01*
X88304622Y18308478D01*
X88303779Y17342958D01*
X88672490Y16450611D01*
X89354620Y15767289D01*
X90246322Y15397022D01*
X91211842Y15396179D01*
X92104189Y15764890D01*
X92752200Y16411771D01*
X92752200Y14559462D01*
X92443064Y14250865D01*
X92409772Y14170689D01*
X92367013Y14237139D01*
X92090652Y14425969D01*
X91762600Y14492401D01*
X90512600Y14492401D01*
X90206132Y14434735D01*
X89924661Y14253613D01*
X89783800Y14047457D01*
X89674613Y14217139D01*
X89398252Y14405969D01*
X89070200Y14472401D01*
X87820200Y14472401D01*
X87513732Y14414735D01*
X87232261Y14233613D01*
X87043431Y13957252D01*
X86976999Y13629200D01*
X86976999Y12129200D01*
X87034665Y11822732D01*
X87215787Y11541261D01*
X87286155Y11493180D01*
X87281873Y11488898D01*
X87185200Y11255509D01*
X87185200Y10664950D01*
X87343950Y10506200D01*
X88318200Y10506200D01*
X88318200Y10526200D01*
X88572200Y10526200D01*
X88572200Y10506200D01*
X89546450Y10506200D01*
X89705200Y10664950D01*
X89705200Y11255509D01*
X89608527Y11488898D01*
X89606115Y11491310D01*
X89658139Y11524787D01*
X89799000Y11730943D01*
X89908187Y11561261D01*
X89978555Y11513180D01*
X89974273Y11508898D01*
X89877600Y11275509D01*
X89877600Y10684950D01*
X90036350Y10526200D01*
X91010600Y10526200D01*
X91010600Y10546200D01*
X91264600Y10546200D01*
X91264600Y10526200D01*
X92238850Y10526200D01*
X92397600Y10684950D01*
X92397600Y11275509D01*
X92300927Y11508898D01*
X92298515Y11511310D01*
X92350539Y11544787D01*
X92539369Y11821148D01*
X92549707Y11872200D01*
X92752200Y11872200D01*
X92752200Y9286632D01*
X88254588Y4789021D01*
X76407105Y4789021D01*
X76098508Y5098157D01*
X75519104Y5338746D01*
X74891735Y5339294D01*
X74311911Y5099716D01*
X73867907Y4656486D01*
X73627318Y4077082D01*
X73626848Y3539011D01*
X55818360Y3539011D01*
X55984153Y3649790D01*
X55984154Y3649791D01*
X60212000Y7877638D01*
X60212000Y6162525D01*
X60290176Y5769509D01*
X60512801Y5436326D01*
X61853324Y4095804D01*
X61853326Y4095801D01*
X62186509Y3873176D01*
X62251716Y3860206D01*
X62579525Y3794999D01*
X62579530Y3795000D01*
X72520035Y3795000D01*
X72913051Y3873176D01*
X73246234Y4095801D01*
X75380979Y6230546D01*
X84079910Y6230546D01*
X84472926Y6308722D01*
X84806109Y6531347D01*
X86256760Y7981999D01*
X86256763Y7982001D01*
X86479388Y8315184D01*
X86532984Y8584626D01*
X86557565Y8708200D01*
X86557564Y8708205D01*
X86557564Y10093450D01*
X87185200Y10093450D01*
X87185200Y9502891D01*
X87281873Y9269502D01*
X87460501Y9090873D01*
X87693890Y8994200D01*
X88159450Y8994200D01*
X88318200Y9152950D01*
X88318200Y10252200D01*
X88572200Y10252200D01*
X88572200Y9152950D01*
X88730950Y8994200D01*
X89196510Y8994200D01*
X89429899Y9090873D01*
X89608527Y9269502D01*
X89705200Y9502891D01*
X89705200Y10093450D01*
X89685200Y10113450D01*
X89877600Y10113450D01*
X89877600Y9522891D01*
X89974273Y9289502D01*
X90152901Y9110873D01*
X90386290Y9014200D01*
X90851850Y9014200D01*
X91010600Y9172950D01*
X91010600Y10272200D01*
X91264600Y10272200D01*
X91264600Y9172950D01*
X91423350Y9014200D01*
X91888910Y9014200D01*
X92122299Y9110873D01*
X92300927Y9289502D01*
X92397600Y9522891D01*
X92397600Y10113450D01*
X92238850Y10272200D01*
X91264600Y10272200D01*
X91010600Y10272200D01*
X90036350Y10272200D01*
X89877600Y10113450D01*
X89685200Y10113450D01*
X89546450Y10252200D01*
X88572200Y10252200D01*
X88318200Y10252200D01*
X87343950Y10252200D01*
X87185200Y10093450D01*
X86557564Y10093450D01*
X86557564Y24263387D01*
X88660592Y24263387D01*
X88730057Y24021203D01*
X89253502Y23834456D01*
X89808568Y23862238D01*
X90192343Y24021203D01*
X90261808Y24263387D01*
X89461200Y25063995D01*
X88660592Y24263387D01*
X86557564Y24263387D01*
X86557564Y25451298D01*
X88052056Y25451298D01*
X88079838Y24896232D01*
X88238803Y24512457D01*
X88480987Y24442992D01*
X89281595Y25243600D01*
X88480987Y26044208D01*
X88238803Y25974743D01*
X88052056Y25451298D01*
X86557564Y25451298D01*
X86557564Y27323036D01*
X86479388Y27716052D01*
X86256763Y28049235D01*
X82368001Y31937997D01*
X82368001Y33078800D01*
X82310335Y33385268D01*
X82129213Y33666739D01*
X81889343Y33830635D01*
X82112739Y33974387D01*
X82301569Y34250748D01*
X82368001Y34578800D01*
X82368001Y36078800D01*
X82310335Y36385268D01*
X82129213Y36666739D01*
X81852852Y36855569D01*
X81524800Y36922001D01*
X79524800Y36922001D01*
X79218332Y36864335D01*
X78936861Y36683213D01*
X78748031Y36406852D01*
X78681599Y36078800D01*
X78681599Y34578800D01*
X78739265Y34272332D01*
X78920387Y33990861D01*
X79160257Y33826965D01*
X78936861Y33683213D01*
X78748031Y33406852D01*
X78681599Y33078800D01*
X78681599Y31578800D01*
X78739265Y31272332D01*
X78920387Y30990861D01*
X79196748Y30802031D01*
X79423885Y30756035D01*
X79162461Y30587813D01*
X79114380Y30517445D01*
X79110098Y30521727D01*
X78876709Y30618400D01*
X78286150Y30618400D01*
X78127400Y30459650D01*
X78127400Y29485400D01*
X78147400Y29485400D01*
X78147400Y29231400D01*
X78127400Y29231400D01*
X78127400Y28257150D01*
X78286150Y28098400D01*
X78876709Y28098400D01*
X79110098Y28195073D01*
X79112510Y28197485D01*
X79145987Y28145461D01*
X79344812Y28009609D01*
X79333002Y27997800D01*
X73103605Y27997800D01*
X73103600Y27997801D01*
X72838453Y27945059D01*
X72851525Y27976539D01*
X72852073Y28603908D01*
X72658394Y29072650D01*
X76615400Y29072650D01*
X76615400Y28607090D01*
X76712073Y28373701D01*
X76890702Y28195073D01*
X77124091Y28098400D01*
X77714650Y28098400D01*
X77873400Y28257150D01*
X77873400Y29231400D01*
X76774150Y29231400D01*
X76615400Y29072650D01*
X72658394Y29072650D01*
X72612495Y29183732D01*
X72169265Y29627736D01*
X71589861Y29868325D01*
X71221085Y29868647D01*
X71462568Y30109710D01*
X76615400Y30109710D01*
X76615400Y29644150D01*
X76774150Y29485400D01*
X77873400Y29485400D01*
X77873400Y30459650D01*
X77714650Y30618400D01*
X77124091Y30618400D01*
X76890702Y30521727D01*
X76712073Y30343099D01*
X76615400Y30109710D01*
X71462568Y30109710D01*
X71544136Y30191135D01*
X71784725Y30770539D01*
X71785109Y31210312D01*
X71876597Y31301800D01*
X72933720Y31301800D01*
X72939265Y31272332D01*
X73120387Y30990861D01*
X73396748Y30802031D01*
X73724800Y30735599D01*
X75724800Y30735599D01*
X76031268Y30793265D01*
X76312739Y30974387D01*
X76501569Y31250748D01*
X76568001Y31578800D01*
X76568001Y33078800D01*
X76510335Y33385268D01*
X76329213Y33666739D01*
X76052852Y33855569D01*
X75724800Y33922001D01*
X73724800Y33922001D01*
X73418332Y33864335D01*
X73136861Y33683213D01*
X72948031Y33406852D01*
X72937693Y33355800D01*
X71451200Y33355800D01*
X71058184Y33277624D01*
X70725001Y33054999D01*
X70724999Y33054996D01*
X70332494Y32662491D01*
X69895692Y32662873D01*
X69315868Y32423295D01*
X68871864Y31980065D01*
X68631275Y31400661D01*
X68630727Y30773292D01*
X68870305Y30193468D01*
X69313535Y29749464D01*
X69892939Y29508875D01*
X70261715Y29508553D01*
X69938664Y29186065D01*
X69698075Y28606661D01*
X69697691Y28166889D01*
X68711640Y27180838D01*
X68489015Y26847655D01*
X68410839Y26454639D01*
X68410839Y17473221D01*
X68489015Y17080205D01*
X68711640Y16747022D01*
X69557252Y15901410D01*
X69532264Y15876465D01*
X69291675Y15297061D01*
X69291127Y14669692D01*
X69530705Y14089868D01*
X69973935Y13645864D01*
X70553339Y13405275D01*
X71180708Y13404727D01*
X71760532Y13644305D01*
X72204536Y14087535D01*
X72445125Y14666939D01*
X72445673Y15294308D01*
X72206095Y15874132D01*
X71859950Y16220882D01*
X71817224Y16435675D01*
X71817224Y16435676D01*
X71594599Y16768859D01*
X70464839Y17898619D01*
X70464839Y23698881D01*
X70908939Y23514475D01*
X71536308Y23513927D01*
X72116132Y23753505D01*
X72560136Y24196735D01*
X72800725Y24776139D01*
X72801109Y25215911D01*
X73528998Y25943800D01*
X79758400Y25943800D01*
X80151416Y26021976D01*
X80484599Y26244601D01*
X81226596Y26986599D01*
X81226599Y26986601D01*
X81449224Y27319784D01*
X81527400Y27712800D01*
X81527400Y27942320D01*
X81556868Y27947865D01*
X81838339Y28128987D01*
X82027169Y28405348D01*
X82093601Y28733400D01*
X82093601Y29307601D01*
X84503564Y26897638D01*
X84503564Y10734330D01*
X83934261Y10970725D01*
X83494489Y10971109D01*
X73605582Y20860016D01*
X73624240Y20904948D01*
X73624788Y21532317D01*
X73385210Y22112141D01*
X72941980Y22556145D01*
X72362576Y22796734D01*
X71735207Y22797282D01*
X71155383Y22557704D01*
X70711379Y22114474D01*
X70470790Y21535070D01*
X70470242Y20907701D01*
X70709820Y20327877D01*
X71153050Y19883873D01*
X71732454Y19643284D01*
X71917680Y19643122D01*
X82042309Y9518493D01*
X82041927Y9081692D01*
X82281505Y8501868D01*
X82498448Y8284546D01*
X74955581Y8284546D01*
X74562565Y8206370D01*
X74229382Y7983745D01*
X72094637Y5849000D01*
X63004922Y5849000D01*
X62266000Y6587923D01*
X62266000Y17829640D01*
X62266001Y17829645D01*
X62192447Y18199420D01*
X62187824Y18222661D01*
X61965199Y18555844D01*
X60864533Y19656510D01*
X60531350Y19879135D01*
X60138334Y19957311D01*
X57861052Y19957311D01*
X57468036Y19879135D01*
X57134853Y19656510D01*
X57134851Y19656507D01*
X56274967Y18796624D01*
X56052342Y18463441D01*
X55974166Y18070425D01*
X55974166Y8652163D01*
X53933002Y6611000D01*
X46655798Y6611000D01*
X45400224Y7866574D01*
X48019242Y7866574D01*
X48041073Y7769443D01*
X48324727Y7255732D01*
X48783378Y6889675D01*
X49347200Y6727000D01*
X49608600Y6727000D01*
X49608600Y8098600D01*
X49862600Y8098600D01*
X49862600Y6727000D01*
X50124000Y6727000D01*
X50687822Y6889675D01*
X51146473Y7255732D01*
X51430127Y7769443D01*
X51451958Y7866574D01*
X51330817Y8098600D01*
X49862600Y8098600D01*
X49608600Y8098600D01*
X48140383Y8098600D01*
X48019242Y7866574D01*
X45400224Y7866574D01*
X42860224Y10406574D01*
X48019242Y10406574D01*
X48041073Y10309443D01*
X48324727Y9795732D01*
X48700777Y9495600D01*
X48324727Y9195468D01*
X48041073Y8681757D01*
X48019242Y8584626D01*
X48140383Y8352600D01*
X49608600Y8352600D01*
X49608600Y10638600D01*
X49862600Y10638600D01*
X49862600Y8352600D01*
X51330817Y8352600D01*
X51451958Y8584626D01*
X51430127Y8681757D01*
X51146473Y9195468D01*
X50770423Y9495600D01*
X51146473Y9795732D01*
X51430127Y10309443D01*
X51451958Y10406574D01*
X51330817Y10638600D01*
X49862600Y10638600D01*
X49608600Y10638600D01*
X48140383Y10638600D01*
X48019242Y10406574D01*
X42860224Y10406574D01*
X41515560Y11751238D01*
X41515560Y31127228D01*
X41545028Y31132773D01*
X41826499Y31313895D01*
X42015329Y31590256D01*
X42081761Y31918308D01*
X42081761Y32876269D01*
X42081780Y32876288D01*
X42347760Y33274356D01*
X42441160Y33743908D01*
X42347760Y34213460D01*
X42081780Y34611528D01*
X41815560Y34789410D01*
X41815560Y40904640D01*
X41714548Y41412461D01*
X41426891Y41842971D01*
X41426888Y41842973D01*
X40551201Y42718660D01*
X40551201Y44935200D01*
X40493535Y45241668D01*
X40312413Y45523139D01*
X40036052Y45711969D01*
X39708000Y45778401D01*
X37208000Y45778401D01*
X36901532Y45720735D01*
X36620061Y45539613D01*
X36431231Y45263252D01*
X36364799Y44935200D01*
X36364799Y44634529D01*
X33125797Y47873531D01*
X32695287Y48161188D01*
X32187466Y48262200D01*
X30683923Y48262200D01*
X30516013Y48523139D01*
X30239652Y48711969D01*
X30102757Y48739691D01*
X29887799Y49061399D01*
X29887796Y49061401D01*
X28741940Y50207258D01*
X28408757Y50429883D01*
X28015741Y50508059D01*
X24704338Y50508059D01*
X24562948Y50649450D01*
X36573000Y50649450D01*
X36573000Y48808891D01*
X36669673Y48575502D01*
X36848301Y48396873D01*
X37081690Y48300200D01*
X38172250Y48300200D01*
X38331000Y48458950D01*
X38331000Y50808200D01*
X38585000Y50808200D01*
X38585000Y48458950D01*
X38743750Y48300200D01*
X39834310Y48300200D01*
X40067699Y48396873D01*
X40246327Y48575502D01*
X40343000Y48808891D01*
X40343000Y50649450D01*
X40184250Y50808200D01*
X38585000Y50808200D01*
X38331000Y50808200D01*
X36731750Y50808200D01*
X36573000Y50649450D01*
X24562948Y50649450D01*
X23004542Y52207856D01*
X23004542Y59167707D01*
X23313678Y59476304D01*
X23554267Y60055708D01*
X23554815Y60683077D01*
X23315237Y61262901D01*
X22872007Y61706905D01*
X22292603Y61947494D01*
X21852831Y61947878D01*
X20899310Y62901399D01*
X20566127Y63124024D01*
X20173111Y63202200D01*
X19812801Y63202200D01*
X19812801Y63425200D01*
X19755135Y63731668D01*
X19574013Y64013139D01*
X19297652Y64201969D01*
X18969600Y64268401D01*
X14969600Y64268401D01*
X14663132Y64210735D01*
X14381661Y64029613D01*
X14192831Y63753252D01*
X14126399Y63425200D01*
X14126399Y60925200D01*
X14184065Y60618732D01*
X14365187Y60337261D01*
X14641548Y60148431D01*
X14969600Y60081999D01*
X18969600Y60081999D01*
X19276068Y60139665D01*
X19557539Y60320787D01*
X19746369Y60597148D01*
X19812801Y60925200D01*
X19812801Y61083112D01*
X20400651Y60495262D01*
X20400269Y60058461D01*
X20639847Y59478637D01*
X20950542Y59167399D01*
X20950542Y51782458D01*
X21028718Y51389442D01*
X21251343Y51056259D01*
X23552740Y48754863D01*
X23552742Y48754860D01*
X23829106Y48570200D01*
X23685290Y48570200D01*
X23451901Y48473527D01*
X23273273Y48294898D01*
X23176600Y48061509D01*
X23176600Y47220950D01*
X23335350Y47062200D01*
X24434600Y47062200D01*
X24434600Y47082200D01*
X24688600Y47082200D01*
X24688600Y47062200D01*
X24708600Y47062200D01*
X24708600Y46808200D01*
X24688600Y46808200D01*
X24688600Y45458950D01*
X24847350Y45300200D01*
X25355696Y45300200D01*
X25321431Y45250052D01*
X25254999Y44922000D01*
X25254999Y43422000D01*
X25312665Y43115532D01*
X25493787Y42834061D01*
X25564155Y42785980D01*
X25559873Y42781698D01*
X25463200Y42548309D01*
X25463200Y41957750D01*
X25621950Y41799000D01*
X26596200Y41799000D01*
X26596200Y41819000D01*
X26850200Y41819000D01*
X26850200Y41799000D01*
X27824450Y41799000D01*
X27983200Y41957750D01*
X27983200Y42548309D01*
X27886527Y42781698D01*
X27884115Y42784110D01*
X27936139Y42817587D01*
X28070372Y43014043D01*
X28186187Y42834061D01*
X28256555Y42785980D01*
X28252273Y42781698D01*
X28155600Y42548309D01*
X28155600Y41957750D01*
X28314350Y41799000D01*
X29288600Y41799000D01*
X29288600Y41819000D01*
X29542600Y41819000D01*
X29542600Y41799000D01*
X30516850Y41799000D01*
X30675600Y41957750D01*
X30675600Y42548309D01*
X30578927Y42781698D01*
X30576515Y42784110D01*
X30628539Y42817587D01*
X30817369Y43093948D01*
X30883801Y43422000D01*
X30883801Y44922000D01*
X30826135Y45228468D01*
X30645013Y45509939D01*
X30629289Y45520682D01*
X30688369Y45607148D01*
X30688582Y45608200D01*
X31637804Y45608200D01*
X34542529Y42703475D01*
X33148762Y41309708D01*
X30675600Y41309708D01*
X30675600Y41386250D01*
X30516850Y41545000D01*
X29542600Y41545000D01*
X29542600Y41525000D01*
X29288600Y41525000D01*
X29288600Y41545000D01*
X28314350Y41545000D01*
X28155600Y41386250D01*
X28155600Y40795691D01*
X28238232Y40596200D01*
X27900568Y40596200D01*
X27983200Y40795691D01*
X27983200Y41386250D01*
X27824450Y41545000D01*
X26850200Y41545000D01*
X26850200Y41525000D01*
X26596200Y41525000D01*
X26596200Y41545000D01*
X25621950Y41545000D01*
X25463200Y41386250D01*
X25463200Y41062401D01*
X24986400Y41062401D01*
X24679932Y41004735D01*
X24398461Y40823613D01*
X24388353Y40808820D01*
X24114452Y40995969D01*
X23786400Y41062401D01*
X22286400Y41062401D01*
X21979932Y41004735D01*
X21698461Y40823613D01*
X21509631Y40547252D01*
X21443199Y40219200D01*
X21443199Y39075185D01*
X21277200Y39108801D01*
X19977200Y39108801D01*
X19670732Y39051135D01*
X19389261Y38870013D01*
X19200431Y38593652D01*
X19133999Y38265600D01*
X19133999Y36765600D01*
X19191665Y36459132D01*
X19372787Y36177661D01*
X19561971Y36048397D01*
X19438873Y35925298D01*
X19342200Y35691909D01*
X19342200Y35101350D01*
X19500950Y34942600D01*
X20500200Y34942600D01*
X20500200Y34962600D01*
X20754200Y34962600D01*
X20754200Y34942600D01*
X21753450Y34942600D01*
X21912200Y35101350D01*
X21912200Y35691909D01*
X21815527Y35925298D01*
X21691422Y36049403D01*
X21865139Y36161187D01*
X21940699Y36271772D01*
X22267362Y35945109D01*
X22559032Y35750222D01*
X22608026Y35489840D01*
X22789148Y35208369D01*
X23065509Y35019539D01*
X23393561Y34953107D01*
X23943561Y34953107D01*
X24250029Y35010773D01*
X24300658Y35043352D01*
X24335509Y35019539D01*
X24663561Y34953107D01*
X25213561Y34953107D01*
X25520029Y35010773D01*
X25570658Y35043352D01*
X25605509Y35019539D01*
X25933561Y34953107D01*
X26483561Y34953107D01*
X26790029Y35010773D01*
X26840658Y35043352D01*
X26875509Y35019539D01*
X27203561Y34953107D01*
X27753561Y34953107D01*
X28060029Y35010773D01*
X28341500Y35191895D01*
X28530330Y35468256D01*
X28596762Y35796308D01*
X28596762Y36937111D01*
X29168159Y37508508D01*
X30132080Y37508508D01*
X30137625Y37479040D01*
X30262993Y37284213D01*
X30146391Y37113560D01*
X30079959Y36785508D01*
X30079959Y35285508D01*
X30137625Y34979040D01*
X30318747Y34697569D01*
X30595108Y34508739D01*
X30923160Y34442307D01*
X31563963Y34442307D01*
X32110962Y33895308D01*
X31950561Y33895308D01*
X31481008Y33801908D01*
X31217145Y33625600D01*
X31082941Y33535928D01*
X28312400Y30765387D01*
X28081613Y30923077D01*
X27753561Y30989509D01*
X27203561Y30989509D01*
X26897093Y30931843D01*
X26846464Y30899264D01*
X26811613Y30923077D01*
X26483561Y30989509D01*
X25933561Y30989509D01*
X25627093Y30931843D01*
X25372288Y30767880D01*
X25339871Y30781308D01*
X25224311Y30781308D01*
X25065561Y30622558D01*
X25065561Y29903330D01*
X24982573Y29779129D01*
X24881561Y29271308D01*
X24881561Y29124308D01*
X24811561Y29124308D01*
X24811561Y29144308D01*
X24791561Y29144308D01*
X24791561Y29398308D01*
X24811561Y29398308D01*
X24811561Y30622558D01*
X24652811Y30781308D01*
X24537251Y30781308D01*
X24501046Y30766311D01*
X24271613Y30923077D01*
X23943561Y30989509D01*
X23393561Y30989509D01*
X23087093Y30931843D01*
X22805622Y30750721D01*
X22616792Y30474360D01*
X22550360Y30146308D01*
X22550360Y28396308D01*
X22608026Y28089840D01*
X22789148Y27808369D01*
X23065509Y27619539D01*
X23393561Y27553107D01*
X23943561Y27553107D01*
X24250029Y27610773D01*
X24504834Y27774736D01*
X24537251Y27761308D01*
X24652811Y27761308D01*
X24811559Y27920056D01*
X24811559Y27761308D01*
X24881561Y27761308D01*
X24881561Y23911308D01*
X23844128Y23911308D01*
X23959685Y24408204D01*
X23981279Y24575905D01*
X23923935Y24905668D01*
X23742813Y25187139D01*
X23466452Y25375969D01*
X23138400Y25442401D01*
X19617400Y25442401D01*
X19617400Y26930815D01*
X19626536Y26939935D01*
X19867125Y27519339D01*
X19867673Y28146708D01*
X19628095Y28726532D01*
X19184865Y29170536D01*
X18605461Y29411125D01*
X17978092Y29411673D01*
X17398268Y29172095D01*
X16954264Y28728865D01*
X16713675Y28149461D01*
X16713127Y27522092D01*
X16952705Y26942268D01*
X16963400Y26931554D01*
X16963400Y22866826D01*
X15501121Y21404548D01*
X15213464Y20974038D01*
X15112452Y20466217D01*
X15112452Y11628057D01*
X15093197Y11674543D01*
X14851013Y11744008D01*
X14050405Y10943400D01*
X14851013Y10142792D01*
X15093197Y10212257D01*
X15112452Y10266228D01*
X15112452Y9009748D01*
X15213464Y8501927D01*
X15501121Y8071417D01*
X22298858Y1273680D01*
X22729368Y986023D01*
X23237189Y885010D01*
X23237194Y885011D01*
X48888522Y885011D01*
X879333Y872829D01*
X882690Y9963187D01*
X13070192Y9963187D01*
X13139657Y9721003D01*
X13663102Y9534256D01*
X14218168Y9562038D01*
X14601943Y9721003D01*
X14671408Y9963187D01*
X13870800Y10763795D01*
X13070192Y9963187D01*
X882690Y9963187D01*
X883129Y11151098D01*
X12461656Y11151098D01*
X12489438Y10596032D01*
X12648403Y10212257D01*
X12890587Y10142792D01*
X13691195Y10943400D01*
X12890587Y11744008D01*
X12648403Y11674543D01*
X12461656Y11151098D01*
X883129Y11151098D01*
X883414Y11923613D01*
X13070192Y11923613D01*
X13870800Y11123005D01*
X14671408Y11923613D01*
X14601943Y12165797D01*
X14078498Y12352544D01*
X13523432Y12324762D01*
X13139657Y12165797D01*
X13070192Y11923613D01*
X883414Y11923613D01*
X885857Y18534362D01*
X1942197Y18534362D01*
X2295715Y17678782D01*
X2949739Y17023615D01*
X3804700Y16668604D01*
X4730438Y16667797D01*
X5586018Y17021315D01*
X6241185Y17675339D01*
X6596196Y18530300D01*
X6596241Y18582582D01*
X10357084Y18582582D01*
X10634642Y17910840D01*
X11148136Y17396448D01*
X11819393Y17117718D01*
X12546218Y17117084D01*
X13217960Y17394642D01*
X13732352Y17908136D01*
X14011082Y18579393D01*
X14011716Y19306218D01*
X13734158Y19977960D01*
X13220664Y20492352D01*
X12549407Y20771082D01*
X11822582Y20771716D01*
X11150840Y20494158D01*
X10636448Y19980664D01*
X10357718Y19309407D01*
X10357084Y18582582D01*
X6596241Y18582582D01*
X6597003Y19456038D01*
X6243485Y20311618D01*
X5589461Y20966785D01*
X4734500Y21321796D01*
X3808762Y21322603D01*
X2953182Y20969085D01*
X2298015Y20315061D01*
X1943004Y19460100D01*
X1942197Y18534362D01*
X885857Y18534362D01*
X887798Y23789450D01*
X2134600Y23789450D01*
X2134600Y22448891D01*
X2231273Y22215502D01*
X2409901Y22036873D01*
X2643290Y21940200D01*
X3983850Y21940200D01*
X4142600Y22098950D01*
X4142600Y23948200D01*
X4396600Y23948200D01*
X4396600Y22098950D01*
X4555350Y21940200D01*
X5895910Y21940200D01*
X6129299Y22036873D01*
X6307927Y22215502D01*
X6404600Y22448891D01*
X6404600Y23662582D01*
X10367084Y23662582D01*
X10644642Y22990840D01*
X11158136Y22476448D01*
X11829393Y22197718D01*
X12556218Y22197084D01*
X13227960Y22474642D01*
X13742352Y22988136D01*
X14021082Y23659393D01*
X14021716Y24386218D01*
X13744158Y25057960D01*
X13230664Y25572352D01*
X12559407Y25851082D01*
X11832582Y25851716D01*
X11160840Y25574158D01*
X10646448Y25060664D01*
X10367718Y24389407D01*
X10367084Y23662582D01*
X6404600Y23662582D01*
X6404600Y23789450D01*
X6245850Y23948200D01*
X4396600Y23948200D01*
X4142600Y23948200D01*
X2293350Y23948200D01*
X2134600Y23789450D01*
X887798Y23789450D01*
X888504Y25701509D01*
X2134600Y25701509D01*
X2134600Y24360950D01*
X2293350Y24202200D01*
X4142600Y24202200D01*
X4142600Y26051450D01*
X4396600Y26051450D01*
X4396600Y24202200D01*
X6245850Y24202200D01*
X6404600Y24360950D01*
X6404600Y25701509D01*
X6307927Y25934898D01*
X6129299Y26113527D01*
X5895910Y26210200D01*
X4555350Y26210200D01*
X4396600Y26051450D01*
X4142600Y26051450D01*
X3983850Y26210200D01*
X2643290Y26210200D01*
X2409901Y26113527D01*
X2231273Y25934898D01*
X2134600Y25701509D01*
X888504Y25701509D01*
X892003Y35173090D01*
X5612441Y35173090D01*
X6015334Y34198016D01*
X6760702Y33451346D01*
X7735071Y33046752D01*
X8790102Y33045831D01*
X9765176Y33448724D01*
X10511846Y34194092D01*
X10651265Y34529850D01*
X19342200Y34529850D01*
X19342200Y33939291D01*
X19438873Y33705902D01*
X19617501Y33527273D01*
X19850890Y33430600D01*
X20341450Y33430600D01*
X20500200Y33589350D01*
X20500200Y34688600D01*
X20754200Y34688600D01*
X20754200Y33589350D01*
X20912950Y33430600D01*
X21403510Y33430600D01*
X21636899Y33527273D01*
X21815527Y33705902D01*
X21912200Y33939291D01*
X21912200Y34529850D01*
X21753450Y34688600D01*
X20754200Y34688600D01*
X20500200Y34688600D01*
X19500950Y34688600D01*
X19342200Y34529850D01*
X10651265Y34529850D01*
X10916440Y35168461D01*
X10917361Y36223492D01*
X10514468Y37198566D01*
X9769100Y37945236D01*
X8794731Y38349830D01*
X7739700Y38350751D01*
X6764626Y37947858D01*
X6017956Y37202490D01*
X5613362Y36228121D01*
X5612441Y35173090D01*
X892003Y35173090D01*
X896388Y47043090D01*
X5612441Y47043090D01*
X6015334Y46068016D01*
X6760702Y45321346D01*
X7735071Y44916752D01*
X8790102Y44915831D01*
X9765176Y45318724D01*
X10511846Y46064092D01*
X10829169Y46828291D01*
X13021700Y46828291D01*
X13021700Y45328291D01*
X13079366Y45021823D01*
X13260488Y44740352D01*
X13454265Y44607950D01*
X13278765Y44432756D01*
X13038176Y43853352D01*
X13037628Y43225983D01*
X13277206Y42646159D01*
X13654685Y42268021D01*
X13278765Y41892756D01*
X13038176Y41313352D01*
X13037628Y40685983D01*
X13277206Y40106159D01*
X13654685Y39728021D01*
X13278765Y39352756D01*
X13038176Y38773352D01*
X13037628Y38145983D01*
X13277206Y37566159D01*
X13720436Y37122155D01*
X14299840Y36881566D01*
X14927209Y36881018D01*
X15507033Y37120596D01*
X15577903Y37191343D01*
X15577628Y36875983D01*
X15817206Y36296159D01*
X16260436Y35852155D01*
X16839840Y35611566D01*
X17467209Y35611018D01*
X18047033Y35850596D01*
X18491037Y36293826D01*
X18731626Y36873230D01*
X18732174Y37500599D01*
X18492596Y38080423D01*
X18115117Y38458561D01*
X18491037Y38833826D01*
X18731626Y39413230D01*
X18732174Y40040599D01*
X18492596Y40620423D01*
X18115117Y40998561D01*
X18491037Y41373826D01*
X18731626Y41953230D01*
X18732174Y42580599D01*
X18492596Y43160423D01*
X18115117Y43538561D01*
X18491037Y43913826D01*
X18731626Y44493230D01*
X18732174Y45120599D01*
X18492596Y45700423D01*
X18049366Y46144427D01*
X17469962Y46385016D01*
X16842593Y46385564D01*
X16262769Y46145986D01*
X16208102Y46091414D01*
X16208102Y46649450D01*
X23176600Y46649450D01*
X23176600Y45808891D01*
X23273273Y45575502D01*
X23451901Y45396873D01*
X23685290Y45300200D01*
X24275850Y45300200D01*
X24434600Y45458950D01*
X24434600Y46808200D01*
X23335350Y46808200D01*
X23176600Y46649450D01*
X16208102Y46649450D01*
X16208102Y46828291D01*
X16150436Y47134759D01*
X15969314Y47416230D01*
X15692953Y47605060D01*
X15364901Y47671492D01*
X13864901Y47671492D01*
X13558433Y47613826D01*
X13276962Y47432704D01*
X13088132Y47156343D01*
X13021700Y46828291D01*
X10829169Y46828291D01*
X10916440Y47038461D01*
X10917361Y48093492D01*
X10514468Y49068566D01*
X9769100Y49815236D01*
X8794731Y50219830D01*
X7739700Y50220751D01*
X6764626Y49817858D01*
X6017956Y49072490D01*
X5613362Y48098121D01*
X5612441Y47043090D01*
X896388Y47043090D01*
X901873Y61889450D01*
X6334600Y61889450D01*
X6334600Y60798890D01*
X6431273Y60565501D01*
X6609902Y60386873D01*
X6843291Y60290200D01*
X8683850Y60290200D01*
X8842600Y60448950D01*
X8842600Y62048200D01*
X9096600Y62048200D01*
X9096600Y60448950D01*
X9255350Y60290200D01*
X11095909Y60290200D01*
X11329298Y60386873D01*
X11507927Y60565501D01*
X11604600Y60798890D01*
X11604600Y61889450D01*
X11445850Y62048200D01*
X9096600Y62048200D01*
X8842600Y62048200D01*
X6493350Y62048200D01*
X6334600Y61889450D01*
X901873Y61889450D01*
X902487Y63551510D01*
X6334600Y63551510D01*
X6334600Y62460950D01*
X6493350Y62302200D01*
X8842600Y62302200D01*
X8842600Y63901450D01*
X9096600Y63901450D01*
X9096600Y62302200D01*
X11445850Y62302200D01*
X11604600Y62460950D01*
X11604600Y63551510D01*
X11507927Y63784899D01*
X11329298Y63963527D01*
X11095909Y64060200D01*
X9255350Y64060200D01*
X9096600Y63901450D01*
X8842600Y63901450D01*
X8683850Y64060200D01*
X6843291Y64060200D01*
X6609902Y63963527D01*
X6431273Y63784899D01*
X6334600Y63551510D01*
X902487Y63551510D01*
X903231Y65565200D01*
X22794799Y65565200D01*
X22794799Y63865200D01*
X22852465Y63558732D01*
X23033587Y63277261D01*
X23309948Y63088431D01*
X23638000Y63021999D01*
X25338000Y63021999D01*
X25644468Y63079665D01*
X25925939Y63260787D01*
X26010273Y63384213D01*
X26386240Y63133000D01*
X27028000Y63005346D01*
X27669760Y63133000D01*
X28213818Y63496528D01*
X28298000Y63622515D01*
X28382182Y63496528D01*
X28926240Y63133000D01*
X29568000Y63005346D01*
X30209760Y63133000D01*
X30753818Y63496528D01*
X30838000Y63622515D01*
X30922182Y63496528D01*
X31466240Y63133000D01*
X32108000Y63005346D01*
X32749760Y63133000D01*
X33293818Y63496528D01*
X33378000Y63622515D01*
X33462182Y63496528D01*
X34006240Y63133000D01*
X34648000Y63005346D01*
X35289760Y63133000D01*
X35833818Y63496528D01*
X35918000Y63622515D01*
X36002182Y63496528D01*
X36546240Y63133000D01*
X37188000Y63005346D01*
X37829760Y63133000D01*
X38373818Y63496528D01*
X38574079Y63796239D01*
X38961076Y63443555D01*
X39371110Y63273724D01*
X39601000Y63395045D01*
X39601000Y64588200D01*
X39855000Y64588200D01*
X39855000Y63395045D01*
X40084890Y63273724D01*
X40494924Y63443555D01*
X40923183Y63833842D01*
X41169486Y64358308D01*
X41144501Y64405909D01*
X89100200Y64405909D01*
X89100200Y62690350D01*
X89258950Y62531600D01*
X90858200Y62531600D01*
X90858200Y64755850D01*
X91112200Y64755850D01*
X91112200Y62531600D01*
X92711450Y62531600D01*
X92870200Y62690350D01*
X92870200Y64405909D01*
X92773527Y64639298D01*
X92594899Y64817927D01*
X92361510Y64914600D01*
X91270950Y64914600D01*
X91112200Y64755850D01*
X90858200Y64755850D01*
X90699450Y64914600D01*
X89608890Y64914600D01*
X89375501Y64817927D01*
X89196873Y64639298D01*
X89100200Y64405909D01*
X41144501Y64405909D01*
X41048819Y64588200D01*
X39855000Y64588200D01*
X39601000Y64588200D01*
X39581000Y64588200D01*
X39581000Y64842200D01*
X39601000Y64842200D01*
X39601000Y66035355D01*
X39855000Y66035355D01*
X39855000Y64842200D01*
X41048819Y64842200D01*
X41169486Y65072092D01*
X40923183Y65596558D01*
X40494924Y65986845D01*
X40084890Y66156676D01*
X39855000Y66035355D01*
X39601000Y66035355D01*
X39371110Y66156676D01*
X38961076Y65986845D01*
X38574079Y65634161D01*
X38373818Y65933872D01*
X37829760Y66297400D01*
X37188000Y66425054D01*
X36546240Y66297400D01*
X36002182Y65933872D01*
X35918000Y65807885D01*
X35833818Y65933872D01*
X35289760Y66297400D01*
X34648000Y66425054D01*
X34006240Y66297400D01*
X33462182Y65933872D01*
X33378000Y65807885D01*
X33293818Y65933872D01*
X32749760Y66297400D01*
X32108000Y66425054D01*
X31466240Y66297400D01*
X30922182Y65933872D01*
X30838000Y65807885D01*
X30753818Y65933872D01*
X30209760Y66297400D01*
X29568000Y66425054D01*
X28926240Y66297400D01*
X28382182Y65933872D01*
X28298000Y65807885D01*
X28213818Y65933872D01*
X27669760Y66297400D01*
X27028000Y66425054D01*
X26386240Y66297400D01*
X26010946Y66046636D01*
X25942413Y66153139D01*
X25666052Y66341969D01*
X25338000Y66408401D01*
X23638000Y66408401D01*
X23331532Y66350735D01*
X23050061Y66169613D01*
X22861231Y65893252D01*
X22794799Y65565200D01*
X903231Y65565200D01*
X904067Y67826400D01*
X99151333Y67826400D01*
X99176067Y897771D01*
X99176067Y897771D01*
G37*
X99176067Y897771D02*
X92087918Y895973D01*
X92540632Y986023D01*
X92971142Y1273680D01*
X97531469Y5834008D01*
X97531472Y5834010D01*
X97819129Y6264520D01*
X97835888Y6348774D01*
X97920142Y6772341D01*
X97920141Y6772346D01*
X97920141Y47245261D01*
X97819129Y47753082D01*
X97531472Y48183592D01*
X92312200Y53402864D01*
X92312200Y53450888D01*
X92541668Y53494065D01*
X92823139Y53675187D01*
X93011969Y53951548D01*
X93078401Y54279600D01*
X93078401Y58029600D01*
X93020735Y58336068D01*
X92839613Y58617539D01*
X92563252Y58806369D01*
X92235200Y58872801D01*
X89735200Y58872801D01*
X89428732Y58815135D01*
X89147261Y58634013D01*
X88958431Y58357652D01*
X88891999Y58029600D01*
X88891999Y54279600D01*
X88905885Y54205800D01*
X85835727Y54205800D01*
X85356661Y54404725D01*
X84729292Y54405273D01*
X84638938Y54367940D01*
X84638938Y57096967D01*
X84948074Y57405564D01*
X85188663Y57984968D01*
X85189211Y58612337D01*
X84949633Y59192161D01*
X84506403Y59636165D01*
X83926999Y59876754D01*
X83416454Y59877200D01*
X81174804Y62118850D01*
X89100200Y62118850D01*
X89100200Y60403291D01*
X89196873Y60169902D01*
X89375501Y59991273D01*
X89608890Y59894600D01*
X90699450Y59894600D01*
X90858200Y60053350D01*
X90858200Y62277600D01*
X91112200Y62277600D01*
X91112200Y60053350D01*
X91270950Y59894600D01*
X92361510Y59894600D01*
X92594899Y59991273D01*
X92773527Y60169902D01*
X92870200Y60403291D01*
X92870200Y62118850D01*
X92711450Y62277600D01*
X91112200Y62277600D01*
X90858200Y62277600D01*
X89258950Y62277600D01*
X89100200Y62118850D01*
X81174804Y62118850D01*
X80703210Y62590443D01*
X80614675Y62649600D01*
X80386249Y62802230D01*
X80012367Y62876600D01*
X76332088Y62876600D01*
X76317135Y62956068D01*
X76136013Y63237539D01*
X75859652Y63426369D01*
X75531600Y63492801D01*
X74231600Y63492801D01*
X73925132Y63435135D01*
X73643661Y63254013D01*
X73454831Y62977652D01*
X73434368Y62876600D01*
X72776088Y62876600D01*
X72761135Y62956068D01*
X72580013Y63237539D01*
X72303652Y63426369D01*
X71975600Y63492801D01*
X70675600Y63492801D01*
X70369132Y63435135D01*
X70087661Y63254013D01*
X69898831Y62977652D01*
X69888493Y62926600D01*
X62769605Y62926600D01*
X62769600Y62926601D01*
X62441791Y62861394D01*
X62376584Y62848424D01*
X62043401Y62625799D01*
X62043399Y62625796D01*
X61188494Y61770891D01*
X60751692Y61771273D01*
X60171868Y61531695D01*
X59758853Y61119400D01*
X34934618Y61119400D01*
X34541602Y61041224D01*
X34208419Y60818599D01*
X34208417Y60818596D01*
X30973180Y57583359D01*
X30536378Y57583741D01*
X29956554Y57344163D01*
X29512550Y56900933D01*
X29271961Y56321529D01*
X29271853Y56197851D01*
X28152403Y55078401D01*
X24961600Y55078401D01*
X24655132Y55020735D01*
X24373661Y54839613D01*
X24184831Y54563252D01*
X24118399Y54235200D01*
X24118399Y52235200D01*
X24176065Y51928732D01*
X24357187Y51647261D01*
X24633548Y51458431D01*
X24961600Y51391999D01*
X28761600Y51391999D01*
X29068068Y51449665D01*
X29349539Y51630787D01*
X29538369Y51907148D01*
X29604801Y52235200D01*
X29604801Y53061509D01*
X36573000Y53061509D01*
X36573000Y51220950D01*
X36731750Y51062200D01*
X38331000Y51062200D01*
X38331000Y53411450D01*
X38585000Y53411450D01*
X38585000Y51062200D01*
X40184250Y51062200D01*
X40343000Y51220950D01*
X40343000Y53061509D01*
X40246327Y53294898D01*
X40067699Y53473527D01*
X39834310Y53570200D01*
X38743750Y53570200D01*
X38585000Y53411450D01*
X38331000Y53411450D01*
X38172250Y53570200D01*
X37081690Y53570200D01*
X36848301Y53473527D01*
X36669673Y53294898D01*
X36573000Y53061509D01*
X29604801Y53061509D01*
X29604801Y53626003D01*
X29924398Y53945600D01*
X47745358Y53945600D01*
X47874047Y53298635D01*
X48240523Y52750165D01*
X48352117Y52675600D01*
X48240523Y52601035D01*
X47874047Y52052565D01*
X47745358Y51405600D01*
X47874047Y50758635D01*
X48240523Y50210165D01*
X48352117Y50135600D01*
X48240523Y50061035D01*
X47874047Y49512565D01*
X47745358Y48865600D01*
X47874047Y48218635D01*
X48240523Y47670165D01*
X48352117Y47595600D01*
X48240523Y47521035D01*
X47874047Y46972565D01*
X47745358Y46325600D01*
X47874047Y45678635D01*
X48240523Y45130165D01*
X48352117Y45055600D01*
X48240523Y44981035D01*
X47874047Y44432565D01*
X47745358Y43785600D01*
X47874047Y43138635D01*
X48240523Y42590165D01*
X48352117Y42515600D01*
X48240523Y42441035D01*
X47874047Y41892565D01*
X47745358Y41245600D01*
X47874047Y40598635D01*
X48240523Y40050165D01*
X48352117Y39975600D01*
X48240523Y39901035D01*
X47874047Y39352565D01*
X47745358Y38705600D01*
X47874047Y38058635D01*
X48240523Y37510165D01*
X48352117Y37435600D01*
X48240523Y37361035D01*
X47874047Y36812565D01*
X47745358Y36165600D01*
X47874047Y35518635D01*
X48240523Y34970165D01*
X48352117Y34895600D01*
X48240523Y34821035D01*
X47874047Y34272565D01*
X47745358Y33625600D01*
X47874047Y32978635D01*
X48240523Y32430165D01*
X48352117Y32355600D01*
X48240523Y32281035D01*
X47874047Y31732565D01*
X47745358Y31085600D01*
X47874047Y30438635D01*
X48240523Y29890165D01*
X48352117Y29815600D01*
X48240523Y29741035D01*
X47874047Y29192565D01*
X47745358Y28545600D01*
X47874047Y27898635D01*
X48240523Y27350165D01*
X48352117Y27275600D01*
X48240523Y27201035D01*
X47874047Y26652565D01*
X47745358Y26005600D01*
X47874047Y25358635D01*
X48240523Y24810165D01*
X48352117Y24735600D01*
X48240523Y24661035D01*
X47874047Y24112565D01*
X47745358Y23465600D01*
X47874047Y22818635D01*
X48240523Y22270165D01*
X48352117Y22195600D01*
X48240523Y22121035D01*
X47874047Y21572565D01*
X47745358Y20925600D01*
X47874047Y20278635D01*
X48240523Y19730165D01*
X48352117Y19655600D01*
X48240523Y19581035D01*
X47874047Y19032565D01*
X47745358Y18385600D01*
X47874047Y17738635D01*
X48240523Y17190165D01*
X48352117Y17115600D01*
X48240523Y17041035D01*
X47874047Y16492565D01*
X47745358Y15845600D01*
X47874047Y15198635D01*
X48240523Y14650165D01*
X48352117Y14575600D01*
X48240523Y14501035D01*
X47874047Y13952565D01*
X47745358Y13305600D01*
X47874047Y12658635D01*
X48240523Y12110165D01*
X48541896Y11908794D01*
X48324727Y11735468D01*
X48041073Y11221757D01*
X48019242Y11124626D01*
X48140383Y10892600D01*
X49608600Y10892600D01*
X49608600Y10912600D01*
X49862600Y10912600D01*
X49862600Y10892600D01*
X51330817Y10892600D01*
X51451958Y11124626D01*
X51430127Y11221757D01*
X51146473Y11735468D01*
X50929304Y11908794D01*
X51230677Y12110165D01*
X51597153Y12658635D01*
X51725842Y13305600D01*
X51597153Y13952565D01*
X51230677Y14501035D01*
X51119083Y14575600D01*
X51230677Y14650165D01*
X51597153Y15198635D01*
X51725842Y15845600D01*
X51597153Y16492565D01*
X51230677Y17041035D01*
X51119083Y17115600D01*
X51230677Y17190165D01*
X51597153Y17738635D01*
X51725842Y18385600D01*
X51597153Y19032565D01*
X51230677Y19581035D01*
X51119083Y19655600D01*
X51230677Y19730165D01*
X51597153Y20278635D01*
X51725842Y20925600D01*
X51597153Y21572565D01*
X51230677Y22121035D01*
X51119083Y22195600D01*
X51230677Y22270165D01*
X51597153Y22818635D01*
X51725842Y23465600D01*
X51597153Y24112565D01*
X51230677Y24661035D01*
X51119083Y24735600D01*
X51230677Y24810165D01*
X51597153Y25358635D01*
X51725842Y26005600D01*
X51597153Y26652565D01*
X51230677Y27201035D01*
X51119083Y27275600D01*
X51230677Y27350165D01*
X51597153Y27898635D01*
X51725842Y28545600D01*
X51597153Y29192565D01*
X51230677Y29741035D01*
X51119083Y29815600D01*
X51230677Y29890165D01*
X51597153Y30438635D01*
X51725842Y31085600D01*
X51597153Y31732565D01*
X51230677Y32281035D01*
X51119083Y32355600D01*
X51230677Y32430165D01*
X51597153Y32978635D01*
X51725842Y33625600D01*
X51597153Y34272565D01*
X51230677Y34821035D01*
X51119083Y34895600D01*
X51230677Y34970165D01*
X51597153Y35518635D01*
X51725842Y36165600D01*
X51597153Y36812565D01*
X51230677Y37361035D01*
X51119083Y37435600D01*
X51230677Y37510165D01*
X51597153Y38058635D01*
X51725842Y38705600D01*
X51597153Y39352565D01*
X51230677Y39901035D01*
X51119083Y39975600D01*
X51230677Y40050165D01*
X51597153Y40598635D01*
X51725842Y41245600D01*
X51597153Y41892565D01*
X51230677Y42441035D01*
X51119083Y42515600D01*
X51230677Y42590165D01*
X51597153Y43138635D01*
X51725842Y43785600D01*
X51597153Y44432565D01*
X51230677Y44981035D01*
X51119083Y45055600D01*
X51230677Y45130165D01*
X51597153Y45678635D01*
X51725842Y46325600D01*
X51597153Y46972565D01*
X51230677Y47521035D01*
X51119083Y47595600D01*
X51230677Y47670165D01*
X51597153Y48218635D01*
X51725842Y48865600D01*
X51597153Y49512565D01*
X51230677Y50061035D01*
X51119083Y50135600D01*
X51230677Y50210165D01*
X51597153Y50758635D01*
X51725842Y51405600D01*
X51597153Y52052565D01*
X51230677Y52601035D01*
X51119083Y52675600D01*
X51168651Y52708721D01*
X54405000Y52708721D01*
X54405000Y52642479D01*
X54533689Y51995514D01*
X54900165Y51447044D01*
X55448635Y51080568D01*
X56095600Y50951879D01*
X56742565Y51080568D01*
X57291035Y51447044D01*
X57365600Y51558638D01*
X57440165Y51447044D01*
X57988635Y51080568D01*
X58635600Y50951879D01*
X59282565Y51080568D01*
X59769009Y51405600D01*
X62985358Y51405600D01*
X63114047Y50758635D01*
X63480523Y50210165D01*
X63592117Y50135600D01*
X63480523Y50061035D01*
X63114047Y49512565D01*
X62985358Y48865600D01*
X63114047Y48218635D01*
X63480523Y47670165D01*
X63592117Y47595600D01*
X63480523Y47521035D01*
X63114047Y46972565D01*
X62985358Y46325600D01*
X63114047Y45678635D01*
X63480523Y45130165D01*
X63592117Y45055600D01*
X63480523Y44981035D01*
X63114047Y44432565D01*
X62985358Y43785600D01*
X63114047Y43138635D01*
X63480523Y42590165D01*
X63592117Y42515600D01*
X63480523Y42441035D01*
X63114047Y41892565D01*
X62985358Y41245600D01*
X63114047Y40598635D01*
X63480523Y40050165D01*
X63592117Y39975600D01*
X63480523Y39901035D01*
X63114047Y39352565D01*
X62985358Y38705600D01*
X63114047Y38058635D01*
X63480523Y37510165D01*
X63592117Y37435600D01*
X63480523Y37361035D01*
X63114047Y36812565D01*
X62985358Y36165600D01*
X63114047Y35518635D01*
X63480523Y34970165D01*
X63592117Y34895600D01*
X63480523Y34821035D01*
X63114047Y34272565D01*
X62985358Y33625600D01*
X63114047Y32978635D01*
X63480523Y32430165D01*
X63592117Y32355600D01*
X63480523Y32281035D01*
X63114047Y31732565D01*
X62985358Y31085600D01*
X63114047Y30438635D01*
X63480523Y29890165D01*
X63592117Y29815600D01*
X63480523Y29741035D01*
X63114047Y29192565D01*
X62985358Y28545600D01*
X63114047Y27898635D01*
X63480523Y27350165D01*
X63592117Y27275600D01*
X63480523Y27201035D01*
X63114047Y26652565D01*
X62985358Y26005600D01*
X63114047Y25358635D01*
X63480523Y24810165D01*
X63592117Y24735600D01*
X63480523Y24661035D01*
X63114047Y24112565D01*
X62985358Y23465600D01*
X63114047Y22818635D01*
X63480523Y22270165D01*
X63592117Y22195600D01*
X63480523Y22121035D01*
X63114047Y21572565D01*
X62985358Y20925600D01*
X63114047Y20278635D01*
X63480523Y19730165D01*
X63592117Y19655600D01*
X63480523Y19581035D01*
X63114047Y19032565D01*
X62985358Y18385600D01*
X63114047Y17738635D01*
X63480523Y17190165D01*
X63592117Y17115600D01*
X63480523Y17041035D01*
X63114047Y16492565D01*
X62985358Y15845600D01*
X63114047Y15198635D01*
X63480523Y14650165D01*
X63592117Y14575600D01*
X63480523Y14501035D01*
X63114047Y13952565D01*
X62985358Y13305600D01*
X63114047Y12658635D01*
X63480523Y12110165D01*
X63592117Y12035600D01*
X63480523Y11961035D01*
X63114047Y11412565D01*
X62985358Y10765600D01*
X63114047Y10118635D01*
X63480523Y9570165D01*
X63592117Y9495600D01*
X63480523Y9421035D01*
X63114047Y8872565D01*
X62985358Y8225600D01*
X63114047Y7578635D01*
X63480523Y7030165D01*
X64028993Y6663689D01*
X64675958Y6535000D01*
X65275242Y6535000D01*
X65922207Y6663689D01*
X66470677Y7030165D01*
X66837153Y7578635D01*
X66965842Y8225600D01*
X66837153Y8872565D01*
X66470677Y9421035D01*
X66359083Y9495600D01*
X66470677Y9570165D01*
X66837153Y10118635D01*
X66965842Y10765600D01*
X66837153Y11412565D01*
X66470677Y11961035D01*
X66359083Y12035600D01*
X66470677Y12110165D01*
X66837153Y12658635D01*
X66965842Y13305600D01*
X66837153Y13952565D01*
X66470677Y14501035D01*
X66359083Y14575600D01*
X66470677Y14650165D01*
X66837153Y15198635D01*
X66965842Y15845600D01*
X66837153Y16492565D01*
X66470677Y17041035D01*
X66359083Y17115600D01*
X66470677Y17190165D01*
X66837153Y17738635D01*
X66965842Y18385600D01*
X66837153Y19032565D01*
X66470677Y19581035D01*
X66359083Y19655600D01*
X66470677Y19730165D01*
X66837153Y20278635D01*
X66965842Y20925600D01*
X66837153Y21572565D01*
X66470677Y22121035D01*
X66359083Y22195600D01*
X66470677Y22270165D01*
X66837153Y22818635D01*
X66965842Y23465600D01*
X66837153Y24112565D01*
X66470677Y24661035D01*
X66359083Y24735600D01*
X66470677Y24810165D01*
X66837153Y25358635D01*
X66965842Y26005600D01*
X66837153Y26652565D01*
X66470677Y27201035D01*
X66359083Y27275600D01*
X66470677Y27350165D01*
X66837153Y27898635D01*
X66965842Y28545600D01*
X66837153Y29192565D01*
X66470677Y29741035D01*
X66359083Y29815600D01*
X66470677Y29890165D01*
X66837153Y30438635D01*
X66965842Y31085600D01*
X66837153Y31732565D01*
X66470677Y32281035D01*
X66359083Y32355600D01*
X66470677Y32430165D01*
X66837153Y32978635D01*
X66965842Y33625600D01*
X66837153Y34272565D01*
X66470677Y34821035D01*
X66359083Y34895600D01*
X66470677Y34970165D01*
X66625450Y35201800D01*
X73077360Y35201800D01*
X73077360Y34578800D01*
X73121638Y34343483D01*
X73260710Y34127359D01*
X73472910Y33982369D01*
X73724800Y33931360D01*
X74597800Y33931360D01*
X74597800Y35201800D01*
X74851800Y35201800D01*
X74851800Y33931360D01*
X75724800Y33931360D01*
X75960117Y33975638D01*
X76176241Y34114710D01*
X76321231Y34326910D01*
X76372240Y34578800D01*
X76372240Y35201800D01*
X74851800Y35201800D01*
X74597800Y35201800D01*
X73077360Y35201800D01*
X66625450Y35201800D01*
X66837153Y35518635D01*
X66965842Y36165600D01*
X66837153Y36812565D01*
X66470677Y37361035D01*
X66359083Y37435600D01*
X66470677Y37510165D01*
X66837153Y38058635D01*
X66965842Y38705600D01*
X66837153Y39352565D01*
X66470677Y39901035D01*
X66359083Y39975600D01*
X66470677Y40050165D01*
X66837153Y40598635D01*
X66965842Y41245600D01*
X66837153Y41892565D01*
X66470677Y42441035D01*
X66359083Y42515600D01*
X66470677Y42590165D01*
X66837153Y43138635D01*
X66965842Y43785600D01*
X66837153Y44432565D01*
X66470677Y44981035D01*
X66359083Y45055600D01*
X66470677Y45130165D01*
X66837153Y45678635D01*
X66965842Y46325600D01*
X66837153Y46972565D01*
X66470677Y47521035D01*
X66359083Y47595600D01*
X66470677Y47670165D01*
X66837153Y48218635D01*
X66965842Y48865600D01*
X66837153Y49512565D01*
X66470677Y50061035D01*
X66359083Y50135600D01*
X66470677Y50210165D01*
X66837153Y50758635D01*
X66965842Y51405600D01*
X66837153Y52052565D01*
X66470677Y52601035D01*
X66169304Y52802406D01*
X66386473Y52975732D01*
X66670127Y53489443D01*
X66691958Y53586574D01*
X66570817Y53818600D01*
X65102600Y53818600D01*
X65102600Y53798600D01*
X64848600Y53798600D01*
X64848600Y53818600D01*
X63380383Y53818600D01*
X63259242Y53586574D01*
X63281073Y53489443D01*
X63564727Y52975732D01*
X63781896Y52802406D01*
X63480523Y52601035D01*
X63114047Y52052565D01*
X62985358Y51405600D01*
X59769009Y51405600D01*
X59831035Y51447044D01*
X60197511Y51995514D01*
X60326200Y52642479D01*
X60326200Y52708721D01*
X60197511Y53355686D01*
X59831035Y53904156D01*
X59282565Y54270632D01*
X58635600Y54399321D01*
X57988635Y54270632D01*
X57440165Y53904156D01*
X57365600Y53792562D01*
X57291035Y53904156D01*
X56742565Y54270632D01*
X56095600Y54399321D01*
X55448635Y54270632D01*
X54900165Y53904156D01*
X54533689Y53355686D01*
X54405000Y52708721D01*
X51168651Y52708721D01*
X51230677Y52750165D01*
X51597153Y53298635D01*
X51725842Y53945600D01*
X51597153Y54592565D01*
X51353867Y54956667D01*
X51448539Y55017587D01*
X51637369Y55293948D01*
X51703801Y55622000D01*
X51703801Y56536400D01*
X62985358Y56536400D01*
X63114047Y55889435D01*
X63480523Y55340965D01*
X63816541Y55116445D01*
X63564727Y54915468D01*
X63281073Y54401757D01*
X63259242Y54304626D01*
X63380383Y54072600D01*
X64848600Y54072600D01*
X64848600Y54092600D01*
X65102600Y54092600D01*
X65102600Y54072600D01*
X66570817Y54072600D01*
X66691958Y54304626D01*
X66670127Y54401757D01*
X66386473Y54915468D01*
X66134659Y55116445D01*
X66470677Y55340965D01*
X66837153Y55889435D01*
X66965842Y56536400D01*
X66837153Y57183365D01*
X66470677Y57731835D01*
X65922207Y58098311D01*
X65275242Y58227000D01*
X64675958Y58227000D01*
X64028993Y58098311D01*
X63480523Y57731835D01*
X63114047Y57183365D01*
X62985358Y56536400D01*
X51703801Y56536400D01*
X51703801Y57349200D01*
X51646135Y57655668D01*
X51465013Y57937139D01*
X51188652Y58125969D01*
X50860600Y58192401D01*
X48610600Y58192401D01*
X48304132Y58134735D01*
X48022661Y57953613D01*
X47833831Y57677252D01*
X47767399Y57349200D01*
X47767399Y55622000D01*
X47825065Y55315532D01*
X48006187Y55034061D01*
X48117998Y54957664D01*
X47874047Y54592565D01*
X47745358Y53945600D01*
X29924398Y53945600D01*
X30445241Y54466443D01*
X30533625Y54429743D01*
X31160994Y54429195D01*
X31740818Y54668773D01*
X32184822Y55112003D01*
X32425411Y55691407D01*
X32425795Y56131179D01*
X35360015Y59065400D01*
X59962361Y59065400D01*
X60169535Y58857864D01*
X60748939Y58617275D01*
X61376308Y58616727D01*
X61956132Y58856305D01*
X62400136Y59299535D01*
X62640725Y59878939D01*
X62641109Y60318712D01*
X63194997Y60872600D01*
X69884520Y60872600D01*
X69890065Y60843132D01*
X70071187Y60561661D01*
X70085980Y60551553D01*
X69898831Y60277652D01*
X69832399Y59949600D01*
X69832399Y58449600D01*
X69890065Y58143132D01*
X69943000Y58060869D01*
X69943000Y57129862D01*
X69633864Y56821265D01*
X69393275Y56241861D01*
X69392891Y55802089D01*
X69051622Y55460820D01*
X68828997Y55127637D01*
X68750821Y54734621D01*
X68750821Y38280265D01*
X68441685Y37971668D01*
X68201096Y37392264D01*
X68200548Y36764895D01*
X68440126Y36185071D01*
X68883356Y35741067D01*
X69462760Y35500478D01*
X70090129Y35499930D01*
X70669953Y35739508D01*
X71009837Y36078800D01*
X73077360Y36078800D01*
X73077360Y35455800D01*
X74597800Y35455800D01*
X74597800Y36726240D01*
X74851800Y36726240D01*
X74851800Y35455800D01*
X76372240Y35455800D01*
X76372240Y36078800D01*
X76327962Y36314117D01*
X76188890Y36530241D01*
X75976690Y36675231D01*
X75724800Y36726240D01*
X74851800Y36726240D01*
X74597800Y36726240D01*
X73724800Y36726240D01*
X73489483Y36681962D01*
X73273359Y36542890D01*
X73128369Y36330690D01*
X73077360Y36078800D01*
X71009837Y36078800D01*
X71113957Y36182738D01*
X71354546Y36762142D01*
X71354667Y36900288D01*
X71926177Y36899789D01*
X72506001Y37139367D01*
X72950005Y37582597D01*
X73190594Y38162001D01*
X73191142Y38789370D01*
X73114600Y38974616D01*
X73114600Y51828138D01*
X73423736Y52136735D01*
X73664325Y52716139D01*
X73664709Y53155911D01*
X75607796Y55098999D01*
X75607799Y55099001D01*
X75830424Y55432184D01*
X75866481Y55613453D01*
X75908601Y55825200D01*
X75908600Y55825205D01*
X75908600Y57709451D01*
X76119539Y57845187D01*
X76308369Y58121548D01*
X76374801Y58449600D01*
X76374801Y59949600D01*
X76317135Y60256068D01*
X76136013Y60537539D01*
X76121220Y60547647D01*
X76308369Y60821548D01*
X76328832Y60922600D01*
X79607681Y60922600D01*
X82035108Y58495172D01*
X82034665Y57987721D01*
X82274243Y57407897D01*
X82584938Y57096659D01*
X82584938Y51666862D01*
X82663114Y51273846D01*
X82885739Y50940663D01*
X83959801Y49866601D01*
X84292984Y49643976D01*
X84686000Y49565800D01*
X90356602Y49565800D01*
X92752200Y47170202D01*
X92752200Y44234365D01*
X92107780Y44879911D01*
X91216078Y45250178D01*
X90250558Y45251021D01*
X89358211Y44882310D01*
X88674889Y44200180D01*
X88304622Y43308478D01*
X88303779Y42342958D01*
X88672490Y41450611D01*
X89354620Y40767289D01*
X90246322Y40397022D01*
X91211842Y40396179D01*
X92104189Y40764890D01*
X92752200Y41411771D01*
X92752200Y35542301D01*
X92318658Y35722323D01*
X91686515Y35722875D01*
X91102280Y35481474D01*
X91050223Y35429508D01*
X91050475Y35718285D01*
X90809074Y36302520D01*
X90362471Y36749903D01*
X89778658Y36992323D01*
X89146515Y36992875D01*
X88562280Y36751474D01*
X88114897Y36304871D01*
X87872477Y35721058D01*
X87871925Y35088915D01*
X88113326Y34504680D01*
X88484014Y34133345D01*
X88114897Y33764871D01*
X87872477Y33181058D01*
X87871925Y32548915D01*
X88113326Y31964680D01*
X88484014Y31593345D01*
X88114897Y31224871D01*
X87872477Y30641058D01*
X87871925Y30008915D01*
X88113326Y29424680D01*
X88484014Y29053345D01*
X88114897Y28684871D01*
X87872477Y28101058D01*
X87871925Y27468915D01*
X88113326Y26884680D01*
X88559929Y26437297D01*
X88704595Y26377226D01*
X88660592Y26223813D01*
X89461200Y25423205D01*
X89475343Y25437347D01*
X89654948Y25257742D01*
X89640805Y25243600D01*
X90441413Y24442992D01*
X90683597Y24512457D01*
X90870344Y25035902D01*
X90851301Y25416359D01*
X91099929Y25167297D01*
X91683742Y24924877D01*
X92315885Y24924325D01*
X92752200Y25104607D01*
X92752200Y19234365D01*
X92107780Y19879911D01*
X91216078Y20250178D01*
X90250558Y20251021D01*
X89358211Y19882310D01*
X88674889Y19200180D01*
X88304622Y18308478D01*
X88303779Y17342958D01*
X88672490Y16450611D01*
X89354620Y15767289D01*
X90246322Y15397022D01*
X91211842Y15396179D01*
X92104189Y15764890D01*
X92752200Y16411771D01*
X92752200Y14559462D01*
X92443064Y14250865D01*
X92409772Y14170689D01*
X92367013Y14237139D01*
X92090652Y14425969D01*
X91762600Y14492401D01*
X90512600Y14492401D01*
X90206132Y14434735D01*
X89924661Y14253613D01*
X89783800Y14047457D01*
X89674613Y14217139D01*
X89398252Y14405969D01*
X89070200Y14472401D01*
X87820200Y14472401D01*
X87513732Y14414735D01*
X87232261Y14233613D01*
X87043431Y13957252D01*
X86976999Y13629200D01*
X86976999Y12129200D01*
X87034665Y11822732D01*
X87215787Y11541261D01*
X87286155Y11493180D01*
X87281873Y11488898D01*
X87185200Y11255509D01*
X87185200Y10664950D01*
X87343950Y10506200D01*
X88318200Y10506200D01*
X88318200Y10526200D01*
X88572200Y10526200D01*
X88572200Y10506200D01*
X89546450Y10506200D01*
X89705200Y10664950D01*
X89705200Y11255509D01*
X89608527Y11488898D01*
X89606115Y11491310D01*
X89658139Y11524787D01*
X89799000Y11730943D01*
X89908187Y11561261D01*
X89978555Y11513180D01*
X89974273Y11508898D01*
X89877600Y11275509D01*
X89877600Y10684950D01*
X90036350Y10526200D01*
X91010600Y10526200D01*
X91010600Y10546200D01*
X91264600Y10546200D01*
X91264600Y10526200D01*
X92238850Y10526200D01*
X92397600Y10684950D01*
X92397600Y11275509D01*
X92300927Y11508898D01*
X92298515Y11511310D01*
X92350539Y11544787D01*
X92539369Y11821148D01*
X92549707Y11872200D01*
X92752200Y11872200D01*
X92752200Y9286632D01*
X88254588Y4789021D01*
X76407105Y4789021D01*
X76098508Y5098157D01*
X75519104Y5338746D01*
X74891735Y5339294D01*
X74311911Y5099716D01*
X73867907Y4656486D01*
X73627318Y4077082D01*
X73626848Y3539011D01*
X55818360Y3539011D01*
X55984153Y3649790D01*
X55984154Y3649791D01*
X60212000Y7877638D01*
X60212000Y6162525D01*
X60290176Y5769509D01*
X60512801Y5436326D01*
X61853324Y4095804D01*
X61853326Y4095801D01*
X62186509Y3873176D01*
X62251716Y3860206D01*
X62579525Y3794999D01*
X62579530Y3795000D01*
X72520035Y3795000D01*
X72913051Y3873176D01*
X73246234Y4095801D01*
X75380979Y6230546D01*
X84079910Y6230546D01*
X84472926Y6308722D01*
X84806109Y6531347D01*
X86256760Y7981999D01*
X86256763Y7982001D01*
X86479388Y8315184D01*
X86532984Y8584626D01*
X86557565Y8708200D01*
X86557564Y8708205D01*
X86557564Y10093450D01*
X87185200Y10093450D01*
X87185200Y9502891D01*
X87281873Y9269502D01*
X87460501Y9090873D01*
X87693890Y8994200D01*
X88159450Y8994200D01*
X88318200Y9152950D01*
X88318200Y10252200D01*
X88572200Y10252200D01*
X88572200Y9152950D01*
X88730950Y8994200D01*
X89196510Y8994200D01*
X89429899Y9090873D01*
X89608527Y9269502D01*
X89705200Y9502891D01*
X89705200Y10093450D01*
X89685200Y10113450D01*
X89877600Y10113450D01*
X89877600Y9522891D01*
X89974273Y9289502D01*
X90152901Y9110873D01*
X90386290Y9014200D01*
X90851850Y9014200D01*
X91010600Y9172950D01*
X91010600Y10272200D01*
X91264600Y10272200D01*
X91264600Y9172950D01*
X91423350Y9014200D01*
X91888910Y9014200D01*
X92122299Y9110873D01*
X92300927Y9289502D01*
X92397600Y9522891D01*
X92397600Y10113450D01*
X92238850Y10272200D01*
X91264600Y10272200D01*
X91010600Y10272200D01*
X90036350Y10272200D01*
X89877600Y10113450D01*
X89685200Y10113450D01*
X89546450Y10252200D01*
X88572200Y10252200D01*
X88318200Y10252200D01*
X87343950Y10252200D01*
X87185200Y10093450D01*
X86557564Y10093450D01*
X86557564Y24263387D01*
X88660592Y24263387D01*
X88730057Y24021203D01*
X89253502Y23834456D01*
X89808568Y23862238D01*
X90192343Y24021203D01*
X90261808Y24263387D01*
X89461200Y25063995D01*
X88660592Y24263387D01*
X86557564Y24263387D01*
X86557564Y25451298D01*
X88052056Y25451298D01*
X88079838Y24896232D01*
X88238803Y24512457D01*
X88480987Y24442992D01*
X89281595Y25243600D01*
X88480987Y26044208D01*
X88238803Y25974743D01*
X88052056Y25451298D01*
X86557564Y25451298D01*
X86557564Y27323036D01*
X86479388Y27716052D01*
X86256763Y28049235D01*
X82368001Y31937997D01*
X82368001Y33078800D01*
X82310335Y33385268D01*
X82129213Y33666739D01*
X81889343Y33830635D01*
X82112739Y33974387D01*
X82301569Y34250748D01*
X82368001Y34578800D01*
X82368001Y36078800D01*
X82310335Y36385268D01*
X82129213Y36666739D01*
X81852852Y36855569D01*
X81524800Y36922001D01*
X79524800Y36922001D01*
X79218332Y36864335D01*
X78936861Y36683213D01*
X78748031Y36406852D01*
X78681599Y36078800D01*
X78681599Y34578800D01*
X78739265Y34272332D01*
X78920387Y33990861D01*
X79160257Y33826965D01*
X78936861Y33683213D01*
X78748031Y33406852D01*
X78681599Y33078800D01*
X78681599Y31578800D01*
X78739265Y31272332D01*
X78920387Y30990861D01*
X79196748Y30802031D01*
X79423885Y30756035D01*
X79162461Y30587813D01*
X79114380Y30517445D01*
X79110098Y30521727D01*
X78876709Y30618400D01*
X78286150Y30618400D01*
X78127400Y30459650D01*
X78127400Y29485400D01*
X78147400Y29485400D01*
X78147400Y29231400D01*
X78127400Y29231400D01*
X78127400Y28257150D01*
X78286150Y28098400D01*
X78876709Y28098400D01*
X79110098Y28195073D01*
X79112510Y28197485D01*
X79145987Y28145461D01*
X79344812Y28009609D01*
X79333002Y27997800D01*
X73103605Y27997800D01*
X73103600Y27997801D01*
X72838453Y27945059D01*
X72851525Y27976539D01*
X72852073Y28603908D01*
X72658394Y29072650D01*
X76615400Y29072650D01*
X76615400Y28607090D01*
X76712073Y28373701D01*
X76890702Y28195073D01*
X77124091Y28098400D01*
X77714650Y28098400D01*
X77873400Y28257150D01*
X77873400Y29231400D01*
X76774150Y29231400D01*
X76615400Y29072650D01*
X72658394Y29072650D01*
X72612495Y29183732D01*
X72169265Y29627736D01*
X71589861Y29868325D01*
X71221085Y29868647D01*
X71462568Y30109710D01*
X76615400Y30109710D01*
X76615400Y29644150D01*
X76774150Y29485400D01*
X77873400Y29485400D01*
X77873400Y30459650D01*
X77714650Y30618400D01*
X77124091Y30618400D01*
X76890702Y30521727D01*
X76712073Y30343099D01*
X76615400Y30109710D01*
X71462568Y30109710D01*
X71544136Y30191135D01*
X71784725Y30770539D01*
X71785109Y31210312D01*
X71876597Y31301800D01*
X72933720Y31301800D01*
X72939265Y31272332D01*
X73120387Y30990861D01*
X73396748Y30802031D01*
X73724800Y30735599D01*
X75724800Y30735599D01*
X76031268Y30793265D01*
X76312739Y30974387D01*
X76501569Y31250748D01*
X76568001Y31578800D01*
X76568001Y33078800D01*
X76510335Y33385268D01*
X76329213Y33666739D01*
X76052852Y33855569D01*
X75724800Y33922001D01*
X73724800Y33922001D01*
X73418332Y33864335D01*
X73136861Y33683213D01*
X72948031Y33406852D01*
X72937693Y33355800D01*
X71451200Y33355800D01*
X71058184Y33277624D01*
X70725001Y33054999D01*
X70724999Y33054996D01*
X70332494Y32662491D01*
X69895692Y32662873D01*
X69315868Y32423295D01*
X68871864Y31980065D01*
X68631275Y31400661D01*
X68630727Y30773292D01*
X68870305Y30193468D01*
X69313535Y29749464D01*
X69892939Y29508875D01*
X70261715Y29508553D01*
X69938664Y29186065D01*
X69698075Y28606661D01*
X69697691Y28166889D01*
X68711640Y27180838D01*
X68489015Y26847655D01*
X68410839Y26454639D01*
X68410839Y17473221D01*
X68489015Y17080205D01*
X68711640Y16747022D01*
X69557252Y15901410D01*
X69532264Y15876465D01*
X69291675Y15297061D01*
X69291127Y14669692D01*
X69530705Y14089868D01*
X69973935Y13645864D01*
X70553339Y13405275D01*
X71180708Y13404727D01*
X71760532Y13644305D01*
X72204536Y14087535D01*
X72445125Y14666939D01*
X72445673Y15294308D01*
X72206095Y15874132D01*
X71859950Y16220882D01*
X71817224Y16435675D01*
X71817224Y16435676D01*
X71594599Y16768859D01*
X70464839Y17898619D01*
X70464839Y23698881D01*
X70908939Y23514475D01*
X71536308Y23513927D01*
X72116132Y23753505D01*
X72560136Y24196735D01*
X72800725Y24776139D01*
X72801109Y25215911D01*
X73528998Y25943800D01*
X79758400Y25943800D01*
X80151416Y26021976D01*
X80484599Y26244601D01*
X81226596Y26986599D01*
X81226599Y26986601D01*
X81449224Y27319784D01*
X81527400Y27712800D01*
X81527400Y27942320D01*
X81556868Y27947865D01*
X81838339Y28128987D01*
X82027169Y28405348D01*
X82093601Y28733400D01*
X82093601Y29307601D01*
X84503564Y26897638D01*
X84503564Y10734330D01*
X83934261Y10970725D01*
X83494489Y10971109D01*
X73605582Y20860016D01*
X73624240Y20904948D01*
X73624788Y21532317D01*
X73385210Y22112141D01*
X72941980Y22556145D01*
X72362576Y22796734D01*
X71735207Y22797282D01*
X71155383Y22557704D01*
X70711379Y22114474D01*
X70470790Y21535070D01*
X70470242Y20907701D01*
X70709820Y20327877D01*
X71153050Y19883873D01*
X71732454Y19643284D01*
X71917680Y19643122D01*
X82042309Y9518493D01*
X82041927Y9081692D01*
X82281505Y8501868D01*
X82498448Y8284546D01*
X74955581Y8284546D01*
X74562565Y8206370D01*
X74229382Y7983745D01*
X72094637Y5849000D01*
X63004922Y5849000D01*
X62266000Y6587923D01*
X62266000Y17829640D01*
X62266001Y17829645D01*
X62192447Y18199420D01*
X62187824Y18222661D01*
X61965199Y18555844D01*
X60864533Y19656510D01*
X60531350Y19879135D01*
X60138334Y19957311D01*
X57861052Y19957311D01*
X57468036Y19879135D01*
X57134853Y19656510D01*
X57134851Y19656507D01*
X56274967Y18796624D01*
X56052342Y18463441D01*
X55974166Y18070425D01*
X55974166Y8652163D01*
X53933002Y6611000D01*
X46655798Y6611000D01*
X45400224Y7866574D01*
X48019242Y7866574D01*
X48041073Y7769443D01*
X48324727Y7255732D01*
X48783378Y6889675D01*
X49347200Y6727000D01*
X49608600Y6727000D01*
X49608600Y8098600D01*
X49862600Y8098600D01*
X49862600Y6727000D01*
X50124000Y6727000D01*
X50687822Y6889675D01*
X51146473Y7255732D01*
X51430127Y7769443D01*
X51451958Y7866574D01*
X51330817Y8098600D01*
X49862600Y8098600D01*
X49608600Y8098600D01*
X48140383Y8098600D01*
X48019242Y7866574D01*
X45400224Y7866574D01*
X42860224Y10406574D01*
X48019242Y10406574D01*
X48041073Y10309443D01*
X48324727Y9795732D01*
X48700777Y9495600D01*
X48324727Y9195468D01*
X48041073Y8681757D01*
X48019242Y8584626D01*
X48140383Y8352600D01*
X49608600Y8352600D01*
X49608600Y10638600D01*
X49862600Y10638600D01*
X49862600Y8352600D01*
X51330817Y8352600D01*
X51451958Y8584626D01*
X51430127Y8681757D01*
X51146473Y9195468D01*
X50770423Y9495600D01*
X51146473Y9795732D01*
X51430127Y10309443D01*
X51451958Y10406574D01*
X51330817Y10638600D01*
X49862600Y10638600D01*
X49608600Y10638600D01*
X48140383Y10638600D01*
X48019242Y10406574D01*
X42860224Y10406574D01*
X41515560Y11751238D01*
X41515560Y31127228D01*
X41545028Y31132773D01*
X41826499Y31313895D01*
X42015329Y31590256D01*
X42081761Y31918308D01*
X42081761Y32876269D01*
X42081780Y32876288D01*
X42347760Y33274356D01*
X42441160Y33743908D01*
X42347760Y34213460D01*
X42081780Y34611528D01*
X41815560Y34789410D01*
X41815560Y40904640D01*
X41714548Y41412461D01*
X41426891Y41842971D01*
X41426888Y41842973D01*
X40551201Y42718660D01*
X40551201Y44935200D01*
X40493535Y45241668D01*
X40312413Y45523139D01*
X40036052Y45711969D01*
X39708000Y45778401D01*
X37208000Y45778401D01*
X36901532Y45720735D01*
X36620061Y45539613D01*
X36431231Y45263252D01*
X36364799Y44935200D01*
X36364799Y44634529D01*
X33125797Y47873531D01*
X32695287Y48161188D01*
X32187466Y48262200D01*
X30683923Y48262200D01*
X30516013Y48523139D01*
X30239652Y48711969D01*
X30102757Y48739691D01*
X29887799Y49061399D01*
X29887796Y49061401D01*
X28741940Y50207258D01*
X28408757Y50429883D01*
X28015741Y50508059D01*
X24704338Y50508059D01*
X24562948Y50649450D01*
X36573000Y50649450D01*
X36573000Y48808891D01*
X36669673Y48575502D01*
X36848301Y48396873D01*
X37081690Y48300200D01*
X38172250Y48300200D01*
X38331000Y48458950D01*
X38331000Y50808200D01*
X38585000Y50808200D01*
X38585000Y48458950D01*
X38743750Y48300200D01*
X39834310Y48300200D01*
X40067699Y48396873D01*
X40246327Y48575502D01*
X40343000Y48808891D01*
X40343000Y50649450D01*
X40184250Y50808200D01*
X38585000Y50808200D01*
X38331000Y50808200D01*
X36731750Y50808200D01*
X36573000Y50649450D01*
X24562948Y50649450D01*
X23004542Y52207856D01*
X23004542Y59167707D01*
X23313678Y59476304D01*
X23554267Y60055708D01*
X23554815Y60683077D01*
X23315237Y61262901D01*
X22872007Y61706905D01*
X22292603Y61947494D01*
X21852831Y61947878D01*
X20899310Y62901399D01*
X20566127Y63124024D01*
X20173111Y63202200D01*
X19812801Y63202200D01*
X19812801Y63425200D01*
X19755135Y63731668D01*
X19574013Y64013139D01*
X19297652Y64201969D01*
X18969600Y64268401D01*
X14969600Y64268401D01*
X14663132Y64210735D01*
X14381661Y64029613D01*
X14192831Y63753252D01*
X14126399Y63425200D01*
X14126399Y60925200D01*
X14184065Y60618732D01*
X14365187Y60337261D01*
X14641548Y60148431D01*
X14969600Y60081999D01*
X18969600Y60081999D01*
X19276068Y60139665D01*
X19557539Y60320787D01*
X19746369Y60597148D01*
X19812801Y60925200D01*
X19812801Y61083112D01*
X20400651Y60495262D01*
X20400269Y60058461D01*
X20639847Y59478637D01*
X20950542Y59167399D01*
X20950542Y51782458D01*
X21028718Y51389442D01*
X21251343Y51056259D01*
X23552740Y48754863D01*
X23552742Y48754860D01*
X23829106Y48570200D01*
X23685290Y48570200D01*
X23451901Y48473527D01*
X23273273Y48294898D01*
X23176600Y48061509D01*
X23176600Y47220950D01*
X23335350Y47062200D01*
X24434600Y47062200D01*
X24434600Y47082200D01*
X24688600Y47082200D01*
X24688600Y47062200D01*
X24708600Y47062200D01*
X24708600Y46808200D01*
X24688600Y46808200D01*
X24688600Y45458950D01*
X24847350Y45300200D01*
X25355696Y45300200D01*
X25321431Y45250052D01*
X25254999Y44922000D01*
X25254999Y43422000D01*
X25312665Y43115532D01*
X25493787Y42834061D01*
X25564155Y42785980D01*
X25559873Y42781698D01*
X25463200Y42548309D01*
X25463200Y41957750D01*
X25621950Y41799000D01*
X26596200Y41799000D01*
X26596200Y41819000D01*
X26850200Y41819000D01*
X26850200Y41799000D01*
X27824450Y41799000D01*
X27983200Y41957750D01*
X27983200Y42548309D01*
X27886527Y42781698D01*
X27884115Y42784110D01*
X27936139Y42817587D01*
X28070372Y43014043D01*
X28186187Y42834061D01*
X28256555Y42785980D01*
X28252273Y42781698D01*
X28155600Y42548309D01*
X28155600Y41957750D01*
X28314350Y41799000D01*
X29288600Y41799000D01*
X29288600Y41819000D01*
X29542600Y41819000D01*
X29542600Y41799000D01*
X30516850Y41799000D01*
X30675600Y41957750D01*
X30675600Y42548309D01*
X30578927Y42781698D01*
X30576515Y42784110D01*
X30628539Y42817587D01*
X30817369Y43093948D01*
X30883801Y43422000D01*
X30883801Y44922000D01*
X30826135Y45228468D01*
X30645013Y45509939D01*
X30629289Y45520682D01*
X30688369Y45607148D01*
X30688582Y45608200D01*
X31637804Y45608200D01*
X34542529Y42703475D01*
X33148762Y41309708D01*
X30675600Y41309708D01*
X30675600Y41386250D01*
X30516850Y41545000D01*
X29542600Y41545000D01*
X29542600Y41525000D01*
X29288600Y41525000D01*
X29288600Y41545000D01*
X28314350Y41545000D01*
X28155600Y41386250D01*
X28155600Y40795691D01*
X28238232Y40596200D01*
X27900568Y40596200D01*
X27983200Y40795691D01*
X27983200Y41386250D01*
X27824450Y41545000D01*
X26850200Y41545000D01*
X26850200Y41525000D01*
X26596200Y41525000D01*
X26596200Y41545000D01*
X25621950Y41545000D01*
X25463200Y41386250D01*
X25463200Y41062401D01*
X24986400Y41062401D01*
X24679932Y41004735D01*
X24398461Y40823613D01*
X24388353Y40808820D01*
X24114452Y40995969D01*
X23786400Y41062401D01*
X22286400Y41062401D01*
X21979932Y41004735D01*
X21698461Y40823613D01*
X21509631Y40547252D01*
X21443199Y40219200D01*
X21443199Y39075185D01*
X21277200Y39108801D01*
X19977200Y39108801D01*
X19670732Y39051135D01*
X19389261Y38870013D01*
X19200431Y38593652D01*
X19133999Y38265600D01*
X19133999Y36765600D01*
X19191665Y36459132D01*
X19372787Y36177661D01*
X19561971Y36048397D01*
X19438873Y35925298D01*
X19342200Y35691909D01*
X19342200Y35101350D01*
X19500950Y34942600D01*
X20500200Y34942600D01*
X20500200Y34962600D01*
X20754200Y34962600D01*
X20754200Y34942600D01*
X21753450Y34942600D01*
X21912200Y35101350D01*
X21912200Y35691909D01*
X21815527Y35925298D01*
X21691422Y36049403D01*
X21865139Y36161187D01*
X21940699Y36271772D01*
X22267362Y35945109D01*
X22559032Y35750222D01*
X22608026Y35489840D01*
X22789148Y35208369D01*
X23065509Y35019539D01*
X23393561Y34953107D01*
X23943561Y34953107D01*
X24250029Y35010773D01*
X24300658Y35043352D01*
X24335509Y35019539D01*
X24663561Y34953107D01*
X25213561Y34953107D01*
X25520029Y35010773D01*
X25570658Y35043352D01*
X25605509Y35019539D01*
X25933561Y34953107D01*
X26483561Y34953107D01*
X26790029Y35010773D01*
X26840658Y35043352D01*
X26875509Y35019539D01*
X27203561Y34953107D01*
X27753561Y34953107D01*
X28060029Y35010773D01*
X28341500Y35191895D01*
X28530330Y35468256D01*
X28596762Y35796308D01*
X28596762Y36937111D01*
X29168159Y37508508D01*
X30132080Y37508508D01*
X30137625Y37479040D01*
X30262993Y37284213D01*
X30146391Y37113560D01*
X30079959Y36785508D01*
X30079959Y35285508D01*
X30137625Y34979040D01*
X30318747Y34697569D01*
X30595108Y34508739D01*
X30923160Y34442307D01*
X31563963Y34442307D01*
X32110962Y33895308D01*
X31950561Y33895308D01*
X31481008Y33801908D01*
X31217145Y33625600D01*
X31082941Y33535928D01*
X28312400Y30765387D01*
X28081613Y30923077D01*
X27753561Y30989509D01*
X27203561Y30989509D01*
X26897093Y30931843D01*
X26846464Y30899264D01*
X26811613Y30923077D01*
X26483561Y30989509D01*
X25933561Y30989509D01*
X25627093Y30931843D01*
X25372288Y30767880D01*
X25339871Y30781308D01*
X25224311Y30781308D01*
X25065561Y30622558D01*
X25065561Y29903330D01*
X24982573Y29779129D01*
X24881561Y29271308D01*
X24881561Y29124308D01*
X24811561Y29124308D01*
X24811561Y29144308D01*
X24791561Y29144308D01*
X24791561Y29398308D01*
X24811561Y29398308D01*
X24811561Y30622558D01*
X24652811Y30781308D01*
X24537251Y30781308D01*
X24501046Y30766311D01*
X24271613Y30923077D01*
X23943561Y30989509D01*
X23393561Y30989509D01*
X23087093Y30931843D01*
X22805622Y30750721D01*
X22616792Y30474360D01*
X22550360Y30146308D01*
X22550360Y28396308D01*
X22608026Y28089840D01*
X22789148Y27808369D01*
X23065509Y27619539D01*
X23393561Y27553107D01*
X23943561Y27553107D01*
X24250029Y27610773D01*
X24504834Y27774736D01*
X24537251Y27761308D01*
X24652811Y27761308D01*
X24811559Y27920056D01*
X24811559Y27761308D01*
X24881561Y27761308D01*
X24881561Y23911308D01*
X23844128Y23911308D01*
X23959685Y24408204D01*
X23981279Y24575905D01*
X23923935Y24905668D01*
X23742813Y25187139D01*
X23466452Y25375969D01*
X23138400Y25442401D01*
X19617400Y25442401D01*
X19617400Y26930815D01*
X19626536Y26939935D01*
X19867125Y27519339D01*
X19867673Y28146708D01*
X19628095Y28726532D01*
X19184865Y29170536D01*
X18605461Y29411125D01*
X17978092Y29411673D01*
X17398268Y29172095D01*
X16954264Y28728865D01*
X16713675Y28149461D01*
X16713127Y27522092D01*
X16952705Y26942268D01*
X16963400Y26931554D01*
X16963400Y22866826D01*
X15501121Y21404548D01*
X15213464Y20974038D01*
X15112452Y20466217D01*
X15112452Y11628057D01*
X15093197Y11674543D01*
X14851013Y11744008D01*
X14050405Y10943400D01*
X14851013Y10142792D01*
X15093197Y10212257D01*
X15112452Y10266228D01*
X15112452Y9009748D01*
X15213464Y8501927D01*
X15501121Y8071417D01*
X22298858Y1273680D01*
X22729368Y986023D01*
X23237189Y885010D01*
X23237194Y885011D01*
X48888522Y885011D01*
X879333Y872829D01*
X882690Y9963187D01*
X13070192Y9963187D01*
X13139657Y9721003D01*
X13663102Y9534256D01*
X14218168Y9562038D01*
X14601943Y9721003D01*
X14671408Y9963187D01*
X13870800Y10763795D01*
X13070192Y9963187D01*
X882690Y9963187D01*
X883129Y11151098D01*
X12461656Y11151098D01*
X12489438Y10596032D01*
X12648403Y10212257D01*
X12890587Y10142792D01*
X13691195Y10943400D01*
X12890587Y11744008D01*
X12648403Y11674543D01*
X12461656Y11151098D01*
X883129Y11151098D01*
X883414Y11923613D01*
X13070192Y11923613D01*
X13870800Y11123005D01*
X14671408Y11923613D01*
X14601943Y12165797D01*
X14078498Y12352544D01*
X13523432Y12324762D01*
X13139657Y12165797D01*
X13070192Y11923613D01*
X883414Y11923613D01*
X885857Y18534362D01*
X1942197Y18534362D01*
X2295715Y17678782D01*
X2949739Y17023615D01*
X3804700Y16668604D01*
X4730438Y16667797D01*
X5586018Y17021315D01*
X6241185Y17675339D01*
X6596196Y18530300D01*
X6596241Y18582582D01*
X10357084Y18582582D01*
X10634642Y17910840D01*
X11148136Y17396448D01*
X11819393Y17117718D01*
X12546218Y17117084D01*
X13217960Y17394642D01*
X13732352Y17908136D01*
X14011082Y18579393D01*
X14011716Y19306218D01*
X13734158Y19977960D01*
X13220664Y20492352D01*
X12549407Y20771082D01*
X11822582Y20771716D01*
X11150840Y20494158D01*
X10636448Y19980664D01*
X10357718Y19309407D01*
X10357084Y18582582D01*
X6596241Y18582582D01*
X6597003Y19456038D01*
X6243485Y20311618D01*
X5589461Y20966785D01*
X4734500Y21321796D01*
X3808762Y21322603D01*
X2953182Y20969085D01*
X2298015Y20315061D01*
X1943004Y19460100D01*
X1942197Y18534362D01*
X885857Y18534362D01*
X887798Y23789450D01*
X2134600Y23789450D01*
X2134600Y22448891D01*
X2231273Y22215502D01*
X2409901Y22036873D01*
X2643290Y21940200D01*
X3983850Y21940200D01*
X4142600Y22098950D01*
X4142600Y23948200D01*
X4396600Y23948200D01*
X4396600Y22098950D01*
X4555350Y21940200D01*
X5895910Y21940200D01*
X6129299Y22036873D01*
X6307927Y22215502D01*
X6404600Y22448891D01*
X6404600Y23662582D01*
X10367084Y23662582D01*
X10644642Y22990840D01*
X11158136Y22476448D01*
X11829393Y22197718D01*
X12556218Y22197084D01*
X13227960Y22474642D01*
X13742352Y22988136D01*
X14021082Y23659393D01*
X14021716Y24386218D01*
X13744158Y25057960D01*
X13230664Y25572352D01*
X12559407Y25851082D01*
X11832582Y25851716D01*
X11160840Y25574158D01*
X10646448Y25060664D01*
X10367718Y24389407D01*
X10367084Y23662582D01*
X6404600Y23662582D01*
X6404600Y23789450D01*
X6245850Y23948200D01*
X4396600Y23948200D01*
X4142600Y23948200D01*
X2293350Y23948200D01*
X2134600Y23789450D01*
X887798Y23789450D01*
X888504Y25701509D01*
X2134600Y25701509D01*
X2134600Y24360950D01*
X2293350Y24202200D01*
X4142600Y24202200D01*
X4142600Y26051450D01*
X4396600Y26051450D01*
X4396600Y24202200D01*
X6245850Y24202200D01*
X6404600Y24360950D01*
X6404600Y25701509D01*
X6307927Y25934898D01*
X6129299Y26113527D01*
X5895910Y26210200D01*
X4555350Y26210200D01*
X4396600Y26051450D01*
X4142600Y26051450D01*
X3983850Y26210200D01*
X2643290Y26210200D01*
X2409901Y26113527D01*
X2231273Y25934898D01*
X2134600Y25701509D01*
X888504Y25701509D01*
X892003Y35173090D01*
X5612441Y35173090D01*
X6015334Y34198016D01*
X6760702Y33451346D01*
X7735071Y33046752D01*
X8790102Y33045831D01*
X9765176Y33448724D01*
X10511846Y34194092D01*
X10651265Y34529850D01*
X19342200Y34529850D01*
X19342200Y33939291D01*
X19438873Y33705902D01*
X19617501Y33527273D01*
X19850890Y33430600D01*
X20341450Y33430600D01*
X20500200Y33589350D01*
X20500200Y34688600D01*
X20754200Y34688600D01*
X20754200Y33589350D01*
X20912950Y33430600D01*
X21403510Y33430600D01*
X21636899Y33527273D01*
X21815527Y33705902D01*
X21912200Y33939291D01*
X21912200Y34529850D01*
X21753450Y34688600D01*
X20754200Y34688600D01*
X20500200Y34688600D01*
X19500950Y34688600D01*
X19342200Y34529850D01*
X10651265Y34529850D01*
X10916440Y35168461D01*
X10917361Y36223492D01*
X10514468Y37198566D01*
X9769100Y37945236D01*
X8794731Y38349830D01*
X7739700Y38350751D01*
X6764626Y37947858D01*
X6017956Y37202490D01*
X5613362Y36228121D01*
X5612441Y35173090D01*
X892003Y35173090D01*
X896388Y47043090D01*
X5612441Y47043090D01*
X6015334Y46068016D01*
X6760702Y45321346D01*
X7735071Y44916752D01*
X8790102Y44915831D01*
X9765176Y45318724D01*
X10511846Y46064092D01*
X10829169Y46828291D01*
X13021700Y46828291D01*
X13021700Y45328291D01*
X13079366Y45021823D01*
X13260488Y44740352D01*
X13454265Y44607950D01*
X13278765Y44432756D01*
X13038176Y43853352D01*
X13037628Y43225983D01*
X13277206Y42646159D01*
X13654685Y42268021D01*
X13278765Y41892756D01*
X13038176Y41313352D01*
X13037628Y40685983D01*
X13277206Y40106159D01*
X13654685Y39728021D01*
X13278765Y39352756D01*
X13038176Y38773352D01*
X13037628Y38145983D01*
X13277206Y37566159D01*
X13720436Y37122155D01*
X14299840Y36881566D01*
X14927209Y36881018D01*
X15507033Y37120596D01*
X15577903Y37191343D01*
X15577628Y36875983D01*
X15817206Y36296159D01*
X16260436Y35852155D01*
X16839840Y35611566D01*
X17467209Y35611018D01*
X18047033Y35850596D01*
X18491037Y36293826D01*
X18731626Y36873230D01*
X18732174Y37500599D01*
X18492596Y38080423D01*
X18115117Y38458561D01*
X18491037Y38833826D01*
X18731626Y39413230D01*
X18732174Y40040599D01*
X18492596Y40620423D01*
X18115117Y40998561D01*
X18491037Y41373826D01*
X18731626Y41953230D01*
X18732174Y42580599D01*
X18492596Y43160423D01*
X18115117Y43538561D01*
X18491037Y43913826D01*
X18731626Y44493230D01*
X18732174Y45120599D01*
X18492596Y45700423D01*
X18049366Y46144427D01*
X17469962Y46385016D01*
X16842593Y46385564D01*
X16262769Y46145986D01*
X16208102Y46091414D01*
X16208102Y46649450D01*
X23176600Y46649450D01*
X23176600Y45808891D01*
X23273273Y45575502D01*
X23451901Y45396873D01*
X23685290Y45300200D01*
X24275850Y45300200D01*
X24434600Y45458950D01*
X24434600Y46808200D01*
X23335350Y46808200D01*
X23176600Y46649450D01*
X16208102Y46649450D01*
X16208102Y46828291D01*
X16150436Y47134759D01*
X15969314Y47416230D01*
X15692953Y47605060D01*
X15364901Y47671492D01*
X13864901Y47671492D01*
X13558433Y47613826D01*
X13276962Y47432704D01*
X13088132Y47156343D01*
X13021700Y46828291D01*
X10829169Y46828291D01*
X10916440Y47038461D01*
X10917361Y48093492D01*
X10514468Y49068566D01*
X9769100Y49815236D01*
X8794731Y50219830D01*
X7739700Y50220751D01*
X6764626Y49817858D01*
X6017956Y49072490D01*
X5613362Y48098121D01*
X5612441Y47043090D01*
X896388Y47043090D01*
X901873Y61889450D01*
X6334600Y61889450D01*
X6334600Y60798890D01*
X6431273Y60565501D01*
X6609902Y60386873D01*
X6843291Y60290200D01*
X8683850Y60290200D01*
X8842600Y60448950D01*
X8842600Y62048200D01*
X9096600Y62048200D01*
X9096600Y60448950D01*
X9255350Y60290200D01*
X11095909Y60290200D01*
X11329298Y60386873D01*
X11507927Y60565501D01*
X11604600Y60798890D01*
X11604600Y61889450D01*
X11445850Y62048200D01*
X9096600Y62048200D01*
X8842600Y62048200D01*
X6493350Y62048200D01*
X6334600Y61889450D01*
X901873Y61889450D01*
X902487Y63551510D01*
X6334600Y63551510D01*
X6334600Y62460950D01*
X6493350Y62302200D01*
X8842600Y62302200D01*
X8842600Y63901450D01*
X9096600Y63901450D01*
X9096600Y62302200D01*
X11445850Y62302200D01*
X11604600Y62460950D01*
X11604600Y63551510D01*
X11507927Y63784899D01*
X11329298Y63963527D01*
X11095909Y64060200D01*
X9255350Y64060200D01*
X9096600Y63901450D01*
X8842600Y63901450D01*
X8683850Y64060200D01*
X6843291Y64060200D01*
X6609902Y63963527D01*
X6431273Y63784899D01*
X6334600Y63551510D01*
X902487Y63551510D01*
X903231Y65565200D01*
X22794799Y65565200D01*
X22794799Y63865200D01*
X22852465Y63558732D01*
X23033587Y63277261D01*
X23309948Y63088431D01*
X23638000Y63021999D01*
X25338000Y63021999D01*
X25644468Y63079665D01*
X25925939Y63260787D01*
X26010273Y63384213D01*
X26386240Y63133000D01*
X27028000Y63005346D01*
X27669760Y63133000D01*
X28213818Y63496528D01*
X28298000Y63622515D01*
X28382182Y63496528D01*
X28926240Y63133000D01*
X29568000Y63005346D01*
X30209760Y63133000D01*
X30753818Y63496528D01*
X30838000Y63622515D01*
X30922182Y63496528D01*
X31466240Y63133000D01*
X32108000Y63005346D01*
X32749760Y63133000D01*
X33293818Y63496528D01*
X33378000Y63622515D01*
X33462182Y63496528D01*
X34006240Y63133000D01*
X34648000Y63005346D01*
X35289760Y63133000D01*
X35833818Y63496528D01*
X35918000Y63622515D01*
X36002182Y63496528D01*
X36546240Y63133000D01*
X37188000Y63005346D01*
X37829760Y63133000D01*
X38373818Y63496528D01*
X38574079Y63796239D01*
X38961076Y63443555D01*
X39371110Y63273724D01*
X39601000Y63395045D01*
X39601000Y64588200D01*
X39855000Y64588200D01*
X39855000Y63395045D01*
X40084890Y63273724D01*
X40494924Y63443555D01*
X40923183Y63833842D01*
X41169486Y64358308D01*
X41144501Y64405909D01*
X89100200Y64405909D01*
X89100200Y62690350D01*
X89258950Y62531600D01*
X90858200Y62531600D01*
X90858200Y64755850D01*
X91112200Y64755850D01*
X91112200Y62531600D01*
X92711450Y62531600D01*
X92870200Y62690350D01*
X92870200Y64405909D01*
X92773527Y64639298D01*
X92594899Y64817927D01*
X92361510Y64914600D01*
X91270950Y64914600D01*
X91112200Y64755850D01*
X90858200Y64755850D01*
X90699450Y64914600D01*
X89608890Y64914600D01*
X89375501Y64817927D01*
X89196873Y64639298D01*
X89100200Y64405909D01*
X41144501Y64405909D01*
X41048819Y64588200D01*
X39855000Y64588200D01*
X39601000Y64588200D01*
X39581000Y64588200D01*
X39581000Y64842200D01*
X39601000Y64842200D01*
X39601000Y66035355D01*
X39855000Y66035355D01*
X39855000Y64842200D01*
X41048819Y64842200D01*
X41169486Y65072092D01*
X40923183Y65596558D01*
X40494924Y65986845D01*
X40084890Y66156676D01*
X39855000Y66035355D01*
X39601000Y66035355D01*
X39371110Y66156676D01*
X38961076Y65986845D01*
X38574079Y65634161D01*
X38373818Y65933872D01*
X37829760Y66297400D01*
X37188000Y66425054D01*
X36546240Y66297400D01*
X36002182Y65933872D01*
X35918000Y65807885D01*
X35833818Y65933872D01*
X35289760Y66297400D01*
X34648000Y66425054D01*
X34006240Y66297400D01*
X33462182Y65933872D01*
X33378000Y65807885D01*
X33293818Y65933872D01*
X32749760Y66297400D01*
X32108000Y66425054D01*
X31466240Y66297400D01*
X30922182Y65933872D01*
X30838000Y65807885D01*
X30753818Y65933872D01*
X30209760Y66297400D01*
X29568000Y66425054D01*
X28926240Y66297400D01*
X28382182Y65933872D01*
X28298000Y65807885D01*
X28213818Y65933872D01*
X27669760Y66297400D01*
X27028000Y66425054D01*
X26386240Y66297400D01*
X26010946Y66046636D01*
X25942413Y66153139D01*
X25666052Y66341969D01*
X25338000Y66408401D01*
X23638000Y66408401D01*
X23331532Y66350735D01*
X23050061Y66169613D01*
X22861231Y65893252D01*
X22794799Y65565200D01*
X903231Y65565200D01*
X904067Y67826400D01*
X99151333Y67826400D01*
X99176067Y897771D01*
G36*
X36064200Y30916007D02*
X36064200Y28317201D01*
X35741200Y28317201D01*
X35434732Y28259535D01*
X35153261Y28078413D01*
X34964431Y27802052D01*
X34897999Y27474000D01*
X34897999Y22974000D01*
X34955665Y22667532D01*
X35136787Y22386061D01*
X35413148Y22197231D01*
X35741200Y22130799D01*
X39041200Y22130799D01*
X39347668Y22188465D01*
X39461560Y22261753D01*
X39461560Y19151665D01*
X39400898Y19212327D01*
X39167509Y19309000D01*
X37676950Y19309000D01*
X37518200Y19150250D01*
X37518200Y16551000D01*
X37538200Y16551000D01*
X37538200Y16297000D01*
X37518200Y16297000D01*
X37518200Y13697750D01*
X37676950Y13539000D01*
X39167509Y13539000D01*
X39400898Y13635673D01*
X39461560Y13696335D01*
X39461560Y11325840D01*
X39539736Y10932824D01*
X39762361Y10599641D01*
X44959013Y5402989D01*
X38001902Y5402989D01*
X35652368Y7752523D01*
X35652750Y8189325D01*
X35413172Y8769149D01*
X34969942Y9213153D01*
X34390538Y9453742D01*
X33763169Y9454290D01*
X33183345Y9214712D01*
X32739341Y8771482D01*
X32498752Y8192078D01*
X32498204Y7564709D01*
X32737782Y6984885D01*
X33181012Y6540881D01*
X33760416Y6300292D01*
X34200188Y6299908D01*
X36850304Y3649793D01*
X36850306Y3649790D01*
X37016099Y3539011D01*
X23786851Y3539011D01*
X17766452Y9559410D01*
X17766452Y9963187D01*
X18150192Y9963187D01*
X18219657Y9721003D01*
X18743102Y9534256D01*
X19298168Y9562038D01*
X19681943Y9721003D01*
X19751408Y9963187D01*
X18950800Y10763795D01*
X18150192Y9963187D01*
X17766452Y9963187D01*
X17766452Y10201344D01*
X17970587Y10142792D01*
X18771195Y10943400D01*
X19130405Y10943400D01*
X19931013Y10142792D01*
X20173197Y10212257D01*
X20359944Y10735702D01*
X20332162Y11290768D01*
X20173197Y11674543D01*
X19931013Y11744008D01*
X19130405Y10943400D01*
X18771195Y10943400D01*
X17970587Y11744008D01*
X17766452Y11685456D01*
X17766452Y11923613D01*
X18150192Y11923613D01*
X18950800Y11123005D01*
X19751408Y11923613D01*
X19681943Y12165797D01*
X19158498Y12352544D01*
X18603432Y12324762D01*
X18219657Y12165797D01*
X18150192Y11923613D01*
X17766452Y11923613D01*
X17766452Y13917087D01*
X18891207Y13917087D01*
X18935238Y13663883D01*
X19074310Y13447759D01*
X19286510Y13302769D01*
X19538400Y13251760D01*
X21211400Y13251760D01*
X21211400Y15922200D01*
X21465400Y15922200D01*
X21465400Y13251760D01*
X23138400Y13251760D01*
X23267576Y13264777D01*
X23504225Y13365018D01*
X23683230Y13549430D01*
X23776385Y13788956D01*
X23769012Y14045854D01*
X23332652Y15922200D01*
X21465400Y15922200D01*
X21211400Y15922200D01*
X19344148Y15922200D01*
X18907788Y14045854D01*
X18891207Y13917087D01*
X17766452Y13917087D01*
X17766452Y16176200D01*
X19403217Y16176200D01*
X21211400Y16176200D01*
X21211400Y18846640D01*
X21465400Y18846640D01*
X21465400Y16176200D01*
X23273583Y16176200D01*
X23109407Y16882158D01*
X29332960Y16882158D01*
X29332960Y15166599D01*
X29429633Y14933210D01*
X29608261Y14754581D01*
X29841650Y14657908D01*
X30932210Y14657908D01*
X31090960Y14816658D01*
X31090960Y17040908D01*
X31344960Y17040908D01*
X31344960Y14816658D01*
X31503710Y14657908D01*
X32594270Y14657908D01*
X32827659Y14754581D01*
X33006287Y14933210D01*
X33102960Y15166599D01*
X33102960Y16138250D01*
X35106200Y16138250D01*
X35106200Y14047690D01*
X35202873Y13814301D01*
X35381502Y13635673D01*
X35614891Y13539000D01*
X37105450Y13539000D01*
X37264200Y13697750D01*
X37264200Y16297000D01*
X35264950Y16297000D01*
X35106200Y16138250D01*
X33102960Y16138250D01*
X33102960Y16882158D01*
X32944210Y17040908D01*
X31344960Y17040908D01*
X31090960Y17040908D01*
X29491710Y17040908D01*
X29332960Y16882158D01*
X23109407Y16882158D01*
X22769012Y18345854D01*
X22602490Y18650641D01*
X22390290Y18795631D01*
X22138400Y18846640D01*
X21465400Y18846640D01*
X21211400Y18846640D01*
X20538400Y18846640D01*
X20203815Y18753485D01*
X20014528Y18579643D01*
X19907788Y18345854D01*
X19403217Y16176200D01*
X17766452Y16176200D01*
X17766452Y19916555D01*
X18972096Y21122200D01*
X19481302Y21122200D01*
X19717115Y20108204D01*
X19933987Y19711261D01*
X20210348Y19522431D01*
X20538400Y19455999D01*
X22138400Y19455999D01*
X22574150Y19577321D01*
X22815043Y19798558D01*
X26249560Y19798558D01*
X26249560Y19207999D01*
X26346233Y18974610D01*
X26524861Y18795981D01*
X26758250Y18699308D01*
X27223810Y18699308D01*
X27382560Y18858058D01*
X27382560Y19957308D01*
X27636560Y19957308D01*
X27636560Y18858058D01*
X27795310Y18699308D01*
X28260870Y18699308D01*
X28494259Y18795981D01*
X28672887Y18974610D01*
X28753495Y19169217D01*
X29332960Y19169217D01*
X29332960Y17453658D01*
X29491710Y17294908D01*
X31090960Y17294908D01*
X31090960Y19519158D01*
X31344960Y19519158D01*
X31344960Y17294908D01*
X32944210Y17294908D01*
X33102960Y17453658D01*
X33102960Y18800310D01*
X35106200Y18800310D01*
X35106200Y16709750D01*
X35264950Y16551000D01*
X37264200Y16551000D01*
X37264200Y19150250D01*
X37105450Y19309000D01*
X35614891Y19309000D01*
X35381502Y19212327D01*
X35202873Y19033699D01*
X35106200Y18800310D01*
X33102960Y18800310D01*
X33102960Y19169217D01*
X33006287Y19402606D01*
X32827659Y19581235D01*
X32594270Y19677908D01*
X31503710Y19677908D01*
X31344960Y19519158D01*
X31090960Y19519158D01*
X30932210Y19677908D01*
X29841650Y19677908D01*
X29608261Y19581235D01*
X29429633Y19402606D01*
X29332960Y19169217D01*
X28753495Y19169217D01*
X28769560Y19207999D01*
X28769560Y19798558D01*
X28610810Y19957308D01*
X27636560Y19957308D01*
X27382560Y19957308D01*
X26408310Y19957308D01*
X26249560Y19798558D01*
X22815043Y19798558D01*
X22820671Y19803726D01*
X22959685Y20108204D01*
X23195498Y21122200D01*
X23244600Y21122200D01*
X23752421Y21223212D01*
X23803449Y21257308D01*
X26273108Y21257308D01*
X26280147Y21246369D01*
X26350515Y21198288D01*
X26346233Y21194006D01*
X26249560Y20960617D01*
X26249560Y20370058D01*
X26408310Y20211308D01*
X27382560Y20211308D01*
X27382560Y20231308D01*
X27636560Y20231308D01*
X27636560Y20211308D01*
X28610810Y20211308D01*
X28769560Y20370058D01*
X28769560Y20960617D01*
X28672887Y21194006D01*
X28670475Y21196418D01*
X28722499Y21229895D01*
X28809557Y21357308D01*
X29159682Y21357308D01*
X29182425Y21236440D01*
X29363547Y20954969D01*
X29639908Y20766139D01*
X29967960Y20699707D01*
X32467960Y20699707D01*
X32774428Y20757373D01*
X33055899Y20938495D01*
X33244729Y21214856D01*
X33311161Y21542908D01*
X33311161Y25292908D01*
X33253495Y25599376D01*
X33072373Y25880847D01*
X32796012Y26069677D01*
X32467960Y26136109D01*
X29967960Y26136109D01*
X29661492Y26078443D01*
X29380021Y25897321D01*
X29191191Y25620960D01*
X29124759Y25292908D01*
X29124759Y23811308D01*
X28810360Y23811308D01*
X28738973Y23922247D01*
X28462612Y24111077D01*
X28134560Y24177509D01*
X27535561Y24177509D01*
X27535561Y27553107D01*
X27753561Y27553107D01*
X28060029Y27610773D01*
X28341500Y27791895D01*
X28513967Y28044308D01*
X28553561Y28044308D01*
X29023114Y28137708D01*
X29421181Y28403688D01*
X32458801Y31441308D01*
X32662760Y31441308D01*
X32734147Y31330369D01*
X33010508Y31141539D01*
X33338560Y31075107D01*
X34838560Y31075107D01*
X35145028Y31132773D01*
X35426499Y31313895D01*
X35523843Y31456363D01*
X36064200Y30916007D01*
X36064200Y30916007D01*
G37*
X36064200Y30916007D02*
X36064200Y28317201D01*
X35741200Y28317201D01*
X35434732Y28259535D01*
X35153261Y28078413D01*
X34964431Y27802052D01*
X34897999Y27474000D01*
X34897999Y22974000D01*
X34955665Y22667532D01*
X35136787Y22386061D01*
X35413148Y22197231D01*
X35741200Y22130799D01*
X39041200Y22130799D01*
X39347668Y22188465D01*
X39461560Y22261753D01*
X39461560Y19151665D01*
X39400898Y19212327D01*
X39167509Y19309000D01*
X37676950Y19309000D01*
X37518200Y19150250D01*
X37518200Y16551000D01*
X37538200Y16551000D01*
X37538200Y16297000D01*
X37518200Y16297000D01*
X37518200Y13697750D01*
X37676950Y13539000D01*
X39167509Y13539000D01*
X39400898Y13635673D01*
X39461560Y13696335D01*
X39461560Y11325840D01*
X39539736Y10932824D01*
X39762361Y10599641D01*
X44959013Y5402989D01*
X38001902Y5402989D01*
X35652368Y7752523D01*
X35652750Y8189325D01*
X35413172Y8769149D01*
X34969942Y9213153D01*
X34390538Y9453742D01*
X33763169Y9454290D01*
X33183345Y9214712D01*
X32739341Y8771482D01*
X32498752Y8192078D01*
X32498204Y7564709D01*
X32737782Y6984885D01*
X33181012Y6540881D01*
X33760416Y6300292D01*
X34200188Y6299908D01*
X36850304Y3649793D01*
X36850306Y3649790D01*
X37016099Y3539011D01*
X23786851Y3539011D01*
X17766452Y9559410D01*
X17766452Y9963187D01*
X18150192Y9963187D01*
X18219657Y9721003D01*
X18743102Y9534256D01*
X19298168Y9562038D01*
X19681943Y9721003D01*
X19751408Y9963187D01*
X18950800Y10763795D01*
X18150192Y9963187D01*
X17766452Y9963187D01*
X17766452Y10201344D01*
X17970587Y10142792D01*
X18771195Y10943400D01*
X19130405Y10943400D01*
X19931013Y10142792D01*
X20173197Y10212257D01*
X20359944Y10735702D01*
X20332162Y11290768D01*
X20173197Y11674543D01*
X19931013Y11744008D01*
X19130405Y10943400D01*
X18771195Y10943400D01*
X17970587Y11744008D01*
X17766452Y11685456D01*
X17766452Y11923613D01*
X18150192Y11923613D01*
X18950800Y11123005D01*
X19751408Y11923613D01*
X19681943Y12165797D01*
X19158498Y12352544D01*
X18603432Y12324762D01*
X18219657Y12165797D01*
X18150192Y11923613D01*
X17766452Y11923613D01*
X17766452Y13917087D01*
X18891207Y13917087D01*
X18935238Y13663883D01*
X19074310Y13447759D01*
X19286510Y13302769D01*
X19538400Y13251760D01*
X21211400Y13251760D01*
X21211400Y15922200D01*
X21465400Y15922200D01*
X21465400Y13251760D01*
X23138400Y13251760D01*
X23267576Y13264777D01*
X23504225Y13365018D01*
X23683230Y13549430D01*
X23776385Y13788956D01*
X23769012Y14045854D01*
X23332652Y15922200D01*
X21465400Y15922200D01*
X21211400Y15922200D01*
X19344148Y15922200D01*
X18907788Y14045854D01*
X18891207Y13917087D01*
X17766452Y13917087D01*
X17766452Y16176200D01*
X19403217Y16176200D01*
X21211400Y16176200D01*
X21211400Y18846640D01*
X21465400Y18846640D01*
X21465400Y16176200D01*
X23273583Y16176200D01*
X23109407Y16882158D01*
X29332960Y16882158D01*
X29332960Y15166599D01*
X29429633Y14933210D01*
X29608261Y14754581D01*
X29841650Y14657908D01*
X30932210Y14657908D01*
X31090960Y14816658D01*
X31090960Y17040908D01*
X31344960Y17040908D01*
X31344960Y14816658D01*
X31503710Y14657908D01*
X32594270Y14657908D01*
X32827659Y14754581D01*
X33006287Y14933210D01*
X33102960Y15166599D01*
X33102960Y16138250D01*
X35106200Y16138250D01*
X35106200Y14047690D01*
X35202873Y13814301D01*
X35381502Y13635673D01*
X35614891Y13539000D01*
X37105450Y13539000D01*
X37264200Y13697750D01*
X37264200Y16297000D01*
X35264950Y16297000D01*
X35106200Y16138250D01*
X33102960Y16138250D01*
X33102960Y16882158D01*
X32944210Y17040908D01*
X31344960Y17040908D01*
X31090960Y17040908D01*
X29491710Y17040908D01*
X29332960Y16882158D01*
X23109407Y16882158D01*
X22769012Y18345854D01*
X22602490Y18650641D01*
X22390290Y18795631D01*
X22138400Y18846640D01*
X21465400Y18846640D01*
X21211400Y18846640D01*
X20538400Y18846640D01*
X20203815Y18753485D01*
X20014528Y18579643D01*
X19907788Y18345854D01*
X19403217Y16176200D01*
X17766452Y16176200D01*
X17766452Y19916555D01*
X18972096Y21122200D01*
X19481302Y21122200D01*
X19717115Y20108204D01*
X19933987Y19711261D01*
X20210348Y19522431D01*
X20538400Y19455999D01*
X22138400Y19455999D01*
X22574150Y19577321D01*
X22815043Y19798558D01*
X26249560Y19798558D01*
X26249560Y19207999D01*
X26346233Y18974610D01*
X26524861Y18795981D01*
X26758250Y18699308D01*
X27223810Y18699308D01*
X27382560Y18858058D01*
X27382560Y19957308D01*
X27636560Y19957308D01*
X27636560Y18858058D01*
X27795310Y18699308D01*
X28260870Y18699308D01*
X28494259Y18795981D01*
X28672887Y18974610D01*
X28753495Y19169217D01*
X29332960Y19169217D01*
X29332960Y17453658D01*
X29491710Y17294908D01*
X31090960Y17294908D01*
X31090960Y19519158D01*
X31344960Y19519158D01*
X31344960Y17294908D01*
X32944210Y17294908D01*
X33102960Y17453658D01*
X33102960Y18800310D01*
X35106200Y18800310D01*
X35106200Y16709750D01*
X35264950Y16551000D01*
X37264200Y16551000D01*
X37264200Y19150250D01*
X37105450Y19309000D01*
X35614891Y19309000D01*
X35381502Y19212327D01*
X35202873Y19033699D01*
X35106200Y18800310D01*
X33102960Y18800310D01*
X33102960Y19169217D01*
X33006287Y19402606D01*
X32827659Y19581235D01*
X32594270Y19677908D01*
X31503710Y19677908D01*
X31344960Y19519158D01*
X31090960Y19519158D01*
X30932210Y19677908D01*
X29841650Y19677908D01*
X29608261Y19581235D01*
X29429633Y19402606D01*
X29332960Y19169217D01*
X28753495Y19169217D01*
X28769560Y19207999D01*
X28769560Y19798558D01*
X28610810Y19957308D01*
X27636560Y19957308D01*
X27382560Y19957308D01*
X26408310Y19957308D01*
X26249560Y19798558D01*
X22815043Y19798558D01*
X22820671Y19803726D01*
X22959685Y20108204D01*
X23195498Y21122200D01*
X23244600Y21122200D01*
X23752421Y21223212D01*
X23803449Y21257308D01*
X26273108Y21257308D01*
X26280147Y21246369D01*
X26350515Y21198288D01*
X26346233Y21194006D01*
X26249560Y20960617D01*
X26249560Y20370058D01*
X26408310Y20211308D01*
X27382560Y20211308D01*
X27382560Y20231308D01*
X27636560Y20231308D01*
X27636560Y20211308D01*
X28610810Y20211308D01*
X28769560Y20370058D01*
X28769560Y20960617D01*
X28672887Y21194006D01*
X28670475Y21196418D01*
X28722499Y21229895D01*
X28809557Y21357308D01*
X29159682Y21357308D01*
X29182425Y21236440D01*
X29363547Y20954969D01*
X29639908Y20766139D01*
X29967960Y20699707D01*
X32467960Y20699707D01*
X32774428Y20757373D01*
X33055899Y20938495D01*
X33244729Y21214856D01*
X33311161Y21542908D01*
X33311161Y25292908D01*
X33253495Y25599376D01*
X33072373Y25880847D01*
X32796012Y26069677D01*
X32467960Y26136109D01*
X29967960Y26136109D01*
X29661492Y26078443D01*
X29380021Y25897321D01*
X29191191Y25620960D01*
X29124759Y25292908D01*
X29124759Y23811308D01*
X28810360Y23811308D01*
X28738973Y23922247D01*
X28462612Y24111077D01*
X28134560Y24177509D01*
X27535561Y24177509D01*
X27535561Y27553107D01*
X27753561Y27553107D01*
X28060029Y27610773D01*
X28341500Y27791895D01*
X28513967Y28044308D01*
X28553561Y28044308D01*
X29023114Y28137708D01*
X29421181Y28403688D01*
X32458801Y31441308D01*
X32662760Y31441308D01*
X32734147Y31330369D01*
X33010508Y31141539D01*
X33338560Y31075107D01*
X34838560Y31075107D01*
X35145028Y31132773D01*
X35426499Y31313895D01*
X35523843Y31456363D01*
X36064200Y30916007D01*
M02*
