%TF.GenerationSoftware,KiCad,Pcbnew,4.0.7*%
%TF.CreationDate,2018-03-19T17:58:48+01:00*%
%TF.ProjectId,dispenser,64697370656E7365722E6B696361645F,A*%
%TF.FileFunction,Legend,Top*%
%FSLAX46Y46*%
G04 Gerber Fmt 4.6, Leading zero omitted, Abs format (unit mm)*
G04 Created by KiCad (PCBNEW 4.0.7) date 03/19/18 17:58:48*
%MOMM*%
%LPD*%
G01*
G04 APERTURE LIST*
%ADD10C,0.100000*%
%ADD11C,0.150000*%
%ADD12C,0.120000*%
%ADD13C,0.304800*%
%ADD14C,0.222250*%
G04 APERTURE END LIST*
D10*
D11*
X99861200Y45923600D02*
X99861200Y30323600D01*
X84861200Y45923600D02*
X99861200Y45923600D01*
X84861200Y14723600D02*
X84861200Y45923600D01*
X99861200Y14723600D02*
X84861200Y14723600D01*
X99861200Y30323600D02*
X99861200Y14723600D01*
D12*
X91987600Y11149200D02*
X91987600Y12149200D01*
X90287600Y12149200D02*
X90287600Y11149200D01*
X89295200Y11129200D02*
X89295200Y12129200D01*
X87595200Y12129200D02*
X87595200Y11129200D01*
X28359560Y20834308D02*
X28359560Y21834308D01*
X26659560Y21834308D02*
X26659560Y20834308D01*
X89135200Y53979600D02*
X89135200Y62279600D01*
X92835200Y53979600D02*
X92835200Y62279600D01*
X89135200Y53979600D02*
X92835200Y53979600D01*
X33067960Y25592908D02*
X33067960Y17292908D01*
X29367960Y25592908D02*
X29367960Y17292908D01*
X33067960Y25592908D02*
X29367960Y25592908D01*
X30698160Y37785508D02*
X30698160Y36785508D01*
X32398160Y36785508D02*
X32398160Y37785508D01*
X34008000Y41725200D02*
X36898000Y41725200D01*
X42908000Y41725200D02*
X40018000Y41725200D01*
X43668000Y52145200D02*
X40018000Y52145200D01*
X33248000Y52145200D02*
X36898000Y52145200D01*
X43668000Y52145200D02*
X43668000Y42485200D01*
X43668000Y42485200D02*
X42908000Y41725200D01*
X34008000Y41725200D02*
X33248000Y42485200D01*
X33248000Y42485200D02*
X33248000Y52145200D01*
X30265600Y42422000D02*
X30265600Y43422000D01*
X28565600Y43422000D02*
X28565600Y42422000D01*
X27573200Y42422000D02*
X27573200Y43422000D01*
X25873200Y43422000D02*
X25873200Y42422000D01*
D11*
X80124800Y31328800D02*
X75124800Y31328800D01*
X75124800Y31328800D02*
X75124800Y36328800D01*
X75124800Y36328800D02*
X80124800Y36328800D01*
X80124800Y36328800D02*
X80124800Y31328800D01*
X75124800Y35328800D02*
X76124800Y36328800D01*
X79860868Y33828800D02*
G75*
G03X79860868Y33828800I-2236068J0D01*
G01*
D12*
X18088400Y24749200D02*
X24588400Y24749200D01*
X18088400Y24749200D02*
X18088400Y14849200D01*
X24588400Y24749200D02*
X24588400Y14849200D01*
X34141200Y27624000D02*
X40641200Y27624000D01*
X34141200Y27624000D02*
X34141200Y16424000D01*
X40641200Y27624000D02*
X40641200Y16424000D01*
X14314400Y25854400D02*
X14314400Y17114400D01*
X14314400Y25854400D02*
X10074400Y25854400D01*
X10074400Y17114400D02*
X14314400Y17114400D01*
X10074400Y17114400D02*
X10074400Y25854400D01*
X394901Y49248291D02*
X394901Y34008291D01*
X18424901Y34008291D02*
X9434901Y34018291D01*
X18424901Y34008291D02*
X18424901Y49248291D01*
X18424901Y49248291D02*
X9424901Y49248291D01*
X7094901Y34018291D02*
X394901Y34008291D01*
X7104901Y49248291D02*
X394901Y49248291D01*
X41058000Y63385200D02*
X41058000Y66045200D01*
X25758000Y63385200D02*
X41058000Y63385200D01*
X25758000Y66045200D02*
X41058000Y66045200D01*
X25758000Y63385200D02*
X25758000Y66045200D01*
X24488000Y63385200D02*
X23158000Y63385200D01*
X23158000Y63385200D02*
X23158000Y64715200D01*
X1729600Y16455200D02*
X1729600Y26615200D01*
X459600Y16455200D02*
X8079600Y16455200D01*
X8079600Y16455200D02*
X8079600Y26615200D01*
X8079600Y26615200D02*
X459600Y26615200D01*
X459600Y26615200D02*
X459600Y16455200D01*
X40988560Y31618308D02*
X40988560Y29318308D01*
X40988560Y29318308D02*
X33588560Y29318308D01*
X33588560Y29318308D02*
X33588560Y31618308D01*
X33588560Y34418308D02*
X33588560Y36718308D01*
X33588560Y36718308D02*
X40988560Y36718308D01*
X40988560Y36718308D02*
X40988560Y34418308D01*
X74001600Y59949600D02*
X74001600Y61149600D01*
X75761600Y61149600D02*
X75761600Y59949600D01*
X70445600Y59949600D02*
X70445600Y61149600D01*
X72205600Y61149600D02*
X72205600Y59949600D01*
X23786400Y40449200D02*
X24986400Y40449200D01*
X24986400Y38689200D02*
X23786400Y38689200D01*
X21507200Y36765600D02*
X21507200Y35565600D01*
X19747200Y35565600D02*
X19747200Y36765600D01*
D11*
X33131501Y38779891D02*
X21701501Y38779891D01*
X21701501Y38779891D02*
X21701501Y33699891D01*
X21701501Y33699891D02*
X33131501Y33699891D01*
X33131501Y33699891D02*
X33131501Y38779891D01*
X21680301Y39541891D02*
X33110301Y39541891D01*
X33110301Y39541891D02*
X33110301Y44621891D01*
X33110301Y44621891D02*
X21680301Y44621891D01*
X21680301Y44621891D02*
X21680301Y39541891D01*
X21752301Y45383891D02*
X33182301Y45383891D01*
X33182301Y45383891D02*
X33182301Y50463891D01*
X33182301Y50463891D02*
X21752301Y50463891D01*
X21752301Y50463891D02*
X21752301Y45383891D01*
D13*
X68855600Y59024800D02*
X68855600Y5624800D01*
X68855600Y5624800D02*
X45855600Y5624800D01*
X45855600Y5624800D02*
X45855600Y59024800D01*
X45855600Y59024800D02*
X68855600Y59024800D01*
D11*
X28778561Y35721308D02*
X28123561Y35721308D01*
X28778561Y30221308D02*
X28028561Y30221308D01*
X22368561Y30221308D02*
X23118561Y30221308D01*
X22368561Y35721308D02*
X23118561Y35721308D01*
X28778561Y35721308D02*
X28778561Y30221308D01*
X22368561Y35721308D02*
X22368561Y30221308D01*
X28123561Y35721308D02*
X28123561Y37471308D01*
D12*
X30271600Y51995200D02*
X29011600Y51995200D01*
X23451600Y51995200D02*
X24711600Y51995200D01*
X30271600Y48235200D02*
X30271600Y51995200D01*
X23451600Y45985200D02*
X23451600Y51995200D01*
X78750400Y28508400D02*
X79750400Y28508400D01*
X79750400Y30208400D02*
X78750400Y30208400D01*
X18179600Y57725200D02*
X18179600Y60615200D01*
X18179600Y66625200D02*
X18179600Y63735200D01*
X7759600Y67385200D02*
X7759600Y63735200D01*
X7759600Y56965200D02*
X7759600Y60615200D01*
X7759600Y67385200D02*
X17419600Y67385200D01*
X17419600Y67385200D02*
X18179600Y66625200D01*
X18179600Y57725200D02*
X17419600Y56965200D01*
X17419600Y56965200D02*
X7759600Y56965200D01*
D11*
X13870800Y11451400D02*
X18950800Y11451400D01*
X18950800Y11451400D02*
X18950800Y10435400D01*
X18950800Y10435400D02*
X13870800Y10435400D01*
X13870800Y10435400D02*
X13870800Y11451400D01*
X86119581Y30752267D02*
X86833867Y30752267D01*
X86976724Y30704647D01*
X87071962Y30609409D01*
X87119581Y30466552D01*
X87119581Y30371314D01*
X86452914Y31657029D02*
X87119581Y31657029D01*
X86071962Y31418933D02*
X86786248Y31180838D01*
X86786248Y31799886D01*
X93339981Y10934915D02*
X93339981Y10363486D01*
X93339981Y10649200D02*
X92339981Y10649200D01*
X92482838Y10553962D01*
X92578076Y10458724D01*
X92625695Y10363486D01*
X92339981Y11363486D02*
X93149505Y11363486D01*
X93244743Y11411105D01*
X93292362Y11458724D01*
X93339981Y11553962D01*
X93339981Y11744439D01*
X93292362Y11839677D01*
X93244743Y11887296D01*
X93149505Y11934915D01*
X92339981Y11934915D01*
X92339981Y12315867D02*
X92339981Y12934915D01*
X92720933Y12601581D01*
X92720933Y12744439D01*
X92768552Y12839677D01*
X92816171Y12887296D01*
X92911410Y12934915D01*
X93149505Y12934915D01*
X93244743Y12887296D01*
X93292362Y12839677D01*
X93339981Y12744439D01*
X93339981Y12458724D01*
X93292362Y12363486D01*
X93244743Y12315867D01*
X90647581Y10914915D02*
X90647581Y10343486D01*
X90647581Y10629200D02*
X89647581Y10629200D01*
X89790438Y10533962D01*
X89885676Y10438724D01*
X89933295Y10343486D01*
X89647581Y11343486D02*
X90457105Y11343486D01*
X90552343Y11391105D01*
X90599962Y11438724D01*
X90647581Y11533962D01*
X90647581Y11724439D01*
X90599962Y11819677D01*
X90552343Y11867296D01*
X90457105Y11914915D01*
X89647581Y11914915D01*
X89980914Y12819677D02*
X90647581Y12819677D01*
X89599962Y12581581D02*
X90314248Y12343486D01*
X90314248Y12962534D01*
X29711941Y20143832D02*
X29711941Y19572403D01*
X29711941Y19858117D02*
X28711941Y19858117D01*
X28854798Y19762879D01*
X28950036Y19667641D01*
X28997655Y19572403D01*
X28711941Y20572403D02*
X29521465Y20572403D01*
X29616703Y20620022D01*
X29664322Y20667641D01*
X29711941Y20762879D01*
X29711941Y20953356D01*
X29664322Y21048594D01*
X29616703Y21096213D01*
X29521465Y21143832D01*
X28711941Y21143832D01*
X29711941Y22143832D02*
X29711941Y21572403D01*
X29711941Y21858117D02*
X28711941Y21858117D01*
X28854798Y21762879D01*
X28950036Y21667641D01*
X28997655Y21572403D01*
X28711941Y22477165D02*
X28711941Y23096213D01*
X29092893Y22762879D01*
X29092893Y22905737D01*
X29140512Y23000975D01*
X29188131Y23048594D01*
X29283370Y23096213D01*
X29521465Y23096213D01*
X29616703Y23048594D01*
X29664322Y23000975D01*
X29711941Y22905737D01*
X29711941Y22620022D01*
X29664322Y22524784D01*
X29616703Y22477165D01*
X87992343Y58636743D02*
X88039962Y58589124D01*
X88087581Y58446267D01*
X88087581Y58351029D01*
X88039962Y58208171D01*
X87944724Y58112933D01*
X87849486Y58065314D01*
X87659010Y58017695D01*
X87516152Y58017695D01*
X87325676Y58065314D01*
X87230438Y58112933D01*
X87135200Y58208171D01*
X87087581Y58351029D01*
X87087581Y58446267D01*
X87135200Y58589124D01*
X87182819Y58636743D01*
X88087581Y59589124D02*
X88087581Y59017695D01*
X88087581Y59303409D02*
X87087581Y59303409D01*
X87230438Y59208171D01*
X87325676Y59112933D01*
X87373295Y59017695D01*
X88087581Y60541505D02*
X88087581Y59970076D01*
X88087581Y60255790D02*
X87087581Y60255790D01*
X87230438Y60160552D01*
X87325676Y60065314D01*
X87373295Y59970076D01*
X34925103Y19650051D02*
X34972722Y19602432D01*
X35020341Y19459575D01*
X35020341Y19364337D01*
X34972722Y19221479D01*
X34877484Y19126241D01*
X34782246Y19078622D01*
X34591770Y19031003D01*
X34448912Y19031003D01*
X34258436Y19078622D01*
X34163198Y19126241D01*
X34067960Y19221479D01*
X34020341Y19364337D01*
X34020341Y19459575D01*
X34067960Y19602432D01*
X34115579Y19650051D01*
X35020341Y20602432D02*
X35020341Y20031003D01*
X35020341Y20316717D02*
X34020341Y20316717D01*
X34163198Y20221479D01*
X34258436Y20126241D01*
X34306055Y20031003D01*
X34115579Y20983384D02*
X34067960Y21031003D01*
X34020341Y21126241D01*
X34020341Y21364337D01*
X34067960Y21459575D01*
X34115579Y21507194D01*
X34210817Y21554813D01*
X34306055Y21554813D01*
X34448912Y21507194D01*
X35020341Y20935765D01*
X35020341Y21554813D01*
X30155303Y36642651D02*
X30202922Y36595032D01*
X30250541Y36452175D01*
X30250541Y36356937D01*
X30202922Y36214079D01*
X30107684Y36118841D01*
X30012446Y36071222D01*
X29821970Y36023603D01*
X29679112Y36023603D01*
X29488636Y36071222D01*
X29393398Y36118841D01*
X29298160Y36214079D01*
X29250541Y36356937D01*
X29250541Y36452175D01*
X29298160Y36595032D01*
X29345779Y36642651D01*
X30250541Y37595032D02*
X30250541Y37023603D01*
X30250541Y37309317D02*
X29250541Y37309317D01*
X29393398Y37214079D01*
X29488636Y37118841D01*
X29536255Y37023603D01*
X29250541Y37928365D02*
X29250541Y38547413D01*
X29631493Y38214079D01*
X29631493Y38356937D01*
X29679112Y38452175D01*
X29726731Y38499794D01*
X29821970Y38547413D01*
X30060065Y38547413D01*
X30155303Y38499794D01*
X30202922Y38452175D01*
X30250541Y38356937D01*
X30250541Y38071222D01*
X30202922Y37975984D01*
X30155303Y37928365D01*
X45275143Y46292343D02*
X45322762Y46244724D01*
X45370381Y46101867D01*
X45370381Y46006629D01*
X45322762Y45863771D01*
X45227524Y45768533D01*
X45132286Y45720914D01*
X44941810Y45673295D01*
X44798952Y45673295D01*
X44608476Y45720914D01*
X44513238Y45768533D01*
X44418000Y45863771D01*
X44370381Y46006629D01*
X44370381Y46101867D01*
X44418000Y46244724D01*
X44465619Y46292343D01*
X45370381Y47244724D02*
X45370381Y46673295D01*
X45370381Y46959009D02*
X44370381Y46959009D01*
X44513238Y46863771D01*
X44608476Y46768533D01*
X44656095Y46673295D01*
X44703714Y48101867D02*
X45370381Y48101867D01*
X44322762Y47863771D02*
X45037048Y47625676D01*
X45037048Y48244724D01*
X43499429Y40774248D02*
X43499429Y41536153D01*
X43880381Y41155201D02*
X43118476Y41155201D01*
X31522743Y42279143D02*
X31570362Y42231524D01*
X31617981Y42088667D01*
X31617981Y41993429D01*
X31570362Y41850571D01*
X31475124Y41755333D01*
X31379886Y41707714D01*
X31189410Y41660095D01*
X31046552Y41660095D01*
X30856076Y41707714D01*
X30760838Y41755333D01*
X30665600Y41850571D01*
X30617981Y41993429D01*
X30617981Y42088667D01*
X30665600Y42231524D01*
X30713219Y42279143D01*
X31617981Y43231524D02*
X31617981Y42660095D01*
X31617981Y42945809D02*
X30617981Y42945809D01*
X30760838Y42850571D01*
X30856076Y42755333D01*
X30903695Y42660095D01*
X30617981Y44088667D02*
X30617981Y43898190D01*
X30665600Y43802952D01*
X30713219Y43755333D01*
X30856076Y43660095D01*
X31046552Y43612476D01*
X31427505Y43612476D01*
X31522743Y43660095D01*
X31570362Y43707714D01*
X31617981Y43802952D01*
X31617981Y43993429D01*
X31570362Y44088667D01*
X31522743Y44136286D01*
X31427505Y44183905D01*
X31189410Y44183905D01*
X31094171Y44136286D01*
X31046552Y44088667D01*
X30998933Y43993429D01*
X30998933Y43802952D01*
X31046552Y43707714D01*
X31094171Y43660095D01*
X31189410Y43612476D01*
X28830343Y42279143D02*
X28877962Y42231524D01*
X28925581Y42088667D01*
X28925581Y41993429D01*
X28877962Y41850571D01*
X28782724Y41755333D01*
X28687486Y41707714D01*
X28497010Y41660095D01*
X28354152Y41660095D01*
X28163676Y41707714D01*
X28068438Y41755333D01*
X27973200Y41850571D01*
X27925581Y41993429D01*
X27925581Y42088667D01*
X27973200Y42231524D01*
X28020819Y42279143D01*
X28925581Y43231524D02*
X28925581Y42660095D01*
X28925581Y42945809D02*
X27925581Y42945809D01*
X28068438Y42850571D01*
X28163676Y42755333D01*
X28211295Y42660095D01*
X27925581Y43564857D02*
X27925581Y44231524D01*
X28925581Y43802952D01*
X75886705Y30376419D02*
X75886705Y31376419D01*
X76124800Y31376419D01*
X76267658Y31328800D01*
X76362896Y31233562D01*
X76410515Y31138324D01*
X76458134Y30947848D01*
X76458134Y30804990D01*
X76410515Y30614514D01*
X76362896Y30519276D01*
X76267658Y30424038D01*
X76124800Y30376419D01*
X75886705Y30376419D01*
X77410515Y30376419D02*
X76839086Y30376419D01*
X77124800Y30376419D02*
X77124800Y31376419D01*
X77029562Y31233562D01*
X76934324Y31138324D01*
X76839086Y31090705D01*
X25890781Y18034914D02*
X24890781Y18034914D01*
X24890781Y18273009D01*
X24938400Y18415867D01*
X25033638Y18511105D01*
X25128876Y18558724D01*
X25319352Y18606343D01*
X25462210Y18606343D01*
X25652686Y18558724D01*
X25747924Y18511105D01*
X25843162Y18415867D01*
X25890781Y18273009D01*
X25890781Y18034914D01*
X25890781Y19558724D02*
X25890781Y18987295D01*
X25890781Y19273009D02*
X24890781Y19273009D01*
X25033638Y19177771D01*
X25128876Y19082533D01*
X25176495Y18987295D01*
X24890781Y19892057D02*
X24890781Y20511105D01*
X25271733Y20177771D01*
X25271733Y20320629D01*
X25319352Y20415867D01*
X25366971Y20463486D01*
X25462210Y20511105D01*
X25700305Y20511105D01*
X25795543Y20463486D01*
X25843162Y20415867D01*
X25890781Y20320629D01*
X25890781Y20034914D01*
X25843162Y19939676D01*
X25795543Y19892057D01*
X41943581Y19609714D02*
X40943581Y19609714D01*
X40943581Y19847809D01*
X40991200Y19990667D01*
X41086438Y20085905D01*
X41181676Y20133524D01*
X41372152Y20181143D01*
X41515010Y20181143D01*
X41705486Y20133524D01*
X41800724Y20085905D01*
X41895962Y19990667D01*
X41943581Y19847809D01*
X41943581Y19609714D01*
X41943581Y21133524D02*
X41943581Y20562095D01*
X41943581Y20847809D02*
X40943581Y20847809D01*
X41086438Y20752571D01*
X41181676Y20657333D01*
X41229295Y20562095D01*
X41276914Y21990667D02*
X41943581Y21990667D01*
X40895962Y21752571D02*
X41610248Y21514476D01*
X41610248Y22133524D01*
X15072971Y21041067D02*
X15072971Y20707733D01*
X15596781Y20707733D02*
X14596781Y20707733D01*
X14596781Y21183924D01*
X15596781Y22088686D02*
X15596781Y21517257D01*
X15596781Y21802971D02*
X14596781Y21802971D01*
X14739638Y21707733D01*
X14834876Y21612495D01*
X14882495Y21517257D01*
X2887282Y41044958D02*
X3601568Y41044958D01*
X3744425Y40997338D01*
X3839663Y40902100D01*
X3887282Y40759243D01*
X3887282Y40664005D01*
X3887282Y42044958D02*
X3887282Y41473529D01*
X3887282Y41759243D02*
X2887282Y41759243D01*
X3030139Y41664005D01*
X3125377Y41568767D01*
X3172996Y41473529D01*
X21610381Y64381867D02*
X22324667Y64381867D01*
X22467524Y64334247D01*
X22562762Y64239009D01*
X22610381Y64096152D01*
X22610381Y64000914D01*
X21705619Y64810438D02*
X21658000Y64858057D01*
X21610381Y64953295D01*
X21610381Y65191391D01*
X21658000Y65286629D01*
X21705619Y65334248D01*
X21800857Y65381867D01*
X21896095Y65381867D01*
X22038952Y65334248D01*
X22610381Y64762819D01*
X22610381Y65381867D01*
X8801981Y21201867D02*
X9516267Y21201867D01*
X9659124Y21154247D01*
X9754362Y21059009D01*
X9801981Y20916152D01*
X9801981Y20820914D01*
X8801981Y22154248D02*
X8801981Y21678057D01*
X9278171Y21630438D01*
X9230552Y21678057D01*
X9182933Y21773295D01*
X9182933Y22011391D01*
X9230552Y22106629D01*
X9278171Y22154248D01*
X9373410Y22201867D01*
X9611505Y22201867D01*
X9706743Y22154248D01*
X9754362Y22106629D01*
X9801981Y22011391D01*
X9801981Y21773295D01*
X9754362Y21678057D01*
X9706743Y21630438D01*
X37121894Y37015927D02*
X36645703Y37015927D01*
X36645703Y38015927D01*
X37979037Y37015927D02*
X37407608Y37015927D01*
X37693322Y37015927D02*
X37693322Y38015927D01*
X37598084Y37873070D01*
X37502846Y37777832D01*
X37407608Y37730213D01*
X77033981Y59906743D02*
X76557790Y59573409D01*
X77033981Y59335314D02*
X76033981Y59335314D01*
X76033981Y59716267D01*
X76081600Y59811505D01*
X76129219Y59859124D01*
X76224457Y59906743D01*
X76367314Y59906743D01*
X76462552Y59859124D01*
X76510171Y59811505D01*
X76557790Y59716267D01*
X76557790Y59335314D01*
X77033981Y60859124D02*
X77033981Y60287695D01*
X77033981Y60573409D02*
X76033981Y60573409D01*
X76176838Y60478171D01*
X76272076Y60382933D01*
X76319695Y60287695D01*
X76033981Y61716267D02*
X76033981Y61525790D01*
X76081600Y61430552D01*
X76129219Y61382933D01*
X76272076Y61287695D01*
X76462552Y61240076D01*
X76843505Y61240076D01*
X76938743Y61287695D01*
X76986362Y61335314D01*
X77033981Y61430552D01*
X77033981Y61621029D01*
X76986362Y61716267D01*
X76938743Y61763886D01*
X76843505Y61811505D01*
X76605410Y61811505D01*
X76510171Y61763886D01*
X76462552Y61716267D01*
X76414933Y61621029D01*
X76414933Y61430552D01*
X76462552Y61335314D01*
X76510171Y61287695D01*
X76605410Y61240076D01*
X73477981Y59906743D02*
X73001790Y59573409D01*
X73477981Y59335314D02*
X72477981Y59335314D01*
X72477981Y59716267D01*
X72525600Y59811505D01*
X72573219Y59859124D01*
X72668457Y59906743D01*
X72811314Y59906743D01*
X72906552Y59859124D01*
X72954171Y59811505D01*
X73001790Y59716267D01*
X73001790Y59335314D01*
X73477981Y60859124D02*
X73477981Y60287695D01*
X73477981Y60573409D02*
X72477981Y60573409D01*
X72620838Y60478171D01*
X72716076Y60382933D01*
X72763695Y60287695D01*
X72477981Y61192457D02*
X72477981Y61859124D01*
X73477981Y61430552D01*
X23743543Y37416819D02*
X23410209Y37893010D01*
X23172114Y37416819D02*
X23172114Y38416819D01*
X23553067Y38416819D01*
X23648305Y38369200D01*
X23695924Y38321581D01*
X23743543Y38226343D01*
X23743543Y38083486D01*
X23695924Y37988248D01*
X23648305Y37940629D01*
X23553067Y37893010D01*
X23172114Y37893010D01*
X24124495Y38321581D02*
X24172114Y38369200D01*
X24267352Y38416819D01*
X24505448Y38416819D01*
X24600686Y38369200D01*
X24648305Y38321581D01*
X24695924Y38226343D01*
X24695924Y38131105D01*
X24648305Y37988248D01*
X24076876Y37416819D01*
X24695924Y37416819D01*
X25267352Y37988248D02*
X25172114Y38035867D01*
X25124495Y38083486D01*
X25076876Y38178724D01*
X25076876Y38226343D01*
X25124495Y38321581D01*
X25172114Y38369200D01*
X25267352Y38416819D01*
X25457829Y38416819D01*
X25553067Y38369200D01*
X25600686Y38321581D01*
X25648305Y38226343D01*
X25648305Y38178724D01*
X25600686Y38083486D01*
X25553067Y38035867D01*
X25457829Y37988248D01*
X25267352Y37988248D01*
X25172114Y37940629D01*
X25124495Y37893010D01*
X25076876Y37797771D01*
X25076876Y37607295D01*
X25124495Y37512057D01*
X25172114Y37464438D01*
X25267352Y37416819D01*
X25457829Y37416819D01*
X25553067Y37464438D01*
X25600686Y37512057D01*
X25648305Y37607295D01*
X25648305Y37797771D01*
X25600686Y37893010D01*
X25553067Y37940629D01*
X25457829Y37988248D01*
X19379581Y35522743D02*
X18903390Y35189409D01*
X19379581Y34951314D02*
X18379581Y34951314D01*
X18379581Y35332267D01*
X18427200Y35427505D01*
X18474819Y35475124D01*
X18570057Y35522743D01*
X18712914Y35522743D01*
X18808152Y35475124D01*
X18855771Y35427505D01*
X18903390Y35332267D01*
X18903390Y34951314D01*
X18474819Y35903695D02*
X18427200Y35951314D01*
X18379581Y36046552D01*
X18379581Y36284648D01*
X18427200Y36379886D01*
X18474819Y36427505D01*
X18570057Y36475124D01*
X18665295Y36475124D01*
X18808152Y36427505D01*
X19379581Y35856076D01*
X19379581Y36475124D01*
X19379581Y36951314D02*
X19379581Y37141790D01*
X19331962Y37237029D01*
X19284343Y37284648D01*
X19141486Y37379886D01*
X18951010Y37427505D01*
X18570057Y37427505D01*
X18474819Y37379886D01*
X18427200Y37332267D01*
X18379581Y37237029D01*
X18379581Y37046552D01*
X18427200Y36951314D01*
X18474819Y36903695D01*
X18570057Y36856076D01*
X18808152Y36856076D01*
X18903390Y36903695D01*
X18951010Y36951314D01*
X18998629Y37046552D01*
X18998629Y37237029D01*
X18951010Y37332267D01*
X18903390Y37379886D01*
X18808152Y37427505D01*
D14*
X56221067Y7315433D02*
X56221067Y6595767D01*
X56263400Y6511100D01*
X56305733Y6468767D01*
X56390400Y6426433D01*
X56559733Y6426433D01*
X56644400Y6468767D01*
X56686733Y6511100D01*
X56729067Y6595767D01*
X56729067Y7315433D01*
X57194733Y6426433D02*
X57364066Y6426433D01*
X57448733Y6468767D01*
X57491066Y6511100D01*
X57575733Y6638100D01*
X57618066Y6807433D01*
X57618066Y7146100D01*
X57575733Y7230767D01*
X57533400Y7273100D01*
X57448733Y7315433D01*
X57279400Y7315433D01*
X57194733Y7273100D01*
X57152400Y7230767D01*
X57110066Y7146100D01*
X57110066Y6934433D01*
X57152400Y6849767D01*
X57194733Y6807433D01*
X57279400Y6765100D01*
X57448733Y6765100D01*
X57533400Y6807433D01*
X57575733Y6849767D01*
X57618066Y6934433D01*
D13*
D14*
X56326900Y30353233D02*
X56369233Y30480233D01*
X56411567Y30522566D01*
X56496233Y30564900D01*
X56623233Y30564900D01*
X56707900Y30522566D01*
X56750233Y30480233D01*
X56792567Y30395566D01*
X56792567Y30056900D01*
X55903567Y30056900D01*
X55903567Y30353233D01*
X55945900Y30437900D01*
X55988233Y30480233D01*
X56072900Y30522566D01*
X56157567Y30522566D01*
X56242233Y30480233D01*
X56284567Y30437900D01*
X56326900Y30353233D01*
X56326900Y30056900D01*
X56792567Y31072900D02*
X56750233Y30988233D01*
X56665567Y30945900D01*
X55903567Y30945900D01*
X56199900Y31792567D02*
X56792567Y31792567D01*
X56199900Y31411567D02*
X56665567Y31411567D01*
X56750233Y31453900D01*
X56792567Y31538567D01*
X56792567Y31665567D01*
X56750233Y31750233D01*
X56707900Y31792567D01*
X56750233Y32554566D02*
X56792567Y32469900D01*
X56792567Y32300566D01*
X56750233Y32215900D01*
X56665567Y32173566D01*
X56326900Y32173566D01*
X56242233Y32215900D01*
X56199900Y32300566D01*
X56199900Y32469900D01*
X56242233Y32554566D01*
X56326900Y32596900D01*
X56411567Y32596900D01*
X56496233Y32173566D01*
X56792567Y32977900D02*
X55903567Y32977900D01*
X55903567Y33316566D01*
X55945900Y33401233D01*
X55988233Y33443566D01*
X56072900Y33485900D01*
X56199900Y33485900D01*
X56284567Y33443566D01*
X56326900Y33401233D01*
X56369233Y33316566D01*
X56369233Y32977900D01*
X56792567Y33866900D02*
X56199900Y33866900D01*
X55903567Y33866900D02*
X55945900Y33824566D01*
X55988233Y33866900D01*
X55945900Y33909233D01*
X55903567Y33866900D01*
X55988233Y33866900D01*
X56792567Y34417233D02*
X56750233Y34332566D01*
X56665567Y34290233D01*
X55903567Y34290233D01*
X56792567Y34882900D02*
X56750233Y34798233D01*
X56665567Y34755900D01*
X55903567Y34755900D01*
X56877233Y35009900D02*
X56877233Y35687233D01*
X56750233Y35856566D02*
X56792567Y35983566D01*
X56792567Y36195233D01*
X56750233Y36279900D01*
X56707900Y36322233D01*
X56623233Y36364566D01*
X56538567Y36364566D01*
X56453900Y36322233D01*
X56411567Y36279900D01*
X56369233Y36195233D01*
X56326900Y36025900D01*
X56284567Y35941233D01*
X56242233Y35898900D01*
X56157567Y35856566D01*
X56072900Y35856566D01*
X55988233Y35898900D01*
X55945900Y35941233D01*
X55903567Y36025900D01*
X55903567Y36237566D01*
X55945900Y36364566D01*
X55903567Y36618567D02*
X55903567Y37126567D01*
X56792567Y36872567D02*
X55903567Y36872567D01*
X56792567Y37422900D02*
X55903567Y37422900D01*
X56538567Y37719233D01*
X55903567Y38015566D01*
X56792567Y38015566D01*
X55903567Y38354233D02*
X55903567Y38904566D01*
X56242233Y38608233D01*
X56242233Y38735233D01*
X56284567Y38819900D01*
X56326900Y38862233D01*
X56411567Y38904566D01*
X56623233Y38904566D01*
X56707900Y38862233D01*
X56750233Y38819900D01*
X56792567Y38735233D01*
X56792567Y38481233D01*
X56750233Y38396566D01*
X56707900Y38354233D01*
X55988233Y39243233D02*
X55945900Y39285567D01*
X55903567Y39370233D01*
X55903567Y39581900D01*
X55945900Y39666567D01*
X55988233Y39708900D01*
X56072900Y39751233D01*
X56157567Y39751233D01*
X56284567Y39708900D01*
X56792567Y39200900D01*
X56792567Y39751233D01*
X56326900Y40428567D02*
X56326900Y40132234D01*
X56792567Y40132234D02*
X55903567Y40132234D01*
X55903567Y40555567D01*
X56792567Y41359900D02*
X56792567Y40851900D01*
X56792567Y41105900D02*
X55903567Y41105900D01*
X56030567Y41021234D01*
X56115233Y40936567D01*
X56157567Y40851900D01*
X55903567Y41910234D02*
X55903567Y41994901D01*
X55945900Y42079567D01*
X55988233Y42121901D01*
X56072900Y42164234D01*
X56242233Y42206567D01*
X56453900Y42206567D01*
X56623233Y42164234D01*
X56707900Y42121901D01*
X56750233Y42079567D01*
X56792567Y41994901D01*
X56792567Y41910234D01*
X56750233Y41825567D01*
X56707900Y41783234D01*
X56623233Y41740901D01*
X56453900Y41698567D01*
X56242233Y41698567D01*
X56072900Y41740901D01*
X55988233Y41783234D01*
X55945900Y41825567D01*
X55903567Y41910234D01*
X55903567Y42502901D02*
X55903567Y43053234D01*
X56242233Y42756901D01*
X56242233Y42883901D01*
X56284567Y42968568D01*
X56326900Y43010901D01*
X56411567Y43053234D01*
X56623233Y43053234D01*
X56707900Y43010901D01*
X56750233Y42968568D01*
X56792567Y42883901D01*
X56792567Y42629901D01*
X56750233Y42545234D01*
X56707900Y42502901D01*
X56707900Y43942235D02*
X56750233Y43899901D01*
X56792567Y43772901D01*
X56792567Y43688235D01*
X56750233Y43561235D01*
X56665567Y43476568D01*
X56580900Y43434235D01*
X56411567Y43391901D01*
X56284567Y43391901D01*
X56115233Y43434235D01*
X56030567Y43476568D01*
X55945900Y43561235D01*
X55903567Y43688235D01*
X55903567Y43772901D01*
X55945900Y43899901D01*
X55988233Y43942235D01*
D11*
X29155942Y31733213D02*
X29965466Y31733213D01*
X30060704Y31780832D01*
X30108323Y31828451D01*
X30155942Y31923689D01*
X30155942Y32114166D01*
X30108323Y32209404D01*
X30060704Y32257023D01*
X29965466Y32304642D01*
X29155942Y32304642D01*
X30155942Y33304642D02*
X30155942Y32733213D01*
X30155942Y33018927D02*
X29155942Y33018927D01*
X29298799Y32923689D01*
X29394037Y32828451D01*
X29441656Y32733213D01*
X29155942Y34161785D02*
X29155942Y33971308D01*
X29203561Y33876070D01*
X29251180Y33828451D01*
X29394037Y33733213D01*
X29584513Y33685594D01*
X29965466Y33685594D01*
X30060704Y33733213D01*
X30108323Y33780832D01*
X30155942Y33876070D01*
X30155942Y34066547D01*
X30108323Y34161785D01*
X30060704Y34209404D01*
X29965466Y34257023D01*
X29727371Y34257023D01*
X29632132Y34209404D01*
X29584513Y34161785D01*
X29536894Y34066547D01*
X29536894Y33876070D01*
X29584513Y33780832D01*
X29632132Y33733213D01*
X29727371Y33685594D01*
X21813981Y48847105D02*
X22623505Y48847105D01*
X22718743Y48894724D01*
X22766362Y48942343D01*
X22813981Y49037581D01*
X22813981Y49228058D01*
X22766362Y49323296D01*
X22718743Y49370915D01*
X22623505Y49418534D01*
X21813981Y49418534D01*
X22813981Y50418534D02*
X22813981Y49847105D01*
X22813981Y50132819D02*
X21813981Y50132819D01*
X21956838Y50037581D01*
X22052076Y49942343D01*
X22099695Y49847105D01*
X21813981Y50751867D02*
X21813981Y51418534D01*
X22813981Y50989962D01*
X78059924Y27156019D02*
X77488495Y27156019D01*
X77774209Y27156019D02*
X77774209Y28156019D01*
X77678971Y28013162D01*
X77583733Y27917924D01*
X77488495Y27870305D01*
X78488495Y28156019D02*
X78488495Y27346495D01*
X78536114Y27251257D01*
X78583733Y27203638D01*
X78678971Y27156019D01*
X78869448Y27156019D01*
X78964686Y27203638D01*
X79012305Y27251257D01*
X79059924Y27346495D01*
X79059924Y28156019D01*
X80059924Y27156019D02*
X79488495Y27156019D01*
X79774209Y27156019D02*
X79774209Y28156019D01*
X79678971Y28013162D01*
X79583733Y27917924D01*
X79488495Y27870305D01*
X81012305Y27156019D02*
X80440876Y27156019D01*
X80726590Y27156019D02*
X80726590Y28156019D01*
X80631352Y28013162D01*
X80536114Y27917924D01*
X80440876Y27870305D01*
X12326743Y68278057D02*
X12279124Y68230438D01*
X12136267Y68182819D01*
X12041029Y68182819D01*
X11898171Y68230438D01*
X11802933Y68325676D01*
X11755314Y68420914D01*
X11707695Y68611390D01*
X11707695Y68754248D01*
X11755314Y68944724D01*
X11802933Y69039962D01*
X11898171Y69135200D01*
X12041029Y69182819D01*
X12136267Y69182819D01*
X12279124Y69135200D01*
X12326743Y69087581D01*
X13279124Y68182819D02*
X12707695Y68182819D01*
X12993409Y68182819D02*
X12993409Y69182819D01*
X12898171Y69039962D01*
X12802933Y68944724D01*
X12707695Y68897105D01*
X14183886Y69182819D02*
X13707695Y69182819D01*
X13660076Y68706629D01*
X13707695Y68754248D01*
X13802933Y68801867D01*
X14041029Y68801867D01*
X14136267Y68754248D01*
X14183886Y68706629D01*
X14231505Y68611390D01*
X14231505Y68373295D01*
X14183886Y68278057D01*
X14136267Y68230438D01*
X14041029Y68182819D01*
X13802933Y68182819D01*
X13707695Y68230438D01*
X13660076Y68278057D01*
X18368648Y67073771D02*
X19130553Y67073771D01*
X18749601Y66692819D02*
X18749601Y67454724D01*
X16601467Y14047019D02*
X16268133Y14523210D01*
X16030038Y14047019D02*
X16030038Y15047019D01*
X16410991Y15047019D01*
X16506229Y14999400D01*
X16553848Y14951781D01*
X16601467Y14856543D01*
X16601467Y14713686D01*
X16553848Y14618448D01*
X16506229Y14570829D01*
X16410991Y14523210D01*
X16030038Y14523210D01*
X17030038Y14570829D02*
X17363372Y14570829D01*
X17506229Y14047019D02*
X17030038Y14047019D01*
X17030038Y15047019D01*
X17506229Y15047019D01*
X18268134Y14570829D02*
X17934800Y14570829D01*
X17934800Y14047019D02*
X17934800Y15047019D01*
X18410991Y15047019D01*
X18934800Y15047019D02*
X18934800Y14808924D01*
X18696705Y14904162D02*
X18934800Y14808924D01*
X19172896Y14904162D01*
X18791943Y14618448D02*
X18934800Y14808924D01*
X19077658Y14618448D01*
X19696705Y15047019D02*
X19696705Y14808924D01*
X19458610Y14904162D02*
X19696705Y14808924D01*
X19934801Y14904162D01*
X19553848Y14618448D02*
X19696705Y14808924D01*
X19839563Y14618448D01*
M02*
