%TF.GenerationSoftware,KiCad,Pcbnew,4.0.7*%
%TF.CreationDate,2018-02-26T11:50:19+01:00*%
%TF.ProjectId,dispenser,64697370656E7365722E6B696361645F,A*%
%TF.FileFunction,Copper,L2,Bot,Signal*%
%FSLAX46Y46*%
G04 Gerber Fmt 4.6, Leading zero omitted, Abs format (unit mm)*
G04 Created by KiCad (PCBNEW 4.0.7) date 02/26/18 11:50:19*
%MOMM*%
%LPD*%
G01*
G04 APERTURE LIST*
%ADD10C,0.100000*%
%ADD11R,2.250000X1.727200*%
%ADD12O,2.250000X1.727200*%
%ADD13O,1.727200X1.727200*%
%ADD14R,1.250000X1.500000*%
%ADD15R,1.500000X1.250000*%
%ADD16R,1.700000X3.300000*%
%ADD17C,3.650000*%
%ADD18R,1.500000X1.500000*%
%ADD19C,1.500000*%
%ADD20C,1.524000*%
%ADD21C,3.200000*%
%ADD22R,1.300000X1.500000*%
%ADD23R,2.000000X1.700000*%
%ADD24R,1.500000X1.300000*%
%ADD25R,0.600000X1.500000*%
%ADD26R,1.500000X0.600000*%
%ADD27R,1.560000X0.650000*%
%ADD28R,1.560000X0.400000*%
%ADD29R,4.500000X3.300000*%
%ADD30C,2.000000*%
%ADD31R,3.000000X3.000000*%
%ADD32C,3.000000*%
%ADD33R,1.500000X2.200000*%
%ADD34R,1.750000X0.550000*%
%ADD35R,1.700000X1.700000*%
%ADD36O,1.700000X1.700000*%
%ADD37C,0.400000*%
%ADD38C,0.300000*%
%ADD39C,0.700000*%
%ADD40C,0.200000*%
%ADD41C,1.000000*%
%ADD42C,0.800000*%
%ADD43C,0.500000*%
%ADD44C,0.600000*%
%ADD45C,0.254000*%
G04 APERTURE END LIST*
D10*
D11*
X11814500Y76594500D03*
D12*
X11814500Y74054500D03*
X11814500Y71514500D03*
X11814500Y68974500D03*
X11814500Y66434500D03*
X11814500Y63894500D03*
X11814500Y61354500D03*
X11814500Y58814500D03*
X11814500Y56274500D03*
X11814500Y53734500D03*
X11814500Y51194500D03*
X11814500Y48654500D03*
X11814500Y46114500D03*
X11814500Y43574500D03*
X11814500Y41034500D03*
X11814500Y38494500D03*
X11814500Y35954500D03*
X11814500Y33414500D03*
X11814500Y30874500D03*
X11814500Y28334500D03*
X27054500Y28334500D03*
X27054500Y30874500D03*
X27054500Y33414500D03*
X27054500Y35954500D03*
X27054500Y38494500D03*
X27054500Y41034500D03*
X27054500Y43574500D03*
X27054500Y46114500D03*
X27054500Y48654500D03*
X27054500Y51194500D03*
X27054500Y53734500D03*
X27054500Y56274500D03*
X27054500Y58814500D03*
X27054500Y61354500D03*
X27054500Y63894500D03*
X27054500Y66434500D03*
X27054500Y68974500D03*
X27054500Y71514500D03*
X27054500Y74054500D03*
X27054500Y76645300D03*
D13*
X20714500Y72784500D03*
X18174500Y72784500D03*
D14*
X33341000Y15170000D03*
X33341000Y12670000D03*
X24882800Y75317200D03*
X24882800Y72817200D03*
D15*
X37639000Y77991500D03*
X35139000Y77991500D03*
X63866400Y75438800D03*
X66366400Y75438800D03*
D14*
X75949500Y84722500D03*
X75949500Y82222500D03*
X76584500Y44126000D03*
X76584500Y41626000D03*
X54397600Y36099600D03*
X54397600Y33599600D03*
X53190921Y16649361D03*
X53190921Y14149361D03*
X53398898Y26611858D03*
X53398898Y24111858D03*
X53862577Y7178629D03*
X53862577Y4678629D03*
X68837500Y71240500D03*
X68837500Y68740500D03*
D16*
X48768421Y37654769D03*
X48768421Y32154769D03*
X49126921Y18149361D03*
X49126921Y12649361D03*
X48826898Y28111858D03*
X48826898Y22611858D03*
X49290577Y8678629D03*
X49290577Y3178629D03*
D17*
X77537000Y24537200D03*
X77537000Y12667200D03*
D18*
X71187000Y14157200D03*
D19*
X68647000Y15427200D03*
X71187000Y16697200D03*
X68647000Y17967200D03*
X71187000Y19237200D03*
X68647000Y20507200D03*
X71187000Y21777200D03*
X68647000Y23047200D03*
D20*
X70679000Y43266500D03*
X70679000Y45806500D03*
X70679000Y48346500D03*
X70679000Y50886500D03*
X70679000Y53426500D03*
X73219000Y44536500D03*
X73219000Y47076500D03*
X73219000Y49616500D03*
X73219000Y52156500D03*
D21*
X71949000Y35846500D03*
X71949000Y60846500D03*
D20*
X70679000Y83706500D03*
X70679000Y86246500D03*
X70679000Y88786500D03*
X70679000Y91326500D03*
X70679000Y93866500D03*
X73219000Y84976500D03*
X73219000Y87516500D03*
X73219000Y90056500D03*
X73219000Y92596500D03*
D21*
X71949000Y76286500D03*
X71949000Y101286500D03*
D22*
X46228421Y33554769D03*
X46228421Y36254769D03*
X45200000Y14049361D03*
X45200000Y16749361D03*
X46286898Y24011858D03*
X46286898Y26711858D03*
X46750577Y4244629D03*
X46750577Y6944629D03*
X52213200Y33347200D03*
X52213200Y36047200D03*
X51158921Y14049361D03*
X51158921Y16749361D03*
X51366898Y24011858D03*
X51366898Y26711858D03*
X51830577Y4578629D03*
X51830577Y7278629D03*
D23*
X40739000Y71260500D03*
X44739000Y71260500D03*
D22*
X66742000Y71340500D03*
X66742000Y68640500D03*
D24*
X48581000Y68466500D03*
X45881000Y68466500D03*
X64020400Y77369200D03*
X66720400Y77369200D03*
D25*
X33341000Y23224000D03*
X34611000Y23224000D03*
X35881000Y23224000D03*
X37151000Y23224000D03*
X38421000Y23224000D03*
X39691000Y23224000D03*
X40961000Y23224000D03*
X40961000Y17824000D03*
X39691000Y17824000D03*
X38421000Y17824000D03*
X37151000Y17824000D03*
X35881000Y17824000D03*
X34611000Y17824000D03*
X33341000Y17824000D03*
D26*
X44232500Y65482000D03*
X44232500Y64212000D03*
X44232500Y62942000D03*
X44232500Y61672000D03*
X44232500Y60402000D03*
X44232500Y59132000D03*
X44232500Y57862000D03*
X38832500Y57862000D03*
X38832500Y59132000D03*
X38832500Y60402000D03*
X38832500Y61672000D03*
X38832500Y62942000D03*
X38832500Y64212000D03*
X38832500Y65482000D03*
D27*
X50820000Y77354000D03*
X50820000Y76404000D03*
X50820000Y75454000D03*
X48120000Y75454000D03*
X48120000Y77354000D03*
X48120000Y76404000D03*
D28*
X41389000Y75106500D03*
X41389000Y75756500D03*
X41389000Y76416500D03*
X41389000Y77066500D03*
X44089000Y77066500D03*
X44089000Y76416500D03*
X44089000Y75756500D03*
X44089000Y75106500D03*
D26*
X51551000Y63513500D03*
X51551000Y64783500D03*
X51551000Y66053500D03*
X51551000Y67323500D03*
X51551000Y68593500D03*
X51551000Y69863500D03*
X51551000Y71133500D03*
X51551000Y72403500D03*
X60851000Y72403500D03*
X60851000Y71133500D03*
X60851000Y69863500D03*
X60851000Y68593500D03*
X60851000Y67323500D03*
X60851000Y66053500D03*
X60851000Y64783500D03*
X60851000Y63513500D03*
D14*
X48454000Y91573200D03*
X48454000Y89073200D03*
D15*
X34504000Y90577200D03*
X37004000Y90577200D03*
X19884400Y93879200D03*
X17384400Y93879200D03*
D29*
X40852500Y101296000D03*
X32052500Y101296000D03*
D30*
X51565500Y93686000D03*
X56645500Y93676000D03*
D31*
X51629000Y100597500D03*
D32*
X56709000Y100597500D03*
D33*
X31842000Y93371200D03*
X25442000Y93371200D03*
D24*
X34454800Y88596000D03*
X37154800Y88596000D03*
X43758800Y88596000D03*
X41058800Y88596000D03*
D34*
X37832500Y92152000D03*
X37832500Y93422000D03*
X37832500Y94692000D03*
X37832500Y95962000D03*
X45232500Y95962000D03*
X45232500Y94692000D03*
X45232500Y93422000D03*
X45232500Y92152000D03*
D35*
X7509200Y103074000D03*
D36*
X7509200Y100534000D03*
X7509200Y97994000D03*
X7509200Y95454000D03*
X7509200Y92914000D03*
X7509200Y90374000D03*
X7509200Y87834000D03*
D19*
X52033562Y59509122D03*
X51806800Y81128400D03*
X46676000Y100978500D03*
X38368241Y72399541D03*
X44694800Y80976000D03*
X51375000Y90120000D03*
X62148776Y45786510D03*
X32909200Y49530800D03*
X45400000Y41800000D03*
X39086706Y28495377D03*
X41500000Y15500000D03*
X64811600Y79604400D03*
X33841375Y57671119D03*
X5782000Y33325600D03*
X41443600Y35357600D03*
X32401200Y70612800D03*
X46665280Y72321469D03*
X38411630Y80654383D03*
X41456807Y32981095D03*
X40707000Y10872000D03*
X40848225Y28976817D03*
X41325947Y6634835D03*
X54690727Y47919526D03*
X11485667Y81690741D03*
X15859446Y101427229D03*
X42459600Y81077600D03*
X35563500Y64021500D03*
X13546757Y82537093D03*
X32141695Y64362836D03*
X19303121Y101382013D03*
X40427600Y81128400D03*
X21549536Y25624661D03*
X23644998Y22549990D03*
X17754701Y85850010D03*
X16636685Y82203953D03*
X24397238Y87320283D03*
X21654008Y86550021D03*
X16816679Y38826660D03*
X26370244Y21783421D03*
X21911000Y46241500D03*
X21911000Y37478500D03*
X18496204Y41473185D03*
X23595226Y20477010D03*
X67123000Y9348000D03*
X57489539Y24774434D03*
X59324509Y18115415D03*
X60907002Y4542010D03*
X57802988Y12595337D03*
X59703932Y24969301D03*
X57757230Y34806019D03*
X60343635Y78179728D03*
X60287421Y80932490D03*
X48722955Y72185594D03*
X62804084Y24863010D03*
X12496028Y101439972D03*
X73147775Y70750048D03*
X22241200Y94082400D03*
X34628132Y53161605D03*
X34801500Y45543000D03*
D37*
X43825840Y19209160D02*
X41435000Y21600000D01*
X41435000Y21600000D02*
X40961000Y22074000D01*
D38*
X52015922Y15449360D02*
X48350640Y15449360D01*
X53190921Y14149361D02*
X53190921Y14274361D01*
X44435000Y18600000D02*
X41435000Y21600000D01*
X53190921Y14274361D02*
X52015922Y15449360D01*
X48350640Y15449360D02*
X47686922Y16113078D01*
X47686922Y16113078D02*
X47686922Y18113078D01*
X47686922Y18113078D02*
X47200000Y18600000D01*
X47200000Y18600000D02*
X44435000Y18600000D01*
D37*
X50386440Y57862000D02*
X51283563Y58759123D01*
X59701000Y67323500D02*
X52033562Y59656062D01*
X60851000Y67323500D02*
X59701000Y67323500D01*
X52033562Y59656062D02*
X52033562Y59509122D01*
X51283563Y58759123D02*
X52033562Y59509122D01*
X44232500Y57862000D02*
X50386440Y57862000D01*
X49470000Y76878998D02*
X49470000Y77200000D01*
X49470000Y77200000D02*
X49470000Y78791600D01*
X48120000Y77354000D02*
X49316000Y77354000D01*
X49316000Y77354000D02*
X49470000Y77200000D01*
X41389000Y76416500D02*
X40209000Y76416500D01*
X40209000Y76416500D02*
X40196500Y76404000D01*
X36851500Y76404000D02*
X35264000Y77991500D01*
X40196500Y76404000D02*
X36851500Y76404000D01*
X35264000Y77991500D02*
X35139000Y77991500D01*
D39*
X42137180Y68641049D02*
X38439707Y68641049D01*
X32653999Y74426757D02*
X32653999Y77062530D01*
X38439707Y68641049D02*
X32653999Y74426757D01*
X49971001Y67016499D02*
X43761730Y67016499D01*
X43761730Y67016499D02*
X42137180Y68641049D01*
D37*
X40961000Y22074000D02*
X40961000Y23224000D01*
X55261200Y4826800D02*
X55113029Y4678629D01*
X55113029Y4678629D02*
X53862577Y4678629D01*
X55261200Y13104082D02*
X55261200Y4826800D01*
X54215921Y14149361D02*
X55261200Y13104082D01*
X53190921Y14149361D02*
X54215921Y14149361D01*
X27054500Y74054500D02*
X26120100Y74054500D01*
X26120100Y74054500D02*
X24882800Y72817200D01*
D38*
X46460499Y74828999D02*
X45546501Y74828999D01*
X45546501Y74828999D02*
X45269000Y75106500D01*
X49140001Y74828999D02*
X49739999Y75428997D01*
X46460499Y74828999D02*
X49140001Y74828999D01*
X49739999Y75428997D02*
X49739999Y76199001D01*
D40*
X49739999Y76199001D02*
X49944998Y76404000D01*
X42249002Y76416500D02*
X41389000Y76416500D01*
D38*
X44089000Y75756500D02*
X42909002Y75756500D01*
X42909002Y75756500D02*
X42249002Y76416500D01*
D37*
X49470000Y78791600D02*
X51806800Y81128400D01*
X50820000Y76404000D02*
X49944998Y76404000D01*
X49944998Y76404000D02*
X49470000Y76878998D01*
D39*
X35986437Y66310817D02*
X35832043Y66156423D01*
X37621315Y66310817D02*
X35986437Y66310817D01*
X37642499Y66332001D02*
X37621315Y66310817D01*
X40022501Y66332001D02*
X37642499Y66332001D01*
X40382500Y64227771D02*
X40382500Y65972002D01*
X41850000Y62760271D02*
X40382500Y64227771D01*
X40382500Y65972002D02*
X40022501Y66332001D01*
D37*
X41389000Y76416500D02*
X42060458Y76416500D01*
D41*
X51629000Y100597500D02*
X47057000Y100597500D01*
X47057000Y100597500D02*
X46676000Y100978500D01*
X41850000Y59094500D02*
X41850000Y62760271D01*
X50278002Y67323500D02*
X49971001Y67016499D01*
X51551000Y67323500D02*
X50278002Y67323500D01*
D37*
X44232500Y57862000D02*
X43082500Y57862000D01*
X43082500Y57862000D02*
X41850000Y59094500D01*
X47692000Y67323500D02*
X46612500Y66244000D01*
X51551000Y67323500D02*
X47692000Y67323500D01*
X45269000Y75106500D02*
X44089000Y75106500D01*
X44089000Y75106500D02*
X44089000Y75706500D01*
X44089000Y75706500D02*
X44039000Y75756500D01*
X44089000Y75756500D02*
X43216835Y75756500D01*
D41*
X38739000Y71260500D02*
X38368241Y71631259D01*
X40739000Y71260500D02*
X38739000Y71260500D01*
X38368241Y71631259D02*
X38368241Y72399541D01*
D42*
X45232500Y93422000D02*
X48352400Y93422000D01*
X48352400Y93422000D02*
X51301500Y93422000D01*
D41*
X48454000Y91573200D02*
X48454000Y93323200D01*
X48454000Y93323200D02*
X48355200Y93422000D01*
X48355200Y93422000D02*
X48352400Y93422000D01*
D42*
X51301500Y93422000D02*
X51565500Y93686000D01*
D41*
X51375000Y90120000D02*
X51375000Y93495500D01*
X51375000Y93495500D02*
X51565500Y93686000D01*
D37*
X40739000Y71260500D02*
X40739000Y72510500D01*
X40739000Y72510500D02*
X41389000Y73160500D01*
X41389000Y73160500D02*
X41389000Y75056490D01*
X49126921Y18949361D02*
X49126921Y18149361D01*
X42916782Y25159500D02*
X49126921Y18949361D01*
X38421000Y24374000D02*
X39206500Y25159500D01*
X38421000Y23224000D02*
X38421000Y24374000D01*
X39206500Y25159500D02*
X42916782Y25159500D01*
X49126921Y18149361D02*
X49758921Y18149361D01*
X49758921Y18149361D02*
X51158921Y16749361D01*
X53190921Y16649361D02*
X51258921Y16649361D01*
X51258921Y16649361D02*
X51158921Y16749361D01*
D41*
X56709000Y100597500D02*
X56709000Y93739500D01*
X56709000Y93739500D02*
X56645500Y93676000D01*
D37*
X62168766Y45806500D02*
X62148776Y45786510D01*
X70679000Y45806500D02*
X62168766Y45806500D01*
X31245500Y51194500D02*
X32909200Y49530800D01*
X27054500Y51194500D02*
X31245500Y51194500D01*
X42749361Y16749361D02*
X45200000Y16749361D01*
X64286500Y44536500D02*
X48136500Y44536500D01*
X48136500Y44536500D02*
X45400000Y41800000D01*
X39086706Y29556037D02*
X39086706Y28495377D01*
X39757487Y30226818D02*
X39086706Y29556037D01*
X45236898Y26711858D02*
X41721938Y30226818D01*
X46286898Y26711858D02*
X45236898Y26711858D01*
X41721938Y30226818D02*
X39757487Y30226818D01*
X42749361Y16749361D02*
X41500000Y15500000D01*
X73219000Y44536500D02*
X64286500Y44536500D01*
X37074800Y14123200D02*
X36028000Y15170000D01*
X36028000Y15170000D02*
X33341000Y15170000D01*
X37074800Y9906800D02*
X37074800Y14123200D01*
X38395600Y8586000D02*
X37074800Y9906800D01*
X44059206Y8586000D02*
X38395600Y8586000D01*
X46750577Y6944629D02*
X45700577Y6944629D01*
X45700577Y6944629D02*
X44059206Y8586000D01*
X73219000Y84976500D02*
X73219000Y83898870D01*
X73219000Y83898870D02*
X68924530Y79604400D01*
X68924530Y79604400D02*
X64811600Y79604400D01*
X27054500Y76645300D02*
X25060900Y76645300D01*
X25060900Y76645300D02*
X24882800Y76467200D01*
X24882800Y76467200D02*
X24882800Y75317200D01*
X36833500Y63933000D02*
X36833500Y62942000D01*
X38382500Y65482000D02*
X36833500Y63933000D01*
X36833500Y62942000D02*
X33841375Y59949875D01*
X38832500Y65482000D02*
X38382500Y65482000D01*
X33841375Y59949875D02*
X33841375Y58731779D01*
X33841375Y58731779D02*
X33841375Y57671119D01*
D41*
X5782000Y33325600D02*
X11725600Y33325600D01*
X11725600Y33325600D02*
X11814500Y33414500D01*
D37*
X17974000Y29769600D02*
X14329100Y33414500D01*
X14329100Y33414500D02*
X11814500Y33414500D01*
X17974000Y19203200D02*
X17974000Y29769600D01*
X20158400Y17018800D02*
X17974000Y19203200D01*
X31835800Y17018800D02*
X20158400Y17018800D01*
X33341000Y17824000D02*
X32641000Y17824000D01*
X32641000Y17824000D02*
X31835800Y17018800D01*
X46228421Y36254769D02*
X42340769Y36254769D01*
X42340769Y36254769D02*
X41443600Y35357600D01*
X27054500Y76645300D02*
X27315900Y76645300D01*
X27315900Y76645300D02*
X32401200Y71560000D01*
X32401200Y71560000D02*
X32401200Y70612800D01*
X47415279Y73071468D02*
X46665280Y72321469D01*
X48672799Y74328988D02*
X47415279Y73071468D01*
X50820000Y74729000D02*
X50419988Y74328988D01*
X50820000Y75454000D02*
X50820000Y74729000D01*
X50419988Y74328988D02*
X48672799Y74328988D01*
D43*
X37350970Y80654383D02*
X38411630Y80654383D01*
D37*
X39161629Y79904384D02*
X38411630Y80654383D01*
D43*
X27054500Y76645300D02*
X28679500Y76645300D01*
D37*
X39820500Y79245513D02*
X39161629Y79904384D01*
D43*
X28679500Y76645300D02*
X32688583Y80654383D01*
D37*
X39820500Y78055000D02*
X39820500Y79245513D01*
D43*
X32688583Y80654383D02*
X37350970Y80654383D01*
D37*
X33341000Y17824000D02*
X33341000Y15170000D01*
X73219000Y84976500D02*
X75695500Y84976500D01*
X75695500Y84976500D02*
X75949500Y84722500D01*
X73219000Y44536500D02*
X76174000Y44536500D01*
X76174000Y44536500D02*
X76584500Y44126000D01*
X40809000Y77066500D02*
X39820500Y78055000D01*
X37639000Y77991500D02*
X39757000Y77991500D01*
X39757000Y77991500D02*
X39820500Y78055000D01*
X41389000Y77066500D02*
X40809000Y77066500D01*
X49290577Y8678629D02*
X48040577Y8678629D01*
X48040577Y8678629D02*
X47117206Y9602000D01*
X47117206Y9602000D02*
X39183000Y9602000D01*
X39183000Y9602000D02*
X38421000Y10364000D01*
X38421000Y10364000D02*
X38421000Y11380000D01*
X38421000Y11380000D02*
X39691000Y12650000D01*
X39691000Y12650000D02*
X39691000Y17824000D01*
X53862577Y7178629D02*
X51930577Y7178629D01*
X51930577Y7178629D02*
X51830577Y7278629D01*
X51830577Y7278629D02*
X50690577Y7278629D01*
X50690577Y7278629D02*
X49290577Y8678629D01*
X34504000Y90577200D02*
X34286000Y90577200D01*
X34286000Y90577200D02*
X31842000Y93021200D01*
X31842000Y93021200D02*
X31842000Y93371200D01*
D42*
X31842000Y93371200D02*
X31842000Y93721200D01*
X31842000Y93721200D02*
X39416800Y101296000D01*
X39416800Y101296000D02*
X40852500Y101296000D01*
X43494000Y92413000D02*
X40852500Y95054500D01*
X40852500Y95054500D02*
X40852500Y101296000D01*
X43494000Y92215500D02*
X43494000Y92413000D01*
X45232500Y92152000D02*
X43557500Y92152000D01*
X43557500Y92152000D02*
X43494000Y92215500D01*
D37*
X48768421Y32154769D02*
X51020769Y32154769D01*
X51020769Y32154769D02*
X52213200Y33347200D01*
X42030481Y33554769D02*
X41456807Y32981095D01*
X46228421Y33554769D02*
X42030481Y33554769D01*
X48768421Y32154769D02*
X47628421Y32154769D01*
X47628421Y32154769D02*
X46228421Y33554769D01*
X45200000Y14049361D02*
X46586921Y14049361D01*
X46586921Y14049361D02*
X47986921Y12649361D01*
X47986921Y12649361D02*
X49126921Y12649361D01*
X49126921Y12649361D02*
X49758921Y12649361D01*
X49758921Y12649361D02*
X51158921Y14049361D01*
X46099560Y10872000D02*
X40707000Y10872000D01*
X49126921Y12649361D02*
X47876921Y12649361D01*
X47876921Y12649361D02*
X46099560Y10872000D01*
X46286898Y24111858D02*
X41421939Y28976817D01*
X41421939Y28976817D02*
X40848225Y28976817D01*
X46286898Y24011858D02*
X46286898Y24111858D01*
X48826898Y22611858D02*
X47686898Y22611858D01*
X47686898Y22611858D02*
X46286898Y24011858D01*
X51366898Y24011858D02*
X50226898Y24011858D01*
X50226898Y24011858D02*
X48826898Y22611858D01*
X42075946Y5884836D02*
X41325947Y6634835D01*
X43716153Y4244629D02*
X42075946Y5884836D01*
X46750577Y4244629D02*
X43716153Y4244629D01*
X46750577Y4244629D02*
X48224577Y4244629D01*
X48224577Y4244629D02*
X49290577Y3178629D01*
X51830577Y4578629D02*
X50690577Y4578629D01*
X50690577Y4578629D02*
X49290577Y3178629D01*
X27656835Y26747000D02*
X50526335Y49616500D01*
X25467000Y26747000D02*
X27656835Y26747000D01*
X72141370Y49616500D02*
X73219000Y49616500D01*
X27054500Y30874500D02*
X26793100Y30874500D01*
X26793100Y30874500D02*
X25213000Y29294400D01*
X25213000Y27001000D02*
X25467000Y26747000D01*
X25213000Y29294400D02*
X25213000Y27001000D01*
X50526335Y49616500D02*
X72141370Y49616500D01*
X73219000Y49616500D02*
X73219000Y49992262D01*
X69601370Y50886500D02*
X70679000Y50886500D01*
X49867900Y50886500D02*
X69601370Y50886500D01*
X27315900Y28334500D02*
X49867900Y50886500D01*
X27054500Y28334500D02*
X27315900Y28334500D01*
X54078087Y83425087D02*
X29059087Y83425087D01*
X73219000Y90056500D02*
X74296630Y90056500D01*
X29059087Y83425087D02*
X22078101Y76444101D01*
X74296630Y90056500D02*
X76203500Y91963370D01*
X10894665Y47384500D02*
X10831165Y47448000D01*
X22078101Y76444101D02*
X22078101Y56441601D01*
X74872273Y97674227D02*
X68327227Y97674227D01*
X76203500Y91963370D02*
X76203500Y96343000D01*
X9719000Y44145000D02*
X10289500Y43574500D01*
X10417500Y47448000D02*
X9719000Y46749500D01*
X10831165Y47448000D02*
X10417500Y47448000D01*
X76203500Y96343000D02*
X74872273Y97674227D01*
X68327227Y97674227D02*
X54078087Y83425087D01*
X22078101Y56441601D02*
X13021000Y47384500D01*
X13021000Y47384500D02*
X10894665Y47384500D01*
X9719000Y46749500D02*
X9719000Y44145000D01*
X10289500Y43574500D02*
X11814500Y43574500D01*
X55533753Y47076500D02*
X55440726Y47169527D01*
X55440726Y47169527D02*
X54690727Y47919526D01*
X73219000Y47076500D02*
X55533753Y47076500D01*
X11814500Y46114500D02*
X13339500Y46114500D01*
X29676793Y82328293D02*
X54441793Y82328293D01*
X13339500Y46114500D02*
X23689000Y56464000D01*
X23689000Y56464000D02*
X23689000Y76340500D01*
X23689000Y76340500D02*
X29676793Y82328293D01*
X54441793Y82328293D02*
X69036989Y96923489D01*
X69036989Y96923489D02*
X72638511Y96923489D01*
X72638511Y96923489D02*
X74933500Y94628500D01*
X74933500Y94628500D02*
X74933500Y91707500D01*
X74933500Y91707500D02*
X74552500Y91326500D01*
X74552500Y91326500D02*
X70679000Y91326500D01*
X11485667Y94017533D02*
X11485667Y82751401D01*
X7509200Y97994000D02*
X11485667Y94017533D01*
X11485667Y82751401D02*
X11485667Y81690741D01*
X12426217Y97994000D02*
X15109447Y100677230D01*
X7509200Y97994000D02*
X12426217Y97994000D01*
X15109447Y100677230D02*
X15859446Y101427229D01*
X33957160Y61354500D02*
X35563500Y62960840D01*
X27054500Y61354500D02*
X33957160Y61354500D01*
X35563500Y62960840D02*
X35563500Y64021500D01*
X44642690Y77116510D02*
X42459600Y79299600D01*
X42459600Y79299600D02*
X42459600Y81077600D01*
X48120000Y76404000D02*
X46979962Y76404000D01*
X46979962Y76404000D02*
X46267453Y77116510D01*
X46267453Y77116510D02*
X44642690Y77116510D01*
X48120000Y76404000D02*
X46940000Y76404000D01*
X46940000Y76404000D02*
X46277500Y77066500D01*
X46277500Y77066500D02*
X44089000Y77066500D01*
X13546757Y95625649D02*
X13546757Y83597753D01*
X19303121Y101382013D02*
X13546757Y95625649D01*
X13546757Y83597753D02*
X13546757Y82537093D01*
X14609444Y101785606D02*
X14609444Y102027231D01*
X18553122Y102132012D02*
X19303121Y101382013D01*
X18007903Y102677231D02*
X18553122Y102132012D01*
X7509200Y100534000D02*
X8359199Y99684001D01*
X14609444Y102027231D02*
X15259444Y102677231D01*
X12507839Y99684001D02*
X14609444Y101785606D01*
X8359199Y99684001D02*
X12507839Y99684001D01*
X15259444Y102677231D02*
X18007903Y102677231D01*
X31673359Y63894500D02*
X32141695Y64362836D01*
X27054500Y63894500D02*
X31673359Y63894500D01*
X40427600Y79933966D02*
X40427600Y80067740D01*
X40427600Y80067740D02*
X40427600Y81128400D01*
X42742102Y77619464D02*
X40427600Y79933966D01*
X42956124Y76416500D02*
X42742102Y76630522D01*
X42742102Y76630522D02*
X42742102Y77619464D01*
X44089000Y76416500D02*
X42956124Y76416500D01*
X48120000Y75454000D02*
X46940000Y75454000D01*
X46940000Y75454000D02*
X45977500Y76416500D01*
X45977500Y76416500D02*
X44089000Y76416500D01*
X26793100Y35954500D02*
X21549536Y30710936D01*
X21549536Y26685321D02*
X21549536Y25624661D01*
X21549536Y30710936D02*
X21549536Y26685321D01*
X27054500Y35954500D02*
X26793100Y35954500D01*
X23644998Y23610650D02*
X23644998Y22549990D01*
X27054500Y33414500D02*
X26793100Y33414500D01*
X26793100Y33414500D02*
X23644998Y30266398D01*
X23644998Y30266398D02*
X23644998Y23610650D01*
X51551000Y64783500D02*
X48494000Y64783500D01*
X48494000Y64783500D02*
X45382500Y61672000D01*
X45382500Y61672000D02*
X44232500Y61672000D01*
X45382500Y64212000D02*
X44232500Y64212000D01*
X46549000Y64212000D02*
X45382500Y64212000D01*
X48240499Y65903499D02*
X46549000Y64212000D01*
X50250999Y65903499D02*
X48240499Y65903499D01*
X50401000Y66053500D02*
X50250999Y65903499D01*
X51551000Y66053500D02*
X50401000Y66053500D01*
X60851000Y66053500D02*
X59503000Y66053500D01*
X59503000Y66053500D02*
X57280500Y63831000D01*
X57280500Y63831000D02*
X57280500Y60402000D01*
X57280500Y60402000D02*
X53068010Y56189510D01*
X53068010Y56189510D02*
X41363490Y56189510D01*
X41363490Y56189510D02*
X40580000Y56973000D01*
X40580000Y56973000D02*
X40580000Y60084500D01*
X40580000Y60084500D02*
X40262500Y60402000D01*
X40262500Y60402000D02*
X38832500Y60402000D01*
X60851000Y64783500D02*
X59701000Y64783500D01*
X59701000Y64783500D02*
X58169500Y63252000D01*
X58169500Y63252000D02*
X58169500Y60148000D01*
X58169500Y60148000D02*
X53255581Y55234081D01*
X53255581Y55234081D02*
X40159919Y55234081D01*
X40159919Y55234081D02*
X38832500Y56561500D01*
X38832500Y56561500D02*
X38832500Y57862000D01*
X14710866Y81851198D02*
X14796759Y81937091D01*
X14796759Y82892068D02*
X17004702Y85100011D01*
X11814500Y58814500D02*
X12075900Y58814500D01*
X14796759Y81937091D02*
X14796759Y82892068D01*
X12075900Y58814500D02*
X14710866Y61449466D01*
X17004702Y85100011D02*
X17754701Y85850010D01*
X14710866Y61449466D02*
X14710866Y81851198D01*
X15886686Y81453954D02*
X16636685Y82203953D01*
X15410877Y59609477D02*
X15410877Y80978145D01*
X12075900Y56274500D02*
X15410877Y59609477D01*
X15410877Y80978145D02*
X15886686Y81453954D01*
X11814500Y56274500D02*
X12075900Y56274500D01*
X20404006Y87150023D02*
X21324265Y88070282D01*
X12075900Y51194500D02*
X16110888Y55229488D01*
X16110888Y55229488D02*
X16110888Y73689353D01*
X16110888Y73689353D02*
X20404007Y77982472D01*
X21324265Y88070282D02*
X23647239Y88070282D01*
X11814500Y51194500D02*
X12075900Y51194500D01*
X20404007Y77982472D02*
X20404006Y87150023D01*
X23647239Y88070282D02*
X24397238Y87320283D01*
X21654008Y78242508D02*
X21654008Y85489361D01*
X12075900Y48654500D02*
X16810899Y53389499D01*
X11814500Y48654500D02*
X12075900Y48654500D01*
X16810899Y53389499D02*
X16810899Y73399399D01*
X16810899Y73399399D02*
X21654008Y78242508D01*
X21654008Y85489361D02*
X21654008Y86550021D01*
X11814500Y61354500D02*
X11553100Y61354500D01*
X11553100Y61354500D02*
X4026288Y68881312D01*
X4026288Y68881312D02*
X4026288Y91971088D01*
X4026288Y91971088D02*
X6659201Y94604001D01*
X6659201Y94604001D02*
X7509200Y95454000D01*
X5934400Y85264710D02*
X5934400Y88799200D01*
X11814500Y63894500D02*
X12075900Y63894500D01*
X13757600Y65576200D02*
X13757600Y77441510D01*
X12075900Y63894500D02*
X13757600Y65576200D01*
X13757600Y77441510D02*
X5934400Y85264710D01*
X6659201Y89524001D02*
X7509200Y90374000D01*
X5934400Y88799200D02*
X6659201Y89524001D01*
X11814500Y66434500D02*
X11553100Y66434500D01*
X11553100Y66434500D02*
X4915226Y73072374D01*
X4915226Y73072374D02*
X4915226Y90320026D01*
X4915226Y90320026D02*
X6659201Y92064001D01*
X6659201Y92064001D02*
X7509200Y92914000D01*
X16484519Y38494500D02*
X16816679Y38826660D01*
X11814500Y38494500D02*
X16484519Y38494500D01*
X34611000Y23224000D02*
X34611000Y22363998D01*
X34611000Y22363998D02*
X34121001Y21873999D01*
X34121001Y21873999D02*
X32560999Y21873999D01*
X32560999Y21873999D02*
X32542775Y21892223D01*
X32542775Y21892223D02*
X26479046Y21892223D01*
X26479046Y21892223D02*
X26370244Y21783421D01*
X21161001Y36728501D02*
X21911000Y37478500D01*
X39691000Y22074000D02*
X37890979Y20273979D01*
X20299535Y25024660D02*
X20299535Y26224662D01*
X22709500Y19027000D02*
X20473218Y21263282D01*
X39691000Y23224000D02*
X39691000Y22074000D01*
X37890979Y20273979D02*
X29422400Y20273979D01*
X20577500Y36145000D02*
X21161001Y36728501D01*
X28175421Y19027000D02*
X22709500Y19027000D01*
X20473218Y21263282D02*
X20473218Y24850977D01*
X29422400Y20273979D02*
X28175421Y19027000D01*
X20577500Y26502627D02*
X20577500Y36145000D01*
X20473218Y24850977D02*
X20299535Y25024660D01*
X20299535Y26224662D02*
X20577500Y26502627D01*
X21911000Y47765500D02*
X22800000Y48654500D01*
X22800000Y48654500D02*
X27054500Y48654500D01*
X21911000Y46241500D02*
X21911000Y47765500D01*
X18057519Y41034500D02*
X18496204Y41473185D01*
X11814500Y41034500D02*
X18057519Y41034500D01*
X27844046Y19827011D02*
X25305885Y19827011D01*
X24655886Y20477010D02*
X23595226Y20477010D01*
X29091024Y21073989D02*
X27844046Y19827011D01*
X25305885Y19827011D02*
X24655886Y20477010D01*
X37151000Y23224000D02*
X37151000Y22074000D01*
X36150989Y21073989D02*
X29091024Y21073989D01*
X37151000Y22074000D02*
X36150989Y21073989D01*
X26793100Y46114500D02*
X19752000Y39073400D01*
X40961000Y18974000D02*
X40961000Y17824000D01*
X30050414Y18045989D02*
X31379032Y19374607D01*
X27054500Y46114500D02*
X26793100Y46114500D01*
X19752000Y26667092D02*
X19599524Y26514616D01*
X19599524Y26514616D02*
X19599524Y24599779D01*
X19599524Y24599779D02*
X19752000Y24447303D01*
X19752000Y24447303D02*
X19752000Y19702525D01*
X21408536Y18045989D02*
X30050414Y18045989D01*
X31379032Y19374607D02*
X40560393Y19374607D01*
X19752000Y39073400D02*
X19752000Y26667092D01*
X40560393Y19374607D02*
X40961000Y18974000D01*
X19752000Y19702525D02*
X21408536Y18045989D01*
X40961000Y17824000D02*
X40961000Y18274000D01*
D41*
X71187000Y14157200D02*
X71187000Y13412000D01*
X71187000Y13412000D02*
X67123000Y9348000D01*
D37*
X58239538Y24024435D02*
X57489539Y24774434D01*
X63026773Y19237200D02*
X58239538Y24024435D01*
X71187000Y19237200D02*
X63026773Y19237200D01*
X50820000Y77354000D02*
X52000000Y77354000D01*
X52000000Y77354000D02*
X52425136Y76928864D01*
X52425136Y76928864D02*
X52425136Y73977636D01*
X52425136Y73977636D02*
X51551000Y73103500D01*
X51551000Y73103500D02*
X51551000Y72403500D01*
X54397600Y36099600D02*
X52265600Y36099600D01*
X52265600Y36099600D02*
X52213200Y36047200D01*
X48768421Y37654769D02*
X50705631Y37654769D01*
X50705631Y37654769D02*
X52213200Y36147200D01*
X52213200Y36147200D02*
X52213200Y36047200D01*
X48768421Y37654769D02*
X41544550Y37654769D01*
X41544550Y37654769D02*
X33341000Y29451219D01*
X33341000Y29451219D02*
X33341000Y24842000D01*
X33341000Y24842000D02*
X33341000Y23224000D01*
X48826898Y28111858D02*
X47576898Y28111858D01*
X47576898Y28111858D02*
X44619371Y31069385D01*
X44619371Y31069385D02*
X39069817Y31069385D01*
X39069817Y31069385D02*
X35881000Y27880568D01*
X35881000Y27880568D02*
X35881000Y23224000D01*
X53398898Y26611858D02*
X51466898Y26611858D01*
X51466898Y26611858D02*
X51366898Y26711858D01*
X51366898Y26711858D02*
X50226898Y26711858D01*
X50226898Y26711858D02*
X48826898Y28111858D01*
X65692000Y71340500D02*
X66742000Y71340500D01*
X63875456Y72403500D02*
X64938456Y71340500D01*
X60851000Y72403500D02*
X63875456Y72403500D01*
X64938456Y71340500D02*
X65692000Y71340500D01*
X68837500Y71240500D02*
X66842000Y71240500D01*
X66842000Y71240500D02*
X66742000Y71340500D01*
X37004000Y90577200D02*
X37004000Y91323500D01*
X37004000Y91323500D02*
X37832500Y92152000D01*
X60074508Y17365416D02*
X59324509Y18115415D01*
X62012724Y15427200D02*
X60074508Y17365416D01*
X68647000Y15427200D02*
X62012724Y15427200D01*
X73137001Y12187001D02*
X65492010Y4542010D01*
X71187000Y16697200D02*
X72247660Y16697200D01*
X73137001Y15807859D02*
X73137001Y12187001D01*
X65492010Y4542010D02*
X61967662Y4542010D01*
X72247660Y16697200D02*
X73137001Y15807859D01*
X61967662Y4542010D02*
X60907002Y4542010D01*
X58162714Y19902768D02*
X57802988Y19543042D01*
X60662899Y19902768D02*
X58162714Y19902768D01*
X57802988Y13655997D02*
X57802988Y12595337D01*
X62598467Y17967200D02*
X60662899Y19902768D01*
X57802988Y19543042D02*
X57802988Y13655997D01*
X68647000Y17967200D02*
X62598467Y17967200D01*
X60453931Y24219302D02*
X59703932Y24969301D01*
X64166033Y20507200D02*
X60453931Y24219302D01*
X68647000Y20507200D02*
X64166033Y20507200D01*
X57757230Y33936970D02*
X57757230Y34806019D01*
X68647000Y23047200D02*
X57757230Y33936970D01*
X70679000Y86246500D02*
X69370466Y86246500D01*
X69370466Y86246500D02*
X61303694Y78179728D01*
X61303694Y78179728D02*
X60343635Y78179728D01*
X61037420Y81682489D02*
X60287421Y80932490D01*
X73219000Y87516500D02*
X66871431Y87516500D01*
X66871431Y87516500D02*
X61037420Y81682489D01*
X48581000Y68466500D02*
X51424000Y68466500D01*
X51424000Y68466500D02*
X51551000Y68593500D01*
X60442800Y76404000D02*
X58052682Y74013882D01*
X58052682Y74013882D02*
X58052682Y70241818D01*
X61905200Y76404000D02*
X60442800Y76404000D01*
X64020400Y77369200D02*
X62870400Y77369200D01*
X62870400Y77369200D02*
X61905200Y76404000D01*
X60851000Y68593500D02*
X59701000Y68593500D01*
X59701000Y68593500D02*
X58052682Y70241818D01*
X60401000Y68593500D02*
X60851000Y68593500D01*
X41058800Y88596000D02*
X37358000Y88596000D01*
X37358000Y88596000D02*
X37307200Y88545200D01*
X39818000Y95454000D02*
X39310000Y95962000D01*
X39310000Y95962000D02*
X37832500Y95962000D01*
X39818000Y89906000D02*
X39818000Y95454000D01*
X37307200Y88545200D02*
X38457200Y88545200D01*
X38457200Y88545200D02*
X39818000Y89906000D01*
X29762962Y67791038D02*
X41473462Y67791038D01*
X27054500Y68974500D02*
X28579500Y68974500D01*
X28579500Y68974500D02*
X29762962Y67791038D01*
X43782500Y65482000D02*
X44232500Y65482000D01*
X41473462Y67791038D02*
X43782500Y65482000D01*
D43*
X38382500Y59132000D02*
X38832500Y59132000D01*
X37582500Y58332000D02*
X38382500Y59132000D01*
X37582500Y52280096D02*
X37582500Y58332000D01*
X28876904Y43574500D02*
X37582500Y52280096D01*
X27054500Y43574500D02*
X28876904Y43574500D01*
D37*
X44232500Y62942000D02*
X43782500Y62942000D01*
X43782500Y62942000D02*
X41382511Y65341989D01*
X41382511Y65341989D02*
X41382511Y66032666D01*
X41382511Y66032666D02*
X40333165Y67082012D01*
X40333165Y67082012D02*
X37331835Y67082012D01*
X37331835Y67082012D02*
X37310651Y67060828D01*
X37310651Y67060828D02*
X34757665Y67060828D01*
X34757665Y67060828D02*
X34131337Y66434500D01*
X34131337Y66434500D02*
X28579500Y66434500D01*
X28579500Y66434500D02*
X27054500Y66434500D01*
D41*
X70679000Y53426500D02*
X60851000Y63254500D01*
X60851000Y63254500D02*
X60851000Y63513500D01*
X62932000Y69863500D02*
X60851000Y69863500D01*
X63821000Y63880107D02*
X63821000Y68974500D01*
X63821000Y68974500D02*
X62932000Y69863500D01*
X73219000Y54482107D02*
X63821000Y63880107D01*
X73219000Y52156500D02*
X73219000Y54482107D01*
X70679000Y93866500D02*
X55888439Y79075939D01*
X55888439Y79075939D02*
X55888439Y66100939D01*
X55888439Y66100939D02*
X53301000Y63513500D01*
X53301000Y63513500D02*
X51551000Y63513500D01*
X73219000Y92596500D02*
X73219000Y94363619D01*
X73219000Y94363619D02*
X71838860Y95743759D01*
X71838860Y95743759D02*
X69508259Y95743759D01*
X69508259Y95743759D02*
X53915000Y80150500D01*
X53915000Y80150500D02*
X53915000Y70477500D01*
X53915000Y70477500D02*
X53301000Y69863500D01*
X53301000Y69863500D02*
X51551000Y69863500D01*
D37*
X36474830Y71808023D02*
X36474830Y73891873D01*
X36474830Y73891873D02*
X38286947Y75703990D01*
X43339000Y71260500D02*
X41569560Y69491060D01*
X41569560Y69491060D02*
X38791793Y69491060D01*
X38286947Y75703990D02*
X40032390Y75703990D01*
X38791793Y69491060D02*
X36474830Y71808023D01*
X44739000Y71260500D02*
X43339000Y71260500D01*
D42*
X45028033Y70971467D02*
X44739000Y71260500D01*
X49838967Y70971467D02*
X45028033Y70971467D01*
X50001000Y71133500D02*
X49838967Y70971467D01*
X49775049Y71133500D02*
X49472954Y71435595D01*
X51551000Y71133500D02*
X50001000Y71133500D01*
X49472954Y71435595D02*
X48722955Y72185594D01*
X51551000Y71133500D02*
X49775049Y71133500D01*
D37*
X40032390Y75703990D02*
X40084900Y75756500D01*
X40084900Y75756500D02*
X41389000Y75756500D01*
X40032390Y75703990D02*
X40108999Y75703990D01*
X63554083Y24113011D02*
X62804084Y24863010D01*
X65889894Y21777200D02*
X63554083Y24113011D01*
X71187000Y21777200D02*
X65889894Y21777200D01*
X11746029Y102189971D02*
X12496028Y101439972D01*
X10862000Y103074000D02*
X11746029Y102189971D01*
X7509200Y103074000D02*
X10862000Y103074000D01*
D44*
X72397776Y71500047D02*
X73147775Y70750048D01*
X71095423Y72802400D02*
X72397776Y71500047D01*
X63991400Y75438800D02*
X66627800Y72802400D01*
D41*
X63866400Y75438800D02*
X63991400Y75438800D01*
D44*
X66627800Y72802400D02*
X71095423Y72802400D01*
D37*
X58846511Y73330781D02*
X60751330Y75235600D01*
X63866400Y75438800D02*
X60954530Y75438800D01*
X60954530Y75438800D02*
X60751330Y75235600D01*
X19884400Y93879200D02*
X22038000Y93879200D01*
X22038000Y93879200D02*
X22241200Y94082400D01*
X22241200Y94082400D02*
X24578000Y96419200D01*
X24578000Y96419200D02*
X24578000Y102667600D01*
D42*
X22241200Y94082400D02*
X24730800Y94082400D01*
X24730800Y94082400D02*
X25442000Y93371200D01*
D37*
X34607200Y88545200D02*
X32706000Y88545200D01*
X32706000Y88545200D02*
X27880000Y93371200D01*
X27880000Y93371200D02*
X25442000Y93371200D01*
X60851000Y71133500D02*
X59321164Y71133500D01*
X59321164Y71133500D02*
X58846511Y71608153D01*
X58846511Y71608153D02*
X58846511Y73330781D01*
X35378131Y53911604D02*
X34628132Y53161605D01*
X35512532Y58802032D02*
X35512532Y54046005D01*
X38832500Y61672000D02*
X38382500Y61672000D01*
X38382500Y61672000D02*
X35512532Y58802032D01*
X35512532Y54046005D02*
X35378131Y53911604D01*
X27054500Y38494500D02*
X27315900Y38494500D01*
X27315900Y38494500D02*
X34364400Y45543000D01*
X34364400Y45543000D02*
X34801500Y45543000D01*
D45*
G36*
X81854089Y104599964D02*
X81313975Y30190200D01*
X65319600Y30190200D01*
X65019021Y30133642D01*
X64742957Y29956000D01*
X64557756Y29684949D01*
X64492600Y29363200D01*
X64492600Y28653997D01*
X59134935Y34011663D01*
X59333955Y34490958D01*
X59334503Y35118327D01*
X59232226Y35365858D01*
X69521579Y35365858D01*
X69890290Y34473511D01*
X70572420Y33790189D01*
X71464122Y33419922D01*
X72429642Y33419079D01*
X73321989Y33787790D01*
X74005311Y34469920D01*
X74375578Y35361622D01*
X74376421Y36327142D01*
X74007710Y37219489D01*
X73325580Y37902811D01*
X72433878Y38273078D01*
X71468358Y38273921D01*
X70576011Y37905210D01*
X69892689Y37223080D01*
X69522422Y36331378D01*
X69521579Y35365858D01*
X59232226Y35365858D01*
X59094925Y35698151D01*
X58651695Y36142155D01*
X58072291Y36382744D01*
X57444922Y36383292D01*
X56865098Y36143714D01*
X56421094Y35700484D01*
X56180505Y35121080D01*
X56179957Y34493711D01*
X56419535Y33913887D01*
X56848047Y33484626D01*
X57031031Y33210771D01*
X64492600Y25749203D01*
X64492600Y24626892D01*
X64380975Y24738516D01*
X64381357Y25175318D01*
X64141779Y25755142D01*
X63698549Y26199146D01*
X63119145Y26439735D01*
X62491776Y26440283D01*
X61911952Y26200705D01*
X61467948Y25757475D01*
X61275792Y25294710D01*
X61041627Y25861433D01*
X60598397Y26305437D01*
X60018993Y26546026D01*
X59391624Y26546574D01*
X58811800Y26306996D01*
X58499316Y25995057D01*
X58384004Y26110570D01*
X57804600Y26351159D01*
X57177231Y26351707D01*
X56597407Y26112129D01*
X56153403Y25668899D01*
X55912814Y25089495D01*
X55912266Y24462126D01*
X56151844Y23882302D01*
X56595074Y23438298D01*
X57174478Y23197709D01*
X57614250Y23197325D01*
X59881807Y20929768D01*
X58162714Y20929768D01*
X57769698Y20851592D01*
X57436515Y20628967D01*
X57436513Y20628964D01*
X57076789Y20269241D01*
X56854164Y19936058D01*
X56775988Y19543042D01*
X56775988Y13798399D01*
X56466852Y13489802D01*
X56226263Y12910398D01*
X56225715Y12283029D01*
X56465293Y11703205D01*
X56908523Y11259201D01*
X57487927Y11018612D01*
X58115296Y11018064D01*
X58695120Y11257642D01*
X59139124Y11700872D01*
X59379713Y12280276D01*
X59380261Y12907645D01*
X59140683Y13487469D01*
X58829988Y13798707D01*
X58829988Y16613208D01*
X59009448Y16538690D01*
X59449220Y16538306D01*
X61286523Y14701004D01*
X61286525Y14701001D01*
X61538354Y14532735D01*
X61619708Y14478376D01*
X62012724Y14400200D01*
X64492600Y14400200D01*
X64492600Y6858800D01*
X64548212Y6560657D01*
X64724981Y6284033D01*
X64995445Y6097976D01*
X65316987Y6031804D01*
X65528737Y6031135D01*
X65066612Y5569010D01*
X62110064Y5569010D01*
X61801467Y5878146D01*
X61222063Y6118735D01*
X60594694Y6119283D01*
X60014870Y5879705D01*
X59570866Y5436475D01*
X59330277Y4857071D01*
X59329729Y4229702D01*
X59569307Y3649878D01*
X60012537Y3205874D01*
X60591941Y2965285D01*
X61219310Y2964737D01*
X61799134Y3204315D01*
X62110372Y3515010D01*
X65492010Y3515010D01*
X65885026Y3593186D01*
X66218209Y3815811D01*
X68424384Y6021986D01*
X81138254Y5981816D01*
X81093919Y-126117D01*
X126523Y-73083D01*
X79603Y12384250D01*
X32081000Y12384250D01*
X32081000Y11793691D01*
X32177673Y11560302D01*
X32356301Y11381673D01*
X32589690Y11285000D01*
X33055250Y11285000D01*
X33214000Y11443750D01*
X33214000Y12543000D01*
X33468000Y12543000D01*
X33468000Y11443750D01*
X33626750Y11285000D01*
X34092310Y11285000D01*
X34325699Y11381673D01*
X34504327Y11560302D01*
X34601000Y11793691D01*
X34601000Y12384250D01*
X34442250Y12543000D01*
X33468000Y12543000D01*
X33214000Y12543000D01*
X32239750Y12543000D01*
X32081000Y12384250D01*
X79603Y12384250D01*
X20879Y27975474D01*
X10098142Y27975474D01*
X10119973Y27878343D01*
X10403627Y27364632D01*
X10862278Y26998575D01*
X11426100Y26835900D01*
X11687500Y26835900D01*
X11687500Y28207500D01*
X11941500Y28207500D01*
X11941500Y26835900D01*
X12202900Y26835900D01*
X12766722Y26998575D01*
X13225373Y27364632D01*
X13509027Y27878343D01*
X13530858Y27975474D01*
X13409717Y28207500D01*
X11941500Y28207500D01*
X11687500Y28207500D01*
X10219283Y28207500D01*
X10098142Y27975474D01*
X20879Y27975474D01*
X11313Y30515474D01*
X10098142Y30515474D01*
X10119973Y30418343D01*
X10403627Y29904632D01*
X10779677Y29604500D01*
X10403627Y29304368D01*
X10119973Y28790657D01*
X10098142Y28693526D01*
X10219283Y28461500D01*
X11687500Y28461500D01*
X11687500Y30747500D01*
X11941500Y30747500D01*
X11941500Y28461500D01*
X13409717Y28461500D01*
X13530858Y28693526D01*
X13509027Y28790657D01*
X13225373Y29304368D01*
X12849323Y29604500D01*
X13225373Y29904632D01*
X13509027Y30418343D01*
X13530858Y30515474D01*
X13409717Y30747500D01*
X11941500Y30747500D01*
X11687500Y30747500D01*
X10219283Y30747500D01*
X10098142Y30515474D01*
X11313Y30515474D01*
X-220159Y91971088D01*
X2999288Y91971088D01*
X2999288Y68881312D01*
X3077464Y68488296D01*
X3300089Y68155113D01*
X9870123Y61585080D01*
X9824258Y61354500D01*
X9952947Y60707535D01*
X10319423Y60159065D01*
X10431017Y60084500D01*
X10319423Y60009935D01*
X9952947Y59461465D01*
X9824258Y58814500D01*
X9952947Y58167535D01*
X10319423Y57619065D01*
X10431017Y57544500D01*
X10319423Y57469935D01*
X9952947Y56921465D01*
X9824258Y56274500D01*
X9952947Y55627535D01*
X10319423Y55079065D01*
X10431017Y55004500D01*
X10319423Y54929935D01*
X9952947Y54381465D01*
X9824258Y53734500D01*
X9952947Y53087535D01*
X10319423Y52539065D01*
X10431017Y52464500D01*
X10319423Y52389935D01*
X9952947Y51841465D01*
X9824258Y51194500D01*
X9952947Y50547535D01*
X10319423Y49999065D01*
X10431017Y49924500D01*
X10319423Y49849935D01*
X9952947Y49301465D01*
X9824258Y48654500D01*
X9892990Y48308962D01*
X9691301Y48174199D01*
X8992801Y47475699D01*
X8770176Y47142516D01*
X8692000Y46749500D01*
X8692000Y44145000D01*
X8770176Y43751984D01*
X8992801Y43418801D01*
X9563301Y42848301D01*
X9896484Y42625676D01*
X9961691Y42612706D01*
X10194214Y42566453D01*
X10319423Y42379065D01*
X10431017Y42304500D01*
X10319423Y42229935D01*
X9952947Y41681465D01*
X9824258Y41034500D01*
X9952947Y40387535D01*
X10319423Y39839065D01*
X10431017Y39764500D01*
X10319423Y39689935D01*
X9952947Y39141465D01*
X9824258Y38494500D01*
X9952947Y37847535D01*
X10319423Y37299065D01*
X10431017Y37224500D01*
X10319423Y37149935D01*
X9952947Y36601465D01*
X9824258Y35954500D01*
X9952947Y35307535D01*
X10319423Y34759065D01*
X10431017Y34684500D01*
X10383276Y34652600D01*
X6685585Y34652600D01*
X6676465Y34661736D01*
X6097061Y34902325D01*
X5469692Y34902873D01*
X4889868Y34663295D01*
X4445864Y34220065D01*
X4205275Y33640661D01*
X4204727Y33013292D01*
X4444305Y32433468D01*
X4887535Y31989464D01*
X5466939Y31748875D01*
X6094308Y31748327D01*
X6674132Y31987905D01*
X6684846Y31998600D01*
X10596872Y31998600D01*
X10403627Y31844368D01*
X10119973Y31330657D01*
X10098142Y31233526D01*
X10219283Y31001500D01*
X11687500Y31001500D01*
X11687500Y31021500D01*
X11941500Y31021500D01*
X11941500Y31001500D01*
X13409717Y31001500D01*
X13530858Y31233526D01*
X13509027Y31330657D01*
X13225373Y31844368D01*
X13008204Y32017694D01*
X13309577Y32219065D01*
X13422122Y32387500D01*
X13903702Y32387500D01*
X16947000Y29344202D01*
X16947000Y19203200D01*
X17025176Y18810184D01*
X17247801Y18477001D01*
X19432201Y16292601D01*
X19765384Y16069976D01*
X20158400Y15991800D01*
X31835800Y15991800D01*
X31889502Y16002482D01*
X31872799Y15920000D01*
X31872799Y14420000D01*
X31930465Y14113532D01*
X32111587Y13832061D01*
X32181955Y13783980D01*
X32177673Y13779698D01*
X32081000Y13546309D01*
X32081000Y12955750D01*
X32239750Y12797000D01*
X33214000Y12797000D01*
X33214000Y12817000D01*
X33468000Y12817000D01*
X33468000Y12797000D01*
X34442250Y12797000D01*
X34601000Y12955750D01*
X34601000Y13546309D01*
X34504327Y13779698D01*
X34501915Y13782110D01*
X34553939Y13815587D01*
X34742769Y14091948D01*
X34753107Y14143000D01*
X35602602Y14143000D01*
X36047800Y13697803D01*
X36047800Y9906800D01*
X36125976Y9513784D01*
X36348601Y9180601D01*
X37669399Y7859804D01*
X37669401Y7859801D01*
X38002584Y7637176D01*
X38395600Y7559000D01*
X40019563Y7559000D01*
X39989811Y7529300D01*
X39749222Y6949896D01*
X39748674Y6322527D01*
X39988252Y5742703D01*
X40431482Y5298699D01*
X41010886Y5058110D01*
X41450658Y5057726D01*
X42989954Y3518430D01*
X43323137Y3295805D01*
X43716153Y3217629D01*
X45309497Y3217629D01*
X45315042Y3188161D01*
X45496164Y2906690D01*
X45772525Y2717860D01*
X46100577Y2651428D01*
X47400577Y2651428D01*
X47597376Y2688458D01*
X47597376Y1528629D01*
X47655042Y1222161D01*
X47836164Y940690D01*
X48112525Y751860D01*
X48440577Y685428D01*
X50140577Y685428D01*
X50447045Y743094D01*
X50728516Y924216D01*
X50917346Y1200577D01*
X50983778Y1528629D01*
X50983778Y3025281D01*
X51180577Y2985428D01*
X52480577Y2985428D01*
X52787045Y3043094D01*
X53068516Y3224216D01*
X53115944Y3293629D01*
X53576827Y3293629D01*
X53735577Y3452379D01*
X53735577Y4551629D01*
X53989577Y4551629D01*
X53989577Y3452379D01*
X54148327Y3293629D01*
X54613887Y3293629D01*
X54847276Y3390302D01*
X55025904Y3568931D01*
X55122577Y3802320D01*
X55122577Y4392879D01*
X54963827Y4551629D01*
X53989577Y4551629D01*
X53735577Y4551629D01*
X53715577Y4551629D01*
X53715577Y4805629D01*
X53735577Y4805629D01*
X53735577Y4825629D01*
X53989577Y4825629D01*
X53989577Y4805629D01*
X54963827Y4805629D01*
X55122577Y4964379D01*
X55122577Y5554938D01*
X55025904Y5788327D01*
X55023492Y5790739D01*
X55075516Y5824216D01*
X55264346Y6100577D01*
X55330778Y6428629D01*
X55330778Y7928629D01*
X55273112Y8235097D01*
X55091990Y8516568D01*
X54815629Y8705398D01*
X54487577Y8771830D01*
X53237577Y8771830D01*
X52939769Y8715794D01*
X52808629Y8805398D01*
X52480577Y8871830D01*
X51180577Y8871830D01*
X50983778Y8834800D01*
X50983778Y10328629D01*
X50926112Y10635097D01*
X50789385Y10847576D01*
X50820122Y10999361D01*
X50820122Y12258164D01*
X51018118Y12456160D01*
X51808921Y12456160D01*
X52115389Y12513826D01*
X52396860Y12694948D01*
X52444288Y12764361D01*
X52905171Y12764361D01*
X53063921Y12923111D01*
X53063921Y14022361D01*
X53317921Y14022361D01*
X53317921Y12923111D01*
X53476671Y12764361D01*
X53942231Y12764361D01*
X54175620Y12861034D01*
X54354248Y13039663D01*
X54450921Y13273052D01*
X54450921Y13863611D01*
X54292171Y14022361D01*
X53317921Y14022361D01*
X53063921Y14022361D01*
X53043921Y14022361D01*
X53043921Y14276361D01*
X53063921Y14276361D01*
X53063921Y14296361D01*
X53317921Y14296361D01*
X53317921Y14276361D01*
X54292171Y14276361D01*
X54450921Y14435111D01*
X54450921Y15025670D01*
X54354248Y15259059D01*
X54351836Y15261471D01*
X54403860Y15294948D01*
X54592690Y15571309D01*
X54659122Y15899361D01*
X54659122Y17399361D01*
X54601456Y17705829D01*
X54420334Y17987300D01*
X54143973Y18176130D01*
X53815921Y18242562D01*
X52565921Y18242562D01*
X52268113Y18186526D01*
X52136973Y18276130D01*
X51808921Y18342562D01*
X51018118Y18342562D01*
X50820122Y18540558D01*
X50820122Y19799361D01*
X50762456Y20105829D01*
X50581334Y20387300D01*
X50379476Y20525224D01*
X50453667Y20633806D01*
X50520099Y20961858D01*
X50520099Y22458510D01*
X50716898Y22418657D01*
X52016898Y22418657D01*
X52323366Y22476323D01*
X52604837Y22657445D01*
X52652265Y22726858D01*
X53113148Y22726858D01*
X53271898Y22885608D01*
X53271898Y23984858D01*
X53525898Y23984858D01*
X53525898Y22885608D01*
X53684648Y22726858D01*
X54150208Y22726858D01*
X54383597Y22823531D01*
X54562225Y23002160D01*
X54658898Y23235549D01*
X54658898Y23826108D01*
X54500148Y23984858D01*
X53525898Y23984858D01*
X53271898Y23984858D01*
X53251898Y23984858D01*
X53251898Y24238858D01*
X53271898Y24238858D01*
X53271898Y24258858D01*
X53525898Y24258858D01*
X53525898Y24238858D01*
X54500148Y24238858D01*
X54658898Y24397608D01*
X54658898Y24988167D01*
X54562225Y25221556D01*
X54559813Y25223968D01*
X54611837Y25257445D01*
X54800667Y25533806D01*
X54867099Y25861858D01*
X54867099Y27361858D01*
X54809433Y27668326D01*
X54628311Y27949797D01*
X54351950Y28138627D01*
X54023898Y28205059D01*
X52773898Y28205059D01*
X52476090Y28149023D01*
X52344950Y28238627D01*
X52016898Y28305059D01*
X50716898Y28305059D01*
X50520099Y28268029D01*
X50520099Y29761858D01*
X50462433Y30068326D01*
X50393900Y30174829D01*
X50395190Y30176717D01*
X50461622Y30504769D01*
X50461622Y31127769D01*
X51020769Y31127769D01*
X51413785Y31205945D01*
X51746968Y31428570D01*
X52072397Y31753999D01*
X52863200Y31753999D01*
X53169668Y31811665D01*
X53451139Y31992787D01*
X53612314Y32228673D01*
X53646290Y32214600D01*
X54111850Y32214600D01*
X54270600Y32373350D01*
X54270600Y33472600D01*
X54524600Y33472600D01*
X54524600Y32373350D01*
X54683350Y32214600D01*
X55148910Y32214600D01*
X55382299Y32311273D01*
X55560927Y32489902D01*
X55657600Y32723291D01*
X55657600Y33313850D01*
X55498850Y33472600D01*
X54524600Y33472600D01*
X54270600Y33472600D01*
X54250600Y33472600D01*
X54250600Y33726600D01*
X54270600Y33726600D01*
X54270600Y33746600D01*
X54524600Y33746600D01*
X54524600Y33726600D01*
X55498850Y33726600D01*
X55657600Y33885350D01*
X55657600Y34475909D01*
X55560927Y34709298D01*
X55558515Y34711710D01*
X55610539Y34745187D01*
X55799369Y35021548D01*
X55865801Y35349600D01*
X55865801Y36849600D01*
X55808135Y37156068D01*
X55627013Y37437539D01*
X55350652Y37626369D01*
X55022600Y37692801D01*
X53772600Y37692801D01*
X53466132Y37635135D01*
X53278468Y37514376D01*
X53191252Y37573969D01*
X52863200Y37640401D01*
X52172397Y37640401D01*
X51431830Y38380968D01*
X51098647Y38603593D01*
X50705631Y38681769D01*
X50461622Y38681769D01*
X50461622Y39304769D01*
X50403956Y39611237D01*
X50222834Y39892708D01*
X49946473Y40081538D01*
X49618421Y40147970D01*
X47918421Y40147970D01*
X47611953Y40090304D01*
X47330482Y39909182D01*
X47141652Y39632821D01*
X47075220Y39304769D01*
X47075220Y38681769D01*
X41544555Y38681769D01*
X41544550Y38681770D01*
X41216741Y38616563D01*
X41151534Y38603593D01*
X40818351Y38380968D01*
X40818349Y38380965D01*
X32614801Y30177418D01*
X32392176Y29844235D01*
X32314000Y29451219D01*
X32314000Y24374891D01*
X32264231Y24302052D01*
X32197799Y23974000D01*
X32197799Y22919223D01*
X27464694Y22919223D01*
X27264709Y23119557D01*
X26685305Y23360146D01*
X26057936Y23360694D01*
X25478112Y23121116D01*
X25221270Y22864721D01*
X24982693Y23442122D01*
X24671998Y23753360D01*
X24671998Y26089605D01*
X24740799Y26020804D01*
X24740801Y26020801D01*
X25053543Y25811834D01*
X25073984Y25798176D01*
X25467000Y25720000D01*
X27656835Y25720000D01*
X28049851Y25798176D01*
X28383034Y26020801D01*
X43830679Y41468446D01*
X44062305Y40907868D01*
X44505535Y40463864D01*
X45084939Y40223275D01*
X45712308Y40222727D01*
X46292132Y40462305D01*
X46736136Y40905535D01*
X46916645Y41340250D01*
X75324500Y41340250D01*
X75324500Y40749691D01*
X75421173Y40516302D01*
X75599801Y40337673D01*
X75833190Y40241000D01*
X76298750Y40241000D01*
X76457500Y40399750D01*
X76457500Y41499000D01*
X76711500Y41499000D01*
X76711500Y40399750D01*
X76870250Y40241000D01*
X77335810Y40241000D01*
X77569199Y40337673D01*
X77747827Y40516302D01*
X77844500Y40749691D01*
X77844500Y41340250D01*
X77685750Y41499000D01*
X76711500Y41499000D01*
X76457500Y41499000D01*
X75483250Y41499000D01*
X75324500Y41340250D01*
X46916645Y41340250D01*
X46976725Y41484939D01*
X46977109Y41924711D01*
X47338684Y42286287D01*
X69878392Y42286287D01*
X69947857Y42044103D01*
X70471302Y41857356D01*
X71026368Y41885138D01*
X71410143Y42044103D01*
X71479608Y42286287D01*
X70679000Y43086895D01*
X69878392Y42286287D01*
X47338684Y42286287D01*
X48561897Y43509500D01*
X69282451Y43509500D01*
X69269856Y43474198D01*
X69297638Y42919132D01*
X69456603Y42535357D01*
X69698787Y42465892D01*
X70499395Y43266500D01*
X70485253Y43280642D01*
X70664858Y43460247D01*
X70679000Y43446105D01*
X70693143Y43460247D01*
X70872748Y43280642D01*
X70858605Y43266500D01*
X71659213Y42465892D01*
X71901397Y42535357D01*
X72088144Y43058802D01*
X72069101Y43439259D01*
X72317729Y43190197D01*
X72901542Y42947777D01*
X73533685Y42947225D01*
X74117920Y43188626D01*
X74439354Y43509500D01*
X75116299Y43509500D01*
X75116299Y43376000D01*
X75173965Y43069532D01*
X75355087Y42788061D01*
X75425455Y42739980D01*
X75421173Y42735698D01*
X75324500Y42502309D01*
X75324500Y41911750D01*
X75483250Y41753000D01*
X76457500Y41753000D01*
X76457500Y41773000D01*
X76711500Y41773000D01*
X76711500Y41753000D01*
X77685750Y41753000D01*
X77844500Y41911750D01*
X77844500Y42502309D01*
X77747827Y42735698D01*
X77745415Y42738110D01*
X77797439Y42771587D01*
X77986269Y43047948D01*
X78052701Y43376000D01*
X78052701Y44876000D01*
X77995035Y45182468D01*
X77813913Y45463939D01*
X77537552Y45652769D01*
X77209500Y45719201D01*
X75959500Y45719201D01*
X75653032Y45661535D01*
X75500682Y45563500D01*
X74439017Y45563500D01*
X74196186Y45806755D01*
X74565303Y46175229D01*
X74807723Y46759042D01*
X74808275Y47391185D01*
X74566874Y47975420D01*
X74196186Y48346755D01*
X74565303Y48715229D01*
X74807723Y49299042D01*
X74808275Y49931185D01*
X74566874Y50515420D01*
X74196186Y50886755D01*
X74565303Y51255229D01*
X74807723Y51839042D01*
X74808275Y52471185D01*
X74566874Y53055420D01*
X74546000Y53076330D01*
X74546000Y54482107D01*
X74444988Y54989928D01*
X74157331Y55420438D01*
X70940363Y58637406D01*
X71464122Y58419922D01*
X72429642Y58419079D01*
X73321989Y58787790D01*
X74005311Y59469920D01*
X74375578Y60361622D01*
X74376421Y61327142D01*
X74007710Y62219489D01*
X73325580Y62902811D01*
X72433878Y63273078D01*
X71468358Y63273921D01*
X70576011Y62905210D01*
X69892689Y62223080D01*
X69522422Y61331378D01*
X69521579Y60365858D01*
X69739627Y59838142D01*
X65148000Y64429769D01*
X65148000Y68354750D01*
X65457000Y68354750D01*
X65457000Y67764191D01*
X65553673Y67530802D01*
X65732301Y67352173D01*
X65965690Y67255500D01*
X66456250Y67255500D01*
X66615000Y67414250D01*
X66615000Y68513500D01*
X66869000Y68513500D01*
X66869000Y67414250D01*
X67027750Y67255500D01*
X67518310Y67255500D01*
X67751699Y67352173D01*
X67852250Y67452724D01*
X67852801Y67452173D01*
X68086190Y67355500D01*
X68551750Y67355500D01*
X68710500Y67514250D01*
X68710500Y68613500D01*
X68964500Y68613500D01*
X68964500Y67514250D01*
X69123250Y67355500D01*
X69588810Y67355500D01*
X69822199Y67452173D01*
X70000827Y67630802D01*
X70097500Y67864191D01*
X70097500Y68454750D01*
X69938750Y68613500D01*
X68964500Y68613500D01*
X68710500Y68613500D01*
X67736250Y68613500D01*
X67636250Y68513500D01*
X66869000Y68513500D01*
X66615000Y68513500D01*
X65615750Y68513500D01*
X65457000Y68354750D01*
X65148000Y68354750D01*
X65148000Y68974495D01*
X65148001Y68974500D01*
X65046988Y69482321D01*
X64759331Y69912831D01*
X63870331Y70801831D01*
X63439821Y71089488D01*
X62932000Y71190500D01*
X62444201Y71190500D01*
X62444201Y71376500D01*
X63450058Y71376500D01*
X64212257Y70614301D01*
X64545440Y70391676D01*
X64938456Y70313500D01*
X65300920Y70313500D01*
X65306465Y70284032D01*
X65487587Y70002561D01*
X65676771Y69873297D01*
X65553673Y69750198D01*
X65457000Y69516809D01*
X65457000Y68926250D01*
X65615750Y68767500D01*
X66615000Y68767500D01*
X66615000Y68787500D01*
X66869000Y68787500D01*
X66869000Y68767500D01*
X67868250Y68767500D01*
X67968250Y68867500D01*
X68710500Y68867500D01*
X68710500Y68887500D01*
X68964500Y68887500D01*
X68964500Y68867500D01*
X69938750Y68867500D01*
X70097500Y69026250D01*
X70097500Y69616809D01*
X70000827Y69850198D01*
X69998415Y69852610D01*
X70050439Y69886087D01*
X70239269Y70162448D01*
X70305701Y70490500D01*
X70305701Y71675400D01*
X70628605Y71675400D01*
X71570760Y70733244D01*
X71570502Y70437740D01*
X71810080Y69857916D01*
X72253310Y69413912D01*
X72832714Y69173323D01*
X73460083Y69172775D01*
X74039907Y69412353D01*
X74483911Y69855583D01*
X74724500Y70434987D01*
X74725048Y71062356D01*
X74485470Y71642180D01*
X74042240Y72086184D01*
X73462836Y72326773D01*
X73164608Y72327033D01*
X71892332Y73599309D01*
X71526707Y73843612D01*
X71095423Y73929400D01*
X67094619Y73929400D01*
X66845219Y74178800D01*
X67242709Y74178800D01*
X67476098Y74275473D01*
X67654727Y74454101D01*
X67751400Y74687490D01*
X67751400Y75153050D01*
X67592650Y75311800D01*
X66493400Y75311800D01*
X66493400Y75291800D01*
X66239400Y75291800D01*
X66239400Y75311800D01*
X66219400Y75311800D01*
X66219400Y75565800D01*
X66239400Y75565800D01*
X66239400Y75585800D01*
X66493400Y75585800D01*
X66493400Y75565800D01*
X67592650Y75565800D01*
X67751400Y75724550D01*
X67751400Y75805858D01*
X69521579Y75805858D01*
X69890290Y74913511D01*
X70572420Y74230189D01*
X71464122Y73859922D01*
X72429642Y73859079D01*
X73321989Y74227790D01*
X74005311Y74909920D01*
X74375578Y75801622D01*
X74376421Y76767142D01*
X74007710Y77659489D01*
X73325580Y78342811D01*
X72433878Y78713078D01*
X71468358Y78713921D01*
X70576011Y78345210D01*
X69892689Y77663080D01*
X69522422Y76771378D01*
X69521579Y75805858D01*
X67751400Y75805858D01*
X67751400Y76148275D01*
X67830098Y76180873D01*
X68008727Y76359501D01*
X68105400Y76592890D01*
X68105400Y77083450D01*
X67946650Y77242200D01*
X66847400Y77242200D01*
X66847400Y77222200D01*
X66593400Y77222200D01*
X66593400Y77242200D01*
X66573400Y77242200D01*
X66573400Y77496200D01*
X66593400Y77496200D01*
X66593400Y77516200D01*
X66847400Y77516200D01*
X66847400Y77496200D01*
X67946650Y77496200D01*
X68105400Y77654950D01*
X68105400Y78145510D01*
X68008727Y78378899D01*
X67830098Y78557527D01*
X67782120Y78577400D01*
X68924530Y78577400D01*
X69317546Y78655576D01*
X69650729Y78878201D01*
X72709277Y81936750D01*
X74689500Y81936750D01*
X74689500Y81346191D01*
X74786173Y81112802D01*
X74964801Y80934173D01*
X75198190Y80837500D01*
X75663750Y80837500D01*
X75822500Y80996250D01*
X75822500Y82095500D01*
X76076500Y82095500D01*
X76076500Y80996250D01*
X76235250Y80837500D01*
X76700810Y80837500D01*
X76934199Y80934173D01*
X77112827Y81112802D01*
X77209500Y81346191D01*
X77209500Y81936750D01*
X77050750Y82095500D01*
X76076500Y82095500D01*
X75822500Y82095500D01*
X74848250Y82095500D01*
X74689500Y81936750D01*
X72709277Y81936750D01*
X73945196Y83172669D01*
X73945199Y83172671D01*
X74167824Y83505854D01*
X74188043Y83607500D01*
X74210661Y83721205D01*
X74439354Y83949500D01*
X74485627Y83949500D01*
X74538965Y83666032D01*
X74720087Y83384561D01*
X74790455Y83336480D01*
X74786173Y83332198D01*
X74689500Y83098809D01*
X74689500Y82508250D01*
X74848250Y82349500D01*
X75822500Y82349500D01*
X75822500Y82369500D01*
X76076500Y82369500D01*
X76076500Y82349500D01*
X77050750Y82349500D01*
X77209500Y82508250D01*
X77209500Y83098809D01*
X77112827Y83332198D01*
X77110415Y83334610D01*
X77162439Y83368087D01*
X77351269Y83644448D01*
X77417701Y83972500D01*
X77417701Y85472500D01*
X77360035Y85778968D01*
X77178913Y86060439D01*
X76902552Y86249269D01*
X76574500Y86315701D01*
X75324500Y86315701D01*
X75018032Y86258035D01*
X74736561Y86076913D01*
X74686400Y86003500D01*
X74439017Y86003500D01*
X74196186Y86246755D01*
X74565303Y86615229D01*
X74807723Y87199042D01*
X74808275Y87831185D01*
X74566874Y88415420D01*
X74196186Y88786755D01*
X74474871Y89064954D01*
X74689646Y89107676D01*
X75022829Y89330301D01*
X76929696Y91237169D01*
X76929699Y91237171D01*
X77152324Y91570354D01*
X77230500Y91963370D01*
X77230500Y96343000D01*
X77152324Y96736016D01*
X76929699Y97069199D01*
X76929696Y97069201D01*
X75598472Y98400426D01*
X75265289Y98623051D01*
X74872273Y98701227D01*
X68327227Y98701227D01*
X67934211Y98623051D01*
X67601028Y98400426D01*
X53652689Y84452087D01*
X29059087Y84452087D01*
X28666071Y84373911D01*
X28332888Y84151286D01*
X22681008Y78499406D01*
X22681008Y85346959D01*
X22990144Y85655556D01*
X23230733Y86234960D01*
X23230752Y86256643D01*
X23502773Y85984147D01*
X24082177Y85743558D01*
X24709546Y85743010D01*
X25289370Y85982588D01*
X25733374Y86425818D01*
X25973963Y87005222D01*
X25974511Y87632591D01*
X25734933Y88212415D01*
X25291703Y88656419D01*
X24712299Y88897008D01*
X24222348Y88897436D01*
X24040255Y89019106D01*
X23647239Y89097282D01*
X21324270Y89097282D01*
X21324265Y89097283D01*
X20996456Y89032076D01*
X20931249Y89019106D01*
X20598066Y88796481D01*
X20598064Y88796478D01*
X19677807Y87876222D01*
X19455182Y87543039D01*
X19377006Y87150023D01*
X19377007Y78407870D01*
X16437877Y75468740D01*
X16437877Y80552748D01*
X16512191Y80627062D01*
X16948993Y80626680D01*
X17528817Y80866258D01*
X17972821Y81309488D01*
X18213410Y81888892D01*
X18213958Y82516261D01*
X17974380Y83096085D01*
X17531150Y83540089D01*
X17083188Y83726099D01*
X17630208Y84273119D01*
X18067009Y84272737D01*
X18646833Y84512315D01*
X19090837Y84955545D01*
X19331426Y85534949D01*
X19331974Y86162318D01*
X19092396Y86742142D01*
X18649166Y87186146D01*
X18069762Y87426735D01*
X17442393Y87427283D01*
X16862569Y87187705D01*
X16418565Y86744475D01*
X16177976Y86165071D01*
X16177592Y85725299D01*
X14573757Y84121464D01*
X14573757Y93593450D01*
X15999400Y93593450D01*
X15999400Y93127890D01*
X16096073Y92894501D01*
X16274702Y92715873D01*
X16508091Y92619200D01*
X17098650Y92619200D01*
X17257400Y92777950D01*
X17257400Y93752200D01*
X16158150Y93752200D01*
X15999400Y93593450D01*
X14573757Y93593450D01*
X14573757Y94630510D01*
X15999400Y94630510D01*
X15999400Y94164950D01*
X16158150Y94006200D01*
X17257400Y94006200D01*
X17257400Y94980450D01*
X17511400Y94980450D01*
X17511400Y94006200D01*
X17531400Y94006200D01*
X17531400Y93752200D01*
X17511400Y93752200D01*
X17511400Y92777950D01*
X17670150Y92619200D01*
X18260709Y92619200D01*
X18494098Y92715873D01*
X18496510Y92718285D01*
X18529987Y92666261D01*
X18806348Y92477431D01*
X19134400Y92410999D01*
X20634400Y92410999D01*
X20940868Y92468665D01*
X21222339Y92649787D01*
X21312020Y92781039D01*
X21346735Y92746264D01*
X21926139Y92505675D01*
X22553508Y92505127D01*
X23133332Y92744705D01*
X23244220Y92855400D01*
X23848799Y92855400D01*
X23848799Y92271200D01*
X23906465Y91964732D01*
X24087587Y91683261D01*
X24363948Y91494431D01*
X24692000Y91427999D01*
X26192000Y91427999D01*
X26498468Y91485665D01*
X26779939Y91666787D01*
X26968769Y91943148D01*
X27035201Y92271200D01*
X27035201Y92344200D01*
X27454602Y92344200D01*
X31979799Y87819004D01*
X31979801Y87819001D01*
X32312984Y87596376D01*
X32378191Y87583406D01*
X32706000Y87518199D01*
X32706005Y87518200D01*
X32997340Y87518200D01*
X33100387Y87358061D01*
X33376748Y87169231D01*
X33704800Y87102799D01*
X35204800Y87102799D01*
X35511268Y87160465D01*
X35792739Y87341587D01*
X35802847Y87356380D01*
X36076748Y87169231D01*
X36404800Y87102799D01*
X37904800Y87102799D01*
X38211268Y87160465D01*
X38492739Y87341587D01*
X38637985Y87554160D01*
X38712588Y87569000D01*
X39568651Y87569000D01*
X39704387Y87358061D01*
X39980748Y87169231D01*
X40308800Y87102799D01*
X41808800Y87102799D01*
X42115268Y87160465D01*
X42396739Y87341587D01*
X42526003Y87530771D01*
X42649102Y87407673D01*
X42882491Y87311000D01*
X43473050Y87311000D01*
X43631800Y87469750D01*
X43631800Y88469000D01*
X43885800Y88469000D01*
X43885800Y87469750D01*
X44044550Y87311000D01*
X44635109Y87311000D01*
X44868498Y87407673D01*
X45047127Y87586301D01*
X45143800Y87819690D01*
X45143800Y88310250D01*
X44985050Y88469000D01*
X43885800Y88469000D01*
X43631800Y88469000D01*
X43611800Y88469000D01*
X43611800Y88723000D01*
X43631800Y88723000D01*
X43631800Y89722250D01*
X43885800Y89722250D01*
X43885800Y88723000D01*
X44985050Y88723000D01*
X45049500Y88787450D01*
X47194000Y88787450D01*
X47194000Y88196891D01*
X47290673Y87963502D01*
X47469301Y87784873D01*
X47702690Y87688200D01*
X48168250Y87688200D01*
X48327000Y87846950D01*
X48327000Y88946200D01*
X48581000Y88946200D01*
X48581000Y87846950D01*
X48739750Y87688200D01*
X49205310Y87688200D01*
X49438699Y87784873D01*
X49617327Y87963502D01*
X49714000Y88196891D01*
X49714000Y88787450D01*
X49555250Y88946200D01*
X48581000Y88946200D01*
X48327000Y88946200D01*
X47352750Y88946200D01*
X47194000Y88787450D01*
X45049500Y88787450D01*
X45143800Y88881750D01*
X45143800Y89372310D01*
X45047127Y89605699D01*
X44868498Y89784327D01*
X44635109Y89881000D01*
X44044550Y89881000D01*
X43885800Y89722250D01*
X43631800Y89722250D01*
X43473050Y89881000D01*
X42882491Y89881000D01*
X42649102Y89784327D01*
X42524997Y89660222D01*
X42413213Y89833939D01*
X42136852Y90022769D01*
X41808800Y90089201D01*
X40845000Y90089201D01*
X40845000Y93326760D01*
X42344158Y91827602D01*
X42360400Y91745947D01*
X42492031Y91548948D01*
X42626380Y91347880D01*
X42689880Y91284380D01*
X43087948Y91018399D01*
X43557500Y90925000D01*
X45232500Y90925000D01*
X45702053Y91018400D01*
X45725099Y91033799D01*
X46107500Y91033799D01*
X46413968Y91091465D01*
X46695439Y91272587D01*
X46884269Y91548948D01*
X46950701Y91877000D01*
X46950701Y92195000D01*
X46985799Y92195000D01*
X46985799Y90823200D01*
X47043465Y90516732D01*
X47224587Y90235261D01*
X47294955Y90187180D01*
X47290673Y90182898D01*
X47194000Y89949509D01*
X47194000Y89358950D01*
X47352750Y89200200D01*
X48327000Y89200200D01*
X48327000Y89220200D01*
X48581000Y89220200D01*
X48581000Y89200200D01*
X49555250Y89200200D01*
X49714000Y89358950D01*
X49714000Y89949509D01*
X49617327Y90182898D01*
X49614915Y90185310D01*
X49666939Y90218787D01*
X49798254Y90410972D01*
X49797727Y89807692D01*
X50037305Y89227868D01*
X50480535Y88783864D01*
X51059939Y88543275D01*
X51687308Y88542727D01*
X52267132Y88782305D01*
X52711136Y89225535D01*
X52951725Y89804939D01*
X52952273Y90432308D01*
X52712695Y91012132D01*
X52702000Y91022846D01*
X52702000Y92239002D01*
X53113452Y92649736D01*
X53392182Y93320993D01*
X53392816Y94047818D01*
X53115258Y94719560D01*
X52601764Y95233952D01*
X51930507Y95512682D01*
X51203682Y95513316D01*
X50531940Y95235758D01*
X50017548Y94722264D01*
X49987126Y94649000D01*
X48857933Y94649000D01*
X48355200Y94749000D01*
X48352400Y94749000D01*
X47849667Y94649000D01*
X45232500Y94649000D01*
X44810204Y94565000D01*
X43881250Y94565000D01*
X43722500Y94406250D01*
X43722500Y94290690D01*
X43737497Y94254485D01*
X43595530Y94046710D01*
X42079500Y95562740D01*
X42079500Y96237000D01*
X43514299Y96237000D01*
X43514299Y95687000D01*
X43571965Y95380532D01*
X43735928Y95125727D01*
X43722500Y95093310D01*
X43722500Y94977750D01*
X43881250Y94819000D01*
X45105500Y94819000D01*
X45105500Y94839000D01*
X45359500Y94839000D01*
X45359500Y94819000D01*
X46583750Y94819000D01*
X46742500Y94977750D01*
X46742500Y95093310D01*
X46727503Y95129515D01*
X46884269Y95358948D01*
X46950701Y95687000D01*
X46950701Y96237000D01*
X46893035Y96543468D01*
X46711913Y96824939D01*
X46435552Y97013769D01*
X46107500Y97080201D01*
X44357500Y97080201D01*
X44051032Y97022535D01*
X43769561Y96841413D01*
X43580731Y96565052D01*
X43514299Y96237000D01*
X42079500Y96237000D01*
X42079500Y98802799D01*
X43102500Y98802799D01*
X43408968Y98860465D01*
X43690439Y99041587D01*
X43879269Y99317948D01*
X43945701Y99646000D01*
X43945701Y100311750D01*
X49494000Y100311750D01*
X49494000Y98971190D01*
X49590673Y98737801D01*
X49769302Y98559173D01*
X50002691Y98462500D01*
X51343250Y98462500D01*
X51502000Y98621250D01*
X51502000Y100470500D01*
X51756000Y100470500D01*
X51756000Y98621250D01*
X51914750Y98462500D01*
X53255309Y98462500D01*
X53488698Y98559173D01*
X53667327Y98737801D01*
X53764000Y98971190D01*
X53764000Y100136662D01*
X54381597Y100136662D01*
X54735115Y99281082D01*
X55382000Y98633066D01*
X55382000Y94996219D01*
X55097548Y94712264D01*
X54818818Y94041007D01*
X54818184Y93314182D01*
X55095742Y92642440D01*
X55609236Y92128048D01*
X56280493Y91849318D01*
X57007318Y91848684D01*
X57679060Y92126242D01*
X58193452Y92639736D01*
X58472182Y93310993D01*
X58472816Y94037818D01*
X58195258Y94709560D01*
X58036000Y94869097D01*
X58036000Y98634179D01*
X58680585Y99277639D01*
X59035596Y100132600D01*
X59036182Y100805858D01*
X69521579Y100805858D01*
X69890290Y99913511D01*
X70572420Y99230189D01*
X71464122Y98859922D01*
X72429642Y98859079D01*
X73321989Y99227790D01*
X74005311Y99909920D01*
X74375578Y100801622D01*
X74376421Y101767142D01*
X74007710Y102659489D01*
X73325580Y103342811D01*
X72433878Y103713078D01*
X71468358Y103713921D01*
X70576011Y103345210D01*
X69892689Y102663080D01*
X69522422Y101771378D01*
X69521579Y100805858D01*
X59036182Y100805858D01*
X59036403Y101058338D01*
X58682885Y101913918D01*
X58028861Y102569085D01*
X57173900Y102924096D01*
X56248162Y102924903D01*
X55392582Y102571385D01*
X54737415Y101917361D01*
X54382404Y101062400D01*
X54381597Y100136662D01*
X53764000Y100136662D01*
X53764000Y100311750D01*
X53605250Y100470500D01*
X51756000Y100470500D01*
X51502000Y100470500D01*
X49652750Y100470500D01*
X49494000Y100311750D01*
X43945701Y100311750D01*
X43945701Y102223810D01*
X49494000Y102223810D01*
X49494000Y100883250D01*
X49652750Y100724500D01*
X51502000Y100724500D01*
X51502000Y102573750D01*
X51756000Y102573750D01*
X51756000Y100724500D01*
X53605250Y100724500D01*
X53764000Y100883250D01*
X53764000Y102223810D01*
X53667327Y102457199D01*
X53488698Y102635827D01*
X53255309Y102732500D01*
X51914750Y102732500D01*
X51756000Y102573750D01*
X51502000Y102573750D01*
X51343250Y102732500D01*
X50002691Y102732500D01*
X49769302Y102635827D01*
X49590673Y102457199D01*
X49494000Y102223810D01*
X43945701Y102223810D01*
X43945701Y102946000D01*
X43888035Y103252468D01*
X43706913Y103533939D01*
X43430552Y103722769D01*
X43102500Y103789201D01*
X38602500Y103789201D01*
X38296032Y103731535D01*
X38014561Y103550413D01*
X37825731Y103274052D01*
X37759299Y102946000D01*
X37759299Y101373739D01*
X31699961Y95314401D01*
X31092000Y95314401D01*
X30785532Y95256735D01*
X30504061Y95075613D01*
X30315231Y94799252D01*
X30248799Y94471200D01*
X30248799Y92454799D01*
X28606199Y94097399D01*
X28273016Y94320024D01*
X27880000Y94398200D01*
X27035201Y94398200D01*
X27035201Y94471200D01*
X26977535Y94777668D01*
X26796413Y95059139D01*
X26520052Y95247969D01*
X26192000Y95314401D01*
X24925598Y95314401D01*
X25304196Y95692999D01*
X25304199Y95693001D01*
X25526824Y96026184D01*
X25605000Y96419200D01*
X25605000Y101010250D01*
X29167500Y101010250D01*
X29167500Y99519691D01*
X29264173Y99286302D01*
X29442801Y99107673D01*
X29676190Y99011000D01*
X31766750Y99011000D01*
X31925500Y99169750D01*
X31925500Y101169000D01*
X32179500Y101169000D01*
X32179500Y99169750D01*
X32338250Y99011000D01*
X34428810Y99011000D01*
X34662199Y99107673D01*
X34840827Y99286302D01*
X34937500Y99519691D01*
X34937500Y101010250D01*
X34778750Y101169000D01*
X32179500Y101169000D01*
X31925500Y101169000D01*
X29326250Y101169000D01*
X29167500Y101010250D01*
X25605000Y101010250D01*
X25605000Y102667600D01*
X25526824Y103060616D01*
X25519012Y103072309D01*
X29167500Y103072309D01*
X29167500Y101581750D01*
X29326250Y101423000D01*
X31925500Y101423000D01*
X31925500Y103422250D01*
X32179500Y103422250D01*
X32179500Y101423000D01*
X34778750Y101423000D01*
X34937500Y101581750D01*
X34937500Y103072309D01*
X34840827Y103305698D01*
X34662199Y103484327D01*
X34428810Y103581000D01*
X32338250Y103581000D01*
X32179500Y103422250D01*
X31925500Y103422250D01*
X31766750Y103581000D01*
X29676190Y103581000D01*
X29442801Y103484327D01*
X29264173Y103305698D01*
X29167500Y103072309D01*
X25519012Y103072309D01*
X25304199Y103393799D01*
X24971016Y103616424D01*
X24578000Y103694600D01*
X24184984Y103616424D01*
X23851801Y103393799D01*
X23629176Y103060616D01*
X23551000Y102667600D01*
X23551000Y96844597D01*
X22365694Y95659291D01*
X21928892Y95659673D01*
X21349068Y95420095D01*
X21109233Y95180678D01*
X20962452Y95280969D01*
X20634400Y95347401D01*
X19134400Y95347401D01*
X18827932Y95289735D01*
X18546461Y95108613D01*
X18498380Y95038245D01*
X18494098Y95042527D01*
X18260709Y95139200D01*
X17670150Y95139200D01*
X17511400Y94980450D01*
X17257400Y94980450D01*
X17098650Y95139200D01*
X16508091Y95139200D01*
X16274702Y95042527D01*
X16096073Y94863899D01*
X15999400Y94630510D01*
X14573757Y94630510D01*
X14573757Y95200251D01*
X19178628Y99805122D01*
X19615429Y99804740D01*
X20195253Y100044318D01*
X20639257Y100487548D01*
X20879846Y101066952D01*
X20880394Y101694321D01*
X20640816Y102274145D01*
X20197586Y102718149D01*
X19618182Y102958738D01*
X19178410Y102959122D01*
X18734102Y103403430D01*
X18400919Y103626055D01*
X18007903Y103704231D01*
X15259449Y103704231D01*
X15259444Y103704232D01*
X14931635Y103639025D01*
X14866428Y103626055D01*
X14628409Y103467016D01*
X14533245Y103403430D01*
X13883245Y102753430D01*
X13694747Y102471322D01*
X13390493Y102776108D01*
X12811089Y103016697D01*
X12371317Y103017081D01*
X11588199Y103800199D01*
X11255016Y104022824D01*
X10862000Y104101000D01*
X9169096Y104101000D01*
X9144735Y104230468D01*
X8963613Y104511939D01*
X8687252Y104700769D01*
X8359200Y104767201D01*
X6659200Y104767201D01*
X6352732Y104709535D01*
X6071261Y104528413D01*
X5882431Y104252052D01*
X5815999Y103924000D01*
X5815999Y102224000D01*
X5873665Y101917532D01*
X6054787Y101636061D01*
X6178213Y101551727D01*
X5927000Y101175760D01*
X5799346Y100534000D01*
X5927000Y99892240D01*
X6290528Y99348182D01*
X6416515Y99264000D01*
X6290528Y99179818D01*
X5927000Y98635760D01*
X5799346Y97994000D01*
X5927000Y97352240D01*
X6290528Y96808182D01*
X6416515Y96724000D01*
X6290528Y96639818D01*
X5927000Y96095760D01*
X5799346Y95454000D01*
X5842061Y95239258D01*
X3300089Y92697287D01*
X3077464Y92364104D01*
X2999288Y91971088D01*
X-220159Y91971088D01*
X-272513Y105871012D01*
X81854089Y104599964D01*
X81854089Y104599964D01*
G37*
X81854089Y104599964D02*
X81313975Y30190200D01*
X65319600Y30190200D01*
X65019021Y30133642D01*
X64742957Y29956000D01*
X64557756Y29684949D01*
X64492600Y29363200D01*
X64492600Y28653997D01*
X59134935Y34011663D01*
X59333955Y34490958D01*
X59334503Y35118327D01*
X59232226Y35365858D01*
X69521579Y35365858D01*
X69890290Y34473511D01*
X70572420Y33790189D01*
X71464122Y33419922D01*
X72429642Y33419079D01*
X73321989Y33787790D01*
X74005311Y34469920D01*
X74375578Y35361622D01*
X74376421Y36327142D01*
X74007710Y37219489D01*
X73325580Y37902811D01*
X72433878Y38273078D01*
X71468358Y38273921D01*
X70576011Y37905210D01*
X69892689Y37223080D01*
X69522422Y36331378D01*
X69521579Y35365858D01*
X59232226Y35365858D01*
X59094925Y35698151D01*
X58651695Y36142155D01*
X58072291Y36382744D01*
X57444922Y36383292D01*
X56865098Y36143714D01*
X56421094Y35700484D01*
X56180505Y35121080D01*
X56179957Y34493711D01*
X56419535Y33913887D01*
X56848047Y33484626D01*
X57031031Y33210771D01*
X64492600Y25749203D01*
X64492600Y24626892D01*
X64380975Y24738516D01*
X64381357Y25175318D01*
X64141779Y25755142D01*
X63698549Y26199146D01*
X63119145Y26439735D01*
X62491776Y26440283D01*
X61911952Y26200705D01*
X61467948Y25757475D01*
X61275792Y25294710D01*
X61041627Y25861433D01*
X60598397Y26305437D01*
X60018993Y26546026D01*
X59391624Y26546574D01*
X58811800Y26306996D01*
X58499316Y25995057D01*
X58384004Y26110570D01*
X57804600Y26351159D01*
X57177231Y26351707D01*
X56597407Y26112129D01*
X56153403Y25668899D01*
X55912814Y25089495D01*
X55912266Y24462126D01*
X56151844Y23882302D01*
X56595074Y23438298D01*
X57174478Y23197709D01*
X57614250Y23197325D01*
X59881807Y20929768D01*
X58162714Y20929768D01*
X57769698Y20851592D01*
X57436515Y20628967D01*
X57436513Y20628964D01*
X57076789Y20269241D01*
X56854164Y19936058D01*
X56775988Y19543042D01*
X56775988Y13798399D01*
X56466852Y13489802D01*
X56226263Y12910398D01*
X56225715Y12283029D01*
X56465293Y11703205D01*
X56908523Y11259201D01*
X57487927Y11018612D01*
X58115296Y11018064D01*
X58695120Y11257642D01*
X59139124Y11700872D01*
X59379713Y12280276D01*
X59380261Y12907645D01*
X59140683Y13487469D01*
X58829988Y13798707D01*
X58829988Y16613208D01*
X59009448Y16538690D01*
X59449220Y16538306D01*
X61286523Y14701004D01*
X61286525Y14701001D01*
X61538354Y14532735D01*
X61619708Y14478376D01*
X62012724Y14400200D01*
X64492600Y14400200D01*
X64492600Y6858800D01*
X64548212Y6560657D01*
X64724981Y6284033D01*
X64995445Y6097976D01*
X65316987Y6031804D01*
X65528737Y6031135D01*
X65066612Y5569010D01*
X62110064Y5569010D01*
X61801467Y5878146D01*
X61222063Y6118735D01*
X60594694Y6119283D01*
X60014870Y5879705D01*
X59570866Y5436475D01*
X59330277Y4857071D01*
X59329729Y4229702D01*
X59569307Y3649878D01*
X60012537Y3205874D01*
X60591941Y2965285D01*
X61219310Y2964737D01*
X61799134Y3204315D01*
X62110372Y3515010D01*
X65492010Y3515010D01*
X65885026Y3593186D01*
X66218209Y3815811D01*
X68424384Y6021986D01*
X81138254Y5981816D01*
X81093919Y-126117D01*
X126523Y-73083D01*
X79603Y12384250D01*
X32081000Y12384250D01*
X32081000Y11793691D01*
X32177673Y11560302D01*
X32356301Y11381673D01*
X32589690Y11285000D01*
X33055250Y11285000D01*
X33214000Y11443750D01*
X33214000Y12543000D01*
X33468000Y12543000D01*
X33468000Y11443750D01*
X33626750Y11285000D01*
X34092310Y11285000D01*
X34325699Y11381673D01*
X34504327Y11560302D01*
X34601000Y11793691D01*
X34601000Y12384250D01*
X34442250Y12543000D01*
X33468000Y12543000D01*
X33214000Y12543000D01*
X32239750Y12543000D01*
X32081000Y12384250D01*
X79603Y12384250D01*
X20879Y27975474D01*
X10098142Y27975474D01*
X10119973Y27878343D01*
X10403627Y27364632D01*
X10862278Y26998575D01*
X11426100Y26835900D01*
X11687500Y26835900D01*
X11687500Y28207500D01*
X11941500Y28207500D01*
X11941500Y26835900D01*
X12202900Y26835900D01*
X12766722Y26998575D01*
X13225373Y27364632D01*
X13509027Y27878343D01*
X13530858Y27975474D01*
X13409717Y28207500D01*
X11941500Y28207500D01*
X11687500Y28207500D01*
X10219283Y28207500D01*
X10098142Y27975474D01*
X20879Y27975474D01*
X11313Y30515474D01*
X10098142Y30515474D01*
X10119973Y30418343D01*
X10403627Y29904632D01*
X10779677Y29604500D01*
X10403627Y29304368D01*
X10119973Y28790657D01*
X10098142Y28693526D01*
X10219283Y28461500D01*
X11687500Y28461500D01*
X11687500Y30747500D01*
X11941500Y30747500D01*
X11941500Y28461500D01*
X13409717Y28461500D01*
X13530858Y28693526D01*
X13509027Y28790657D01*
X13225373Y29304368D01*
X12849323Y29604500D01*
X13225373Y29904632D01*
X13509027Y30418343D01*
X13530858Y30515474D01*
X13409717Y30747500D01*
X11941500Y30747500D01*
X11687500Y30747500D01*
X10219283Y30747500D01*
X10098142Y30515474D01*
X11313Y30515474D01*
X-220159Y91971088D01*
X2999288Y91971088D01*
X2999288Y68881312D01*
X3077464Y68488296D01*
X3300089Y68155113D01*
X9870123Y61585080D01*
X9824258Y61354500D01*
X9952947Y60707535D01*
X10319423Y60159065D01*
X10431017Y60084500D01*
X10319423Y60009935D01*
X9952947Y59461465D01*
X9824258Y58814500D01*
X9952947Y58167535D01*
X10319423Y57619065D01*
X10431017Y57544500D01*
X10319423Y57469935D01*
X9952947Y56921465D01*
X9824258Y56274500D01*
X9952947Y55627535D01*
X10319423Y55079065D01*
X10431017Y55004500D01*
X10319423Y54929935D01*
X9952947Y54381465D01*
X9824258Y53734500D01*
X9952947Y53087535D01*
X10319423Y52539065D01*
X10431017Y52464500D01*
X10319423Y52389935D01*
X9952947Y51841465D01*
X9824258Y51194500D01*
X9952947Y50547535D01*
X10319423Y49999065D01*
X10431017Y49924500D01*
X10319423Y49849935D01*
X9952947Y49301465D01*
X9824258Y48654500D01*
X9892990Y48308962D01*
X9691301Y48174199D01*
X8992801Y47475699D01*
X8770176Y47142516D01*
X8692000Y46749500D01*
X8692000Y44145000D01*
X8770176Y43751984D01*
X8992801Y43418801D01*
X9563301Y42848301D01*
X9896484Y42625676D01*
X9961691Y42612706D01*
X10194214Y42566453D01*
X10319423Y42379065D01*
X10431017Y42304500D01*
X10319423Y42229935D01*
X9952947Y41681465D01*
X9824258Y41034500D01*
X9952947Y40387535D01*
X10319423Y39839065D01*
X10431017Y39764500D01*
X10319423Y39689935D01*
X9952947Y39141465D01*
X9824258Y38494500D01*
X9952947Y37847535D01*
X10319423Y37299065D01*
X10431017Y37224500D01*
X10319423Y37149935D01*
X9952947Y36601465D01*
X9824258Y35954500D01*
X9952947Y35307535D01*
X10319423Y34759065D01*
X10431017Y34684500D01*
X10383276Y34652600D01*
X6685585Y34652600D01*
X6676465Y34661736D01*
X6097061Y34902325D01*
X5469692Y34902873D01*
X4889868Y34663295D01*
X4445864Y34220065D01*
X4205275Y33640661D01*
X4204727Y33013292D01*
X4444305Y32433468D01*
X4887535Y31989464D01*
X5466939Y31748875D01*
X6094308Y31748327D01*
X6674132Y31987905D01*
X6684846Y31998600D01*
X10596872Y31998600D01*
X10403627Y31844368D01*
X10119973Y31330657D01*
X10098142Y31233526D01*
X10219283Y31001500D01*
X11687500Y31001500D01*
X11687500Y31021500D01*
X11941500Y31021500D01*
X11941500Y31001500D01*
X13409717Y31001500D01*
X13530858Y31233526D01*
X13509027Y31330657D01*
X13225373Y31844368D01*
X13008204Y32017694D01*
X13309577Y32219065D01*
X13422122Y32387500D01*
X13903702Y32387500D01*
X16947000Y29344202D01*
X16947000Y19203200D01*
X17025176Y18810184D01*
X17247801Y18477001D01*
X19432201Y16292601D01*
X19765384Y16069976D01*
X20158400Y15991800D01*
X31835800Y15991800D01*
X31889502Y16002482D01*
X31872799Y15920000D01*
X31872799Y14420000D01*
X31930465Y14113532D01*
X32111587Y13832061D01*
X32181955Y13783980D01*
X32177673Y13779698D01*
X32081000Y13546309D01*
X32081000Y12955750D01*
X32239750Y12797000D01*
X33214000Y12797000D01*
X33214000Y12817000D01*
X33468000Y12817000D01*
X33468000Y12797000D01*
X34442250Y12797000D01*
X34601000Y12955750D01*
X34601000Y13546309D01*
X34504327Y13779698D01*
X34501915Y13782110D01*
X34553939Y13815587D01*
X34742769Y14091948D01*
X34753107Y14143000D01*
X35602602Y14143000D01*
X36047800Y13697803D01*
X36047800Y9906800D01*
X36125976Y9513784D01*
X36348601Y9180601D01*
X37669399Y7859804D01*
X37669401Y7859801D01*
X38002584Y7637176D01*
X38395600Y7559000D01*
X40019563Y7559000D01*
X39989811Y7529300D01*
X39749222Y6949896D01*
X39748674Y6322527D01*
X39988252Y5742703D01*
X40431482Y5298699D01*
X41010886Y5058110D01*
X41450658Y5057726D01*
X42989954Y3518430D01*
X43323137Y3295805D01*
X43716153Y3217629D01*
X45309497Y3217629D01*
X45315042Y3188161D01*
X45496164Y2906690D01*
X45772525Y2717860D01*
X46100577Y2651428D01*
X47400577Y2651428D01*
X47597376Y2688458D01*
X47597376Y1528629D01*
X47655042Y1222161D01*
X47836164Y940690D01*
X48112525Y751860D01*
X48440577Y685428D01*
X50140577Y685428D01*
X50447045Y743094D01*
X50728516Y924216D01*
X50917346Y1200577D01*
X50983778Y1528629D01*
X50983778Y3025281D01*
X51180577Y2985428D01*
X52480577Y2985428D01*
X52787045Y3043094D01*
X53068516Y3224216D01*
X53115944Y3293629D01*
X53576827Y3293629D01*
X53735577Y3452379D01*
X53735577Y4551629D01*
X53989577Y4551629D01*
X53989577Y3452379D01*
X54148327Y3293629D01*
X54613887Y3293629D01*
X54847276Y3390302D01*
X55025904Y3568931D01*
X55122577Y3802320D01*
X55122577Y4392879D01*
X54963827Y4551629D01*
X53989577Y4551629D01*
X53735577Y4551629D01*
X53715577Y4551629D01*
X53715577Y4805629D01*
X53735577Y4805629D01*
X53735577Y4825629D01*
X53989577Y4825629D01*
X53989577Y4805629D01*
X54963827Y4805629D01*
X55122577Y4964379D01*
X55122577Y5554938D01*
X55025904Y5788327D01*
X55023492Y5790739D01*
X55075516Y5824216D01*
X55264346Y6100577D01*
X55330778Y6428629D01*
X55330778Y7928629D01*
X55273112Y8235097D01*
X55091990Y8516568D01*
X54815629Y8705398D01*
X54487577Y8771830D01*
X53237577Y8771830D01*
X52939769Y8715794D01*
X52808629Y8805398D01*
X52480577Y8871830D01*
X51180577Y8871830D01*
X50983778Y8834800D01*
X50983778Y10328629D01*
X50926112Y10635097D01*
X50789385Y10847576D01*
X50820122Y10999361D01*
X50820122Y12258164D01*
X51018118Y12456160D01*
X51808921Y12456160D01*
X52115389Y12513826D01*
X52396860Y12694948D01*
X52444288Y12764361D01*
X52905171Y12764361D01*
X53063921Y12923111D01*
X53063921Y14022361D01*
X53317921Y14022361D01*
X53317921Y12923111D01*
X53476671Y12764361D01*
X53942231Y12764361D01*
X54175620Y12861034D01*
X54354248Y13039663D01*
X54450921Y13273052D01*
X54450921Y13863611D01*
X54292171Y14022361D01*
X53317921Y14022361D01*
X53063921Y14022361D01*
X53043921Y14022361D01*
X53043921Y14276361D01*
X53063921Y14276361D01*
X53063921Y14296361D01*
X53317921Y14296361D01*
X53317921Y14276361D01*
X54292171Y14276361D01*
X54450921Y14435111D01*
X54450921Y15025670D01*
X54354248Y15259059D01*
X54351836Y15261471D01*
X54403860Y15294948D01*
X54592690Y15571309D01*
X54659122Y15899361D01*
X54659122Y17399361D01*
X54601456Y17705829D01*
X54420334Y17987300D01*
X54143973Y18176130D01*
X53815921Y18242562D01*
X52565921Y18242562D01*
X52268113Y18186526D01*
X52136973Y18276130D01*
X51808921Y18342562D01*
X51018118Y18342562D01*
X50820122Y18540558D01*
X50820122Y19799361D01*
X50762456Y20105829D01*
X50581334Y20387300D01*
X50379476Y20525224D01*
X50453667Y20633806D01*
X50520099Y20961858D01*
X50520099Y22458510D01*
X50716898Y22418657D01*
X52016898Y22418657D01*
X52323366Y22476323D01*
X52604837Y22657445D01*
X52652265Y22726858D01*
X53113148Y22726858D01*
X53271898Y22885608D01*
X53271898Y23984858D01*
X53525898Y23984858D01*
X53525898Y22885608D01*
X53684648Y22726858D01*
X54150208Y22726858D01*
X54383597Y22823531D01*
X54562225Y23002160D01*
X54658898Y23235549D01*
X54658898Y23826108D01*
X54500148Y23984858D01*
X53525898Y23984858D01*
X53271898Y23984858D01*
X53251898Y23984858D01*
X53251898Y24238858D01*
X53271898Y24238858D01*
X53271898Y24258858D01*
X53525898Y24258858D01*
X53525898Y24238858D01*
X54500148Y24238858D01*
X54658898Y24397608D01*
X54658898Y24988167D01*
X54562225Y25221556D01*
X54559813Y25223968D01*
X54611837Y25257445D01*
X54800667Y25533806D01*
X54867099Y25861858D01*
X54867099Y27361858D01*
X54809433Y27668326D01*
X54628311Y27949797D01*
X54351950Y28138627D01*
X54023898Y28205059D01*
X52773898Y28205059D01*
X52476090Y28149023D01*
X52344950Y28238627D01*
X52016898Y28305059D01*
X50716898Y28305059D01*
X50520099Y28268029D01*
X50520099Y29761858D01*
X50462433Y30068326D01*
X50393900Y30174829D01*
X50395190Y30176717D01*
X50461622Y30504769D01*
X50461622Y31127769D01*
X51020769Y31127769D01*
X51413785Y31205945D01*
X51746968Y31428570D01*
X52072397Y31753999D01*
X52863200Y31753999D01*
X53169668Y31811665D01*
X53451139Y31992787D01*
X53612314Y32228673D01*
X53646290Y32214600D01*
X54111850Y32214600D01*
X54270600Y32373350D01*
X54270600Y33472600D01*
X54524600Y33472600D01*
X54524600Y32373350D01*
X54683350Y32214600D01*
X55148910Y32214600D01*
X55382299Y32311273D01*
X55560927Y32489902D01*
X55657600Y32723291D01*
X55657600Y33313850D01*
X55498850Y33472600D01*
X54524600Y33472600D01*
X54270600Y33472600D01*
X54250600Y33472600D01*
X54250600Y33726600D01*
X54270600Y33726600D01*
X54270600Y33746600D01*
X54524600Y33746600D01*
X54524600Y33726600D01*
X55498850Y33726600D01*
X55657600Y33885350D01*
X55657600Y34475909D01*
X55560927Y34709298D01*
X55558515Y34711710D01*
X55610539Y34745187D01*
X55799369Y35021548D01*
X55865801Y35349600D01*
X55865801Y36849600D01*
X55808135Y37156068D01*
X55627013Y37437539D01*
X55350652Y37626369D01*
X55022600Y37692801D01*
X53772600Y37692801D01*
X53466132Y37635135D01*
X53278468Y37514376D01*
X53191252Y37573969D01*
X52863200Y37640401D01*
X52172397Y37640401D01*
X51431830Y38380968D01*
X51098647Y38603593D01*
X50705631Y38681769D01*
X50461622Y38681769D01*
X50461622Y39304769D01*
X50403956Y39611237D01*
X50222834Y39892708D01*
X49946473Y40081538D01*
X49618421Y40147970D01*
X47918421Y40147970D01*
X47611953Y40090304D01*
X47330482Y39909182D01*
X47141652Y39632821D01*
X47075220Y39304769D01*
X47075220Y38681769D01*
X41544555Y38681769D01*
X41544550Y38681770D01*
X41216741Y38616563D01*
X41151534Y38603593D01*
X40818351Y38380968D01*
X40818349Y38380965D01*
X32614801Y30177418D01*
X32392176Y29844235D01*
X32314000Y29451219D01*
X32314000Y24374891D01*
X32264231Y24302052D01*
X32197799Y23974000D01*
X32197799Y22919223D01*
X27464694Y22919223D01*
X27264709Y23119557D01*
X26685305Y23360146D01*
X26057936Y23360694D01*
X25478112Y23121116D01*
X25221270Y22864721D01*
X24982693Y23442122D01*
X24671998Y23753360D01*
X24671998Y26089605D01*
X24740799Y26020804D01*
X24740801Y26020801D01*
X25053543Y25811834D01*
X25073984Y25798176D01*
X25467000Y25720000D01*
X27656835Y25720000D01*
X28049851Y25798176D01*
X28383034Y26020801D01*
X43830679Y41468446D01*
X44062305Y40907868D01*
X44505535Y40463864D01*
X45084939Y40223275D01*
X45712308Y40222727D01*
X46292132Y40462305D01*
X46736136Y40905535D01*
X46916645Y41340250D01*
X75324500Y41340250D01*
X75324500Y40749691D01*
X75421173Y40516302D01*
X75599801Y40337673D01*
X75833190Y40241000D01*
X76298750Y40241000D01*
X76457500Y40399750D01*
X76457500Y41499000D01*
X76711500Y41499000D01*
X76711500Y40399750D01*
X76870250Y40241000D01*
X77335810Y40241000D01*
X77569199Y40337673D01*
X77747827Y40516302D01*
X77844500Y40749691D01*
X77844500Y41340250D01*
X77685750Y41499000D01*
X76711500Y41499000D01*
X76457500Y41499000D01*
X75483250Y41499000D01*
X75324500Y41340250D01*
X46916645Y41340250D01*
X46976725Y41484939D01*
X46977109Y41924711D01*
X47338684Y42286287D01*
X69878392Y42286287D01*
X69947857Y42044103D01*
X70471302Y41857356D01*
X71026368Y41885138D01*
X71410143Y42044103D01*
X71479608Y42286287D01*
X70679000Y43086895D01*
X69878392Y42286287D01*
X47338684Y42286287D01*
X48561897Y43509500D01*
X69282451Y43509500D01*
X69269856Y43474198D01*
X69297638Y42919132D01*
X69456603Y42535357D01*
X69698787Y42465892D01*
X70499395Y43266500D01*
X70485253Y43280642D01*
X70664858Y43460247D01*
X70679000Y43446105D01*
X70693143Y43460247D01*
X70872748Y43280642D01*
X70858605Y43266500D01*
X71659213Y42465892D01*
X71901397Y42535357D01*
X72088144Y43058802D01*
X72069101Y43439259D01*
X72317729Y43190197D01*
X72901542Y42947777D01*
X73533685Y42947225D01*
X74117920Y43188626D01*
X74439354Y43509500D01*
X75116299Y43509500D01*
X75116299Y43376000D01*
X75173965Y43069532D01*
X75355087Y42788061D01*
X75425455Y42739980D01*
X75421173Y42735698D01*
X75324500Y42502309D01*
X75324500Y41911750D01*
X75483250Y41753000D01*
X76457500Y41753000D01*
X76457500Y41773000D01*
X76711500Y41773000D01*
X76711500Y41753000D01*
X77685750Y41753000D01*
X77844500Y41911750D01*
X77844500Y42502309D01*
X77747827Y42735698D01*
X77745415Y42738110D01*
X77797439Y42771587D01*
X77986269Y43047948D01*
X78052701Y43376000D01*
X78052701Y44876000D01*
X77995035Y45182468D01*
X77813913Y45463939D01*
X77537552Y45652769D01*
X77209500Y45719201D01*
X75959500Y45719201D01*
X75653032Y45661535D01*
X75500682Y45563500D01*
X74439017Y45563500D01*
X74196186Y45806755D01*
X74565303Y46175229D01*
X74807723Y46759042D01*
X74808275Y47391185D01*
X74566874Y47975420D01*
X74196186Y48346755D01*
X74565303Y48715229D01*
X74807723Y49299042D01*
X74808275Y49931185D01*
X74566874Y50515420D01*
X74196186Y50886755D01*
X74565303Y51255229D01*
X74807723Y51839042D01*
X74808275Y52471185D01*
X74566874Y53055420D01*
X74546000Y53076330D01*
X74546000Y54482107D01*
X74444988Y54989928D01*
X74157331Y55420438D01*
X70940363Y58637406D01*
X71464122Y58419922D01*
X72429642Y58419079D01*
X73321989Y58787790D01*
X74005311Y59469920D01*
X74375578Y60361622D01*
X74376421Y61327142D01*
X74007710Y62219489D01*
X73325580Y62902811D01*
X72433878Y63273078D01*
X71468358Y63273921D01*
X70576011Y62905210D01*
X69892689Y62223080D01*
X69522422Y61331378D01*
X69521579Y60365858D01*
X69739627Y59838142D01*
X65148000Y64429769D01*
X65148000Y68354750D01*
X65457000Y68354750D01*
X65457000Y67764191D01*
X65553673Y67530802D01*
X65732301Y67352173D01*
X65965690Y67255500D01*
X66456250Y67255500D01*
X66615000Y67414250D01*
X66615000Y68513500D01*
X66869000Y68513500D01*
X66869000Y67414250D01*
X67027750Y67255500D01*
X67518310Y67255500D01*
X67751699Y67352173D01*
X67852250Y67452724D01*
X67852801Y67452173D01*
X68086190Y67355500D01*
X68551750Y67355500D01*
X68710500Y67514250D01*
X68710500Y68613500D01*
X68964500Y68613500D01*
X68964500Y67514250D01*
X69123250Y67355500D01*
X69588810Y67355500D01*
X69822199Y67452173D01*
X70000827Y67630802D01*
X70097500Y67864191D01*
X70097500Y68454750D01*
X69938750Y68613500D01*
X68964500Y68613500D01*
X68710500Y68613500D01*
X67736250Y68613500D01*
X67636250Y68513500D01*
X66869000Y68513500D01*
X66615000Y68513500D01*
X65615750Y68513500D01*
X65457000Y68354750D01*
X65148000Y68354750D01*
X65148000Y68974495D01*
X65148001Y68974500D01*
X65046988Y69482321D01*
X64759331Y69912831D01*
X63870331Y70801831D01*
X63439821Y71089488D01*
X62932000Y71190500D01*
X62444201Y71190500D01*
X62444201Y71376500D01*
X63450058Y71376500D01*
X64212257Y70614301D01*
X64545440Y70391676D01*
X64938456Y70313500D01*
X65300920Y70313500D01*
X65306465Y70284032D01*
X65487587Y70002561D01*
X65676771Y69873297D01*
X65553673Y69750198D01*
X65457000Y69516809D01*
X65457000Y68926250D01*
X65615750Y68767500D01*
X66615000Y68767500D01*
X66615000Y68787500D01*
X66869000Y68787500D01*
X66869000Y68767500D01*
X67868250Y68767500D01*
X67968250Y68867500D01*
X68710500Y68867500D01*
X68710500Y68887500D01*
X68964500Y68887500D01*
X68964500Y68867500D01*
X69938750Y68867500D01*
X70097500Y69026250D01*
X70097500Y69616809D01*
X70000827Y69850198D01*
X69998415Y69852610D01*
X70050439Y69886087D01*
X70239269Y70162448D01*
X70305701Y70490500D01*
X70305701Y71675400D01*
X70628605Y71675400D01*
X71570760Y70733244D01*
X71570502Y70437740D01*
X71810080Y69857916D01*
X72253310Y69413912D01*
X72832714Y69173323D01*
X73460083Y69172775D01*
X74039907Y69412353D01*
X74483911Y69855583D01*
X74724500Y70434987D01*
X74725048Y71062356D01*
X74485470Y71642180D01*
X74042240Y72086184D01*
X73462836Y72326773D01*
X73164608Y72327033D01*
X71892332Y73599309D01*
X71526707Y73843612D01*
X71095423Y73929400D01*
X67094619Y73929400D01*
X66845219Y74178800D01*
X67242709Y74178800D01*
X67476098Y74275473D01*
X67654727Y74454101D01*
X67751400Y74687490D01*
X67751400Y75153050D01*
X67592650Y75311800D01*
X66493400Y75311800D01*
X66493400Y75291800D01*
X66239400Y75291800D01*
X66239400Y75311800D01*
X66219400Y75311800D01*
X66219400Y75565800D01*
X66239400Y75565800D01*
X66239400Y75585800D01*
X66493400Y75585800D01*
X66493400Y75565800D01*
X67592650Y75565800D01*
X67751400Y75724550D01*
X67751400Y75805858D01*
X69521579Y75805858D01*
X69890290Y74913511D01*
X70572420Y74230189D01*
X71464122Y73859922D01*
X72429642Y73859079D01*
X73321989Y74227790D01*
X74005311Y74909920D01*
X74375578Y75801622D01*
X74376421Y76767142D01*
X74007710Y77659489D01*
X73325580Y78342811D01*
X72433878Y78713078D01*
X71468358Y78713921D01*
X70576011Y78345210D01*
X69892689Y77663080D01*
X69522422Y76771378D01*
X69521579Y75805858D01*
X67751400Y75805858D01*
X67751400Y76148275D01*
X67830098Y76180873D01*
X68008727Y76359501D01*
X68105400Y76592890D01*
X68105400Y77083450D01*
X67946650Y77242200D01*
X66847400Y77242200D01*
X66847400Y77222200D01*
X66593400Y77222200D01*
X66593400Y77242200D01*
X66573400Y77242200D01*
X66573400Y77496200D01*
X66593400Y77496200D01*
X66593400Y77516200D01*
X66847400Y77516200D01*
X66847400Y77496200D01*
X67946650Y77496200D01*
X68105400Y77654950D01*
X68105400Y78145510D01*
X68008727Y78378899D01*
X67830098Y78557527D01*
X67782120Y78577400D01*
X68924530Y78577400D01*
X69317546Y78655576D01*
X69650729Y78878201D01*
X72709277Y81936750D01*
X74689500Y81936750D01*
X74689500Y81346191D01*
X74786173Y81112802D01*
X74964801Y80934173D01*
X75198190Y80837500D01*
X75663750Y80837500D01*
X75822500Y80996250D01*
X75822500Y82095500D01*
X76076500Y82095500D01*
X76076500Y80996250D01*
X76235250Y80837500D01*
X76700810Y80837500D01*
X76934199Y80934173D01*
X77112827Y81112802D01*
X77209500Y81346191D01*
X77209500Y81936750D01*
X77050750Y82095500D01*
X76076500Y82095500D01*
X75822500Y82095500D01*
X74848250Y82095500D01*
X74689500Y81936750D01*
X72709277Y81936750D01*
X73945196Y83172669D01*
X73945199Y83172671D01*
X74167824Y83505854D01*
X74188043Y83607500D01*
X74210661Y83721205D01*
X74439354Y83949500D01*
X74485627Y83949500D01*
X74538965Y83666032D01*
X74720087Y83384561D01*
X74790455Y83336480D01*
X74786173Y83332198D01*
X74689500Y83098809D01*
X74689500Y82508250D01*
X74848250Y82349500D01*
X75822500Y82349500D01*
X75822500Y82369500D01*
X76076500Y82369500D01*
X76076500Y82349500D01*
X77050750Y82349500D01*
X77209500Y82508250D01*
X77209500Y83098809D01*
X77112827Y83332198D01*
X77110415Y83334610D01*
X77162439Y83368087D01*
X77351269Y83644448D01*
X77417701Y83972500D01*
X77417701Y85472500D01*
X77360035Y85778968D01*
X77178913Y86060439D01*
X76902552Y86249269D01*
X76574500Y86315701D01*
X75324500Y86315701D01*
X75018032Y86258035D01*
X74736561Y86076913D01*
X74686400Y86003500D01*
X74439017Y86003500D01*
X74196186Y86246755D01*
X74565303Y86615229D01*
X74807723Y87199042D01*
X74808275Y87831185D01*
X74566874Y88415420D01*
X74196186Y88786755D01*
X74474871Y89064954D01*
X74689646Y89107676D01*
X75022829Y89330301D01*
X76929696Y91237169D01*
X76929699Y91237171D01*
X77152324Y91570354D01*
X77230500Y91963370D01*
X77230500Y96343000D01*
X77152324Y96736016D01*
X76929699Y97069199D01*
X76929696Y97069201D01*
X75598472Y98400426D01*
X75265289Y98623051D01*
X74872273Y98701227D01*
X68327227Y98701227D01*
X67934211Y98623051D01*
X67601028Y98400426D01*
X53652689Y84452087D01*
X29059087Y84452087D01*
X28666071Y84373911D01*
X28332888Y84151286D01*
X22681008Y78499406D01*
X22681008Y85346959D01*
X22990144Y85655556D01*
X23230733Y86234960D01*
X23230752Y86256643D01*
X23502773Y85984147D01*
X24082177Y85743558D01*
X24709546Y85743010D01*
X25289370Y85982588D01*
X25733374Y86425818D01*
X25973963Y87005222D01*
X25974511Y87632591D01*
X25734933Y88212415D01*
X25291703Y88656419D01*
X24712299Y88897008D01*
X24222348Y88897436D01*
X24040255Y89019106D01*
X23647239Y89097282D01*
X21324270Y89097282D01*
X21324265Y89097283D01*
X20996456Y89032076D01*
X20931249Y89019106D01*
X20598066Y88796481D01*
X20598064Y88796478D01*
X19677807Y87876222D01*
X19455182Y87543039D01*
X19377006Y87150023D01*
X19377007Y78407870D01*
X16437877Y75468740D01*
X16437877Y80552748D01*
X16512191Y80627062D01*
X16948993Y80626680D01*
X17528817Y80866258D01*
X17972821Y81309488D01*
X18213410Y81888892D01*
X18213958Y82516261D01*
X17974380Y83096085D01*
X17531150Y83540089D01*
X17083188Y83726099D01*
X17630208Y84273119D01*
X18067009Y84272737D01*
X18646833Y84512315D01*
X19090837Y84955545D01*
X19331426Y85534949D01*
X19331974Y86162318D01*
X19092396Y86742142D01*
X18649166Y87186146D01*
X18069762Y87426735D01*
X17442393Y87427283D01*
X16862569Y87187705D01*
X16418565Y86744475D01*
X16177976Y86165071D01*
X16177592Y85725299D01*
X14573757Y84121464D01*
X14573757Y93593450D01*
X15999400Y93593450D01*
X15999400Y93127890D01*
X16096073Y92894501D01*
X16274702Y92715873D01*
X16508091Y92619200D01*
X17098650Y92619200D01*
X17257400Y92777950D01*
X17257400Y93752200D01*
X16158150Y93752200D01*
X15999400Y93593450D01*
X14573757Y93593450D01*
X14573757Y94630510D01*
X15999400Y94630510D01*
X15999400Y94164950D01*
X16158150Y94006200D01*
X17257400Y94006200D01*
X17257400Y94980450D01*
X17511400Y94980450D01*
X17511400Y94006200D01*
X17531400Y94006200D01*
X17531400Y93752200D01*
X17511400Y93752200D01*
X17511400Y92777950D01*
X17670150Y92619200D01*
X18260709Y92619200D01*
X18494098Y92715873D01*
X18496510Y92718285D01*
X18529987Y92666261D01*
X18806348Y92477431D01*
X19134400Y92410999D01*
X20634400Y92410999D01*
X20940868Y92468665D01*
X21222339Y92649787D01*
X21312020Y92781039D01*
X21346735Y92746264D01*
X21926139Y92505675D01*
X22553508Y92505127D01*
X23133332Y92744705D01*
X23244220Y92855400D01*
X23848799Y92855400D01*
X23848799Y92271200D01*
X23906465Y91964732D01*
X24087587Y91683261D01*
X24363948Y91494431D01*
X24692000Y91427999D01*
X26192000Y91427999D01*
X26498468Y91485665D01*
X26779939Y91666787D01*
X26968769Y91943148D01*
X27035201Y92271200D01*
X27035201Y92344200D01*
X27454602Y92344200D01*
X31979799Y87819004D01*
X31979801Y87819001D01*
X32312984Y87596376D01*
X32378191Y87583406D01*
X32706000Y87518199D01*
X32706005Y87518200D01*
X32997340Y87518200D01*
X33100387Y87358061D01*
X33376748Y87169231D01*
X33704800Y87102799D01*
X35204800Y87102799D01*
X35511268Y87160465D01*
X35792739Y87341587D01*
X35802847Y87356380D01*
X36076748Y87169231D01*
X36404800Y87102799D01*
X37904800Y87102799D01*
X38211268Y87160465D01*
X38492739Y87341587D01*
X38637985Y87554160D01*
X38712588Y87569000D01*
X39568651Y87569000D01*
X39704387Y87358061D01*
X39980748Y87169231D01*
X40308800Y87102799D01*
X41808800Y87102799D01*
X42115268Y87160465D01*
X42396739Y87341587D01*
X42526003Y87530771D01*
X42649102Y87407673D01*
X42882491Y87311000D01*
X43473050Y87311000D01*
X43631800Y87469750D01*
X43631800Y88469000D01*
X43885800Y88469000D01*
X43885800Y87469750D01*
X44044550Y87311000D01*
X44635109Y87311000D01*
X44868498Y87407673D01*
X45047127Y87586301D01*
X45143800Y87819690D01*
X45143800Y88310250D01*
X44985050Y88469000D01*
X43885800Y88469000D01*
X43631800Y88469000D01*
X43611800Y88469000D01*
X43611800Y88723000D01*
X43631800Y88723000D01*
X43631800Y89722250D01*
X43885800Y89722250D01*
X43885800Y88723000D01*
X44985050Y88723000D01*
X45049500Y88787450D01*
X47194000Y88787450D01*
X47194000Y88196891D01*
X47290673Y87963502D01*
X47469301Y87784873D01*
X47702690Y87688200D01*
X48168250Y87688200D01*
X48327000Y87846950D01*
X48327000Y88946200D01*
X48581000Y88946200D01*
X48581000Y87846950D01*
X48739750Y87688200D01*
X49205310Y87688200D01*
X49438699Y87784873D01*
X49617327Y87963502D01*
X49714000Y88196891D01*
X49714000Y88787450D01*
X49555250Y88946200D01*
X48581000Y88946200D01*
X48327000Y88946200D01*
X47352750Y88946200D01*
X47194000Y88787450D01*
X45049500Y88787450D01*
X45143800Y88881750D01*
X45143800Y89372310D01*
X45047127Y89605699D01*
X44868498Y89784327D01*
X44635109Y89881000D01*
X44044550Y89881000D01*
X43885800Y89722250D01*
X43631800Y89722250D01*
X43473050Y89881000D01*
X42882491Y89881000D01*
X42649102Y89784327D01*
X42524997Y89660222D01*
X42413213Y89833939D01*
X42136852Y90022769D01*
X41808800Y90089201D01*
X40845000Y90089201D01*
X40845000Y93326760D01*
X42344158Y91827602D01*
X42360400Y91745947D01*
X42492031Y91548948D01*
X42626380Y91347880D01*
X42689880Y91284380D01*
X43087948Y91018399D01*
X43557500Y90925000D01*
X45232500Y90925000D01*
X45702053Y91018400D01*
X45725099Y91033799D01*
X46107500Y91033799D01*
X46413968Y91091465D01*
X46695439Y91272587D01*
X46884269Y91548948D01*
X46950701Y91877000D01*
X46950701Y92195000D01*
X46985799Y92195000D01*
X46985799Y90823200D01*
X47043465Y90516732D01*
X47224587Y90235261D01*
X47294955Y90187180D01*
X47290673Y90182898D01*
X47194000Y89949509D01*
X47194000Y89358950D01*
X47352750Y89200200D01*
X48327000Y89200200D01*
X48327000Y89220200D01*
X48581000Y89220200D01*
X48581000Y89200200D01*
X49555250Y89200200D01*
X49714000Y89358950D01*
X49714000Y89949509D01*
X49617327Y90182898D01*
X49614915Y90185310D01*
X49666939Y90218787D01*
X49798254Y90410972D01*
X49797727Y89807692D01*
X50037305Y89227868D01*
X50480535Y88783864D01*
X51059939Y88543275D01*
X51687308Y88542727D01*
X52267132Y88782305D01*
X52711136Y89225535D01*
X52951725Y89804939D01*
X52952273Y90432308D01*
X52712695Y91012132D01*
X52702000Y91022846D01*
X52702000Y92239002D01*
X53113452Y92649736D01*
X53392182Y93320993D01*
X53392816Y94047818D01*
X53115258Y94719560D01*
X52601764Y95233952D01*
X51930507Y95512682D01*
X51203682Y95513316D01*
X50531940Y95235758D01*
X50017548Y94722264D01*
X49987126Y94649000D01*
X48857933Y94649000D01*
X48355200Y94749000D01*
X48352400Y94749000D01*
X47849667Y94649000D01*
X45232500Y94649000D01*
X44810204Y94565000D01*
X43881250Y94565000D01*
X43722500Y94406250D01*
X43722500Y94290690D01*
X43737497Y94254485D01*
X43595530Y94046710D01*
X42079500Y95562740D01*
X42079500Y96237000D01*
X43514299Y96237000D01*
X43514299Y95687000D01*
X43571965Y95380532D01*
X43735928Y95125727D01*
X43722500Y95093310D01*
X43722500Y94977750D01*
X43881250Y94819000D01*
X45105500Y94819000D01*
X45105500Y94839000D01*
X45359500Y94839000D01*
X45359500Y94819000D01*
X46583750Y94819000D01*
X46742500Y94977750D01*
X46742500Y95093310D01*
X46727503Y95129515D01*
X46884269Y95358948D01*
X46950701Y95687000D01*
X46950701Y96237000D01*
X46893035Y96543468D01*
X46711913Y96824939D01*
X46435552Y97013769D01*
X46107500Y97080201D01*
X44357500Y97080201D01*
X44051032Y97022535D01*
X43769561Y96841413D01*
X43580731Y96565052D01*
X43514299Y96237000D01*
X42079500Y96237000D01*
X42079500Y98802799D01*
X43102500Y98802799D01*
X43408968Y98860465D01*
X43690439Y99041587D01*
X43879269Y99317948D01*
X43945701Y99646000D01*
X43945701Y100311750D01*
X49494000Y100311750D01*
X49494000Y98971190D01*
X49590673Y98737801D01*
X49769302Y98559173D01*
X50002691Y98462500D01*
X51343250Y98462500D01*
X51502000Y98621250D01*
X51502000Y100470500D01*
X51756000Y100470500D01*
X51756000Y98621250D01*
X51914750Y98462500D01*
X53255309Y98462500D01*
X53488698Y98559173D01*
X53667327Y98737801D01*
X53764000Y98971190D01*
X53764000Y100136662D01*
X54381597Y100136662D01*
X54735115Y99281082D01*
X55382000Y98633066D01*
X55382000Y94996219D01*
X55097548Y94712264D01*
X54818818Y94041007D01*
X54818184Y93314182D01*
X55095742Y92642440D01*
X55609236Y92128048D01*
X56280493Y91849318D01*
X57007318Y91848684D01*
X57679060Y92126242D01*
X58193452Y92639736D01*
X58472182Y93310993D01*
X58472816Y94037818D01*
X58195258Y94709560D01*
X58036000Y94869097D01*
X58036000Y98634179D01*
X58680585Y99277639D01*
X59035596Y100132600D01*
X59036182Y100805858D01*
X69521579Y100805858D01*
X69890290Y99913511D01*
X70572420Y99230189D01*
X71464122Y98859922D01*
X72429642Y98859079D01*
X73321989Y99227790D01*
X74005311Y99909920D01*
X74375578Y100801622D01*
X74376421Y101767142D01*
X74007710Y102659489D01*
X73325580Y103342811D01*
X72433878Y103713078D01*
X71468358Y103713921D01*
X70576011Y103345210D01*
X69892689Y102663080D01*
X69522422Y101771378D01*
X69521579Y100805858D01*
X59036182Y100805858D01*
X59036403Y101058338D01*
X58682885Y101913918D01*
X58028861Y102569085D01*
X57173900Y102924096D01*
X56248162Y102924903D01*
X55392582Y102571385D01*
X54737415Y101917361D01*
X54382404Y101062400D01*
X54381597Y100136662D01*
X53764000Y100136662D01*
X53764000Y100311750D01*
X53605250Y100470500D01*
X51756000Y100470500D01*
X51502000Y100470500D01*
X49652750Y100470500D01*
X49494000Y100311750D01*
X43945701Y100311750D01*
X43945701Y102223810D01*
X49494000Y102223810D01*
X49494000Y100883250D01*
X49652750Y100724500D01*
X51502000Y100724500D01*
X51502000Y102573750D01*
X51756000Y102573750D01*
X51756000Y100724500D01*
X53605250Y100724500D01*
X53764000Y100883250D01*
X53764000Y102223810D01*
X53667327Y102457199D01*
X53488698Y102635827D01*
X53255309Y102732500D01*
X51914750Y102732500D01*
X51756000Y102573750D01*
X51502000Y102573750D01*
X51343250Y102732500D01*
X50002691Y102732500D01*
X49769302Y102635827D01*
X49590673Y102457199D01*
X49494000Y102223810D01*
X43945701Y102223810D01*
X43945701Y102946000D01*
X43888035Y103252468D01*
X43706913Y103533939D01*
X43430552Y103722769D01*
X43102500Y103789201D01*
X38602500Y103789201D01*
X38296032Y103731535D01*
X38014561Y103550413D01*
X37825731Y103274052D01*
X37759299Y102946000D01*
X37759299Y101373739D01*
X31699961Y95314401D01*
X31092000Y95314401D01*
X30785532Y95256735D01*
X30504061Y95075613D01*
X30315231Y94799252D01*
X30248799Y94471200D01*
X30248799Y92454799D01*
X28606199Y94097399D01*
X28273016Y94320024D01*
X27880000Y94398200D01*
X27035201Y94398200D01*
X27035201Y94471200D01*
X26977535Y94777668D01*
X26796413Y95059139D01*
X26520052Y95247969D01*
X26192000Y95314401D01*
X24925598Y95314401D01*
X25304196Y95692999D01*
X25304199Y95693001D01*
X25526824Y96026184D01*
X25605000Y96419200D01*
X25605000Y101010250D01*
X29167500Y101010250D01*
X29167500Y99519691D01*
X29264173Y99286302D01*
X29442801Y99107673D01*
X29676190Y99011000D01*
X31766750Y99011000D01*
X31925500Y99169750D01*
X31925500Y101169000D01*
X32179500Y101169000D01*
X32179500Y99169750D01*
X32338250Y99011000D01*
X34428810Y99011000D01*
X34662199Y99107673D01*
X34840827Y99286302D01*
X34937500Y99519691D01*
X34937500Y101010250D01*
X34778750Y101169000D01*
X32179500Y101169000D01*
X31925500Y101169000D01*
X29326250Y101169000D01*
X29167500Y101010250D01*
X25605000Y101010250D01*
X25605000Y102667600D01*
X25526824Y103060616D01*
X25519012Y103072309D01*
X29167500Y103072309D01*
X29167500Y101581750D01*
X29326250Y101423000D01*
X31925500Y101423000D01*
X31925500Y103422250D01*
X32179500Y103422250D01*
X32179500Y101423000D01*
X34778750Y101423000D01*
X34937500Y101581750D01*
X34937500Y103072309D01*
X34840827Y103305698D01*
X34662199Y103484327D01*
X34428810Y103581000D01*
X32338250Y103581000D01*
X32179500Y103422250D01*
X31925500Y103422250D01*
X31766750Y103581000D01*
X29676190Y103581000D01*
X29442801Y103484327D01*
X29264173Y103305698D01*
X29167500Y103072309D01*
X25519012Y103072309D01*
X25304199Y103393799D01*
X24971016Y103616424D01*
X24578000Y103694600D01*
X24184984Y103616424D01*
X23851801Y103393799D01*
X23629176Y103060616D01*
X23551000Y102667600D01*
X23551000Y96844597D01*
X22365694Y95659291D01*
X21928892Y95659673D01*
X21349068Y95420095D01*
X21109233Y95180678D01*
X20962452Y95280969D01*
X20634400Y95347401D01*
X19134400Y95347401D01*
X18827932Y95289735D01*
X18546461Y95108613D01*
X18498380Y95038245D01*
X18494098Y95042527D01*
X18260709Y95139200D01*
X17670150Y95139200D01*
X17511400Y94980450D01*
X17257400Y94980450D01*
X17098650Y95139200D01*
X16508091Y95139200D01*
X16274702Y95042527D01*
X16096073Y94863899D01*
X15999400Y94630510D01*
X14573757Y94630510D01*
X14573757Y95200251D01*
X19178628Y99805122D01*
X19615429Y99804740D01*
X20195253Y100044318D01*
X20639257Y100487548D01*
X20879846Y101066952D01*
X20880394Y101694321D01*
X20640816Y102274145D01*
X20197586Y102718149D01*
X19618182Y102958738D01*
X19178410Y102959122D01*
X18734102Y103403430D01*
X18400919Y103626055D01*
X18007903Y103704231D01*
X15259449Y103704231D01*
X15259444Y103704232D01*
X14931635Y103639025D01*
X14866428Y103626055D01*
X14628409Y103467016D01*
X14533245Y103403430D01*
X13883245Y102753430D01*
X13694747Y102471322D01*
X13390493Y102776108D01*
X12811089Y103016697D01*
X12371317Y103017081D01*
X11588199Y103800199D01*
X11255016Y104022824D01*
X10862000Y104101000D01*
X9169096Y104101000D01*
X9144735Y104230468D01*
X8963613Y104511939D01*
X8687252Y104700769D01*
X8359200Y104767201D01*
X6659200Y104767201D01*
X6352732Y104709535D01*
X6071261Y104528413D01*
X5882431Y104252052D01*
X5815999Y103924000D01*
X5815999Y102224000D01*
X5873665Y101917532D01*
X6054787Y101636061D01*
X6178213Y101551727D01*
X5927000Y101175760D01*
X5799346Y100534000D01*
X5927000Y99892240D01*
X6290528Y99348182D01*
X6416515Y99264000D01*
X6290528Y99179818D01*
X5927000Y98635760D01*
X5799346Y97994000D01*
X5927000Y97352240D01*
X6290528Y96808182D01*
X6416515Y96724000D01*
X6290528Y96639818D01*
X5927000Y96095760D01*
X5799346Y95454000D01*
X5842061Y95239258D01*
X3300089Y92697287D01*
X3077464Y92364104D01*
X2999288Y91971088D01*
X-220159Y91971088D01*
X-272513Y105871012D01*
X81854089Y104599964D01*
G36*
X47433720Y19190164D02*
X47433720Y16499361D01*
X47491386Y16192893D01*
X47672508Y15911422D01*
X47948869Y15722592D01*
X48276921Y15656160D01*
X49747023Y15656160D01*
X49904508Y15411422D01*
X49919301Y15401314D01*
X49742503Y15142562D01*
X48276921Y15142562D01*
X47970453Y15084896D01*
X47688982Y14903774D01*
X47500152Y14627413D01*
X47493604Y14595076D01*
X47313120Y14775560D01*
X46979937Y14998185D01*
X46643186Y15065169D01*
X46635535Y15105829D01*
X46454413Y15387300D01*
X46439620Y15397408D01*
X46626769Y15671309D01*
X46693201Y15999361D01*
X46693201Y17499361D01*
X46635535Y17805829D01*
X46454413Y18087300D01*
X46178052Y18276130D01*
X45850000Y18342562D01*
X44550000Y18342562D01*
X44243532Y18284896D01*
X43962061Y18103774D01*
X43773231Y17827413D01*
X43762893Y17776361D01*
X42749361Y17776361D01*
X42356345Y17698185D01*
X42104201Y17529708D01*
X42104201Y18574000D01*
X42046535Y18880468D01*
X41988000Y18971434D01*
X41988000Y18973995D01*
X41988001Y18974000D01*
X41909824Y19367016D01*
X41687199Y19700199D01*
X41286592Y20100806D01*
X40953409Y20323431D01*
X40560393Y20401607D01*
X39471005Y20401607D01*
X40417199Y21347801D01*
X40639824Y21680984D01*
X40671255Y21839000D01*
X40675250Y21839000D01*
X40834000Y21997750D01*
X40834000Y22473007D01*
X40834201Y22474000D01*
X40834201Y23097000D01*
X41088000Y23097000D01*
X41088000Y21997750D01*
X41246750Y21839000D01*
X41387310Y21839000D01*
X41620699Y21935673D01*
X41799327Y22114302D01*
X41896000Y22347691D01*
X41896000Y22938250D01*
X41737250Y23097000D01*
X41088000Y23097000D01*
X40834201Y23097000D01*
X40834201Y23371000D01*
X41088000Y23371000D01*
X41088000Y23351000D01*
X41737250Y23351000D01*
X41896000Y23509750D01*
X41896000Y24100309D01*
X41882666Y24132500D01*
X42491384Y24132500D01*
X47433720Y19190164D01*
X47433720Y19190164D01*
G37*
X47433720Y19190164D02*
X47433720Y16499361D01*
X47491386Y16192893D01*
X47672508Y15911422D01*
X47948869Y15722592D01*
X48276921Y15656160D01*
X49747023Y15656160D01*
X49904508Y15411422D01*
X49919301Y15401314D01*
X49742503Y15142562D01*
X48276921Y15142562D01*
X47970453Y15084896D01*
X47688982Y14903774D01*
X47500152Y14627413D01*
X47493604Y14595076D01*
X47313120Y14775560D01*
X46979937Y14998185D01*
X46643186Y15065169D01*
X46635535Y15105829D01*
X46454413Y15387300D01*
X46439620Y15397408D01*
X46626769Y15671309D01*
X46693201Y15999361D01*
X46693201Y17499361D01*
X46635535Y17805829D01*
X46454413Y18087300D01*
X46178052Y18276130D01*
X45850000Y18342562D01*
X44550000Y18342562D01*
X44243532Y18284896D01*
X43962061Y18103774D01*
X43773231Y17827413D01*
X43762893Y17776361D01*
X42749361Y17776361D01*
X42356345Y17698185D01*
X42104201Y17529708D01*
X42104201Y18574000D01*
X42046535Y18880468D01*
X41988000Y18971434D01*
X41988000Y18973995D01*
X41988001Y18974000D01*
X41909824Y19367016D01*
X41687199Y19700199D01*
X41286592Y20100806D01*
X40953409Y20323431D01*
X40560393Y20401607D01*
X39471005Y20401607D01*
X40417199Y21347801D01*
X40639824Y21680984D01*
X40671255Y21839000D01*
X40675250Y21839000D01*
X40834000Y21997750D01*
X40834000Y22473007D01*
X40834201Y22474000D01*
X40834201Y23097000D01*
X41088000Y23097000D01*
X41088000Y21997750D01*
X41246750Y21839000D01*
X41387310Y21839000D01*
X41620699Y21935673D01*
X41799327Y22114302D01*
X41896000Y22347691D01*
X41896000Y22938250D01*
X41737250Y23097000D01*
X41088000Y23097000D01*
X40834201Y23097000D01*
X40834201Y23371000D01*
X41088000Y23371000D01*
X41088000Y23351000D01*
X41737250Y23351000D01*
X41896000Y23509750D01*
X41896000Y24100309D01*
X41882666Y24132500D01*
X42491384Y24132500D01*
X47433720Y19190164D01*
G36*
X25009800Y72944200D02*
X25029800Y72944200D01*
X25029800Y72690200D01*
X25009800Y72690200D01*
X25009800Y71590950D01*
X25067907Y71532843D01*
X25064258Y71514500D01*
X25192947Y70867535D01*
X25559423Y70319065D01*
X25671017Y70244500D01*
X25559423Y70169935D01*
X25192947Y69621465D01*
X25064258Y68974500D01*
X25192947Y68327535D01*
X25559423Y67779065D01*
X25671017Y67704500D01*
X25559423Y67629935D01*
X25192947Y67081465D01*
X25064258Y66434500D01*
X25192947Y65787535D01*
X25559423Y65239065D01*
X25671017Y65164500D01*
X25559423Y65089935D01*
X25192947Y64541465D01*
X25064258Y63894500D01*
X25192947Y63247535D01*
X25559423Y62699065D01*
X25671017Y62624500D01*
X25559423Y62549935D01*
X25192947Y62001465D01*
X25064258Y61354500D01*
X25192947Y60707535D01*
X25559423Y60159065D01*
X25671017Y60084500D01*
X25559423Y60009935D01*
X25192947Y59461465D01*
X25064258Y58814500D01*
X25192947Y58167535D01*
X25559423Y57619065D01*
X25671017Y57544500D01*
X25559423Y57469935D01*
X25192947Y56921465D01*
X25064258Y56274500D01*
X25192947Y55627535D01*
X25559423Y55079065D01*
X25671017Y55004500D01*
X25559423Y54929935D01*
X25192947Y54381465D01*
X25064258Y53734500D01*
X25192947Y53087535D01*
X25559423Y52539065D01*
X25671017Y52464500D01*
X25559423Y52389935D01*
X25192947Y51841465D01*
X25064258Y51194500D01*
X25192947Y50547535D01*
X25559423Y49999065D01*
X25671017Y49924500D01*
X25559423Y49849935D01*
X25446878Y49681500D01*
X22800005Y49681500D01*
X22800000Y49681501D01*
X22406984Y49603324D01*
X22073801Y49380699D01*
X21184801Y48491699D01*
X20962176Y48158516D01*
X20884000Y47765500D01*
X20884000Y47444562D01*
X20574864Y47135965D01*
X20334275Y46556561D01*
X20333727Y45929192D01*
X20573305Y45349368D01*
X21016535Y44905364D01*
X21595939Y44664775D01*
X22223308Y44664227D01*
X22803132Y44903805D01*
X23247136Y45347035D01*
X23487725Y45926439D01*
X23488273Y46553808D01*
X23248695Y47133632D01*
X22990338Y47392440D01*
X23225398Y47627500D01*
X25446878Y47627500D01*
X25559423Y47459065D01*
X25671017Y47384500D01*
X25559423Y47309935D01*
X25192947Y46761465D01*
X25064258Y46114500D01*
X25110123Y45883921D01*
X19851809Y40625607D01*
X20072929Y41158124D01*
X20073477Y41785493D01*
X19833899Y42365317D01*
X19390669Y42809321D01*
X18811265Y43049910D01*
X18183896Y43050458D01*
X17604072Y42810880D01*
X17160068Y42367650D01*
X17032944Y42061500D01*
X13422122Y42061500D01*
X13309577Y42229935D01*
X13197983Y42304500D01*
X13309577Y42379065D01*
X13676053Y42927535D01*
X13804742Y43574500D01*
X13676053Y44221465D01*
X13309577Y44769935D01*
X13197983Y44844500D01*
X13309577Y44919065D01*
X13434786Y45106454D01*
X13732516Y45165676D01*
X14065699Y45388301D01*
X24415196Y55737799D01*
X24415199Y55737801D01*
X24637824Y56070984D01*
X24716000Y56464000D01*
X24716000Y71551150D01*
X24755800Y71590950D01*
X24755800Y72690200D01*
X24735800Y72690200D01*
X24735800Y72944200D01*
X24755800Y72944200D01*
X24755800Y72964200D01*
X25009800Y72964200D01*
X25009800Y72944200D01*
X25009800Y72944200D01*
G37*
X25009800Y72944200D02*
X25029800Y72944200D01*
X25029800Y72690200D01*
X25009800Y72690200D01*
X25009800Y71590950D01*
X25067907Y71532843D01*
X25064258Y71514500D01*
X25192947Y70867535D01*
X25559423Y70319065D01*
X25671017Y70244500D01*
X25559423Y70169935D01*
X25192947Y69621465D01*
X25064258Y68974500D01*
X25192947Y68327535D01*
X25559423Y67779065D01*
X25671017Y67704500D01*
X25559423Y67629935D01*
X25192947Y67081465D01*
X25064258Y66434500D01*
X25192947Y65787535D01*
X25559423Y65239065D01*
X25671017Y65164500D01*
X25559423Y65089935D01*
X25192947Y64541465D01*
X25064258Y63894500D01*
X25192947Y63247535D01*
X25559423Y62699065D01*
X25671017Y62624500D01*
X25559423Y62549935D01*
X25192947Y62001465D01*
X25064258Y61354500D01*
X25192947Y60707535D01*
X25559423Y60159065D01*
X25671017Y60084500D01*
X25559423Y60009935D01*
X25192947Y59461465D01*
X25064258Y58814500D01*
X25192947Y58167535D01*
X25559423Y57619065D01*
X25671017Y57544500D01*
X25559423Y57469935D01*
X25192947Y56921465D01*
X25064258Y56274500D01*
X25192947Y55627535D01*
X25559423Y55079065D01*
X25671017Y55004500D01*
X25559423Y54929935D01*
X25192947Y54381465D01*
X25064258Y53734500D01*
X25192947Y53087535D01*
X25559423Y52539065D01*
X25671017Y52464500D01*
X25559423Y52389935D01*
X25192947Y51841465D01*
X25064258Y51194500D01*
X25192947Y50547535D01*
X25559423Y49999065D01*
X25671017Y49924500D01*
X25559423Y49849935D01*
X25446878Y49681500D01*
X22800005Y49681500D01*
X22800000Y49681501D01*
X22406984Y49603324D01*
X22073801Y49380699D01*
X21184801Y48491699D01*
X20962176Y48158516D01*
X20884000Y47765500D01*
X20884000Y47444562D01*
X20574864Y47135965D01*
X20334275Y46556561D01*
X20333727Y45929192D01*
X20573305Y45349368D01*
X21016535Y44905364D01*
X21595939Y44664775D01*
X22223308Y44664227D01*
X22803132Y44903805D01*
X23247136Y45347035D01*
X23487725Y45926439D01*
X23488273Y46553808D01*
X23248695Y47133632D01*
X22990338Y47392440D01*
X23225398Y47627500D01*
X25446878Y47627500D01*
X25559423Y47459065D01*
X25671017Y47384500D01*
X25559423Y47309935D01*
X25192947Y46761465D01*
X25064258Y46114500D01*
X25110123Y45883921D01*
X19851809Y40625607D01*
X20072929Y41158124D01*
X20073477Y41785493D01*
X19833899Y42365317D01*
X19390669Y42809321D01*
X18811265Y43049910D01*
X18183896Y43050458D01*
X17604072Y42810880D01*
X17160068Y42367650D01*
X17032944Y42061500D01*
X13422122Y42061500D01*
X13309577Y42229935D01*
X13197983Y42304500D01*
X13309577Y42379065D01*
X13676053Y42927535D01*
X13804742Y43574500D01*
X13676053Y44221465D01*
X13309577Y44769935D01*
X13197983Y44844500D01*
X13309577Y44919065D01*
X13434786Y45106454D01*
X13732516Y45165676D01*
X14065699Y45388301D01*
X24415196Y55737799D01*
X24415199Y55737801D01*
X24637824Y56070984D01*
X24716000Y56464000D01*
X24716000Y71551150D01*
X24755800Y71590950D01*
X24755800Y72690200D01*
X24735800Y72690200D01*
X24735800Y72944200D01*
X24755800Y72944200D01*
X24755800Y72964200D01*
X25009800Y72964200D01*
X25009800Y72944200D01*
G36*
X57326483Y69515619D02*
X58974799Y67867304D01*
X58974801Y67867301D01*
X59307984Y67644676D01*
X59373191Y67631706D01*
X59466000Y67613244D01*
X59466000Y67609250D01*
X59624750Y67450500D01*
X60100007Y67450500D01*
X60101000Y67450299D01*
X61601000Y67450299D01*
X61602068Y67450500D01*
X62077250Y67450500D01*
X62236000Y67609250D01*
X62236000Y67749810D01*
X62233898Y67754886D01*
X62377769Y67965448D01*
X62444201Y68293500D01*
X62444201Y68474637D01*
X62494000Y68424838D01*
X62494000Y63880107D01*
X62591321Y63390841D01*
X62444201Y63537961D01*
X62444201Y63813500D01*
X62386535Y64119968D01*
X62370526Y64144847D01*
X62377769Y64155448D01*
X62444201Y64483500D01*
X62444201Y65083500D01*
X62386535Y65389968D01*
X62370526Y65414847D01*
X62377769Y65425448D01*
X62444201Y65753500D01*
X62444201Y66353500D01*
X62386535Y66659968D01*
X62235172Y66895192D01*
X62236000Y66897190D01*
X62236000Y67037750D01*
X62077250Y67196500D01*
X61601993Y67196500D01*
X61601000Y67196701D01*
X60101000Y67196701D01*
X60099932Y67196500D01*
X59624750Y67196500D01*
X59508750Y67080500D01*
X59503005Y67080500D01*
X59503000Y67080501D01*
X59175191Y67015294D01*
X59109984Y67002324D01*
X58776801Y66779699D01*
X58776799Y66779696D01*
X56554301Y64557199D01*
X56331676Y64224016D01*
X56253500Y63831000D01*
X56253500Y60827397D01*
X52642612Y57216510D01*
X45526713Y57216510D01*
X45617500Y57435690D01*
X45617500Y57576250D01*
X45458750Y57735000D01*
X44359500Y57735000D01*
X44359500Y57715000D01*
X44105500Y57715000D01*
X44105500Y57735000D01*
X43006250Y57735000D01*
X42847500Y57576250D01*
X42847500Y57435690D01*
X42938287Y57216510D01*
X41788888Y57216510D01*
X41607000Y57398398D01*
X41607000Y60084495D01*
X41607001Y60084500D01*
X41528824Y60477515D01*
X41528824Y60477516D01*
X41306199Y60810699D01*
X40988699Y61128199D01*
X40655516Y61350824D01*
X40425701Y61396537D01*
X40425701Y61972000D01*
X40368035Y62278468D01*
X40352026Y62303347D01*
X40359269Y62313948D01*
X40425701Y62642000D01*
X40425701Y63242000D01*
X40368035Y63548468D01*
X40352026Y63573347D01*
X40359269Y63583948D01*
X40425701Y63912000D01*
X40425701Y64512000D01*
X40368035Y64818468D01*
X40352026Y64843347D01*
X40359269Y64853948D01*
X40406346Y65086423D01*
X40433687Y64948973D01*
X40656312Y64615790D01*
X42641431Y62630671D01*
X42696965Y62335532D01*
X42712974Y62310653D01*
X42705731Y62300052D01*
X42639299Y61972000D01*
X42639299Y61372000D01*
X42696965Y61065532D01*
X42712974Y61040653D01*
X42705731Y61030052D01*
X42639299Y60702000D01*
X42639299Y60102000D01*
X42696965Y59795532D01*
X42712974Y59770653D01*
X42705731Y59760052D01*
X42639299Y59432000D01*
X42639299Y58832000D01*
X42696965Y58525532D01*
X42848328Y58290308D01*
X42847500Y58288310D01*
X42847500Y58147750D01*
X43006250Y57989000D01*
X43481507Y57989000D01*
X43482500Y57988799D01*
X44982500Y57988799D01*
X44983568Y57989000D01*
X45458750Y57989000D01*
X45617500Y58147750D01*
X45617500Y58288310D01*
X45615398Y58293386D01*
X45759269Y58503948D01*
X45825701Y58832000D01*
X45825701Y59432000D01*
X45768035Y59738468D01*
X45752026Y59763347D01*
X45759269Y59773948D01*
X45825701Y60102000D01*
X45825701Y60702000D01*
X45816557Y60750598D01*
X46108699Y60945801D01*
X46108700Y60945802D01*
X48919397Y63756500D01*
X49957799Y63756500D01*
X49957799Y63213500D01*
X50015465Y62907032D01*
X50196587Y62625561D01*
X50472948Y62436731D01*
X50801000Y62370299D01*
X50919279Y62370299D01*
X51043179Y62287512D01*
X51551000Y62186500D01*
X53301000Y62186500D01*
X53808821Y62287512D01*
X54239331Y62575169D01*
X56826767Y65162606D01*
X56826770Y65162608D01*
X57114427Y65593118D01*
X57215439Y66100939D01*
X57215439Y69681809D01*
X57326483Y69515619D01*
X57326483Y69515619D01*
G37*
X57326483Y69515619D02*
X58974799Y67867304D01*
X58974801Y67867301D01*
X59307984Y67644676D01*
X59373191Y67631706D01*
X59466000Y67613244D01*
X59466000Y67609250D01*
X59624750Y67450500D01*
X60100007Y67450500D01*
X60101000Y67450299D01*
X61601000Y67450299D01*
X61602068Y67450500D01*
X62077250Y67450500D01*
X62236000Y67609250D01*
X62236000Y67749810D01*
X62233898Y67754886D01*
X62377769Y67965448D01*
X62444201Y68293500D01*
X62444201Y68474637D01*
X62494000Y68424838D01*
X62494000Y63880107D01*
X62591321Y63390841D01*
X62444201Y63537961D01*
X62444201Y63813500D01*
X62386535Y64119968D01*
X62370526Y64144847D01*
X62377769Y64155448D01*
X62444201Y64483500D01*
X62444201Y65083500D01*
X62386535Y65389968D01*
X62370526Y65414847D01*
X62377769Y65425448D01*
X62444201Y65753500D01*
X62444201Y66353500D01*
X62386535Y66659968D01*
X62235172Y66895192D01*
X62236000Y66897190D01*
X62236000Y67037750D01*
X62077250Y67196500D01*
X61601993Y67196500D01*
X61601000Y67196701D01*
X60101000Y67196701D01*
X60099932Y67196500D01*
X59624750Y67196500D01*
X59508750Y67080500D01*
X59503005Y67080500D01*
X59503000Y67080501D01*
X59175191Y67015294D01*
X59109984Y67002324D01*
X58776801Y66779699D01*
X58776799Y66779696D01*
X56554301Y64557199D01*
X56331676Y64224016D01*
X56253500Y63831000D01*
X56253500Y60827397D01*
X52642612Y57216510D01*
X45526713Y57216510D01*
X45617500Y57435690D01*
X45617500Y57576250D01*
X45458750Y57735000D01*
X44359500Y57735000D01*
X44359500Y57715000D01*
X44105500Y57715000D01*
X44105500Y57735000D01*
X43006250Y57735000D01*
X42847500Y57576250D01*
X42847500Y57435690D01*
X42938287Y57216510D01*
X41788888Y57216510D01*
X41607000Y57398398D01*
X41607000Y60084495D01*
X41607001Y60084500D01*
X41528824Y60477515D01*
X41528824Y60477516D01*
X41306199Y60810699D01*
X40988699Y61128199D01*
X40655516Y61350824D01*
X40425701Y61396537D01*
X40425701Y61972000D01*
X40368035Y62278468D01*
X40352026Y62303347D01*
X40359269Y62313948D01*
X40425701Y62642000D01*
X40425701Y63242000D01*
X40368035Y63548468D01*
X40352026Y63573347D01*
X40359269Y63583948D01*
X40425701Y63912000D01*
X40425701Y64512000D01*
X40368035Y64818468D01*
X40352026Y64843347D01*
X40359269Y64853948D01*
X40406346Y65086423D01*
X40433687Y64948973D01*
X40656312Y64615790D01*
X42641431Y62630671D01*
X42696965Y62335532D01*
X42712974Y62310653D01*
X42705731Y62300052D01*
X42639299Y61972000D01*
X42639299Y61372000D01*
X42696965Y61065532D01*
X42712974Y61040653D01*
X42705731Y61030052D01*
X42639299Y60702000D01*
X42639299Y60102000D01*
X42696965Y59795532D01*
X42712974Y59770653D01*
X42705731Y59760052D01*
X42639299Y59432000D01*
X42639299Y58832000D01*
X42696965Y58525532D01*
X42848328Y58290308D01*
X42847500Y58288310D01*
X42847500Y58147750D01*
X43006250Y57989000D01*
X43481507Y57989000D01*
X43482500Y57988799D01*
X44982500Y57988799D01*
X44983568Y57989000D01*
X45458750Y57989000D01*
X45617500Y58147750D01*
X45617500Y58288310D01*
X45615398Y58293386D01*
X45759269Y58503948D01*
X45825701Y58832000D01*
X45825701Y59432000D01*
X45768035Y59738468D01*
X45752026Y59763347D01*
X45759269Y59773948D01*
X45825701Y60102000D01*
X45825701Y60702000D01*
X45816557Y60750598D01*
X46108699Y60945801D01*
X46108700Y60945802D01*
X48919397Y63756500D01*
X49957799Y63756500D01*
X49957799Y63213500D01*
X50015465Y62907032D01*
X50196587Y62625561D01*
X50472948Y62436731D01*
X50801000Y62370299D01*
X50919279Y62370299D01*
X51043179Y62287512D01*
X51551000Y62186500D01*
X53301000Y62186500D01*
X53808821Y62287512D01*
X54239331Y62575169D01*
X56826767Y65162606D01*
X56826770Y65162608D01*
X57114427Y65593118D01*
X57215439Y66100939D01*
X57215439Y69681809D01*
X57326483Y69515619D01*
G36*
X43410948Y69633731D02*
X43739000Y69567299D01*
X44683774Y69567299D01*
X44592673Y69476199D01*
X44496000Y69242810D01*
X44496000Y68752250D01*
X44654750Y68593500D01*
X45754000Y68593500D01*
X45754000Y68613500D01*
X46008000Y68613500D01*
X46008000Y68593500D01*
X46028000Y68593500D01*
X46028000Y68339500D01*
X46008000Y68339500D01*
X46008000Y67340250D01*
X46166750Y67181500D01*
X46757309Y67181500D01*
X46990698Y67278173D01*
X47114803Y67402278D01*
X47226587Y67228561D01*
X47502948Y67039731D01*
X47831000Y66973299D01*
X49331000Y66973299D01*
X49637468Y67030965D01*
X49918939Y67212087D01*
X50074324Y67439500D01*
X51424000Y67439500D01*
X51478290Y67450299D01*
X52301000Y67450299D01*
X52302068Y67450500D01*
X52777250Y67450500D01*
X52936000Y67609250D01*
X52936000Y67749810D01*
X52933898Y67754886D01*
X53077769Y67965448D01*
X53144201Y68293500D01*
X53144201Y68536500D01*
X53301000Y68536500D01*
X53808821Y68637512D01*
X54239331Y68925169D01*
X54561439Y69247277D01*
X54561439Y66650600D01*
X53120468Y65209630D01*
X53086535Y65389968D01*
X53070526Y65414847D01*
X53077769Y65425448D01*
X53144201Y65753500D01*
X53144201Y66353500D01*
X53086535Y66659968D01*
X52935172Y66895192D01*
X52936000Y66897190D01*
X52936000Y67037750D01*
X52777250Y67196500D01*
X52301993Y67196500D01*
X52301000Y67196701D01*
X50801000Y67196701D01*
X50799932Y67196500D01*
X50324750Y67196500D01*
X50166000Y67037750D01*
X50166000Y67033755D01*
X50007984Y67002324D01*
X49900490Y66930499D01*
X48240504Y66930499D01*
X48240499Y66930500D01*
X47912690Y66865293D01*
X47847483Y66852323D01*
X47514300Y66629698D01*
X46123602Y65239000D01*
X45825701Y65239000D01*
X45825701Y65782000D01*
X45768035Y66088468D01*
X45586913Y66369939D01*
X45310552Y66558769D01*
X44982500Y66625201D01*
X44091697Y66625201D01*
X42536148Y68180750D01*
X44496000Y68180750D01*
X44496000Y67690190D01*
X44592673Y67456801D01*
X44771302Y67278173D01*
X45004691Y67181500D01*
X45595250Y67181500D01*
X45754000Y67340250D01*
X45754000Y68339500D01*
X44654750Y68339500D01*
X44496000Y68180750D01*
X42536148Y68180750D01*
X42199661Y68517237D01*
X42062412Y68608944D01*
X42295759Y68764861D01*
X43264615Y69733717D01*
X43410948Y69633731D01*
X43410948Y69633731D01*
G37*
X43410948Y69633731D02*
X43739000Y69567299D01*
X44683774Y69567299D01*
X44592673Y69476199D01*
X44496000Y69242810D01*
X44496000Y68752250D01*
X44654750Y68593500D01*
X45754000Y68593500D01*
X45754000Y68613500D01*
X46008000Y68613500D01*
X46008000Y68593500D01*
X46028000Y68593500D01*
X46028000Y68339500D01*
X46008000Y68339500D01*
X46008000Y67340250D01*
X46166750Y67181500D01*
X46757309Y67181500D01*
X46990698Y67278173D01*
X47114803Y67402278D01*
X47226587Y67228561D01*
X47502948Y67039731D01*
X47831000Y66973299D01*
X49331000Y66973299D01*
X49637468Y67030965D01*
X49918939Y67212087D01*
X50074324Y67439500D01*
X51424000Y67439500D01*
X51478290Y67450299D01*
X52301000Y67450299D01*
X52302068Y67450500D01*
X52777250Y67450500D01*
X52936000Y67609250D01*
X52936000Y67749810D01*
X52933898Y67754886D01*
X53077769Y67965448D01*
X53144201Y68293500D01*
X53144201Y68536500D01*
X53301000Y68536500D01*
X53808821Y68637512D01*
X54239331Y68925169D01*
X54561439Y69247277D01*
X54561439Y66650600D01*
X53120468Y65209630D01*
X53086535Y65389968D01*
X53070526Y65414847D01*
X53077769Y65425448D01*
X53144201Y65753500D01*
X53144201Y66353500D01*
X53086535Y66659968D01*
X52935172Y66895192D01*
X52936000Y66897190D01*
X52936000Y67037750D01*
X52777250Y67196500D01*
X52301993Y67196500D01*
X52301000Y67196701D01*
X50801000Y67196701D01*
X50799932Y67196500D01*
X50324750Y67196500D01*
X50166000Y67037750D01*
X50166000Y67033755D01*
X50007984Y67002324D01*
X49900490Y66930499D01*
X48240504Y66930499D01*
X48240499Y66930500D01*
X47912690Y66865293D01*
X47847483Y66852323D01*
X47514300Y66629698D01*
X46123602Y65239000D01*
X45825701Y65239000D01*
X45825701Y65782000D01*
X45768035Y66088468D01*
X45586913Y66369939D01*
X45310552Y66558769D01*
X44982500Y66625201D01*
X44091697Y66625201D01*
X42536148Y68180750D01*
X44496000Y68180750D01*
X44496000Y67690190D01*
X44592673Y67456801D01*
X44771302Y67278173D01*
X45004691Y67181500D01*
X45595250Y67181500D01*
X45754000Y67340250D01*
X45754000Y68339500D01*
X44654750Y68339500D01*
X44496000Y68180750D01*
X42536148Y68180750D01*
X42199661Y68517237D01*
X42062412Y68608944D01*
X42295759Y68764861D01*
X43264615Y69733717D01*
X43410948Y69633731D01*
G36*
X37375958Y79459701D02*
X36889000Y79459701D01*
X36582532Y79402035D01*
X36301061Y79220913D01*
X36252980Y79150545D01*
X36248698Y79154827D01*
X36015309Y79251500D01*
X35424750Y79251500D01*
X35266000Y79092750D01*
X35266000Y78118500D01*
X35286000Y78118500D01*
X35286000Y77864500D01*
X35266000Y77864500D01*
X35266000Y76890250D01*
X35424750Y76731500D01*
X36015309Y76731500D01*
X36248698Y76828173D01*
X36251110Y76830585D01*
X36284587Y76778561D01*
X36560948Y76589731D01*
X36889000Y76523299D01*
X37700097Y76523299D01*
X37560748Y76430189D01*
X37560746Y76430186D01*
X35748631Y74618072D01*
X35526006Y74284889D01*
X35447830Y73891873D01*
X35447830Y71808023D01*
X35526006Y71415007D01*
X35748631Y71081824D01*
X38012418Y68818038D01*
X30188360Y68818038D01*
X29305699Y69700699D01*
X28972516Y69923324D01*
X28674786Y69982546D01*
X28549577Y70169935D01*
X28437983Y70244500D01*
X28549577Y70319065D01*
X28916053Y70867535D01*
X29044742Y71514500D01*
X28916053Y72161465D01*
X28549577Y72709935D01*
X28248204Y72911306D01*
X28465373Y73084632D01*
X28749027Y73598343D01*
X28770858Y73695474D01*
X28724460Y73784342D01*
X31046425Y71462377D01*
X30824475Y70927861D01*
X30823927Y70300492D01*
X31063505Y69720668D01*
X31506735Y69276664D01*
X32086139Y69036075D01*
X32713508Y69035527D01*
X33293332Y69275105D01*
X33737336Y69718335D01*
X33977925Y70297739D01*
X33978473Y70925108D01*
X33738895Y71504932D01*
X33364565Y71879916D01*
X33350024Y71953016D01*
X33127399Y72286199D01*
X29485453Y75928145D01*
X31263058Y77705750D01*
X33754000Y77705750D01*
X33754000Y77240190D01*
X33850673Y77006801D01*
X34029302Y76828173D01*
X34262691Y76731500D01*
X34853250Y76731500D01*
X35012000Y76890250D01*
X35012000Y77864500D01*
X33912750Y77864500D01*
X33754000Y77705750D01*
X31263058Y77705750D01*
X32300118Y78742810D01*
X33754000Y78742810D01*
X33754000Y78277250D01*
X33912750Y78118500D01*
X35012000Y78118500D01*
X35012000Y79092750D01*
X34853250Y79251500D01*
X34262691Y79251500D01*
X34029302Y79154827D01*
X33850673Y78976199D01*
X33754000Y78742810D01*
X32300118Y78742810D01*
X33134691Y79577383D01*
X37258481Y79577383D01*
X37375958Y79459701D01*
X37375958Y79459701D01*
G37*
X37375958Y79459701D02*
X36889000Y79459701D01*
X36582532Y79402035D01*
X36301061Y79220913D01*
X36252980Y79150545D01*
X36248698Y79154827D01*
X36015309Y79251500D01*
X35424750Y79251500D01*
X35266000Y79092750D01*
X35266000Y78118500D01*
X35286000Y78118500D01*
X35286000Y77864500D01*
X35266000Y77864500D01*
X35266000Y76890250D01*
X35424750Y76731500D01*
X36015309Y76731500D01*
X36248698Y76828173D01*
X36251110Y76830585D01*
X36284587Y76778561D01*
X36560948Y76589731D01*
X36889000Y76523299D01*
X37700097Y76523299D01*
X37560748Y76430189D01*
X37560746Y76430186D01*
X35748631Y74618072D01*
X35526006Y74284889D01*
X35447830Y73891873D01*
X35447830Y71808023D01*
X35526006Y71415007D01*
X35748631Y71081824D01*
X38012418Y68818038D01*
X30188360Y68818038D01*
X29305699Y69700699D01*
X28972516Y69923324D01*
X28674786Y69982546D01*
X28549577Y70169935D01*
X28437983Y70244500D01*
X28549577Y70319065D01*
X28916053Y70867535D01*
X29044742Y71514500D01*
X28916053Y72161465D01*
X28549577Y72709935D01*
X28248204Y72911306D01*
X28465373Y73084632D01*
X28749027Y73598343D01*
X28770858Y73695474D01*
X28724460Y73784342D01*
X31046425Y71462377D01*
X30824475Y70927861D01*
X30823927Y70300492D01*
X31063505Y69720668D01*
X31506735Y69276664D01*
X32086139Y69036075D01*
X32713508Y69035527D01*
X33293332Y69275105D01*
X33737336Y69718335D01*
X33977925Y70297739D01*
X33978473Y70925108D01*
X33738895Y71504932D01*
X33364565Y71879916D01*
X33350024Y71953016D01*
X33127399Y72286199D01*
X29485453Y75928145D01*
X31263058Y77705750D01*
X33754000Y77705750D01*
X33754000Y77240190D01*
X33850673Y77006801D01*
X34029302Y76828173D01*
X34262691Y76731500D01*
X34853250Y76731500D01*
X35012000Y76890250D01*
X35012000Y77864500D01*
X33912750Y77864500D01*
X33754000Y77705750D01*
X31263058Y77705750D01*
X32300118Y78742810D01*
X33754000Y78742810D01*
X33754000Y78277250D01*
X33912750Y78118500D01*
X35012000Y78118500D01*
X35012000Y79092750D01*
X34853250Y79251500D01*
X34262691Y79251500D01*
X34029302Y79154827D01*
X33850673Y78976199D01*
X33754000Y78742810D01*
X32300118Y78742810D01*
X33134691Y79577383D01*
X37258481Y79577383D01*
X37375958Y79459701D01*
G36*
X46213799Y74727804D02*
X46213801Y74727801D01*
X46546984Y74505176D01*
X46570648Y74500469D01*
X46887130Y74437516D01*
X47011948Y74352231D01*
X47204626Y74313213D01*
X46789773Y73898360D01*
X46352972Y73898742D01*
X45773148Y73659164D01*
X45329144Y73215934D01*
X45220256Y72953701D01*
X43739000Y72953701D01*
X43432532Y72896035D01*
X43151061Y72714913D01*
X42962231Y72438552D01*
X42911090Y72186009D01*
X42612801Y71986699D01*
X42582201Y71956099D01*
X42582201Y72110500D01*
X42524535Y72416968D01*
X42343413Y72698439D01*
X42307902Y72722703D01*
X42337824Y72767484D01*
X42361651Y72887269D01*
X42416001Y73160500D01*
X42416000Y73160505D01*
X42416000Y74109775D01*
X42475468Y74120965D01*
X42756939Y74302087D01*
X42861848Y74455626D01*
X42949302Y74368173D01*
X43182691Y74271500D01*
X43803250Y74271500D01*
X43962000Y74430250D01*
X43962000Y75006500D01*
X43942000Y75006500D01*
X43942000Y75060250D01*
X43962000Y75080250D01*
X43962000Y75253500D01*
X44216000Y75253500D01*
X44216000Y75080250D01*
X44289750Y75006500D01*
X44216000Y75006500D01*
X44216000Y74430250D01*
X44374750Y74271500D01*
X44995309Y74271500D01*
X45228698Y74368173D01*
X45407327Y74546801D01*
X45504000Y74780190D01*
X45504000Y74847750D01*
X45345250Y75006500D01*
X45200517Y75006500D01*
X45228698Y75018173D01*
X45407327Y75196801D01*
X45458080Y75319330D01*
X45504000Y75365250D01*
X45504000Y75389500D01*
X45552102Y75389500D01*
X46213799Y74727804D01*
X46213799Y74727804D01*
G37*
X46213799Y74727804D02*
X46213801Y74727801D01*
X46546984Y74505176D01*
X46570648Y74500469D01*
X46887130Y74437516D01*
X47011948Y74352231D01*
X47204626Y74313213D01*
X46789773Y73898360D01*
X46352972Y73898742D01*
X45773148Y73659164D01*
X45329144Y73215934D01*
X45220256Y72953701D01*
X43739000Y72953701D01*
X43432532Y72896035D01*
X43151061Y72714913D01*
X42962231Y72438552D01*
X42911090Y72186009D01*
X42612801Y71986699D01*
X42582201Y71956099D01*
X42582201Y72110500D01*
X42524535Y72416968D01*
X42343413Y72698439D01*
X42307902Y72722703D01*
X42337824Y72767484D01*
X42361651Y72887269D01*
X42416001Y73160500D01*
X42416000Y73160505D01*
X42416000Y74109775D01*
X42475468Y74120965D01*
X42756939Y74302087D01*
X42861848Y74455626D01*
X42949302Y74368173D01*
X43182691Y74271500D01*
X43803250Y74271500D01*
X43962000Y74430250D01*
X43962000Y75006500D01*
X43942000Y75006500D01*
X43942000Y75060250D01*
X43962000Y75080250D01*
X43962000Y75253500D01*
X44216000Y75253500D01*
X44216000Y75080250D01*
X44289750Y75006500D01*
X44216000Y75006500D01*
X44216000Y74430250D01*
X44374750Y74271500D01*
X44995309Y74271500D01*
X45228698Y74368173D01*
X45407327Y74546801D01*
X45504000Y74780190D01*
X45504000Y74847750D01*
X45345250Y75006500D01*
X45200517Y75006500D01*
X45228698Y75018173D01*
X45407327Y75196801D01*
X45458080Y75319330D01*
X45504000Y75365250D01*
X45504000Y75389500D01*
X45552102Y75389500D01*
X46213799Y74727804D01*
G36*
X27181500Y74181500D02*
X27201500Y74181500D01*
X27201500Y73927500D01*
X27181500Y73927500D01*
X27181500Y73907500D01*
X26927500Y73907500D01*
X26927500Y73927500D01*
X26907500Y73927500D01*
X26907500Y74181500D01*
X26927500Y74181500D01*
X26927500Y74201500D01*
X27181500Y74201500D01*
X27181500Y74181500D01*
X27181500Y74181500D01*
G37*
X27181500Y74181500D02*
X27201500Y74181500D01*
X27201500Y73927500D01*
X27181500Y73927500D01*
X27181500Y73907500D01*
X26927500Y73907500D01*
X26927500Y73927500D01*
X26907500Y73927500D01*
X26907500Y74181500D01*
X26927500Y74181500D01*
X26927500Y74201500D01*
X27181500Y74201500D01*
X27181500Y74181500D01*
G36*
X52976669Y81088831D02*
X52689012Y80658321D01*
X52588000Y80150500D01*
X52588000Y78172540D01*
X52393016Y78302824D01*
X52052872Y78370483D01*
X51928052Y78455769D01*
X51600000Y78522201D01*
X50040000Y78522201D01*
X49733532Y78464535D01*
X49452061Y78283413D01*
X49347152Y78129874D01*
X49259698Y78217327D01*
X49026309Y78314000D01*
X48405750Y78314000D01*
X48247000Y78155250D01*
X48247000Y77572201D01*
X47993000Y77572201D01*
X47993000Y78155250D01*
X47834250Y78314000D01*
X47213691Y78314000D01*
X46980302Y78217327D01*
X46801673Y78038699D01*
X46779705Y77985663D01*
X46660469Y78065334D01*
X46585738Y78080199D01*
X46267454Y78143510D01*
X45068087Y78143510D01*
X43486600Y79724998D01*
X43486600Y79874538D01*
X43526404Y79914273D01*
X43800335Y79639864D01*
X44379739Y79399275D01*
X45007108Y79398727D01*
X45586932Y79638305D01*
X46030936Y80081535D01*
X46271525Y80660939D01*
X46272073Y81288308D01*
X46266708Y81301293D01*
X53189131Y81301293D01*
X52976669Y81088831D01*
X52976669Y81088831D01*
G37*
X52976669Y81088831D02*
X52689012Y80658321D01*
X52588000Y80150500D01*
X52588000Y78172540D01*
X52393016Y78302824D01*
X52052872Y78370483D01*
X51928052Y78455769D01*
X51600000Y78522201D01*
X50040000Y78522201D01*
X49733532Y78464535D01*
X49452061Y78283413D01*
X49347152Y78129874D01*
X49259698Y78217327D01*
X49026309Y78314000D01*
X48405750Y78314000D01*
X48247000Y78155250D01*
X48247000Y77572201D01*
X47993000Y77572201D01*
X47993000Y78155250D01*
X47834250Y78314000D01*
X47213691Y78314000D01*
X46980302Y78217327D01*
X46801673Y78038699D01*
X46779705Y77985663D01*
X46660469Y78065334D01*
X46585738Y78080199D01*
X46267454Y78143510D01*
X45068087Y78143510D01*
X43486600Y79724998D01*
X43486600Y79874538D01*
X43526404Y79914273D01*
X43800335Y79639864D01*
X44379739Y79399275D01*
X45007108Y79398727D01*
X45586932Y79638305D01*
X46030936Y80081535D01*
X46271525Y80660939D01*
X46272073Y81288308D01*
X46266708Y81301293D01*
X53189131Y81301293D01*
X52976669Y81088831D01*
G36*
X69777729Y84900197D02*
X69922395Y84840126D01*
X69878392Y84686713D01*
X70679000Y83886105D01*
X70693143Y83900247D01*
X70872748Y83720642D01*
X70858605Y83706500D01*
X70872748Y83692357D01*
X70693143Y83512752D01*
X70679000Y83526895D01*
X69878392Y82726287D01*
X69947857Y82484103D01*
X70245608Y82377876D01*
X68499132Y80631400D01*
X66014662Y80631400D01*
X65706065Y80940536D01*
X65572401Y80996038D01*
X68490561Y83914198D01*
X69269856Y83914198D01*
X69297638Y83359132D01*
X69456603Y82975357D01*
X69698787Y82905892D01*
X70499395Y83706500D01*
X69698787Y84507108D01*
X69456603Y84437643D01*
X69269856Y83914198D01*
X68490561Y83914198D01*
X69627276Y85050913D01*
X69777729Y84900197D01*
X69777729Y84900197D01*
G37*
X69777729Y84900197D02*
X69922395Y84840126D01*
X69878392Y84686713D01*
X70679000Y83886105D01*
X70693143Y83900247D01*
X70872748Y83720642D01*
X70858605Y83706500D01*
X70872748Y83692357D01*
X70693143Y83512752D01*
X70679000Y83526895D01*
X69878392Y82726287D01*
X69947857Y82484103D01*
X70245608Y82377876D01*
X68499132Y80631400D01*
X66014662Y80631400D01*
X65706065Y80940536D01*
X65572401Y80996038D01*
X68490561Y83914198D01*
X69269856Y83914198D01*
X69297638Y83359132D01*
X69456603Y82975357D01*
X69698787Y82905892D01*
X70499395Y83706500D01*
X69698787Y84507108D01*
X69456603Y84437643D01*
X69269856Y83914198D01*
X68490561Y83914198D01*
X69627276Y85050913D01*
X69777729Y84900197D01*
G36*
X10458667Y93592136D02*
X10458667Y82893803D01*
X10149531Y82585206D01*
X10125111Y82526396D01*
X6961400Y85690108D01*
X6961400Y86482169D01*
X7152308Y86392514D01*
X7382200Y86513181D01*
X7382200Y87707000D01*
X7636200Y87707000D01*
X7636200Y86513181D01*
X7866092Y86392514D01*
X8390558Y86638817D01*
X8780845Y87067076D01*
X8950676Y87477110D01*
X8829355Y87707000D01*
X7636200Y87707000D01*
X7382200Y87707000D01*
X7362200Y87707000D01*
X7362200Y87961000D01*
X7382200Y87961000D01*
X7382200Y87981000D01*
X7636200Y87981000D01*
X7636200Y87961000D01*
X8829355Y87961000D01*
X8950676Y88190890D01*
X8780845Y88600924D01*
X8428161Y88987921D01*
X8727872Y89188182D01*
X9091400Y89732240D01*
X9219054Y90374000D01*
X9091400Y91015760D01*
X8727872Y91559818D01*
X8601885Y91644000D01*
X8727872Y91728182D01*
X9091400Y92272240D01*
X9219054Y92914000D01*
X9091400Y93555760D01*
X8727872Y94099818D01*
X8601885Y94184000D01*
X8727872Y94268182D01*
X9091400Y94812240D01*
X9115816Y94934987D01*
X10458667Y93592136D01*
X10458667Y93592136D01*
G37*
X10458667Y93592136D02*
X10458667Y82893803D01*
X10149531Y82585206D01*
X10125111Y82526396D01*
X6961400Y85690108D01*
X6961400Y86482169D01*
X7152308Y86392514D01*
X7382200Y86513181D01*
X7382200Y87707000D01*
X7636200Y87707000D01*
X7636200Y86513181D01*
X7866092Y86392514D01*
X8390558Y86638817D01*
X8780845Y87067076D01*
X8950676Y87477110D01*
X8829355Y87707000D01*
X7636200Y87707000D01*
X7382200Y87707000D01*
X7362200Y87707000D01*
X7362200Y87961000D01*
X7382200Y87961000D01*
X7382200Y87981000D01*
X7636200Y87981000D01*
X7636200Y87961000D01*
X8829355Y87961000D01*
X8950676Y88190890D01*
X8780845Y88600924D01*
X8428161Y88987921D01*
X8727872Y89188182D01*
X9091400Y89732240D01*
X9219054Y90374000D01*
X9091400Y91015760D01*
X8727872Y91559818D01*
X8601885Y91644000D01*
X8727872Y91728182D01*
X9091400Y92272240D01*
X9219054Y92914000D01*
X9091400Y93555760D01*
X8727872Y94099818D01*
X8601885Y94184000D01*
X8727872Y94268182D01*
X9091400Y94812240D01*
X9115816Y94934987D01*
X10458667Y93592136D01*
G36*
X67752535Y14091064D02*
X68331939Y13850475D01*
X68959308Y13849927D01*
X69011397Y13871450D01*
X69802000Y13871450D01*
X69802000Y13280891D01*
X69898673Y13047502D01*
X70077301Y12868873D01*
X70310690Y12772200D01*
X70901250Y12772200D01*
X71060000Y12930950D01*
X71060000Y14030200D01*
X69960750Y14030200D01*
X69802000Y13871450D01*
X69011397Y13871450D01*
X69539132Y14089505D01*
X69847557Y14397393D01*
X69960750Y14284200D01*
X71060000Y14284200D01*
X71060000Y14304200D01*
X71314000Y14304200D01*
X71314000Y14284200D01*
X71334000Y14284200D01*
X71334000Y14030200D01*
X71314000Y14030200D01*
X71314000Y12930950D01*
X71472750Y12772200D01*
X72063310Y12772200D01*
X72110001Y12791540D01*
X72110001Y12612399D01*
X66479737Y6982135D01*
X65446600Y6985399D01*
X65446600Y14400200D01*
X67443938Y14400200D01*
X67752535Y14091064D01*
X67752535Y14091064D01*
G37*
X67752535Y14091064D02*
X68331939Y13850475D01*
X68959308Y13849927D01*
X69011397Y13871450D01*
X69802000Y13871450D01*
X69802000Y13280891D01*
X69898673Y13047502D01*
X70077301Y12868873D01*
X70310690Y12772200D01*
X70901250Y12772200D01*
X71060000Y12930950D01*
X71060000Y14030200D01*
X69960750Y14030200D01*
X69802000Y13871450D01*
X69011397Y13871450D01*
X69539132Y14089505D01*
X69847557Y14397393D01*
X69960750Y14284200D01*
X71060000Y14284200D01*
X71060000Y14304200D01*
X71314000Y14304200D01*
X71314000Y14284200D01*
X71334000Y14284200D01*
X71334000Y14030200D01*
X71314000Y14030200D01*
X71314000Y12930950D01*
X71472750Y12772200D01*
X72063310Y12772200D01*
X72110001Y12791540D01*
X72110001Y12612399D01*
X66479737Y6982135D01*
X65446600Y6985399D01*
X65446600Y14400200D01*
X67443938Y14400200D01*
X67752535Y14091064D01*
M02*
